<?xml version="1.0" encoding="UTF-8"?>
<svg id="zkouska_s_hlavamaa" data-name="zkouska s hlavamaa" xmlns="http://www.w3.org/2000/svg" viewBox="0 0 288.67 288.67">
  <path d="M157.95,82.04c.57-.17.73.16,1,.29.56.26,2.96,2.01,3.16,2.01.07,0,.2-.39.57-.29,1.2.33,2.42,1.96,2.58,2.01.21.06.66-.06.72,0,.05.05-.08.29,0,.43.1.17,1.09,1.16,1.29,1.29,1.24.82,3.12.57,4.16,2.44.3.54,2.05,2.45,3.01,2.73.42.12.53,1.03.72,1.29.39.56,1.43,1.2,1.72,1.72.08.14-.05.38,0,.43.06.06.51-.06.72,0,.23.07,1.82,2.01,1.86,2.15.11.38-.11,1.05,0,1.43.16.57,2.04,1.54,2.44,2.15l.14-.57c.47.33.87.33,1.43.29-.15-.47.24-.57.29-.72.06-.21-.06-.66,0-.72.05-.05.29.08.43,0,.2-.11.43-.53.57-.57.23-.07,1.21-.21,1.29-.29.07-.07-.07-.79,0-.86.05-.05.28.06.43,0,.46-.19,1.33-1.06,1.72-1.15.29-.06,1.43-.06,1.72,0,.1.02.76.55.86.57.67.14,1.39-.31,1.86.43s1.97,1.87,2.01,2.01c.07.24-.07.62,0,.86.02.09.75.8.86,1.15.07.2-.06.65,0,.72.07.07.73-.05,1,0,.11.02.18.26.29.29.41.08,1.61.03,1.86.29.05.05-.05.52,0,.57.13.13,1.23-.52,1.72-.29.06.39-.09.95,0,1.29s.88.43,1.15.86c.37.59.89,1.01,1.15,1.43.03.06.28.54.29.57.07.33-.06.8,0,1.15.02.11.27.18.29.29.06.45.06,1.27,0,1.72-.01.11-.27.18-.29.29-.06.35.07.81,0,1.15-.02.11-.25.17-.29.29-.21.74-.39,1.38-.86,2.01-.38.5-1.02.93-1.43,1.43,0,.22.75.94.86,1.15.2.36.73,1.36.86,1.72.32.88.47,3.83.29,4.88-.02.11-.25.17-.29.29-.05.18.06.41,0,.57-.41,1.1-2,3.2-3.01,3.87-.09.06-1.63.83-1.72.86-.25.07-1.05.27-1.15.29-.48.07-1.07-.05-1.58,0,.16-1.18-.85-.25-1.58-.29l-1.58-.86c.18.63-.44,1.05-.29,1.58.05.16.53.42.57.57.81,2.92.52,7.11.86,10.33,1.34,12.72-.94,27.62-4.3,39.02-.07.25-1.08.9-1.15,1.15-.12.45.12,1.27,0,1.72-.11.39-.53.01-.29.86.27.92-6.07,14.94-7.32,15.64-.69.39-.28.33-.72,1.29-.45.98-1.58,2.42-2.3,3.44-2.59,3.74-7.37,10.08-11.33,12.77-.54.37-.61.79-1.58.57v.86c-.84-.14-.45.21-.57.43-.27.49-2.73,2.31-3.3,2.73-5.46,4-12.16,7.31-18.65,9.47-.26.09-.63-.15-.86.29h-.14c.11-.83-.14-.45-.43-.57-.2-.08-.3-.45-.86-.29-.19.39-1.24.52-1.29.57-.07.07.07.79,0,.86-.05.05-.28-.06-.43,0-.12.05-.17.25-.29.29-.75.27-2.56.79-3.16.29-1.71,1.14-4.34.86-6.03,1.15-3.55.61-8.41.33-12.05,0-1.47-.13-3.15-.95-4.59-1.15-2.87-.4-5.09-.81-7.75-2.01-1.84-.83-3.54-1.78-5.45-2.58-.15-.06-.38.05-.43,0-.06-.06.04-1.64-.72-.86-.55-1.11-.74-.69-1.72-1.15-.68-.32-.93-.61-1-1.43-.72.3-3.6-2.24-3.73-2.73-.16-.56.15-1.1-.72-1.58-.45-.25-.23.14-.72-.72-.17-.31-.8-1.23-.86-1.43-.07-.25.07-.64,0-.86-.34-1.04-.81-1.66-1.15-2.87-.06-.2-.81-.66-.86-.86-.07-.24.06-.61,0-.86-.03-.11-.26-.18-.29-.29-.06-.25.05-.59,0-.86-.02-.11-.29-.19-.29-.29,0-.08.57-1.35.57-1.43,0-.1-.87-.86.29-.72v-.57h-.57c.29-.75-.41-2.05-.29-2.44.06-.19.55-1.02.57-1.15.18-.97-.57-2.16-.29-3.3.51.33.93-.76.86-1-.03-.12-.29-.19-.29-.29s.27-.18.29-.29c.16-.95-.51-1.77-.29-2.58.13-.46.82-.39.86-.43.06-.06-.06-.51,0-.72.04-.13.39-.2.29-.57-.23-.85.18-.47.29-.86s-.11-1.05,0-1.43,1.04-.49,1.15-.86c.08-.29-.16-.58.29-.86.31-.19.53-.16.86-.14l-.57-.29c.07-.49-.1-1.13,0-1.58.02-.1.5-.69.57-.86.12-.29-.26-.55.57-.43-.16-1.42,1.71-2.82,2.01-3.87.09-.3.47-1.76.57-1.86.06-.06.51.06.72,0,.32-.1.59-.82,1.72-1.15.8-.23.25-2.4.43-2.58.06-.06.52.07.72,0,.35-.12,1.04-.83,1.15-.86.21-.06.66.06.72,0,.05-.05-.06-.28,0-.43.08-.2.49-.66.57-.86.46-1.09,1-2.37,1.43-3.44.34-.83,1.06-.87,1.15-1.15.34-1.16.36-.49,1.15-1.43.62-.74.88-.79,1.15-1.72.14-.49,1.37-.66,1.43-.72.28-.28-.62-.68,1-1.15.67-.19.75-1.43,1-1.86.1-.17,1.47-1.55,1.58-1.58.41-.11,1.11.08,1.58,0l.29-.86c-.96-.03-1.3-.87-1.15-1.72h.57c-.23-.96,1.66-.76,1.43-1.72h.86l-.14-.57h-.43c.59-.65,0-.92,0-1,0-.1.26-.17.29-.29.05-.22-.05-.66,0-.72.05-.05.28.06.43,0,.38-.16.47-.17.86-.29.36-.1.39-.66.43-.72.14-.19.54-.45.57-.57.16-.56-.15-1.1.72-1.58.14-.08.38.05.43,0,.08-.08-.07-.74,0-1,.1-.36,1.05-.5,1.15-.86.14-.51-.09-1.09.29-1.72.26-.44,1.3-1.56,1.43-2.01.48-1.68.96-1.27,1.43-2.3.43-.93.82-1.71.57-2.58-.21-.73.51-.9.57-1.15.1-.38-.09-1.02,0-1.43.16-.73,1.04-1.8.86-2.87-.13-.77.13-1.24,0-2.01-.11-.64.07-1.47,0-2.15-.1-.1-.8.21-1,.29-.71.28-3.78,1.87-4.3,1.72-.12-.03-.19-.29-.29-.29s-.18.27-.29.29c-.63.11-3.11.11-3.73,0-.66-.12-2.55-1.52-2.87-1.43-.12.03-.19.29-.29.29-.07,0-1.24-.52-1.29-.57s.08-.29,0-.43c-.37-.67-2.75-2.43-2.87-2.87s.09-1.21,0-1.72c-.02-.11-.54-1.01-.57-1.15-.27-1.16.75-1.33.86-1.72.06-.23.28-1.08.29-1.15.09-.6-.14-1.51,0-2.01.1-.36,1.05-.5,1.15-.86.05-.19.05-1.24,0-1.43-.03-.1-.77-.82-.86-1.15-.07-.24.06-.6,0-.86-.02-.11-.27-.18-.29-.29-.05-.37-.07-1.39,0-1.72s.7-.88.86-1.15c.61-1.02,1.42-2.12,1.72-3.16.05-.16.53-.42.57-.57.05-.18.05-.97,0-1.15-.12-.44-1.43-.44-1.15-1.43.05-.16.53-.42.57-.57.05-.2.04-.91,0-1.15-.02-.1-.24-.16-.29-.29-.12-.29.26-.54-.57-.43-.36-.89.5-1.32.57-1.58.12-.45-.12-1.27,0-1.72.04-.15.47-.38.57-.57.3-.55.41-1.15.57-1.72.2-.7,2.45-1.25,2.58-1.72.07-.24-.07-.62,0-.86.23-.84,1.35-.61,1.86-.72.27-.06,1.16-.65,1.43-.57.52.14,2.38-.29,3.16-.57.16-.06.75-.55.86-.57,1.19-.27.85.15,1,.43.59,1.06,1.37.54,2.15.72.12.03.2.39.57.29.22-.06.2-.54.57,0,.54-.3.33-.66.43-1,.04-.14.45-.38.57-.57.53-.88.77-3.03,1.15-4.3.08-.28,1.31-1.73,1.43-2.3.08-.36-.09-1.48,0-1.58.06-.06.52.07.72,0,.41-.14.87-.71,1.15-.86.37-.21.31.16.72-.72.67-1.45.97-1.34,2.15-2.15.53-.36.47-.9,1.29-.29-.03-.23.05-.53,0-.72-.1-.35-.47-1.08-.57-1.43-.18-.59.99-1.75-.29-1.58.05-.7-.07-1.46,0-2.15.01-.1.28-.18.29-.29.09-.78-.28-2.45.72-2.73.35-.1,1.47.1,1.58,0,.05-.05-.13-.99.43-1.15.24-.07.62.07.86,0,.28-.08.61-.83,1.72-1.15.07-.02.92-.87,1-1,.04-.06-.04-.2,0-.29.06-.12.26-.18.29-.29.06-.25.06-1.18,0-1.43-.07-.32-.84-1.05-.86-1.15-.08-.3-.08-2.8,0-3.16.02-.1.57-.81.57-.86,0-.1-.29-.19-.29-.29,0-.06.44-.28.29-.72-1.43,0-.7-2.05-.86-3.16.61.22.88-.76,1.15-1.29.46-.89.93-1.77,1.15-2.73.57.21,1.35-.8,1.58-.86.24-.07.62.07.86,0,.34-.09,1.05-.83,1.15-.86,1.12-.32,2.31-.26,3.44-.57.7.87,1.85.37,2.58.57.07.02.98.94,1,1,.05.19-.07.44,0,.57.71,1.43,2.32,2.14,2.01,4.02-.02.11-.29.19-.29.29,0,.06.53.62.29,1.15.57.28,1.14,1.74,1.58,1.86.62.17,1.37-.34,1.86.43.04.06-.04.21,0,.29.12.22.51.68.57.86.06.16-.05.39,0,.57.03.12.27.18.29.29.3,1.66-.99,1.72-1.15,2.3-.08.3.06.8,0,1.15-.02.11-.26.17-.29.29-.17.73.29,1.08.29,1.15,0,.07-.39.2-.29.57.07.24,1.08.9,1.15,1.15.43,1.51,1.04.91,1.43,2.3.07.25,1.08.91,1.15,1.15s-.06.6,0,.86c.03.11.27.18.29.29.05.26.05.89,0,1.15-.02.11-.26.17-.29.29-.11.52-.14,1.18-.29,1.72l-1.15,1.58ZM141.74,65.4c-.19,0-.19.29,0,.29s.19-.29,0-.29ZM165.12,91.5s-1-.34-1,0c-.71-.15-2.41-2.25-2.58-2.3-.31-.08-.81.07-1.15,0-.85-.18-3.53-1.88-4.59-2.3-.2-.08-.9-.39-1-.29-.02.15.06.33,0,.43-.56,1.01-3.38,3.19-4.45,3.59-.16.06-.39-.05-.57,0-.12.03-.18.26-.29.29-.36.08-2.12.33-2.3.29-.11-.03-.17-.25-.29-.29-.56-.17-.78.27-.86.29-.5.09-2.37.09-2.87,0-.11-.02-.17-.26-.29-.29-.19-.05-.41.06-.57,0-.11-.04-.17-.24-.29-.29-.29-.12-.54.26-.43-.57-.84.14-.45-.21-.57-.43-.35-.62-1.07-.41-1.72-.43.11-.46-.9-1.9-1.29-2.01s-.88.2-1.15-.29c-.24.2-.59.42-.86.57-2.67,1.46-3.89,2.96-5.31,5.59-.11.2-.53.43-.57.57-.36,1.31-.59,2.67-.86,4.02-.11.53-.53,1.82-.57,2.3-.1,1.12.4,2.47-.57,3.16,1.05,1.17.43,2.61.29,4.02l-.57.14c-.08.51.52.24.86.29.1.1-.08,1.71,0,2.15,0,.05.23.7.29.86.04.11.24.17.29.29.06.15-.05.38,0,.43.08.08.74-.07,1,0,.31.09,2.71,2.87,3.01,3.3.41.58.6.67.86,1.15.22.4.99.86,1.29,1.29.37-.54.35-.06.57,0,.7.2.78-.37,1.15-.57.14-.08.38.05.43,0,.25-.25-.42-.46,1-.86.1-.03.83-.79,1.15-.86.42-.09,1.06.1,1.43,0,.2-.06.66-.81.86-.86.65-.18,2.18-.11,3.16-.29,1.59-.29,2.19.87,3.16,1.15.38.11.48-.4.86-.29.08.02,1.22.72,1.43.86.71.45.02.74,1.43,1.15.65.19.65,1.65.72,1.72.05.05.3-.08.43,0,.78.44,1.05,2.78,1.29,3.59.03.11.26.17.29.29.06.21-.06.66,0,.72.08.08,1.22-.05,1.58,0,.11.01.18.27.29.29,1.17.21,3.12-.91,4.02.29.71-.91,1.37.44,2.01.57.39.08,1.57.05,2.01,0,.11-.01.18-.27.29-.29.35-.06.84.08,1.15,0,.5-.14,1.05-1.48,1.43-1.72.06-.04.2.04.29,0,.12-.06.18-.26.29-.29.39-.11.88.2,1.15-.29.4-.16.64.51.86.57.45.12,1.24-.11,1.72,0,.12.03.2.39.57.29,1.15-.32.51-1.23,2.87-.57.37.1,1.17-.78,1.72-.57.15-.26.98-1.2,1-1.29.11-.38-.11-1.05,0-1.43.06-.2.81-.66.86-.86.07-.24-.07-.62,0-.86.11-.4,1.88-1.45,1.43-2.44,1.1.11.69-.03.86-.43.07-.16.39-.2.29-.57-.03-.11-.26-.18-.29-.29-.09-.4.11-1.76,0-1.86-.84.14-.45-.21-.57-.43-.36-.65-1.1-.67-1.15-.72s.06-.28,0-.43c-.05-.12-.27-.19-.29-.29-.08-.47.06-1.08,0-1.58-1.1.11-.69-.03-.86-.43-.36-.86-.98-2.1-1.43-2.87-.56-.95-1.23-1.11-1.72-2.01-.49-.89-.3-1.47-1-1.86-.74-.41-2.38-2.95-3.16-3.44-.91-.58-3.75-3.65-4.02-3.73-.19-.06-.49.03-.72,0l-.29-1.15h-.86c-.02-.18.04-.54,0-.57ZM113.05,112.74c-.19,0-.19.29,0,.29s.19-.29,0-.29ZM126.96,112.74s-.39.02-.57,0l.43.57h.14c-.02-.18.04-.54,0-.57ZM127.11,115.61c-.19,0-.19.29,0,.29s.19-.29,0-.29ZM140.73,116.47h-.57v.86h.57v-.86ZM130.98,119.62c-.98.23-1.22-.78-2.01-1.15v4.88h-.57l.57.72c-.62.95-.14,2.53-.29,3.73-.2,1.61-.61,3.76-.86,5.45-1.24,8.27-2.89,16.1-5.74,23.81-.06.16-.67.93-.57,1,.99-.19,1.44.85,2.15,1.43.85-1.22,2.34-.18,3.16.57.38-.33,1.17.12,2.01,0,.11-.02.18-.27.29-.29.26-.05.89-.05,1.15,0,.11.02.17.25.29.29.17.05.39-.05.57,0,.57.16.67,1.1.72,1.15.09.09,1.69-.23,2.3.72s.67.74,1.29,1.29c.75.66,2.95,2.79,2.73,3.59-.05.18-.31.7,0,1,.05.05.29-.08.43,0,.27.15,2.37,3.28,2.44,3.59.09.41-.1,1.06,0,1.43.03.12,1.21,1.64,1.43,2.01.83,1.37,2.8,4.51,3.16,5.74.07.25,1.08.9,1.15,1.15.4,1.4.21.71,1.29,1,.28.08,1.65,2.31,2.58,2.58,1.31.38,1.05,1.03,1.43,1.15.75.22,2.71.76,3.01,1.29.12.22-.27.57.57.43v.57c.89-.08,1.66.08,2.44.29.69.18.65.22,1.43,0,.35-.1,1.12.78,2.01.57,1.91-.45,1.76.29,2.01.29.18,0-.07-.26.86,0,.21.06.66-.06.72,0,.04.04.15.8.29,1,.27.41,1.24.63,1.43.43.06-.06-.06-.51,0-.72.11-.37,1.04-.49,1.15-.86.06-.21-.06-.66,0-.72.09-.09,1.71.06,2.15,0,.2-.03,1.16-.48,1.43-.57,1.04-.33.72-.39,1.43-.86.34-.22,1.01-.23,1.29-.72.08-.13-.05-.38,0-.43.07-.07,1.6.04,1.86-.57.52.17.93.4,1.58.29l.57-2.01c.23-.03.53.06.72,0,.11-.03.83-.79,1.15-.86.61-.13,2.24.3,2.44-.43.08-.31-.07-.81,0-1.15.03-.12.55-1.04.57-1.15.21-1.16-.48-1.38.86-2.01l-.29-.43h.57c.1-.1-.1-1.23,0-1.58.04-.16.53-.42.57-.57.17-.62.13-1.74.29-2.3.26-.93,1.17-.04.57-2.58-.17-.71.3-1.53.86-2.01-.48-.78-.56-2.56.29-3.16-.36-.25-.4-1.3-.29-1.72.03-.11,1.43-1.59,1.43-1.72-.53-.38-.18-1.13-.29-1.72-.06-.31-.72-1.21-.57-1.72.21-.7.8-.62.57-2.01-.16-.98.35-2.64.29-2.87-.5-1.8-.38-2.93.29-4.59.05-.12.25-.18.29-.29.22-.72-.51-.91-.57-1.15-.11-.39.2-.88-.29-1.15l.57-1h-.57v-.57c.83.11.45-.14.57-.43.05-.12.25-.18.29-.29.22-.72-.51-.91-.57-1.15-.22-.81.28-1.79.29-2.01,0-.08-.71-1.19-.86-1.43.66-.54.33-.87.29-1.15-.16-.97-.09-2.02.57-2.73-.83.11-.45-.14-.57-.43-.14-.34-.81-1.5-.86-1.72-.4-1.84-.12-3.91-.57-5.74-.42-1.71-.81-3.25-1.15-4.88-.04-.19-.04-.97,0-1,.1-.1,1.49.19,1.15-1.15-.79.17-1.08-.37-1.58-.86l-.57.86c-.49-.32-.39-.53-.43-1-.06-.61.35-1.5-.57-1.29.05.43,0,.74-.14,1.15-.24.72-.74,1.1-1,1.58-.12.22.27.57-.57.43.46.61.06.49,0,.72-.23.81.77,1.09.86,1.43.34,1.25.17,2.63,1.43,3.16.07.75.47,1.44.29,2.3-.11.52-.43.31-.29,1.15.17,1.04-.34,1.74-.86,2.58-.98,1.59-2.44,2.83-4.16,3.59-.11.05-.48.52-.72.29-.07-.06.16-.59-.14-.57-.45.16-.39.83-.43.86-.07.06-.51-.06-.72,0-.12.03-.18.27-.29.29-1.38.2-4.82.06-6.03-.29-.94-.27-1.89-1.03-2.87-1.43-.75-.31-.33-.56-.86-.86-.13-.08-.38.05-.43,0-.09-.09.06-1.37,0-1.72l-1.15-.29v-1.72h-.57c-.02-.18.04-.53,0-.57-.04-.04-.93-.25-1.15-.29-.09-.42-.32-1.61-.72-1.72-.54-.16-1.34-.16-1.72-.57-1.65-.2-3.98-.54-5.74-.29-.11.02-.17.26-.29.29-.59.13-1.41,0-1.86.72-1.38,2.18-3.65,3.44-6.17,3.87l-1.15-.57c-1.15.94-2.64.73-3.73,0-.79.93-1.42-.21-1.72-.29-.6-.16-1.39.02-1.86-.72-.81-1.27-2.66-2.34-3.44-3.73-.49-.86-.28-.47-.72-.72-.84-.48-.18-.82-.14-1,.19-.87-.22-1.36,0-2.3.32-1.36-.5-.8-.86-1.43s-.82-.64-1.15-1.43c-.4-.96-1.28-.32-1.15-1.29ZM114.05,120.77c.12-.89-.18-1.88-.86-1,.36.29.28.9.86,1ZM121.65,123.64c-.19,0-.19.29,0,.29s.19-.29,0-.29ZM122.23,123.93c-.19,0-.19.29,0,.29s.19-.29,0-.29ZM153.07,127.08c.13-.68-.23-1.16-.86-1.43l-.29.72,1.15.72ZM177.46,129.09c-.22-.18-.8.09-.57.29.22.18.8-.09.57-.29ZM111.18,131.39c.43.09.59-.13.86-.43-.27-.3-.43-.52-.86-.43v.86ZM145.47,130.53c-.19,0-.19.29,0,.29s.19-.29,0-.29ZM175.45,131.1c.18-.22-.09-.8-.29-.57-.18.22.09.8.29.57ZM172.01,133.68s-.39.02-.57,0l.43.57h.14c-.02-.18.04-.54,0-.57ZM106.73,171.27c-.19,0-.19.29,0,.29s.19-.29,0-.29ZM107.74,172.13c.24-.24-.44-1.03-.57-.86v.86c.18-.02.54.04.57,0ZM111.61,173.56c-.19,0-.19.29,0,.29s.19-.29,0-.29ZM115.77,173.56c-.31-.31-.89.26-.57.57s.89-.26.57-.57ZM118.64,179.59c-.43-.16-.67.29-.72.29-.21,0,.03-.11-.57,0-.37.07-1.06-.25-1,.29.55-.2.77.51,1,.57.38.1.49-.28.57-.29.05,0,.29.44.72.29v-1.15ZM119.79,184.18c-.05-.05-.28.06-.43,0-.17-.07-.76-.55-.86-.57-.7-.15-2.03.07-2.44.72-.05.07.04.23,0,.29-.14.19-.54.44-.57.57-.47,1.62-1.37,3.29-1.72,4.88-.2.92-.69,4.67-.57,5.45.21,1.45.48,3.18.86,4.59.03.12.29.19.29.29,0,.08-.78.77.14,1.29s.72,1.3,1.29,2.15c.22.32,1.09.94,1.15,1.15.24.88-.36.57.43,1,.57.32,1,1.13,1.29,1.58.24.37,3.76,2.36,4.45,2.73,1.05.57,1.66.11,2.3.86,1.04-.87,1.48.54,2.87.29.11-.02.18-.27.29-.29.52-.07,1.3.12,1.72,0,.16-.04.42-.53.57-.57.52-.14,1.49.14,2.01,0,.32-.09,1.39-1.63,1.72-1.72.84-.25,1.87-.4,2.58-.86.3-.19.94-1.04,1-1.29s-.07-.62,0-.86c.1-.36,1.3-.83.86-1.86,1.16.15.7-.15.86-.43.11-.19.43-.37.57-.57-.12-.19-.54-.43-.57-.57-.15-.54.23-1.41.29-1.72.07-.39-.04-.88,0-1.29h-.57v-.86c-.52-.22-.95.29-1,.29-.05,0-.68-.46-.86-.57-.28-.17-.74-.25-1-.72-.08-.14.05-.38,0-.43-.3-.3-1.74.32-1.86.29-.41-.11-1.81-.92-2.3-1.15-1.15-.53-1.89-1.36-3.16-1.72-.45-.13-.95-1.34-2.3-1.72-.13-.04-1.21-1.9-1.29-2.15-.07-.2.06-.65,0-.72-.05-.05-.29.08-.43,0-.49-.27-.6-.84-1.58-.57-.09-1.1-1.11-1.67-1.86-2.3-.48-.4-1.31-1.38-1.58-1.86-.12-.22.27-.57-.57-.43-.02-.18.04-.54,0-.57ZM111.33,183.89c-.19,0-.19.29,0,.29s.19-.29,0-.29ZM110.9,185.62l-.57-.57c-.07.6-.03.65.57.57ZM129.26,185.33c-.49.09-.75-.06-1.15-.29-.26.31.66,1.33,1.15,1.15v-.86ZM104.01,185.33c-.22-.18-.8.09-.57.29.22.18.8-.09.57-.29ZM179.76,189.63c-.22-.18-.8.09-.57.29.22.18.8-.09.57-.29ZM138.15,189.92h-1.43c-.09.43.13.59.43.86.25-.38.58-.3,1-.29v-.57ZM110.61,192.21c.18-.22-.09-.8-.29-.57-.18.22.09.8.29.57ZM142.6,191.64c-.19,0-.19.29,0,.29s.19-.29,0-.29ZM172.01,193.36c.18-.22-.09-.8-.29-.57-.18.22.09.8.29.57ZM164.26,197.09c.03-.63.13-1.24-.57-1.43v1.43h.57ZM168.57,197.09c-.47,0-.97-.29-1.29-.57l-1,.72,1.58.43.72-.57ZM148.34,197.95c-.19,0-.19.29,0,.29s.19-.29,0-.29ZM154.79,197.95l-1.15.14c.07.46,0,.57-.29.86-.43.43-.21.35.14.72l.72-.43-.29-.72.86-.57ZM156.23,202.26c-.55-.08-.94.31-.86.86l.86-.86ZM154.94,203.4c-.19,0-.19.29,0,.29s.19-.29,0-.29ZM163.98,205.7l.86-.72c.05-.39.48-.76-.14-1-.73-.28-.83,1.31-.72,1.72ZM167.13,204.55c-.31-.31-.89.26-.57.57s.89-.26.57-.57ZM155.65,207.42h-1.15c.09.34.41.43.29.86.94.09.95.08.86-.86ZM164.84,208c.26-.22-1.53-1.4-1.15.29l1.15-.29ZM105.16,208.28c-.31-.31-.89.26-.57.57s.89-.26.57-.57ZM106.59,209.43c-.79-.15-.58.24-.57.86h-1.15v.86h1.43l.57.57c-.04-.42.05-.89,0-1.29-.06-.44-.36-.56-.29-1ZM155.65,214.59s.13-.93-.43-1.15c-.61.5-.69,1,.14.86v.57c.6-.02,1.28.83,1.15-.29-.23-.03-.8.06-.86,0ZM152.5,219.76h-1.15v.14l.43.43h.29l.43-.57ZM150.63,220.91c-.19,0-.19.29,0,.29s.19-.29,0-.29ZM105.3,221.48c-.19,0-.19.29,0,.29s.19-.29,0-.29ZM96.26,221.77c-.22-.18-.8.09-.57.29.22.18.8-.09.57-.29ZM132.7,226.36l.72.29c.95-.4-.46-1.4-.72-1.15v.86ZM141.6,225.5c-.22-.18-.8.09-.57.29.22.18.8-.09.57-.29ZM108.31,229.51c-1.16-.15-.29.62-.29.72,0,.06-.44.28-.29.72.7-.19.6-.8.57-1.43Z"/>
  <path d="M160.53,131.67c.1.1-.08,1.22,0,1.58.11.49.28-.02,0,.86-.47,1.46-1.03,4.67-.86,6.31.08.79,1.24,4.59,1.15,4.88-.03.12-.26.17-.29.29-.13.46,1.68,2.15,2.01,2.87.58,1.26,1.32,1.75,2.01,2.87.26.43,1.05,1.65,1.15,2.01.07.24-.06.6,0,.86.02.11.27.18.29.29.08.53.09,2.08,0,2.58-.02.11-.26.17-.29.29-.21.85-.34,2.09-.86,2.87-.21.32-1.83,1.94-2.15,2.15-.08.05-1.01.52-1.15.57-.16.06-.39-.05-.57,0-.12.03-.18.27-.29.29-.51.09-2.98.1-3.44,0-.55-.12-2-1.35-2.3-1.43-.21-.06-.66.06-.72,0-.07-.07.01-1.31-.72-1.72-.13-.08-.38.05-.43,0-.08-.08.07-.98,0-1.29-.02-.11-.26-.17-.29-.29-.1-.38.25-.45.29-.57.06-.21-.06-.66,0-.72.05-.05.29.08.43,0,.2-.11.43-.53.57-.57.39-.11.8-.19,1.15-.29.29-.08.62.14.86-.29.09,0,.16.23.29.29.18.08.74.21.86.29.82.54,1.45,1.62,1.29,2.58,1.68.41,1.29-1.01,1.43-1.15.05-.05.29.08.43,0,.1-.06.7-.67.72-.72.17-.58-.41-1.03-.57-1.43-.35-.86-.81-3.57-1.29-3.87-.75-.48-.9-.74-1.29-1.58-.66-1.43-1.29-2.45-1.72-4.02-.06-.2-.81-.66-.86-.86-.18-.67.13-1.95,0-2.73l.86-.29c-.92.17-1.38-.46-1.15-1.29.06-.22.74-.46.57-.86-.13-.18-.54-.75-.57-.86-.18-.68-.44-2.45-.29-3.16.21-.97.96-1.17.57-2.58-.1-.38.26-.46.29-.57.05-.26-.07-.62,0-.86.02-.08.83-.86,1-1,.05-.04.22.05.29,0,.25-.19.71-.82.86-.86.98-.27,1.58.75,2.3,1.15.14.08.38-.05.43,0Z"/>
</svg>