<?xml version="1.0" encoding="UTF-8"?>
<svg id="zkouska_s_hlavamaa" data-name="zkouska s hlavamaa" xmlns="http://www.w3.org/2000/svg" viewBox="0 0 288.67 288.67">
  <path d="M180.26,64.37s-.02.39,0,.57l.57.29-.86.29,1.58.29c.74.61,0,1.54,1.43,1.15.16-.04.42-.53.57-.57.99-.27,1.36.33,2.01.57.16.06.39-.06.57,0,1.51.47,4.29,1.62,5.74,2.58.33.22.93,1.09,1.15,1.15.77.22,2.74.96,3.01,1.86.06.21-.06.66,0,.72s.51-.06.72,0c.15.04.38.46.57.57.48.27.57.45,1.15.86,1.35.96,1.42,1.92,2.15,3.01s1.94,2.2,2.3,3.44c.1.34.88.43,1.15.86.12.18,1.4,2.98,1.43,3.16.31,1.42.67,2.59,1.15,4.02.91,2.74,1.4,5.62,1.72,8.61.09.88-.34,2.7-.29,2.87.63,2.06-.37,5.91-.86,8.03-.85,3.65-2.2,7.05-4.3,10.33-.11.17-.72.6-.57.72l1.15.29c-.26.47.65,1.62,1,1.72s1.44.21,1.58.72c.07.24-.07.62,0,.86.12.44,1.18.74,1.43,1.15.49.77,1.56,2.38,1.72,3.16.1.48.21,1.54,0,1.72.92.65.65,1.51,0,2.3,1.61,3.89-1.15,10.31-3.73,13.49-.65.8-1.71,1.28-2.01,1.58-.06.06.06.51,0,.72-.19.64-5.99,4.91-7.03,5.59-.84.55-4.78,3.01-5.45,3.16-.62.14-1.34.11-1.72,0-.55-.16-.64.18-.86.29-.15.07-.62.09-.72.43-.36,1.26-.39,1.03-1.15,2.01-4.43,5.68-10.85,10.39-17.93,12.48-3.07.91-6.46,1.8-9.47,3.16-.42.19-1.62.89-1.72.86-.46-.13-.41-.36-1,.43-1.11,1.48-2.49,3.03-3.44,4.59-.27.44-.31,1.28-.57,1.72-.12.2-.54.43-.57.57-.26.95-.35,2.17-.57,3.16-1.34,6-1.19,12.4-2.58,18.36-.17.71-.41,1.3-.29,1.72.19.67-.99,2.6-1.15,3.3-.57-.13-1.14.22-1.43.72-.04.06.04.2,0,.29-.06.12-.26.18-.29.29-.14.62.18,1.25.57,1.72-.2.45-.65.82-.86,1.15-1.84,2.92-3.86,5.03-6.74,7.03-.38.26-1.39,1.24-1.72,1.15-.14-.04-.25-.44-.72-.29.07.74-1.16,1.66-1.58,1.15-1.04,1.03-2.96,1.7-4.3,2.01-.9.21-2.12.13-2.87.57l-.14-.57h-.86v.57c-1.53-.15-2.33.74-3.59-.29-1.23.57-3.58.08-4.88-.29-.4-.12,0-.52-.86-.29-.21.06-3.72-1.14-3.3-1.72-.98.24-1.69-.9-2.44-1.15-.2-.07-.65.06-.72,0s.05-1.21-.72-1.43c-.66-.19-1.65-.73-2.3-1.15-.8-.52.08-1.45-1.29-1.15v-.57c-1.1.11-.69-.03-.86-.43-.28-.66-.31-1.48-1-1.86-.74-.41-.46-.41-.72-1.29-.07-.26-.81-.66-1.15-1.72-.25-.77-1.11-1.89-1.15-2.01-.08-.31.09-1.2,0-1.29-.04-.04-.68.03-.86-.43.55-.72-.49-1.34-.29-2.01.04-.12.26-.18.29-.29.25-1.21-.13-.84-.43-1-.66-.37-.87-1.15-.72-1.86.05-.24.81-1.2.86-1.43.17-.77-.21-1.11-.29-1.43-.23-1.05-.33-2.13-.57-3.16-.03-.13.23-2.36.29-2.58.11-.4,1.44-.82.57-1.43l.57-.14-.57-1c.43-.24.21-.58.29-.86.05-.16.53-.42.57-.57.2-.71-.17-2.08,0-2.87.07-.32.84-1.05.86-1.15.12-.44.05-.57.29-1.15.06-.15-.05-.38,0-.43.05-.05.29.08.43,0,.2-.11.43-.53.57-.57.4-.11.49.45.72.14-.79-.58-1.08-1.3-.86-2.3.02-.1.23-.16.29-.29.23-.51.84-1.06.86-1.15.11-.38-.11-1.05,0-1.43.19-.67,1.38-2.16,1.15-3.3h.57c-.11-1.66.73-2.94,1.15-4.45.04-.14.45-.39.57-.57-.62-.71-.83-1.61-.29-2.44-.51-.22-.89.27-1,.29-1.12.2-3.76.53-4.88.29-.52-.11-.31-.43-1.15-.29-1.34.22-5.03-1.47-6.31-2.3-.46-.3-.4-.85-.86-1.15-.95-.61-.96-.41-1.29-1.58-.13-.47-1.59-.97-1.72-1.43-.45-1.57-1.89-2.61-2.87-4.02.58-.37-.22-.7-.57-1.15.06-.14.29-1.07.29-1.15,0-.08-.45-.39-.57-.57-.04-.06.05-.21,0-.29-.48-.76-1.56.05-1.15-1.43.06-.22.74-.46.57-.86-.43-.24-.21-.58-.29-.86-.02-.05-.41-.53-.57-.86-.35-.7-1.6-2.62-1.72-3.16-.11-.49.11-1.23,0-1.72-.02-.11-.54-.73-.57-.86-.26-.94-.04-1.94-.29-2.58-.49-1.3-.74-1.1-.29-2.58.1-.32-.41-1.16-.57-1.72s-1.16-.48-.86-2.3c.1-.63.21-2.47,0-3.44-.02-.1-.55-.76-.57-.86-.37-1.7-.47-3.59-.86-5.16-.29-1.15-.63-2.05-.29-3.16.28-.91-.08-.85,0-1.15.06-.22.86-1.35.86-1.43-.28-.56-1.03-1.14-.86-1.72.26-.87.54-.32.29-1.43-.19-.85.28-1.78.29-2.01,0-.13-.94-1.24-.57-1.86h.57v-1.43c.83.1.46-.11.57-.43.04-.12.29-.2.29-.29,0-.1-.27-.18-.29-.29-.05-.27.06-.61,0-.86-.07-.31-.82-.83.29-.72-.11-.63.1-.91.57-1.29-.31-.24-.04-1.33.29-1.72-.15-.19-.55-1.04-.57-1.15-.08-.44.16-1.83.29-2.3.09-.34.83-1.04.86-1.15.45-1.52.66-2.93,1.15-4.3.04-.12.26-.18.29-.29.07-.24-.07-.62,0-.86.16-.57,1.1-.38,1.15-.43.06-.06-.06-.51,0-.72s.81-.66.86-.86c.1-.38-.09-1.02,0-1.43.15-.66,2.17-2.4,2.3-2.87.3-1.08.6-1.37.86-2.3.04-.13,1.47-1.55,1.72-2.01.08-.14-.05-.38,0-.43.06-.06.51.06.72,0,.11-.03.17-.25.29-.29.17-.06.39.05.57,0,.58-.17.34-.95.43-1.29.04-.13.5-.68.57-.86.06-.15-.05-.38,0-.43.06-.06.51.06.72,0,.07-.02.69-.26.72-.29.27-.27-.62-.68,1-1.15.42-.12.59-1.69,2.01-1.15.24-.39.82-.96,1-1.29.08-.14-.05-.38,0-.43s.29.08.43,0c.37-.21,1.79-1.37,2.01-1.43,1.25-.34,2.93-.16,3.44-1.43.6.07,1.57-.51,2.01-.57.6-.09,1.51.14,2.01,0,.52-.14.4-.8,1.72-.57.4.07,2.13-.45,2.87-.57s.57-.19,1.43,0c1.46.33,3.33-.63,4.59-.29.64.18.47,1.12,2.58.86.11-.01.18-.27.29-.29.42-.05,1.33-.07,1.72,0,.1.02.16.24.29.29.29.12.54-.26.43.57.67-.04,2.86.49,3.16,1,.08.13-.05.38,0,.43.09.09,1.97.16,2.44.29.24.07.91,1.08,1.15,1.15.31.08.81-.07,1.15,0s.95.64,1.72.86c.11.03,1.02.85,1.29,1v1c1.29-.27,2.02.99,2.58,1.86.37.57,1.46.62,1.86,1.29.49-.36,1.26-.75,1.58-1.29.58-.98.31-2.59,1.58-3.3.22-.12.57.27.43-.57h.57c-.36-.36-.04-1.17.43-1.43.79-.44.19-.12.43-1,.06-.2.8-.66.86-.86.26-.89.38-1,1.29-1.58.96-.6,3.97-2.73,4.45-3.59.08-.14-.05-.38,0-.43.04-.04,1.11-.24,1.15-.29.16-.17-.4-.23.43-.57,1.35-.56,2.64-1.28,4.02-.86,1.04.32,1.64-1.62,2.01-1.72.18-.05.4.05.57,0,.4-.13.92-.68,1.43,0,.28-.35.76-.65,1-1,.04-.06-.05-.21,0-.29.31-.49,1.02-.55,1.58-.43.11.02.17.26.29.29s1.45-.43,2.3-.29c.25.04.84.84.72-.29h.57c-.14-1.2.63-.18,1-.29,1.54-.42,1.96.19,3.44,0,.18-.02.7-.49,1.43-.29.24.07.57.88,1.29.57v-.86c1.03-.44,1.5.76,1.86.86.74.2,1.53-.34,1.72-.29.22.06.42.7.86.57.67-.19.42,0,.57,0,.06,0,.69-.6,1-.29ZM169.36,77.57c-1.03-.05-.89.86-.86,1.72.79-.34.98-.91.86-1.72ZM188.01,78.14c.18-.22-.09-.8-.29-.57-.18.22.09.8.29.57ZM178.83,81.3c.18-.22-.09-.8-.29-.57-.18.22.09.8.29.57ZM94.47,83.31c.18-.22-.09-.8-.29-.57-.18.22.09.8.29.57ZM171.08,83.59c.08-.55-.31-.94-.86-.86v.86h.86ZM176.68,83.59c-.19,0-.19.29,0,.29s.19-.29,0-.29ZM195.18,84.17s-.39.02-.57,0l.43.57h.14c-.02-.18.04-.54,0-.57ZM192.74,85.89c-.19,0-.19.29,0,.29s.19-.29,0-.29ZM181.98,87.04c.14-.11-.5-.76-.86-.57-.14.11.5.76.86.57ZM167.93,87.9c.14-.11-.5-.76-.86-.57-.14.11.5.76.86.57ZM198.05,92.2l-.57-.57c-.07.6-.03.65.57.57ZM193.75,95.07s-.02-.39,0-.57l-.57.43v.14c.18-.02.54.04.57,0ZM134.07,95.93c-.06-.35,0-.51.29-.72l-.57-.43v1.15h.29ZM165.92,94.78c-.6-.07-.65-.03-.57.57l.57-.57ZM183.28,95.07c-.19,0-.19.29,0,.29s.19-.29,0-.29ZM183.85,95.07c-.19,0-.19.29,0,.29s.19-.29,0-.29ZM104.52,95.93c-.43.12-.52-.2-.86-.29v.57h.86v-.29ZM115.28,95.93c-.19,0-.19.29,0,.29s.19-.29,0-.29ZM207.66,100.23c-.19,0-.19.29,0,.29s.19-.29,0-.29ZM151.28,101.96c-.22-.18-.8.09-.57.29.22.18.8-.09.57-.29ZM198.05,104.25c-.37-1.07-1.62-.36-.72.29l.72-.29ZM124.03,103.96l-1.43.86c.31.83.65.52,1.29.29.32-.12.08-.85.14-1.15ZM179.4,104.82c-.82-.28-.5.51-.57.57-.03.02-.26-.06-.57.14-.45.29-.26.84-.29,1.29l.29-.72c.35-.7.79-.06.86-.14l.29-1.15ZM150.42,113.14c-.09-.09-1.11-.21-1.29-.29-.95-.39-1.6-1.14-2.3-1.72-.92-.77-.54-1.83-1.72-1.72l-2.15-2.58c-.05.6.08,1.28,0,1.86-.01.1-.54.73-.29,1.29-1.13-.12-.33.47-.29.72.05.27.06,1.21,0,1.43-.06.2-.8.66-.86.86-.12.41.44,1.16.29,2.01-.02.11-.26.17-.29.29-.06.21.06.66,0,.72-.05.05-.3-.08-.43,0-.56.32-.33.69-.43,1-.04.12-.26.18-.29.29-.07.25.45.72.29,1.43-.02.1-.24.16-.29.29-.12.29.26.54-.57.43.58.72.08,1.02,0,1.72l-2.3.29,1.43,1.58c-.42.65-.77,1.34-1.15,2.01-1.54,2.72-3.58,5.38-5.88,7.32l-2.44,2.3,2.73-.29c.3.23,1.75.65,2.01.57.12-.04.18-.27.29-.29.43-.08,1.02.09,1.43,0,.31-.07,1.69-.98,1.86-1.29.08-.14-.05-.38,0-.43.22-.22,1.59.18,1.86.57.51-.54.9-1.09,1.72-.86.27.07.68,1,1.15.86l.43-.86,1.15.29-.29-1c.39-.24.96-.82,1.29-1,.68-.38.38-.55.86-.86s1.88-1.34,2.3-1.43c.64-.14,1.62.12,2.3,0,.1-.02,1.05-.56,1.15-.57,1.78-.32,3.8.12,5.45.57.16-.13.78-.56.86-.57.52-.12,1.59.23,1.86.72.08.14-.05.38,0,.43.56-.01.91-.44,1.58-.29,1.23.29,2.38.06,3.16,1.15l1.15-.57c.32.17,1.21.81,1.43.86.91.2,2.65.07,3.44.29.09.03.83.79,1.15.86.86.19,1.84,0,2.87.29.25.07.43.79,1.15.57.11-.03.17-.25.29-.29.17-.06.39.05.57,0,.11-.03.17-.25.29-.29.23-.07.61.07.86,0,.45-.12,1.31-1.06,1.72-1.15.87-.19,2.1-.11,2.87-.57.33-.2.92-1.09,1.15-1.15.87-.24,1.88.4,2.3.29.17-.05,1.15-.99,1.43-1.15s.68.2.43-1c-.02-.11-.25-.17-.29-.29-.19-.63.93-1.44-.29-1.29-.13-.36-.21-1.93-.29-2.01-.55-.55-.4.39-.86-1.29-.05-.18-2.06-1.42-2.44-1.58-.4-.17-.54.24-.43-.86-.69-.06-1.48.08-2.15,0-.22-.03-1.5-.55-1.72-.57-.76-.09-1.65.07-2.44,0,.14-.59-.12-.74-.72-.57-.11.03-.18.26-.29.29-2.76.7-9.01.84-11.48.29-.44-.1-2.04.11-2.15,0-.04-.04.03-.68-.43-.86l-.86.57c-2.36-.86-4.78-1.41-7.17-2.87-.67-.41-1.29-.85-2.01-1.15-.15-.06-.38.05-.43,0-.14-.14.41-.38-.43-.86-.53-.3-.39-.82-.43-.86ZM94.62,108.27c-.19,0-.19.29,0,.29s.19-.29,0-.29ZM165.2,109.13c-.19,0-.19.29,0,.29s.19-.29,0-.29ZM172.8,114.58c-.05-.05-.63.03-.86,0v.29h.57v.57h.29c-.03-.23.05-.81,0-.86ZM110.25,120.6l-1-.29-1,.86c.72-.6.98-.08,1.58,0s.45-.11.43-.57ZM111.26,120.32c-.19,0-.19.29,0,.29s.19-.29,0-.29ZM88.45,121.75c.18-.22-.09-.8-.29-.57-.18.22.09.8.29.57ZM93.18,124.05c-.19,0-.19.29,0,.29s.19-.29,0-.29ZM201.78,141.55c.27-.27.19-1.5.29-1.86.07-.24,1.08-.91,1.15-1.15.16-.59-.16-1.71,0-2.3.12-.43,1.16-.76,1.43-1.15.16-.57-.26-.75-.29-.86-.06-.26.07-.62,0-.86-.04-.16-.53-.42-.57-.57-.32-1.15-.07-2.63-.57-3.73-.4-.88-.86-1.29-1.15-2.3-.02-.07-.94-.98-1-1-.18-.05-.4.05-.57,0-.16-.05-.41-.53-.57-.57-.19-.05-.43.07-.57,0-.73-.33-1.4-1.07-2.3-.86-.11.03-.17.25-.29.29-.69.2-1.63.44-2.3.57-.3.06-.68-.04-1,0,.41.46.19.85.29,1.29.2.92.99,2.27.29,3.16.53.9.78,2.41.86,3.44.13,1.76,0,3.89-.29,5.16-.15.68.08,1.8,0,2.58-.16,1.51-.92,4.56-1.43,6.03-.06.17-.44.25-.29.72l.72-.29c.99,1.46,1.67-.64,2.58-1.15.14-.08.38.05.43,0,.13-.13-.43-.61.72-1.15.89-.42,1.17-.29,1.58-1,.21-.37,1.57-.92,1.72-1.43.47-1.63.87-.73,1.15-1ZM125.46,127.78l.43,1.72c1.05-.75,1.02-1.82-.43-1.72ZM110.54,132.08h-.86v.29h.86v-.29ZM84.43,132.94h-.86v.29h.86v-.29ZM94.19,133.23c-.31-.31-.89.26-.57.57s.89-.26.57-.57ZM158.17,134.09c-.47.15-.57-.24-.72-.29-.24-.07-.62.07-.86,0-.16-.04-.42-.53-.57-.57-.36-.1-1.82-.05-2.3,0-.1,0-.18.27-.29.29-.9.11-1.7-.03-2.58.29-.17.06-.24.44-.72.29.04.51-.07,1.08,0,1.58.14,1.01.36.71,0,2.01-.03.12.39,1.46.29,2.3-.01.11-.27.18-.29.29-.06.35.07.81,0,1.15-.06.27-.91,1.63-1.15,2.01-.28.45-.73,1.27-1.29,1.58-.14.08-.38-.05-.43,0s.08.3,0,.43c-.27.48-2.6,1.41-3.01,1.29-.12-.03-.19-.29-.29-.29-.11,0-.59.78-2.01.57-.11-.02-.18-.27-.29-.29-.35-.06-.84.08-1.15,0-.2-.06-.65-.8-.86-.86-1.43-.42-1.73-.58-2.87-1.43-.96-.72-2.3-1.96-2.73-2.73-.11-.2-.46-.38-.57-.57-.08-.14.05-.38,0-.43-.08-.08-.97.06-1.29,0-.11-.02-.17-.25-.29-.29-.72-.22-.91.51-1.15.57-1.04.29-3.31.75-4.3.86-.59.07-1.26-.05-1.86,0v-.72l-.57-.14c.02.33.05.55-.14.86-.51.84-1.04.44-1.72.57-.11.02-.18.26-.29.29-.3.06-.68-.04-1,0-.05.8.07,1.65,0,2.44-.12,1.22-.39,2.71-.57,3.73-.44,2.47-.21,5.45-1.72,7.46.27,1.23-.94,3.24-1.72,4.59-.58,1.01-1.57,2.19-2.01,3.16-.55,1.21-.55,2.69-.86,4.02-1.53,6.57-4.87,13.5-6.89,20.08-.96,3.15-1.7,6.49-2.01,9.76-.05.57-.09,1.78,0,2.3.04.25.84.84-.29.72v.57h.57c.38,1.75.15,4.04.86,5.59.56,1.23,1.24,1.2,1.72,2.87.07.25,1.08.9,1.15,1.15.3,1.04,0,1.06,1,1.58,1.19.62.45.62.72,1.58.15.53,1.69,1.15,2.01,1.72.08.14-.05.38,0,.43.23.23,1.26-.45,1.86-.29.11.03,1.49,1.42,1.58,1.58.39.7,1.52,1.25,1.43,2.44.82-.21.4.44,1,.86.15-.37.69-.26.72-.29.05-.06-.08-.3,0-.43.19-.34.74-.45.57-1,.43-.16.66.29.72.29.1,0,.18-.27.29-.29.85-.14,2.58-.13,3.16,0,.89.2,2.08-.34,2.87.57h.29c.37-.11,1.55-.91,1.72-.86,1.03.28.53-.39.72-.57.06-.06.52.07.72,0,.53-.17,4.04-1.94,4.16-2.15.08-.13-.05-.38,0-.43s1.22-.55,1.29-.57c.24-.07.62.07.86,0,.48-.13.47-.97.43-1.43h.57c-.23-.79.52-.57,1-.86.78-.47.81-1.18,1-1.86.17-.61,1.13-.88,1.58-1,.05-.01.7-.67.72-.72.1-.37.02-1.6.29-1.86.04-.04.68.03.86-.43,0-.91-.86-1.56-.57-2.58.06-.2.81-.66.86-.86.11-.38-.11-1.05,0-1.43.07-.24.78-.42.57-1.15-.11-.37-.81-.43-.57-1.72.02-.11.27-.18.29-.29.06-.45-.09-1.03,0-1.43.14-.65,1.11-.95.86-2.01-.28-1.2-.22-2.15,0-3.44.15-.89-.29-1.06-.29-1.15,0-.07.39-.2.29-.57-.23-.85.18-.47.29-.86.27-.97-.27-3.04,0-4.02.13-.48.87-.35.57-1.43-.06-.23.96-1.56,1.15-2.01.12-.29-.26-.55.57-.43-.27-.42-.43-1.07-.29-1.58.06-.2.8-.66.86-.86.15-.51.16-1.28.29-1.72s.82-.39.86-.43c.1-.1-.1-1.23,0-1.58.04-.14.46-.38.57-.57.08-.14-.05-.38,0-.43s.52.05.57,0-.08-.29,0-.43c.17-.3,1.04-.92,1.29-1,.2-.07.65.06.72,0,.1-.1-.26-1.52.43-1.72.18-.05.4.05.57,0,.15-.04,2.35-1.42,2.44-1.58.08-.13-.05-.38,0-.43.25-.25,1.09.19,1.29.57.19-.12.43-.53.57-.57.66-.19.76-.11,1.15,0,.12.03,1.62-.97,2.01-1.15,1.43-.66,4.02-2.07,5.45-1.43.64-.5,1.1-.4,1.72-.57.24-.07.9-1.07,1.15-1.15.39-.11,1.04-.17,1.43-.29.11-.03.83-.79,1.15-.86s.8.06,1.15,0c.1-.02.16-.24.29-.29.15-.06.38.05.43,0,.05-.05-.06-1.15.43-1.15.07,0,.2.39.57.29.67-.19.42,0,.57,0,.06,0,.49-.51,1-.29v-.57h.57c-.14-.69.21-1.02.72-1.43,1.16-.96,2.28-2.27,3.44-3.16,1.1-.83.6-1.89.72-2.01.06-.06.51.06.72,0,.28-.08,1.04-1.21,1.43-1.43.14-.08.38.05.43,0s-.08-.29,0-.43c.11-.2.53-.43.57-.57.54-1.87,1.47-3.6,2.01-5.45.05-.16.53-.42.57-.57.11-.38-.11-1.05,0-1.43.06-.2.81-.66.86-.86.14-.52-.14-1.49,0-2.01.04-.16.53-.42.57-.57.24-.89.17-2.13.57-3.16.13-.33.84-1.07.86-1.15.1-.35-.89-.87-.57-2.01.06-.22.7-.42.57-.86-.16-.59-1.67-.75-1.43-1.58-.6.34-1.27.61-1.86.86-1.95.84-5.21,2.34-7.17,2.87-.21.06-.66-.06-.72,0s.06.51,0,.72c-.23.87-.93,2.6-1.43,3.44-.88,1.48-2.87,3.19-4.45,3.87-.82.36-1.69.42-2.58.57-.11.02-.18.27-.29.29-.58.08-1.26-.05-1.86,0l-.14-.57-.86.57c-.4.16-.64-.51-.86-.57-.37-.1-1,.08-1.43,0-.5-.09-1.46-.77-2.01-1.15-.06-.04-.22.04-.29,0-1.08-.72-3.59-3.48-3.3-4.73.02-.11.46-.3.29-.86-.03-.11-.24-.17-.29-.29-.12-.29.26-.54-.57-.43.16-.93-.1-1.69-.29-2.44-.05-.19.06-.41,0-.57-.06-.17-.44-.24-.29-.72ZM165.92,135.24l-.86,1.43,1.15-.29-.29-1.15ZM91.03,140.98h-.86v.29h.86v-.29ZM91.75,140.98c-.19,0-.19.29,0,.29s.19-.29,0-.29ZM144.97,143.27c.18-.22-.09-.8-.29-.57-.18.22.09.8.29.57ZM144.25,142.98c-.19,0-.19.29,0,.29s.19-.29,0-.29ZM94.76,146.43c.18-.22-.09-.8-.29-.57-.18.22.09.8.29.57ZM200.63,146.71s-.02-.39,0-.57l-.57.43v.14c.18-.02.54.04.57,0ZM95.05,153.6h-1.15l.57,1.15.57-1.15Z"/>
  <path d="M139.52,192.62s.39-.02.57,0c.03.32-.05.7,0,1,.02.11.29.19.29.29s-.26.17-.29.29c-.09.35.11.69-.43,1-.13.08-.38-.05-.43,0-.07.07.06.74,0,1-.04.19-1.8,2.88-2.01,3.16-.65.86-1.37.66-1.43.72-.09.09.08.98,0,1.29-.08.29-1.18,1.37-1.43,1.72-1.13,1.54-2.25,3.43-3.87,4.73-.24.19-2.43,1.68-2.58,1.72-.19.05-.43-.07-.57,0-.19.09-.73.54-.86.57-.24.07-.6-.06-.86,0-.11.02-.18.27-.29.29-.57.08-1.7.06-2.3,0-.1,0-.18-.28-.29-.29-.62-.07-1.47.12-2.01,0-.16-.04-1.46-.81-1.58-1-.05-.07.04-.23,0-.29-.61-.86-1.24-1.17-2.3-1,0-.66-.95-1.95-1.58-2.3-.14-.08-.38.05-.43,0-.05-.05.06-.28,0-.43-.11-.26-.86-1.35-.86-1.43,0-.1.29-.19.29-.29,0-.16-.47-2.48-.57-2.87-.06-.2-.8-.66-.86-.86-.11-.39-.57-1.9-.57-2.01,0-.1.27-.18.29-.29.1-.62.1-2.82,0-3.44-.02-.11-.29-.19-.29-.29s.27-.18.29-.29c.05-.27-.06-.63,0-.86.03-.12.59-.97.72-1,.38-.1,1.02.09,1.43,0,.1-.02.76-.55.86-.57,1.04-.23,1.14.49,1.43.57.63.18,1.6.41,2.3.29.1-.02,1.05-.56,1.15-.57,1.45-.26,1.54.44,2.01.57.18.05.4-.05.57,0,.16.05.42.53.57.57.25.07,1.42.05,1.72,0,.45-.08,1.33-.83,1.43-.86.31-.09,2.97.62,3.16.57.13-.04.2-.39.57-.29,1.48.41,1.19-.05,2.3-.29s2.72-.33,3.73,0c.88.28.37.11.86,0,.6-.13,1.83.15,2.15.72.08.14-.05.38,0,.43ZM124.6,195.2l-1-2.01c-.74.46-.03.89.14,1.29.03.07-.03.2,0,.29.07.2.6.22.86.43ZM123.74,206.39c.18-.22-.09-.8-.29-.57-.18.22.09.8.29.57Z"/>
  <path d="M153.58,158.48c-.05.05.08.29,0,.43-.74,1.32-4.8,4.14-6.17,4.73-.93.4-2.19.62-3.16.86-.9.22-1.48.51-2.3.29-.19-.05-2.5.54-2.87.57-1.15.09-2.68-.19-3.73,0-.11.02-.17.26-.29.29-.42.1-1.03.17-1.43.29-.09.03-1.27,1.2-1.29,1.29-.07.24-.06,1.73,0,2.01.04.18.64.77.57,1.15.61.53,1.24,1.06,1.86,1.58,1.68,1.4,1.96,1.55,4.02,2.3.86.31.55.42.72.72.22.4,1.31.69,1.43,1.15.3,1.09-.46,2.58-1.29,3.3-.36.19-.82.19-1.15.29-.12.03-.18.27-.29.29-.26.05-.89.05-1.15,0-.11-.02-.17-.25-.29-.29-.92-.26-1.2-.51-2.01-.86-.57-.25-1.63-.44-2.3-.86-.62-.39-.97-1.45-1.72-2.01-.41-.31-1.29-.58-1.72-.86-1.02-.65-.52-1.16-.72-1.86-.04-.16-.53-.42-.57-.57-.24-.87.42-.8-.43-1.29-.4-.23-.93-1.61-.43-1.86-.38-.56-.44-2.44-.29-3.16s1.45-2.05,1.72-2.87c.07-.2-.06-.65,0-.72.08-.08.74.07,1,0,.3-.08,1.12-1.21,1.86-.86-.14-.84.21-.45.43-.57,1.13-.63,1.74-1.82,3.44-1.43.11.02.17.26.29.29.13.04,1.74-.52,2.58-.29.28.08,1.03,1.37,1,0l1.58-.57,1,1.43-.29-1.15c.47-.15.64.39,1,.29.1-.03.64-.63,1.15-.86,1.06-.49,2.16-.9,3.44-1.15.49-.18.66-1.37.72-1.43s.51.06.72,0c.16-.04.65-.21.86-.29.17-.06.24-.44.72-.29.16-.47-.25-.57-.29-.72-.25-.92.25-.62.43-.72.81-.45,1.72-3.81,2.58-4.3.13-.08.38.05.43,0s-.08-.3,0-.43c.33-.59,1.53-.83,2.15-.72.11.02.17.25.29.29.17.05.39-.05.57,0,.13.04.38.44.57.57.06.04.21-.05.29,0,.67.42.85,1.71.72,2.44-.02.11-.25.17-.29.29-.34,1.21-2.26,5.3-3.3,5.88-.14.08-.38-.05-.43,0Z"/>
</svg>