<?xml version="1.0" encoding="UTF-8"?>
<svg id="zkouska_s_hlavamaa" data-name="zkouska s hlavamaa" xmlns="http://www.w3.org/2000/svg" viewBox="0 0 288.67 288.67">
  <path d="M141.34,70.25s.27-.06.43,0c.12.04.2.29.29.29s.17-.25.29-.29c.08-.02,1.24.45,1.43.57.41.26.7,1.3,1.15,1.43,1.25.36,1.52,1,2.29,1.43.93.52,3.21,3.84,3.58,4.73.06.15-.05.38,0,.43.06.06.51-.06.72,0,.46.14.81,1.29,1.29,1.58.16.55-.48.97-.29,1.58.56-.18.76.18,1,.29.29.12.54-.26.43.57h.57c.03.23-.05.52,0,.72.23.86.87,1.61,1.15,2.58.07.25,1.08.9,1.15,1.15.1.35-.1,1.47,0,1.58.05.05.98.14,1.15.72.05.19-.07.43,0,.57.09.19.54.73.57.86.07.25-.45.72-.29,1.43.03.11.25.17.29.29.05.17-.05.39,0,.57.12.42,2.01.83,1.43,2.15-.06.06-.83-.2-.57.43.14.35,1.29.67,1.43,1.15.26.89.38,1.74.57,2.58s.51,1.19.29,2.01c-.1.38.25.44.29.57s-.44,1.13,0,1.58c.11.11.28-.31.86.72,1.18,2.06,1.68,5.42,2.29,7.74.32,1.22.85,2.48,1.15,3.73.17.71.14,1.77.29,2.29.04.16.53.41.57.57.44,1.49.73,2.83.57,4.44.83-.11.45.14.57.43.99,2.37,2.05,4.63,2.87,7.16.28.87.12.36,0,.86-.22.93,1.28,2.46,1.72,3.44.11.24-.16.63.43,1,1.43.92,1.77,2.18,2.15,3.73h.57c-.09.65.42,1.68,1,2.01.14.08.38-.05.43,0,.09.09-.09,1.06,0,1.15.06.06.51-.06.72,0,.61.18.94,1.37,1,1.43.05.05.3-.08.43,0,.56.32.65,1.36.72,1.43.04.04,1.11.24,1.15.29.1.1-.28.98.43,1.43.31.2.85.2,1.15.29.25.07.46.78,1,.57-.33,2.42,3.32,2.19,3.44,4.3h2.29v.57c1.08-.51,2.05,1.04,2.44,1.15.24.07.62-.07.86,0,.31.09,1.41,1.63,1.72,1.72.56.15,1.54.07,2.29.29.29.08.66.99,1.15.86.37-.1.84-.16,1.43,0,.17.05.94,1.04,1.43,1.15,1.07.24,2.24-.54,3.44-.29.31.07,1.05.83,1.15.86.75.21,2.62-.35,2.44.86.55.2.82-.23,1-.29.39-.12,1.36-.37,1.72-.29,1.74.41,3.82.16,5.73-.29.9-.21,1.21.44,1.72.57.24.06,1-.53,1.58-.29v.57c.88-.71,2.05-1.31,3.01-.57,1.95-.05,3.4.65,5.16.29,1.21-.25.84.14,1,.43.55.97,1.29-.03,1.86.14.67.71,1.31.67,2.01.86.21.06.86.61,1.72.86.42.12,1.96,2.23,2.58,2.58.14.08.38-.05.43,0,.06.06.15,1.08.72,1.43.29.18,1.51.51,1.58.57.08.08-.07.74,0,1,.06.23.96.82,1.15,1.15.43.78.42.28.57.43.45.45,0,1.21,0,1.29,0,.32,1.98,2.6,1.72,3.44-.32,1.05.28.95.57,2.01.1.37-.29.5-.29.57,0,.08.83.49.57,1.43-.06.22-.74.46-.57.86.74,1.23,1.01,2.46.86,4.01,0,.1-.28.18-.29.29-.11,1.07-.02,1.8-.29,2.87-.89,3.56-2.4,7.1-4.87,10.03-.24.28-1.73,1.86-1.86,1.86-.09,0-.17-.25-.29-.29-.36-.1-.54.43-1,.29.17.26.47.97.29,1.15-.05.05-.29-.08-.43,0-.71.4-2.49,2.4-3.15,2.58-.38.11-1.05-.11-1.43,0-.19.05-1.04,1.12-1.72,1.43-.35.16-1.35.83-1.43.86-4.46,1.32-8.53,2.41-13.33,2.29v-.57c-.78.07-1.67-.09-2.44,0-.1.01-.18.27-.29.29-.31.06-2.22-.19-2.58-.29-.52-.14-.76-1.63-1.72-.29-1.84-.66-3.87-1.22-5.73-2.01-1.99-.84-3.81-2.26-5.73-3.15-.66-.3-.4,0-.57,0-.24,0-2.3-1.94-3.15-2.29s-.68-1.23-1.72-1.72c-1.18-.55-3.46-2.33-4.16-3.58-.28-.51-.28-.35-.57-.86-.36-.63-2.32-.82-2.58-1.72-.39-1.37-2.03-2.09-2.58-4.01-.17-.59-1.69-.49-2.29-2.58-.06-.21-.8-.65-.86-.86-.09-.31-.23-1.52-.29-1.58-.05-.05-.29.08-.43,0-.2-.11-.37-.46-.57-.57-.14-.08-.38.05-.43,0-.05-.05.06-.28,0-.43-.07-.17-.55-.76-.57-.86-.09-.41.1-1.06,0-1.43-.04-.13-1.32-1.72-1.58-1.86-1.2-.67-1.46-1.24-1.86-2.72-.06-.22-.95-.82-1.15-1.15-.39-.65.06-1.43-.29-2.29-.4-1-1.68-1.87-1.72-2.01-.41-1.42-.61-.75-.86-1-.21-.21-.44-2.33-.57-2.87-1.07-.18-1.13-2-2.15-2.58-.47-.27-.57-2.64-1-3.58-.65-1.43-2.54-3.09-2.87-4.73-1.28-.05-1-1.69-1.15-2.72-.01-.11-.27-.18-.29-.29-.06-.35.08-.84,0-1.15-.16-.56-1.1-.38-1.15-.43-.06-.06.06-.51,0-.72-.05-.19-.77-2.06-.86-2.15-.25-.25-.45.42-.86-1-.1-.34-.57-.15-.86-.86-.2-.49-.98-1.6-.86-2.01.07-.24.47-.48.29-1.15-.08-.28-1.4-1.59-1.43-1.72-.31-1.12-.8-1.49-.86-1.72-.24-.88.36-.56-.43-1-2.01-1.12-2.49-4.33-3.58-6.16l.29-1c-.74.18-.69-.48-.86-.72-1.84-2.58-3.8-5.24-4.3-8.45h-.57c.1-1.25-.8-1.79-1.15-3.01-.13-.47-.82-.39-.86-.43-.09-.09.08-.98,0-1.29-.09-.34-.88-.43-1.15-.86-.51-.81.04-1.98-1.29-2.72-.22-.12-.57.27-.43-.57-.84.14-.45-.21-.57-.43-.2-.36-1.4-1.61-1.43-1.72-.1-.35.1-1.47,0-1.58-.06-.06-.51.06-.72,0-.3-.09-.6-1.13-1.15-1.43-.77-.43-1.56-1.8-2.15-2.72-.33-.52-1.36-.81-2.01-1.72-.87-1.23-2.47-1.18-2.87-1.58-.06-.06.06-.51,0-.72-.04-.14-.92-.7-1-.72-.41-.09-1.02.09-1.43,0-.74-.16-2.51-1.24-3.44-1.43-1.19-.25-2.92.03-3.73-.86-.19.12-.43.53-.57.57-1.07.31-1.81.42-2.87.86-1.66.68-2.39,1.25-3.3,2.72-.73,1.19-1.52,2.65-.29,3.73-.05.47.07,1.1.29,1.43.36.57,1.54.66,2.01,1.43.04.06-.04.2,0,.29.05.12.24.17.29.29.06.16-.05.39,0,.57.03.12.27.18.29.29.06.36.06,1.35,0,1.72-.12.75.14,1.61,0,2.58-.02.13-.21.74-.29,1.15-.02.11-.39.2-.29.57.16.56,1.1.38,1.15.43s-.06,1.15.43,1.15c.09,0,.17-.25.29-.29.19-.05.58.31,1.72,0,.25-.07,2.07.87,2.58,1.15,1.37.74,1.25.29,2.29.57.65.18,2.96,2.24,3.15,2.29.45.12,1.23-.11,1.72,0,.11.03,1.76,1.11,1.86,1.29.46.82,1.42.9,1.72,1.43.08.13-.05.38,0,.43s1.05-.09,1.29.57c.34-.42,1.54.14,1.86.72.08.14-.05.38,0,.43s.29-.08.43,0c.68.38.14.98,1.72,1.43.57.16.38,1.1.43,1.15.09.09,1.37-.06,1.72,0v.57c.84-.14.45.21.57.43.56,1.01,1.95.97,2.58,2.01.41.67,0,.61.72,1,.22.12,1.54,1.16,1.58,1.29.09.31.23,1.52.29,1.58.04.04.56-.1.86.43.12.22-.27.57.57.43-.14.84.21.45.43.57,1.01.56,3.84,5.29,4.44,6.45.29.56.78.98.57,1.72-.06.22-.74.46-.57.86.53.36,1.4,1.32,1.86,1.58.14.08.38-.05.43,0,.06.06-.07.52,0,.72.12.36.71,1.05.86,1.43.33.84.63,2.05.86,2.87.27.95.11,1.65.29,2.29.07.26.94.69.57,1.58-1.18-.18-.04.82-.29,1.72l1.15.29c-.21.55.37.99.29,1.29-.41,1.5.13.87.29,1.43.2.72-.43,2.29-.29,2.44.04.04.39-.02.57,0-.27.67.26,1.61.29,1.86.14,1.42-.1,3,0,4.44-.7-.14-.82.25-.29.72-.41.62-1.03.41-1.72.43l1.58,1.72c.14.08.38-.05.43,0,.12.12.04,2.82,0,3.3-.06.71-.38,3.33-.57,4.01-.04.16-.53.41-.57.57-.29,1.02-.48,1.7-.29,2.58.41,1.84-2.98,10.07-4.01,12.32-.33.72-.75,1.96-1.15,2.58-.32.51-.7.83-1.15.43-.15.47.24.57.29.72.03.09-.23.77-.29.86-1.49,2.42-3.09,4.45-4.87,6.59-1.33,1.61-2.71,3.45-4.44,5.02-.7.63-5.22,4.43-5.73,4.59-.93.27-.58.26-1.43.86-1.69,1.19-4.14,3-6.02,3.44-.28.07-.69-.04-1,0,.11,1.1-.03.69-.43.86-.2.08-.66.49-.86.57-4.49,1.88-9.21,3.26-13.76,4.3-.4.16-.64-.51-.86-.57-1.28-.35-1.35.47-2.01.86-.92.55-3.04.21-4.3.29-3.61.21-8.28.71-11.75-.29-.16-.05-.41-.53-.57-.57-.38-.11-.48.4-.86.29-1.83-.53-3.93-.5-5.73-1.15-.17-.06-.24-.44-.72-.29-.09-.49.06-.75.29-1.15h-.57c.05-.32-.08-1.35,0-1.43.06-.06.51.06.72,0s.94-.94.72-1.15c-.96-.28-1.09.31-1.58.57-.19.1-.68-.2-.43.72.03.11.25.17.29.29.1.36-.43.54-.29,1-.82-.12-1.97.16-2.72,0-.31-.07-1.05-.83-1.15-.86-.24-.07-.62.07-.86,0-.51-.14-1.25-1.09-1.43-1.15-1.04-.3-2.79-.83-3.73-1.43-.87-.56-.66-1.37-.72-1.43-.07-.07-.74.06-1,0-.69-.16-3.47-1.72-3.87-2.44-.44-.79-.58-.26-1.29-.72-.48-.3-.19-.48-.86-.86-.63-.36-.1-1.15-1.29-.86v-.57h-.57c.5-1.21-1.37-1.08-1.72-1.43-.05-.05.08-.29,0-.43-.24-.43-1.04-.5-1.15-.86-.52-1.82-1.21-1.06-1.43-1.29-.05-.05.08-.29,0-.43-.19-.33-1.08-.91-1.15-1.15-.24-.82-.17-1.62-1-2.15-.13-.08-.73-.21-.86-.29-.99-.63-1.14-2.62-2.15-2.58.25-1.27-1.6-2.02-1.72-2.72-.08-.43.1-1.06,0-1.43-.03-.09-.77-.81-.86-1.15-.07-.24.07-.62,0-.86-.12-.44-1.59-.7-1.72-1.15-.11-.39-.17-1.04-.29-1.43-.06-.21-.8-.66-.86-.86-.09-.31.09-.83,0-1.15-.04-.16-.53-.41-.57-.57-.36-1.26-.83-2.55-1.15-3.73-.36-1.34-.77-2.62-1.15-4.01-.03-.13-.55-.75-.57-.86-.22-1.02.04-2.68.57-3.44.16-.4-.51-.64-.57-.86-.23-.82.32-1.21.86-1.72-.29-.45-.86-.41-1.15-.86-.05-.08.04-.43-.29-.57-.1-.37.91-1.15-.29-1,.02-1.08-.54-2.13-.29-3.3.05-.24.81-1.19.86-1.43.25-1.15-.46-2.19-.29-3.15.1-.53.18-1.04.29-1.43.36-1.34.05-2.61.29-3.73.22-1.02,1.88-1.44,1.43-3.44-.03-.12-.39-.2-.29-.57.19-.67.71-3.72.86-3.87.05-.05.64.24.86-.72.15-.68-.38-1.29,0-2.58.15-.52,1.84-1.78,1.15-2.29,1.09-.54.78-.87,1.15-2.01s1.28-2.24,1.72-3.44c.28-.76.19-1.93.57-2.58.16-.27.81-.67.86-.86.12-.43.09-1.06.57-1.43.12-.41-.59-1.56-.29-1.86.05-.05.3.08.43,0,.75-.43.3-1.59.43-1.72.06-.06.74.21,1.15-.43.48-.75.97-1.88,1.43-2.58.33-.5.76-.82,1.15-1.43s1.08-.17.86-1l.57.29c-.27-.89.58-1.07.86-1.58s.28-.34.57-.86c.53-.95,1.41-.8,2.15-1,.14-.04,1.84-1.3,2.29-1.43.84-.24.87-.44,1.43-.29.38.1.46-.26.57-.29.69-.16,1.33.25,1.86-.72.11-.2-.25-.63.72-.43.11.02.19.29.29.29s.17-.25.29-.29c.3-.08.74.49,1.29.29-.04-.33.41-1.34.72-1.43l1.43.29c.54-.71,1.45-.42,2.01-.57.22-.06.82-.95,1.15-1.15.21-.13.96-.25,1-.29.05-.05-.05-.52,0-.57.03-.03.57.08.72-.29l.86.57c1.13-.87,1.9-1,3.15-.57.65-.78,1.58-.42,2.29-.57.31-.07,1.05-.83,1.15-.86.38-.1,1.02.09,1.43,0,.1-.02.76-.55.86-.57.74-.16,1.8-.07,2.58-.29.16-.04.42-.53.57-.57.24-.07.62.07.86,0,.14-.04.69-.89.72-1,.07-.24-.07-.62,0-.86.04-.16.53-.42.57-.57.38-1.37-.67-3.87.57-4.87-.64-.51-.21-2.32-.29-2.58-.28-1-.51-2.34-.29-3.15.15-.53-1.14-.82-.86-2.01s.11-.82,0-1.72c-.1-.77.26-1.77-.29-2.29-.14-.52,1-.92.86-1.43-.57-.44-.14-1.37-.29-2.01-.11-.49-.28.02,0-.86.38-1.17-.04-2.37,1.15-3.15-1.1-1.62,1.01-3.65,1.43-5.16.08-.3-.53-.59,0-1.43.27-.43,1.05-.52,1.15-.86s-.06-.9,0-1.29h.57c-.35-.83.75-1.21.86-1.58.06-.21-.06-.66,0-.72.06-.06.73.05,1,0,.18-.03.11-.47.72,0-.21-.54.51-.76.57-1,.12-.45-.12-1.27,0-1.72.04-.16.53-.41.57-.57.15-.54.03-.85.72-1.29,1.32-.84,2.17-1.24,3.44-2.29s.89-.97,2.58-1.43c.09-.03.83-.79,1.15-.86.6-.13,1.34-.1,2.01-.29.29-.08,1.15-1.36,1.43-1.43.97-.27,2.95.24,4.01,0,.59-.13,1.82-1.33,2.29-1.43,1.48-.32,3.61.5,4.87-.57.4-.16.64.51.86.57.98.28,1.66-.2,2.58,0,.1.02.76.55.86.57.34.07,3.54.33,3.73.29.11-.02.17-.25.29-.29.38-.1.44.24.57.29.17.05.39-.05.57,0,.35.1.57,1.15.86,1.15.09,0,.17-.25.29-.29.38-.11.48.4.86.29.12-.03.19-.29.29-.29s1.26,1.1,1.43,1.15c.77.22,3.61,1.86,3.87,2.72.06.21-.06.66,0,.72ZM106.08,74.84h-1.15v.29c.35-.06.51,0,.72.29l.43-.57ZM134.32,77.42c-.19,0-.19.29,0,.29s.19-.29,0-.29ZM136.47,83.44c.02-1.19-1.45-1.19-1.43,0h1.43ZM142.06,83.44c-.19,0-.19.29,0,.29s.19-.29,0-.29ZM147.07,86.3s-.39.02-.57,0l.43.57h.14c-.02-.18.04-.54,0-.57ZM133.31,87.73c.14-.11-.5-.76-.86-.57-.14.11.5.76.86.57ZM149.36,94.04h-1.15l1,2.01.14-2.01ZM100.21,99.77c-.19,0-.19.29,0,.29s.19-.29,0-.29ZM106.37,108.94c-.05-.05.08-.3,0-.43-.49-.86-2.72-1.07-3.58-1.29-.69-.17-1.03-.17-1.72-.29-.11-.02-.26-.44-.72-.29-.04.41.06.89,0,1.29-.13.79-.48,2.08-.57,2.87-.07.59.05,1.26,0,1.86.47-.15.53.21.72.29.15.06.39-.05.57,0,.16.05.42.53.57.57.95.26,2.65-.4,3.44.29l.57-.57c.37.54,1.07.03,1.43.57.55-.27.33-.77.43-1,.26-.59.77-.9.57-1.72-.03-.11-.25-.17-.29-.29-.05-.18.06-.42,0-.57-.11-.29-.69-1.11-1-1.29-.14-.08-.38.05-.43,0ZM161.4,113.53c-.22-.18-.8.09-.57.29.22.18.8-.09.57-.29ZM111.53,120.98c.21-.97-.65-1.34-1.43-1.43l.14.86c.67-.18.8.39,1.29.57ZM102.64,121.84v-.86h-.14l-.43.43.57.43ZM105.8,125.56h-.86v.29h.86v-.29ZM118.12,127.28c.1-.69-.14-1.22-.86-1.15-.24.24.48,1.08.86,1.15ZM118.69,127.86c.18-.22-.09-.8-.29-.57-.18.22.09.8.29.57ZM91.75,128.72c-.72-.08-1.16-.67-1.72.14l.43.72c.43-.63,1.51.19,1.29-.86ZM161.83,129.58c-.19,0-.19.29,0,.29s.19-.29,0-.29ZM107.8,132.73c-.22-.18-.8.09-.57.29.22.18.8-.09.57-.29ZM85.45,134.16c-.15-.58-.61-.64-1.15-.57v.57h1.15ZM130.02,135.31c-.12.03-.28.33-.43.43.45.58.7.58,1.15,0-.23-.22-.38-.52-.72-.43ZM58.36,135.88c-.19,0-.19.29,0,.29s.19-.29,0-.29ZM129.44,136.17c-.19,0-.19.29,0,.29s.19-.29,0-.29ZM166.56,139.32l-.57-.57c-.07.6-.03.65.57.57ZM57.07,140.75l-.29-1.15c-.06.53.29,1.3-.43,1.15l-.72.86c.34.04.56-.73.86-.43s.23-.09.43-.14c.36-.1.54.43,1,.29v-1.15l-.86.57ZM89.17,139.61h-.86v.86c.55.08.94-.31.86-.86ZM166.71,139.89c-.19,0-.19.29,0,.29s.19-.29,0-.29ZM96.34,140.47c-.62-.16-.9.32-1.43.29v.57c.68.13,1.16-.23,1.43-.86ZM122.99,142.19h-.86v1.72c1,.16.7-.07,1.15-.72l-.29-1ZM60.22,145.05c-.22-.18-.8.09-.57.29.22.18.8-.09.57-.29ZM59.36,146.49v-.86h-.29v.86h.29ZM67.39,146.49c.43-.01.76-.09,1,.29.3-.27.52-.43.43-.86-.47.33-.85.33-1.43.29v.29ZM127.44,147.34c-.19,0-.19.29,0,.29s.19-.29,0-.29ZM53.06,150.78v-.86h-.29v.86h.29ZM106.37,152.5c-.4.4-4.25-.45-5.02-.29-.1.02-.76.55-.86.57-.42.09-1.92.26-2.29.29-2.74.22-6.45.12-8.89.86-.41.13-1.08-.28-1.43-.57-1,1.17-2.57.74-4.01.86-3.25.27-7.63,1.18-10.89.29-.38-.1-.46.26-.57.29-1.47.33-6.12-.63-7.45-1.15-.94-.36-.67,0-.86,0-.73,0-4.47-2.14-5.3-2.72-.18-.12-.61-.7-.86-.43-.14.15.55,1.52.57,1.86-.62.5-.98,1.14,0,1,.21,1.12,1.04,2.09,1.43,3.3.29.9.3,2.04.57,2.58.71,1.41,1.22,2,1.72,3.73.05.16.99.8.57,1.29-.03.03-.86-.16-.57.43s1.49.91,1.86,1.58c1.09.93,2.2.6,3.15.86.16.04.42.53.57.57,1.37.38,1.6-.75,2.01-.86.19-.05,1.24-.05,1.43,0,.34.09.64,1.1,1.43.86,1.34-.41,2.45.23,4.01,0,.72-.11,1.4-.15,2.01-.29,1.13-.25,1.71.64,2.72.57v.57c1-.19,1.77.46,2.72.29.11-.02.17-.26.29-.29.33-.08,1.23-.35,1.43-.29.18.05.59.68.86.86.12.08.74.21.86.29.82.54,1.32,1.93,2.44,1.72-.33.51.76.93,1,.86.32-.09.24-.51.86.29l.14-.57c.6.05,1.27-.07,1.86,0,1.01.12.7.32,2.01,0,1.01-.25,2.03-.11,2.87-.29.24-.05,1.19-.81,1.43-.86,1.2-.26,3.97.3,5.16.57.11.03.17.25.29.29.72.22.9-.5,1.15-.57.65-.19.99.46,1.43.86.59-.87,2.16.4,2.58.29.12-.03.19-.29.29-.29.09,0,1.04.64,1.43.86.36.19.46.78,1.15.57.34-.1,1.05-.83,1.15-.86.34-.09.9.06,1.29,0l.14.86c.25-.16.68-.81.86-.86.82-.23,1.58.57,1.72.57.09,0,1.27-.26,1.43-.29.16,0,.59.96,1,.43l.29.43c.51.11.21-.5.29-.57.26-.24.67.27.72.29.69.16,1.32.15,2.01.57.53-.3,1.96-.74,2.58-.57.67.18-.02.77,1.72.29.33-.09,1.09.73,2.01.57.11-.02.19-.29.29-.29.33,0,.86.52,1.72.29.44-.12.64.51.86.57.59.17,1.52.05,1.29.86h.57v.57c.71-.08,1.38.31,1.86.86.53-.36,1.3-.73,1.86-.29-.11-.83.14-.45.43-.57.84-.35,1.14-.13,1.72-.29.16-.05,1.54-.95,2.01-1.15.83-.35.27-.41.43-.57.05-.05,1.1-.18,1.29-.57l.86.57,1.29-2.15v-.29c-.43-.24-.21-.58-.29-.86-.04-.13-.44-.38-.57-.57-.62-.87-1.85-1.97-2.72-2.72-1.15-.99-2.46-2.54-2.44-4.01-1.15.32-1.03-.74-1.15-.86s-1.47.11-1.86,0c-.14-.04-1.66-1.45-2.01-1.72-.83-.65-1.06-1.16-2.01-1.43-.05-.01-.7-.67-.72-.72-.2-.68.3-.98-1.29-.72-.11.02-.19.29-.29.29-.05,0-.68-.46-.86-.57-.43-.26-1.34-1.12-1.43-1.15-.44-.12-.86-.12-1.43-.29-3.11-.89-6.29-2.33-9.46-2.87-2.3-.39-5.34-.26-7.45-.86-1.24-.36-2.36.3-3.44,0-.26-.07-.69-.94-1.58-.57v.57ZM52.77,155.08c-.95-.19-.44.49-.57,1-.2.74-.73,1.87-.86,2.58-.06.32.08,1.21,0,1.29-.04.04-.68-.03-.86.43,1.29.93.01,2.03-.86,2.87.18.46.82.39.86.43.23.23-.18,5.69,0,6.59l-1.15.43c.5.21.18,1.18.29,1.29.05.05.3-.08.43,0,.7.4.33,1.19.43,1.86.58,3.91,1.39,7.8,2.58,11.46.26.81.51,1.82.86,2.58.5,1.06.33,1.14.57,2.01.09.34.87.43,1.15.86.64,1,1.62,4.55,2.44,5.02.91.52.46.65.72,1.58.05.2.99.48,1.43,2.01.12.4,2.33,1.09,1.72,2.44,1.68-.76,3.39,3.59,3.87,3.73,1.79.49,1.53.82,2.87,2.01.27.24.89.43,1.29,1,.96,1.35,3.09,1.87,3.87,3.58.63.1,2.61.6,2.72,1,.05.18-.05.4,0,.57.01.05.67.7.72.72.57.16.78-.27.86-.29.26-.05.88-.05,1.15,0,.1.02.16.23.29.29.29.12.54-.26.43.57.78-.13,1.35.14,2.01.29-.15,1.55.86,1,1.86,1.15.09.01.48.51,1,.29v.57c1.15.16,2.29.41,3.44.57-.18,1.27,1.04.06,1.86.29.16.04.41.53.57.57,1.17.34,2.87,1.13,3.73.57l1.43-.29c.91.82.78,1.76,2.29,1.43.31-.07,1.05-.83,1.15-.86.85-.23,2.02.81,2.87.57.35-.1,1.44-1.02,2.01-.29.35-.48,1-.24,1.58-.29.11,1.83,1.25-.77,1.58-.86,1-.29,1,1.03,1.43,1.15.51.14,1.1-1.05,1.43-1.15.31-.09.83.09,1.15,0,.16-.04.42-.53.57-.57.24-.07.62.07.86,0,.67-.18-.02-.77,1.72-.29.38.1.46-.26.57-.29.4-.09,1.76.1,1.86,0v-.57c1.08.43.9-.96,1.58-1.15s1.73.05,2.58-.29c.61-.24,1.54-1.38,1.72-1.43.31-.08.81.07,1.15,0,.43-.09.32-.52,1.15-.29s3.77-2.51,4.59-3.15c.74-.58.85-.74,1.72-1.15,1.03-.48.54-1.01,2.01-1.43.22-.06.42-.69.86-.57.12.03.19.29.29.29.06,0,.28-.44.72-.29l.29-1.15h.57c-.14-.61.18-2.15.72-2.29.24-.07.62.07.86,0,.4-.11,1.07-1.64,1.72-2.01.14-.08.38.05.43,0,.1-.1.22-1.13,1-1.72.42-.32.93-.43,1.43-.57.63-.18.33-1.13.43-1.58.05-.25.72-1.1.86-1.43.06-.15-.05-.38,0-.43.05-.05.99.13,1.15-.43.08-.31-.07-.81,0-1.15.09-.43.9-1.06.57-1.86h.57c-.11-1.35,1.74-3.46,2.01-4.44.11-.38-.11-1.05,0-1.43.16-.56,1.51-1.55,1.15-2.87-.12-.42.41-.57.57-.86.08-.14-.05-.38,0-.43.05-.05.94.13,1.15-.43-.46-.53-1.4-.55-1.15-1.43.15-.52,1.74-.93.29-2.01l.14-1.29c-.35.34-.96.39-1.43.57-3.11,1.2-6.35,2.6-9.46,4.01-.15.07-.38-.05-.57,0-.57.16-.35.93-.43,1.29-.07.31-.19.78-.29,1.15-.17.61-1.6,1.85-1.72,2.29-.09.31.09.83,0,1.15-.33,1.21-5.19,4.45-6.45,5.02-.78.35-1-.16-1.72,0-.1.02-.16.24-.29.29-.15.06-.38-.05-.43,0-.08.08.18,1.17-.72.29-.43.66-1.26.7-2.01.57-.11-.02-.19-.29-.29-.29s-.18.27-.29.29c-.45.07-2.17.09-2.58,0-.24-.05-1.19-.81-1.43-.86-.65-.14-1.65.14-2.29,0-.07-.02-1.24-.52-1.29-.57s.08-.3,0-.43c-.28-.49-1.91-.62-2.29-1-.05-.05.08-.29,0-.43-.3-.54-1.35-.85-1.43-1.15s.04-.62-.29-1c.43.09.59-.13.86-.43.15-.53-1.06-.91-.86-1.58-.59-.08-1.76.71-2.01-.14-.34-1.18-.6-.75-1.15-1.72-.69-1.22-.58-1.28-.86-2.58-.07-.32-.83-1.05-.86-1.15-.11-.4-.61-2.44-.57-2.58.03-.12.29-.19.29-.29,0-.43-1.29-.36-1.43-.86-.06-.21.06-.66,0-.72-.07-.07-.97.05-1.29,0-3.34-.53-8.64-.35-11.75.57-.11.03-.17.24-.29.29-.15.06-.38-.05-.43,0-.06.06.06.51,0,.72-.05.16-.53.42-.57.57-.12.44.09,1.21,0,1.72s-1.14,2.98-1.72,2.72c-.51,2.59-3.78,4.64-6.16,5.73-2.93,1.41-7.05,2.26-10.03,1.43-.21-.06-.66.06-.72,0s.06-.51,0-.72c-.05-.17-.57-.49-.72-.72-.53.56-.87,1.06-1.72.86-.11-.03-.17-.25-.29-.29-.17-.05-.39.05-.57,0-.22-.06-1.79-1.37-2.01-1.43-1.57-.45-1.19-.73-2.29-1.43-.55-.35-.33-.63-.43-1-.03-.12-.29-.19-.29-.29,0-.06.44-.28.29-.72-.58-.02-1.83.18-2.01-.43-.05-.18.05-.4,0-.57-.09-.3-.49-.66-.29-1.29h-.57c.15-1.16-.15-.7-.43-.86-.65-.37-.59-2-.72-2.72-.11-.63-.16-1.43-.29-2.01-.11-.5-1.17-1.3-.29-2.01l-1.15-1.15v-.29c.43-.24.21-.58.29-.86.03-.12.27-.18.29-.29.13-.71-.09-1.68,0-2.44h-.57c.05-.28-.23-1.38-.29-1.43-.05-.05-.74-.07-1.15-.72s.08-.85,0-1.15c-.18-.66-1.39-1.86-1.43-2.01-.12-.45.12-1.27,0-1.72-.07-.27-1.62-1.56-.86-2.29-.77-.62-1.31-1.42-1.43-2.29-.14-.96.36-1.79-.72-2.44-.28-.17-.59.29-.43-.86ZM137.18,155.08c-.19,0-.19.29,0,.29s.19-.29,0-.29ZM194.22,159.67c-.19,0-.19.29,0,.29s.19-.29,0-.29ZM194.37,161.1v-.86h-.29v.86h.29ZM194.94,160.81c.18-.22-.09-.8-.29-.57-.18.22.09.8.29.57ZM173.3,166.26c-.19,0-.19.29,0,.29s.19-.29,0-.29ZM174.02,168.84c.18-.22-.09-.8-.29-.57-.18.22.09.8.29.57ZM227.62,168.27l-.57.14.29,1.43c.01.25.83.17.86.14.43-.42-.71-1.23-.57-1.72ZM63.95,169.7l-1.15-.29v.86h1.15v-.57ZM229.19,169.41c-.19,0-.19.29,0,.29s.19-.29,0-.29ZM236.65,169.7c-.19,0-.19.29,0,.29s.19-.29,0-.29ZM197.38,169.99c-.19,0-.19.29,0,.29s.19-.29,0-.29ZM209.84,169.99c-.22-.18-.8.09-.57.29.22.18.8-.09.57-.29ZM229.91,170.85v-.86h-.29v.86h.29ZM212.71,170.85c-.22-.18-.8.09-.57.29.22.18.8-.09.57-.29ZM71.69,171.13c-.43-.09-.59.13-.86.43l.29.72h.57v-1.15ZM69.97,172.85c.08-.55-.31-.94-.86-.86v.86h.86ZM232.78,172.85l-1.15-.29.14,2.58c.65.16.49-.64.43-1-.06-.38-.19-.42-.29-.72l.86-.57ZM87.31,173.14c-.42,0-.42.86,0,.86s.42-.86,0-.86ZM232.92,173.42l-.43.43.14.14.43-.43-.14-.14ZM201.25,174.28c.18-.22-.09-.8-.29-.57-.18.22.09.8.29.57ZM226.47,175.14v-1.15h-.29v1.15h.29ZM73.69,174.57h-.57c.09.34.41.43.29.86h.29v-.86ZM83.44,176.29l.29-1.15c-.58.15-.64.61-.57,1.15h.29ZM220.45,176.86c-.6-.07-.65-.03-.57.57l.57-.57ZM131.31,177.15s-.39.02-.57,0l.43.57h.14c-.02-.18.04-.54,0-.57ZM122.71,177.44c-.22-.18-.8.09-.57.29.22.18.8-.09.57-.29ZM65.67,177.72c-.24-.24-1.02.44-.86.57h.86c-.02-.18.04-.54,0-.57ZM221.02,177.72h-.86v.14c.48.6,1,.7.86-.14ZM230.91,179.44c-.19,0-.19.29,0,.29s.19-.29,0-.29ZM85.73,181.45l-1.72.43c.56.79.66.24,1,.14.46-.13.86.32.72-.57ZM136.75,183.17c-.22-.18-.8.09-.57.29.22.18.8-.09.57-.29ZM75.84,184.32c-.19,0-.19.29,0,.29s.19-.29,0-.29ZM186.91,189.19l-.57-.57c-.07.6-.03.65.57.57ZM216.15,192.05c-1.28-.22-.15,1.22.29.86l-.29-.86ZM238.51,193.49c.43.09.59-.13.86-.43-.27-.3-.43-.52-.86-.43v.86ZM67.82,207.53c-.19,0-.19.29,0,.29s.19-.29,0-.29ZM82.58,219.57h-.86v.29h.86v-.29Z"/>
  <path d="M96.05,201.51c.61-.09,1.13-.45,1.86-.29.03,0,.52.25.57.29.53.31,1.28,1.71,1.29.29.52.22.92-.27,1-.29.9-.13,2.97.38,3.3-.72.06-.21-.06-.66,0-.72.08-.08,1.48-.08,1.58.29.61-.98,1.02-.29,1.15-.29.1,0,.19-.29.29-.29.09,0,.16.23.29.29.18.08.73.2.86.29.67.43.54,1.34,1,1.86v.57c-.44.23-.2.63-.29.86-.04.11-.23.17-.29.29-.04.09.04.22,0,.29-.25.42-.97.85-1.29,1.29-.8.16-1.58.37-2.29.57-.12.03-.18.26-.29.29-.79.18-1-.22-1.58-.57-.09,1.33-1,.99-1.86,1.15-1.11.2-4.31.6-5.45.29-.16-.04-.42-.53-.57-.57-.35-.1-1.47.1-1.58,0-.05-.05-.07-.76-.72-1.15-.5-.3-1.02-.17-1.43-.29-.13-.04-.43-.37-1.15-.57-.25-.07-.95-1.07-1.29-1.29.36-.25.4-1.3.29-1.72-.04-.16-.53-.42-.57-.57-.07-.24.07-.62,0-.86-.13-.48-1.37-.66-1.43-.72-.05-.05.06-.28,0-.43-.05-.12-.26-.18-.29-.29-.27-1.17.74-1.31.86-1.72.05-.18-.05-.4,0-.57.19-.66,1.64-.93,1.72-1,.05-.05-.08-.29,0-.43.11-.2.53-.43.57-.57.11-.38-.4-.48-.29-.86.12-.42.71-1.58,1.15-1.29-.18-.44.34-1.33.72-1.43.24-.07.62.07.86,0,.13-.03.73-.54.86-.57.1-.03,1.28.19,2.01,0,.17-.04.48-.5,1-.29.12-1.27-.06-2.29-.86-3.3-.22-1,.54-1.35,1.15-2.01-.3-.12-.11-.75,0-1.15.05-.17,1.01-1.09,1.29-1,.38.55,1.15.16,1.72.29.1.02.16.23.29.29.09.04.23-.04.29,0,.56.36.33.64.43,1s1.04.49,1.15.86c.05.18-.05.4,0,.57.04.12.27.18.29.29.1.57.1,2.87,0,3.44-.02.11-.25.17-.29.29-.05.18.06.41,0,.57-.04.1-.5,1.04-.57,1.15-.2.3-.64.56-.86.86-1.28,1.81-3.59,2.64-5.59,3.87-.07.04-.22-.04-.29,0-.39.26-1.41,1.46-1.29,1.86.44.23.2.63.29.86.05.11.23.17.29.29.04.09-.04.22,0,.29.45.76,2.07,1.07,2.01,2.15Z"/>
  <path d="M109.52,210.68c-.16.44.52,1.02.57,1.29.34,1.59-.43,2.61-1.58,3.58-.65.29-1.32.38-2.01.57-.4.11-1.37.52-1.72.57-.39.06-.88-.04-1.29,0v-.57h-.29c.11.83-.14.45-.43.57-.12.05-.19.27-.29.29-.33.06-1.09.05-1.43,0-.76-.11-1.93-.15-2.58-.29-.1-.02-.76-.55-.86-.57-.67-.15-.88.05-1.72-.29-1.14-.45-3.85-1.93-4.16-3.01-.08-.28.14-.62-.29-.86v-.29c.45-.36.84-.97,1.29-1.29.24-.17.89-.12.72-.86.43-.16.66.29.72.29.1,0,.18-.27.29-.29.58-.1,1.15-.15,1.72-.29,1.11.83,2.43,1.22,3.44,2.01.58-.56,1.54-.4,2.01.29,1-.9,1.84-.57,2.87-.29.51.14,1.1-1.05,1.43-1.15.27-.07,1.68-.06,2.01,0,.11.02.17.26.29.29.19.05.41-.06.57,0,.17.06.24.44.72.29Z"/>
</svg>