<?xml version="1.0" encoding="UTF-8"?>
<svg id="zkouska_s_hlavamaa" data-name="zkouska s hlavamaa" xmlns="http://www.w3.org/2000/svg" viewBox="0 0 288.67 288.67">
  <path d="M151.93,88.28c.17,1.08-1.1,1.63-1.72,2.44-.76.97-2.52,4.2-2.87,5.44-.37,1.3-.4,2.64-.57,4.01-.01.11-.28.18-.29.29-.17,1.91.32,3.25.57,4.87.06.4-.04.87,0,1.29h1.15c-.12.83.14.45.43.57.16.07.2.39.57.29.12-.03.18-.26.29-.29,1.09-.22,2.39-.42,3.44-.57.53-.08,1.71-.09,1.86.43.07.22-.17.69.14.72.19-.45.94-.22,1-.29.05-.06-.08-.3,0-.43.28-.5,1.02-.53,1.58-.43.11.02.17.26.29.29.73.17,1.16-.4,1.86-.29l.29,1.29.57.14c.05-.93,1.23-1.45,1.72-2.15.2-.29,1.29-1.7,1.58-1.86.83-.46.22-.32.43-1.29.09-.42.87-1.32,1.15-2.29.16-.55,1.88-1.28,2.01-1.72.06-.21-.06-.66,0-.72.08-.08,1.06-.22,1.29-.29.34-.1,1.38-1.24,1.72-1.43.14-.08.38.05.43,0,.06-.06.51-1.37.57-1.43.26-.26,1.47-.2,1.86-.29.11-.02.17-.25.29-.29,1.02-.33,2.16-.73,3.16-1.43.66-.05.82-.11.72.57.32-.04.71.06,1,0,.63-.13.57-.43,1.43-.29,1.09.18,1.91-.45,2.87-.29.11.02.19.29.29.29s.18-.27.29-.29c.99-.17,1.51.72,2.3.86.59.11,3.73.15,3.87.29.05.05-.08.29,0,.43.22.4,2.47,1.68,3.01,1.86.2.07.65-.06.72,0,.05.05-.06.28,0,.43.05.12.27.19.29.29.08.43-.07.99,0,1.43.02.11.29.19.29.29s-.27.18-.29.29c-.05.27.06.63,0,.86-.04.13-.44.38-.57.57-.05.07.04.23,0,.29-.14.18-.55.62-.72.72-.06.04-.2-.04-.29,0-.12.06-.18.26-.29.29-.36.08-1.91.07-2.3,0-.11-.02-.17-.25-.29-.29-.58-.18-.89-.27-1.43-.57-1.79-.99-2.68-1.09-4.59-1.43-.11-.02-.18-.27-.29-.29-5.35-.66-10.94,2.19-13.34,6.88l-.86.43c.35.25.67.8,1,1,.1.06.77.31.86.29,1.55-.43,3,1.58,4.59,1.15.5-.14,1.56.81,1.72.86.31.09.83-.09,1.15,0,.18.05,2.51,2.13,2.73,2.44.84,1.19,1.28.56,1.43.72.04.04-.1.52.43.86,1.23.79,1.86,1.29,2.73,2.44.52.69,1.48.85,1.72,1.72.08.29.22,1.79.29,1.86.24.24.48.06,1.15,1,.33.47.92.88.86,1.58.47.08.23-.72.72-.86.33-.1.67,0,.86.29.68-.74,2.05-1.04,1.86-2.29.59.19,1.13-1.22,1.86-1.43.6-.18.85.4.72-.86.59-.08,1.12.19,1.58.57.14-.32.5-.24.57-.29.61-.38.64-1.11,1.72-.86.11.03.18.27.29.29.96.14,1.93.05,2.87.29.33.08.77.18,1.15.29.1.03,1.03.85,1.29,1-.22.58.24.96.29,1.15.06.21-.06.66,0,.72.06.06.52-.07.72,0,.41.14.87.7,1.15.86.14.08.38-.05.43,0,.06.06-.06.51,0,.72.03.09.86.94.86,1.15,0,.06-.44.28-.29.72.9-.08.72.48.86,1,.17.65-.07.62,0,.86.04.16.53.42.57.57.48,1.74.75,5.19.57,7.16,0,.1-.27.18-.29.29-.29,2.32-.46,3.59-1.15,5.73-.66,2.07-1.84,4.73-3.16,6.59-2,2.83-4.4,5.08-7.32,6.73-1.05.59-2.04,1.36-3.3,1.15-.28.28.18,6.67,0,7.88-.05.37-.71,1.57-.57,2.01.3.99-.01,4.46-.29,5.73-.05.21-.67.81-.57,1.15.34,1.22-.72,4.27-1.15,5.73-1.24,4.29-2.56,7.88-4.88,12.04-.61,1.1-1.57,3.1-2.44,3.58s-.56,1.01-.72,1.58c-.04.16-1.7,2.1-2.01,2.58-.52.82-.97-.2-1.43,1.43-.07.24-3.34,3.51-3.59,3.58-.95.26-.95-.48-1.58.72-.47.9-.9.71-1.15,1.15-.23.4-.41.62-1,1-2.09,1.32-4.29,2.28-6.6,3.44-.85.43-.45.11-.86,0-.92-.25-.62.25-.72.43-.34.59-3.69,1.72-4.16,1.58-1.28-.39-.86.42-1.43.57-.24.07-.6-.06-.86,0-2.16.5-5.27,1.52-7.46.86-.56-.17-.78.27-.86.29-.57.1-5.95.22-6.17,0-.05-.05.08-.3,0-.43-.27-.47-1.08-.57-1.58-.43-.28.08-.41.81-1.43.57-1.11-.26-2.35-.6-3.44-.86-1.77-.42-3.49-.68-5.16-1.43-1.27-.57-2.6-1.34-3.73-2.01-1.08-.64-1.16-.34-2.01-.57-.28-.08-.66-.99-1.15-.86-1.18.33-1.36-.34-2.3-.86-.59-.33-.38-.55-1.15-.86-2.2-.9-2.91-1.62-4.16-3.58-.11-.18-1.38-.96-1.58-1-.27-.06-.93.07-1,0-.06-.06.07-.52,0-.72-.05-.15-.58-.97-.72-1-.81-.22-1.53-.02-2.15-1-.35-.54-.87-1.57-.86-2.15-.99.22-1.3-1.06-1.58-1.15-.21-.06-.66.06-.72,0-.05-.05.06-.28,0-.43-.5-1.21-1.59-1.9-1.43-3.3h-.57c.15-1.27-.15-.67-.72-.86-.15-.05-.97-.58-1-.72-.16-.6.43-1.43.29-1.58-.05-.05-.52.05-.57,0s.08-.29,0-.43c-.24-.43-1.04-.5-1.15-.86-.06-.21.06-.66,0-.72-.07-.07-1.25-.39-1.43-1-.49-1.64-1.32-2.56-1.43-4.15h-.57c.14-.85-.74-1.74-.86-2.44-.12-.66.29-1.46-.43-1.86-.13-.08-.38.05-.43,0-.29-.29.33-1.4.29-1.58-.03-.11-.26-.18-.29-.29-.11-.49.12-1.27,0-1.72-.1-.36-1.05-.5-1.15-.86-.11-.38.11-1.05,0-1.43-.04-.14-.46-.38-.57-.57-.08-.14.05-.38,0-.43-.1-.1-1.23.1-1.58,0-.16-.04-.41-.53-.57-.57-1.11-.32-1.79-1.09-2.01-1.15-.31-.09-.81.07-1.15,0-.91-.2-2.91-2.41-3.73-2.87-.14-.08-.38.05-.43,0-.06-.06.06-.51,0-.72-.04-.14-1.32-1.72-1.58-1.86-.72-.4-.71-1.55-1.43-2.01-.56-.36-2.45-2.32-2.73-3.01-.38-.96-.08-2.12-.29-2.87-.04-.15-.87-.82-1.15-1.43-.24-.52-.95-2.94-.86-3.44.15-.85-.1-.92-.29-1.72-.24-1.02.49-1.14.57-1.43.18-.61-.47-1.06-.57-1.43-.12-.44-.11-1.25-.29-1.72-.06-.16-.55-.76-.57-.86-.06-.26-.06-1.18,0-1.43.11-.49,1.1-1.26,1.15-1.43.15-.56-.1-1.62,0-2.29.02-.1.26-.17.29-.29.06-.21-.06-.66,0-.72.05-.05.65-.12,1.15-.72.62-.74.88-.78,1.15-1.72.04-.15,1.88-1.95,2.15-2.15.07-.05.81-.56.86-.57.75-.21,2.62.35,2.44-.86.94.23,1.88-.52,2.73-.29.31.08,1.39,1.17,2.15.86v.57c.95-.39,2.03.75,2.44.86.24.07.6-.06.86,0,.11.03.29.45.86.29.49-.14.35-.76.43-1,.2-.63.55-1.29.57-2.01.62-1.04,1.6-1.85,2.3-2.87.77-1.13,1.03-2.37,2.15-3.3.96-.79,1-1.06,2.3-1.43.44-.13.86-1.38,1.43-1.72.38-.22,1.24-.24,1.29-.29.05-.05-.08-.29,0-.43.28-.49,1.12-1.08,1.58-1.29.54-.25,2.09-1.29,2.58-1.15.83.24.53-.41,1.58-.29v-.57c.98-.03,1.64-.36,2.01-1,.41-.71,1.53-.35,2.3-.43v-.57c1.02.02,2.87.04,2.87-1.15.1-.1,2.21.07,2.73,0,.11-.02.17-.26.29-.29.73-.17,1.08.29,1.15.29s.91-.22,1.15-.29c.47-.13,1.22-.98,1.72-1.15.2-.07.65.06.72,0,.05-.05.05-1.11,0-1.29-.03-.1-.37-.52-.57-1.15-.04-.12-.27-.18-.29-.29-.14-.78-.03-1.67.86-1.58v-.14c-.4-.64-.91-1.34-1.58-1.86-.06-.04-.22.05-.29,0-.62-.47-.72-.96-1-1.58-.34-.73-2.41-2.18-3.3-2.72-.28-.17-1.28-1.1-1.43-1.15-.75-.21-1.73-.32-2.58-.57-.23-.07-1.35-.57-1.43-.57-.1,0-.18.27-.29.29-1.02.17-2.4-.15-3.44,0-.11.02-.18.26-.29.29-1.6.32-3.52.98-4.88,2.01-1.18.88-2.63,3.07-3.73,3.73-.05.03-.54.28-.57.29-.23.06-.59-.05-.86,0-.11.02-.19.29-.29.29s-.17-.26-.29-.29c-.19-.05-.42.06-.57,0-.11-.04-.17-.23-.29-.29-.09-.04-.22.04-.29,0-.6-.35-.73-1.17-1.29-1.58-.16-.57.25-.73.29-.86.1-.37-.29-.5-.29-.57,0-.1.27-.18.29-.29.05-.27-.06-.63,0-.86.04-.14.46-.38.57-.57.12-.22.25-.96.29-1,.04-.04,1.11-.24,1.15-.29.04-.04-.04-.72.43-.86.73-.22.82.42.72-1.15,1.16.15.7-.14.86-.43.58-1.03,1.56-.85,2.44-1,.93-.17.67-.81.72-.86.09-.09,1.91-.48,2.01-.57.05-.05-.21-.69.72-.86.35-.06.8.06,1.15,0,.56-.1,1.03-.75,1.72.29.38-.52.32-.1.57,0,.63.25.38-.52.43-.57.59.08,1.12-.19,1.58-.57,1.03.35,2.25.06,3.16.86.3-.46.72.17,1.43,0,1.78-.41,1.01.09,1.72.29.43.12,1.25.11,1.72.29.36.13.82.7,1.29.57v1.43c.7.12,1.18-.47,1.86-.29.07.02.92.87,1,1,.13.21.25.96.29,1,.22.22.39-.41.86.43.32.57.77.48,1.15,1.15.24.44.86.41,1.15.86.45.7.74,1.55,1.15,2.29.83,1.49,1.64,3.27,2.01,4.87.18.79.13,1.86.29,2.58.02.09.58.96.72,1,.38.11.48-.4.86-.29.12.03.19.29.29.29s.17-.26.29-.29c.68-.18,1.42-.32,2.01-.86h.29c.45.39.99.65,1.58.57v-.86c1.26.14.68-.12.86-.72.04-.14.45-.38.57-.57-.32-.14-.24-.5-.29-.57-.17-.27-.81-.68-.86-.86-.38-1.39-.12-3.19-.57-4.58.28-.55,1.03-1.15.86-1.72-.32-1.04-.31-1.19.29-2.29.73-1.35.31-1.09.57-2.29.05-.24.71-1.1.86-1.43.35-.76.88-3.18,1.58-3.58.8-.45.72-.88,1-1.86.03-.1,1.09-1.46,1.29-1.58.21-.13.96-.25,1-.29.06-.06-.06-.51,0-.72.04-.15.44-.25.29-.72.35-.06,1.63.09,1.72,0,.05-.05-.08-.29,0-.43.12-.22,1.16-1.54,1.29-1.58,1.42-.41.75-.61,1-.86.1-.1,1.88.07,2.3,0l.29-1.15c.4-.05.92.08,1.29,0,.1-.02.76-.55.86-.57.44-.1,2.04.11,2.15,0,.05-.05-.14-.98.43-1.15.17-.05.39.05.57,0,.12-.03.19-.29.29-.29.05,0,.3.46.86.29.95-.29.69-.52,1.72-.29.89.2,2.01-.53,3.16-.29.1.02.76.55.86.57.49.11,1.27-.12,1.72,0,.16.04.42.53.57.57.85.23,1.03.18,2.01.57.17.07.42-.07.57,0,.11.05.17.23.29.29.09.04.23-.04.29,0,.57.36.32.66.43,1,.04.12.27.18.29.29.45,2.5-1.05,4.23-3.59,3.87-.47.48-1.65-.4-2.3-.57-1.6-.43-3.4-.02-4.88-.57-.47-.14-.87.78-1.15.86-2.62.72-4.9,1.47-7.17,3.15-.27.2-1.05,1.15-1.15,1.15-.07,0-.31-.43-.43-.29ZM105.16,97.45c-.22-.18-.8.09-.57.29.22.18.8-.09.57-.29ZM177.18,116.36c-.07-.07-.74.06-1,0-.11-.03-.17-.25-.29-.29-2.62-.72-5.35-1.94-7.46-2.29-2.3-.38-4.98-.26-7.17-.86-.24-.07-3.74.54-4.88.29-2.03-.45-5.5.57-7.46.29-1.81-.26-2.88.57-4.59.29-.89-.15-2.81.45-4.02.57-3.65.38-7.16.62-10.62,1.43-5.33,1.25-10.92,2.33-16.07,5.16-4.49,2.46-7.22,5.11-9.32,9.89-.42.94-.62,2.1-1.43,2.87.57.77.19,2.12.29,3.15.13,1.4.71,2.98,1.15,4.3.1.32.25.96.29,1,.05.05.3-.08.43,0,.53.3.97,1.67,1.29,2.15.25.38,1.37,1.19,1.43,1.43.07.26-.08.93,0,1,.05.05.91.06,1.29.29.6.36,1.21,1.66,1.43,1.72.17.05.39-.05.57,0,.12.03.19.29.29.29s.18-.27.29-.29c.44-.07,1.02.09,1.43,0,.74-.16,1.18-.89,2.58-.57,1.1.25,1.62.23,2.87,0,.57-.1,1.12-.01,1.58.29v-.57c.32-.04.71.06,1,0,.9-.18,1.91-.36,2.58-.57,1.39-.45,2.81-.16,4.3-.57.23-.06,1,.53,1.58.29-.18-.82.31-.39.72-.86h.29l1.15,1.15c.27-.48.76-.18,1.15-.29.15-.04.38-.47.57-.57.37-.2,1.8-.82,2.01-.86.36-.06,1.49.09,1.58,0,.06-.06-.06-.51,0-.72.02-.07.67-.84.86-1.15.27-.43.84-.53,1.29-.72.1-.04.17-.21.29-.29.48-.14,1.18.52,1.86.29-.21.82.51.76.86.14.08-.13-.05-.38,0-.43.05-.05,1.09-.05,1.29,0,.12.03.2.39.57.29.85-.23,1.08.19,1.72.29.52.08,1.29-.12,1.72,0,.19.05.59.71.86.86.22.12.57-.27.43.57,1.24-.23,1.67.29,2.44,1.15.75-.81,1.68-.45,2.58-.57.7-.1,1.73-.78,2.01-.86.92-.25,2.29.17,3.44-.29.5-.2,1.25-1.02,1.72-1.15s1.22-.13,1.72-.29c.48.55,1.27.43,1.72.86h.29c.49-.21.84-1.35,1.15-1.43.81-.22,1.56.42,2.01.29,1.07-.85,2.44-.49,3.73-.86.32-.09,1.85-1.71,2.3-2.01.63-.41,1.3-.44,1.86-1.29.71-1.07,1.8-2.37,3.01-2.72.47-.13.39-.82.43-.86.19-.2.79.13,1.15-.72.17-.4,1.2-1.46,1.58-1.58.21-.06.66.06.72,0,.04-.04.06-.81.57-1-.3-.12-.11-.75,0-1.15.15-.52,1.29-.34,1.43-.86.1-.38-.26-.46-.29-.57-.11-.49.12-1.27,0-1.72-.04-.16-.53-.42-.57-.57-.11-.38.11-1.05,0-1.43-.04-.16-.53-.41-.57-.57-.42-1.47-1.96-2.41-2.01-2.58-.28-.98-.21-1.42-1-1.86-.85-.47-.29-1.02-1.72-1.43-.12-.03-1.26-1.47-1.29-1.58-.06-.21.06-.66,0-.72ZM192.24,122.95c-.19,0-.19.29,0,.29s.19-.29,0-.29ZM106.31,123.52l-1.15-.29c.33.75,1.31,1.4,1.15.29ZM202.14,124.67c-.05-.05-.29.08-.43,0-.2-.11-.38-.46-.57-.57-.38-.21-1.01-.4-1.43-.57-.1-.04-.17-.21-.29-.29-.56-.17-.71.24-.86.29-.18.06-.41-.06-.57,0-2.23.89-3.84,3.72-5.02,5.59-.21.33-.67.7-.86,1.15.04.37-.06.8,0,1.15.02.11.26.17.29.29.29,1.31.02,2.38.29,3.73.32,1.62.97,3.51,1.15,5.16.08.76.24,1.72.29,2.29.08.91-.13,2,0,2.87.01.09.51.5.29,1,.88.17,1.49-.29,2.3-.29-.25-.95,1.56-1.03,1.72-1.58.45-1.57.96-.98,1.43-1.72s.19-1.08,1.29-1.58c.17-.08.86.08,1-.43.19-.68-.26-1.01-.29-1.15-.31-1.68,1.69-3.13,1.43-4.01s.49-1.77.29-3.15c-.02-.12-.45-.43-.29-1.15.07-.32.83-1.04.86-1.15.06-.19-.03-.49,0-.72l.57-.29c-1.54.14-1.25-.23-1.43-1.29-.04-.25-.17-1.14-.29-1.43-.07-.18-.5-.68-.57-.86-.06-.17.06-.4,0-.57-.04-.11-.24-.17-.29-.29-.06-.15.05-.38,0-.43ZM187.65,124.1c-.19,0-.19.29,0,.29s.19-.29,0-.29ZM85.08,134.41h-1.15v.57c.54.07.99,0,1.15-.57ZM95.12,136.99c-1.54,1.1-2.21-1.07-3.3-1.72-.05-.03-.54-.28-.57-.29-.24-.07-.6.06-.86,0-.11-.02-.18-.27-.29-.29-.4-.06-1.65-.08-2.01,0-.1.02-.16.23-.29.29-.09.04-.23-.04-.29,0-.17.1-.88.82-1,1-.07.11-.54,1.04-.57,1.15-.32.87-.17,1.68-.29,2.58-.01.11-.28.18-.29.29-.07.82-.06,2.04,0,2.87,0,.1.28.18.29.29.21,2.23.32,4.21,1.15,6.3.31.79,1.04,1.78,1.43,2.58-.71,1.46.12.84.29,1,.05.05-.08.29,0,.43.22.4,1.06.56,1.43,1.15.19.3.38,1.14.57,1.43.48.71.56.38.86,1.43.11.38,1.43.8,1.86,1,1.05.49.55.58,1,1.29.18.28,1.06.78,1.29.72.12-.03.19-.28.29-.29.05,0,.29.44.72.29.21-.97-.49-1.82-.29-2.72.27-1.19-.2-1.67,0-2.87.12-.74-.07-1.47-.57-2.29v-.29c.56-.51.35-1.05.29-1.43s.04-.88,0-1.29c.84.14.45-.21.57-.43.16-.28.67-.56.86-.86.05-.08-.04-.43.29-.57-.8-.68-1.95-2.12-1.72-3.15.02-.1.55-.76.57-.86.09-.41-.09-1.02,0-1.43.04-.18.66-.38,0-.86,0-1.33-2.05-2.3-1.72-3.73.03-.13.44-.25.29-.72ZM97.99,137.28v-.86h-.14l-.43.43.57.43ZM188.95,162.5c.3-.3-.28-.95-.29-1-.36-2.37.3-4.47-.29-6.59-.1-.35.81-1.15.57-2.01-.04-.16-.53-.42-.57-.57-.32-1.17-.12-2.84-.57-4.3-.17-.53.45-.89.29-1.43-.05-.16-.53-.41-.57-.57-.15-.52.75-1.8.57-2.87-.02-.11-.29-.19-.29-.29,0-.07.39-.2.29-.57-.27-.98-.86-.45-.57-1.72.27-1.22-.47-1.42-.86-2.29-.18-.4-.35-.83-.29-1.29-.53.22-.86.79-1.29,1.15-1.98,1.64-4.07,3.49-6.03,5.16-.21.18-1.27,1.2-1.29,1.29-.05.17.05.39,0,.57-.03.12-.29.19-.29.29s.27.18.29.29c.15.89-.31,3.44-.57,4.3-.4,1.3-1.18,2.56-1.72,3.73-.33.7-1.82,2.95-2.44,3.3-.14.08-.38-.05-.43,0s.08.29,0,.43c-.46.82-4.64,3.02-5.59,3.3-.65.18-1.62.17-2.3.29-.11.02-.18.27-.29.29-1.65.2-3.08-.02-4.3-.86l-.86.57c-.24-.43-.58-.21-.86-.29-.1-.03-.83-.79-1.15-.86-.42-.09-1.02.09-1.43,0-.15-.03-2.28-1.24-2.58-1.43-.39-.26-.78-.94-1.15-1.15-.14-.08-.38.05-.43,0-.11-.11-.36-1.37-.29-1.72-.84.14-.45-.21-.57-.43-.25-.45-1.18-.98-1.43-1.43-.08-.14.05-.38,0-.43-.06-.06-.52.07-.72,0-.15-.05-.97-.58-1-.72-.05-.18.05-.4,0-.57-.09-.31-1.21-.93-.29-1.72-.63-1.02-1.29-.56-2.15-.72-.12-.02-.97-.52-1.15-.57-.43-.12-1.23-.13-1.72-.29-.37.51-1.4.09-1.58.72-.2.71.44,1.23.29,1.72-.37,1.23-.28,2.47-.57,3.73s-.9,2.57-1.43,3.73c-.55,1.19-2.35,4.04-3.59,4.73-.14.08-.38-.05-.43,0-.07.07-.39,1.26-1,1.43-1.06.3-.72.38-1.43.86-1.14.76-2.81,1.19-4.02,1.43-.11.02-.18.27-.29.29-.53.08-1.18-.07-1.72,0-.11.01-.18.27-.29.29-.45.06-1.27.06-1.72,0-.11-.01-.18-.28-.29-.29-1.19-.11-1.99-.01-3.16-.29-.43-.1-3.45-1.01-3.59-1.15-.04-.04.02-.39,0-.57-.4.12-1.62-.35-1.72-.72-.07-.26.08-.93,0-1-.08-.08-1.41-.29-1.15-1.15-.7.24-.64.1-1,0-.18-.05-.4.05-.57,0-.3-.08-.61-1.13-1.15-1.43-.14-.08-.38.05-.43,0s-.18-1.1-.57-1.29c.22-.48.16-1.52,0-2.29-.02-.09-.22-.16-.29-.29l.57-.72c-.53-.25-1.35.35-1.58.29-.57-.16-.38-1.1-.43-1.15-.06-.06-1.07-.15-1.43-.72-.13-.21-.25-.96-.29-1-.06-.06-.51.06-.72,0-.11-.03-.17-.25-.29-.29-.17-.06-.39.05-.57,0-.67-.19-.84-1.37-.72-2.01-.47.15-.57-.24-.72-.29-.24-.07-.62.07-.86,0-.28-.08-.83-1.08-1.29-1.15-.13,1.11.18,2.53,0,3.58-.16.96.2,1.45.29,2.29.17,1.68-.24,3.28.29,4.87.05.16.45.29.29.86-.2.69.39,1.72.57,2.58.66,3.1,1.23,6.58,2.58,9.46.47.99.79,1.44.57,2.72h.57c-.11,1.31-.04.88.43,1.15s1.76,3.15,2.15,3.87c.2.36.78.46.57,1.15-.02.06-.52.48-.29.72.06.06.57-.28.86.72.1.33-.16,1.12.43,1.29.39.11.48.13.86.29.15.06.38-.05.43,0,.06.06-.06.51,0,.72.29.97,2.84,2.29,3.44,3.73.32.75.34.31,1,.72,1.14.7,1.18,2.24,1.72,2.58.31.2.85.2,1.15.29.24.07.81.96,1.15,1.15.14.08.38-.05.43,0,.06.06-.06.51,0,.72.09.32,3.77,2.59,4.45,3.01,1,.62,1.43.82,2.58,1.15,1.85.53,1.17.9,2.01,1.43.6.38,1.23.15,1.72.29.16.04,1.27,1.1,1.43,1.15.95.27,1.23.8,1.43.86,1.09.3,1.6.27,2.58,0,.48-.13,1.25.81,1.43.86,1.55.43,3.32.13,4.88.57.27.08.69.93,1.58.57v-.57c.82,0,1.53-.48,2.44-.29.32.07,1.05.83,1.15.86.44.12,1.21-.09,1.72,0,.11.02.19.29.29.29.29,0,1.78-1.37,2.01-1.43.35-.1,2.71-.07,3.16,0,.11.02.19.29.29.29.08,0,1.25-.53,1.43-.57.34-.07.84.08,1.15,0,.16-.04,1.27-1.1,1.43-1.15,1.13-.32,2.03-.83,3.16-1.15.92-.26,3.64-.93,4.16-1.86.08-.14-.05-.38,0-.43.18-.18,1.28-.2,1.58-.29.42-.12.56-1.65,1.86-1.15-.15-1.15.15-.7.43-.86.19-.11.37-.43.57-.57.46.53.86.42.72-.29.84.14.45-.21.57-.43.36-.63,1.09-.38,1.15-.43s.13-.64.57-1.29c.35-.51,2.74-3.79,3.01-3.87,1.3-.37.63-.18,1-1,.83-1.85,2.38-3.46,2.87-5.16.06-.21.81-.66.86-.86.25-.89-.49-2.05.72-2.72.14-.08.38.05.43,0,.09-.09-.08-1.22,0-1.58.11-.5,1.44-1.66,1.43-2.01,0-.09-.25-.17-.29-.29-.24-.82.78-1.45,1.15-2.01.08-.12.2-.68.29-.86.06-.13.29-.2.29-.29-.43-.45-.31-1.24-.86-1.72v-.29l1.15-1.15c-.56-.53-1.06-.87-.86-1.72.03-.11.25-.17.29-.29.17-.6.3-1.12.57-1.72.33-.71-.5-1.59.57-2.29-.49-.43-.44-1.53.14-1.86.13-.08.38.05.43,0ZM180.34,139.57c-.6-.07-.65-.03-.57.57l.57-.57ZM99.43,143.01c-.31-.31-.89.26-.57.57s.89-.26.57-.57ZM170.01,146.74c-.22-.18-.8.09-.57.29.22.18.8-.09.57-.29ZM99.14,148.74s-.39.02-.57,0l.43.57h.14c-.02-.18.04-.54,0-.57ZM191.81,149.31l-.29.72,1,1c.88-.76.48-1.93-.72-1.72ZM120.51,154.47c-.19,0-.19.29,0,.29s.19-.29,0-.29ZM119.37,154.76c-.19,0-.19.29,0,.29s.19-.29,0-.29ZM119.8,155.62c.18.18.71-.17.86-.43l-.14-.14c-.34.48-.3.13-.72,0,.02.18-.04.54,0,.57ZM130.41,159.92c.18-.22-.09-.8-.29-.57-.18.22.09.8.29.57ZM122.67,160.78c.18-.22-.09-.8-.29-.57-.18.22.09.8.29.57ZM182.63,192.01h-1.15v.29h1.15v-.29ZM151.93,207.77l-.29-.57c-.18.56.19.76.29,1,.06.15-.05.38,0,.43.03.03.57-.08.72.29l.72-.29v-.86h-1.43ZM137.59,207.77c-.22-.18-.8.09-.57.29.22.18.8-.09.57-.29Z"/>
  <path d="M144.19,184.27c.05-.05-.08-.3,0-.43.38-.67,1.3-.38,2.01-.43.05-.05-.06-.28,0-.43.51-1.22,1.04-1.03,1.86-1.58s1.71-1.95,2.58-2.58c.06-.04.22.05.29,0,.2-.13.44-.54.57-.57.23-.06,2.06-.06,2.3,0,.1.03,1.03.85,1.29,1,.04.27-.06.63,0,.86.03.13.55.75.57.86.06.26.06,1.18,0,1.43-.02.1-.24.16-.29.29-.08.19-.21.74-.29.86-.28.42-1.42,1.49-1.86,1.86-1.15.96-1.49,1.05-2.87,1.43-.26.07-.63,1.1-1.15,1.43-1,.64-2.62.89-3.44,1.72l-.29-.29c-.49.56-.63.76-1.29.29v.57c-.13.13-1.72-.12-2.15,0-.16.04-1.15.78-1.72.86-.95.14-2.96-.35-3.16-.29-1.79.54-1.9-.4-2.3-.29-1.43.39-1.38-.67-2.01-.86-.39-.11-1.05-.17-1.43-.29-.15-.04-.38-.46-.57-.57-.14-.08-.38.05-.43,0-.05-.05.06-.28,0-.43-.05-.12-.25-.18-.29-.29-.07-.24.07-.61,0-.86-.14-.51-.63-1.2-.86-2.01-.05-.16-.53-.42-.57-.57-.27-.98.26-2.64.86-3.44-.71-2.02,2.35-3.3,2.58-5.3.73-.06,2.44-.76,2.3-1.43h1.43v.72l.57.14.29-1.29c.6-.83,1.26-.27,2.01-.14.03-.62.62-1.19,1-1.72.56,0,1.7.16,1.86-.43.05-.19-.07-.43,0-.57.15-.33.84-1.08.86-1.15.09-.31-.09-.83,0-1.15.07-.24.79-.43.57-1.15-.03-.11-.23-.16-.29-.29-.23-.5-.84-1.06-.86-1.15-.1-.35-.06-2.12,0-2.58.01-.1.26-.18.29-.29.05-.27-.07-.93,0-1,.05-.05.29.08.43,0,.59-.33.61-1.12,1.72-.86.11.03.18.27.29.29.44.06,1.07-.1,1.43,0,.17.05.85.91,1.15,1.15.06.04.22-.05.29,0,.14.11.7.65.72.72.05.18-.05.4,0,.57.04.12.26.18.29.29.07.34-.06.8,0,1.15.02.11.27.18.29.29.11.87.12,3.16,0,4.01-.02.11-.26.18-.29.29-.05.27.07.63,0,.86-.21.74-1.24,2.79-1.72,3.44-1.04,1.38-2.73,2.55-4.16,3.3-1.79.93-6.17,2.35-7.32,3.87-.04.06.05.22,0,.29-.2.29-.68.46-.57.86l2.15,2.15c.4.16.64-.51.86-.57.54-.16.91.45,1.43.29.86-.27,3.07-1.02,4.02-.86.11.02.19.29.29.29s.16-.24.29-.29c.16-.06.38.05.43,0ZM143.9,174.24c-.17-.49-.33-.64-.86-.43-.57.22-1.01-.11-.86.72l1.72-.29ZM133.86,186.85v-.86h-.29v.86h.29Z"/>
  <path d="M170.58,173.1c-.35.83.76,1.22.86,1.58,1.17,3.96,1.15,7.06-.29,10.89-1.23,2.2-2.87,4.52-5.02,5.87-.5.32-2.41,1.31-2.87,1.43-.23.06-.59-.05-.86,0-.11.02-.19.29-.29.29s-.17-.26-.29-.29c-.19-.05-.42.06-.57,0-.18-.07-.67-.49-.86-.57-.15-.06-.38.05-.43,0-.05-.05.08-.29,0-.43-.11-.2-.53-.43-.57-.57-.07-.24.06-.6,0-.86-.03-.11-.27-.18-.29-.29-.14-.93.05-1.84.72-2.44.5-.16,1.28-.16,1.72-.29.13-.03,1.77-1.69,1.86-1.86.08-.14-.05-.38,0-.43.1-.1,2.21-.91,2.58-.86-.14-.84.21-.45.43-.57s.47-.54.72-.72c.21-.7-1.84-.82-1.43-2.29.04-.16.53-.42.57-.57.11-.39-.2-.88.29-1.15-.49-.38-.64-.67-.86-1.15-.06-.12-.26-.18-.29-.29-.05-.23-.05-.9,0-1.15.02-.11.26-.17.29-.29.06-.26-.07-.62,0-.86s1.07-1,.86-1.58c.73-.07,1.14-.04,1.58.57.89-.45,1.28-1.4,2.44-1.15Z"/>
</svg>