<?xml version="1.0" encoding="UTF-8"?>
<svg id="zkouska_s_hlavamaa" data-name="zkouska s hlavamaa" xmlns="http://www.w3.org/2000/svg" viewBox="0 0 288.67 288.67">
  <path d="M180.67,62.84c.05.05-.08.3,0,.43.42.74,1.23.29,1.86.43.03,0,.54.27.57.29.44.28.58,1.13,1.15,1.43l.57-.57c.54.6,1.73,1.11,2.15,1.86.15.27,1.88,2.42,2.44,2.73.45.25.23-.14.72.72.46.81.95,1.68,1.43,2.58.27.49.75.39.57,1.43-.09.52.03.76,0,.86-.17.63-.09.34.29,1.15.16.35.84,1.35.86,1.43.08.28.07,2.55,0,2.87-.17.75-.03.92-.29,1.72s-.25,1.49-.57,2.3c-1.23,3.1-3.07,4.87-5.88,6.46-2.16,1.22-4.56,1.99-6.89,2.58-1.97.51-4.1,1.19-6.03,2.01-1.97.83-3.95,2.1-5.02,3.87-.2.32-.2.9-.29,1.15-.08.21-.55,1.02-.57,1.15-.11.63-.11,3.38,0,4.02.02.11.26.17.29.29.33,1.33.38,1.48,1.15,2.58.05.07-.04.23,0,.29.25.33,1.58,1.69,1.86,1.86.06.04.2-.04.29,0,.12.06.18.25.29.29.72.22.91-.51,1.15-.57.39-.11,1.75.12,1.86,0,.05-.05-.08-.29,0-.43.09-.15,1.47-1.55,1.58-1.58.18-.05.4.05.57,0,.14-.04.2-.39.57-.29,1.14.31,2.22.06,3.44-.29.14-.04.38-.45.57-.57.37.56,1.19.14,1.72.29.28.08,1.16,1.36,1.43,1.43.31.09.83-.09,1.15,0,.55.15,1.34,1.37,2.01,1.72,1.06.55.48.29.72,1,.2.61,1.63,1.87,1.43,2.58-.3,1.08.44.95.57,1.43.06.22.31,1.63.29,1.72-.04.13-.39.2-.29.57.03.11.26.18.29.29.36,1.59-.71,5.12-1.15,6.6-2.02,6.84-7.67,13.78-11.48,19.8-.27.43-1.05.52-1.15.86-.05.18.05.4,0,.57-.06.22-.74.46-.57.86.43.23.2.6.29.86.58,1.81,1.31,3.68,2.01,5.45.09.23-.15.63.29.86l-.57.43c.33-.05.53,0,.72.29.61.94,1.03,2.64,1,3.73.87-.15,1.13,1.87,1.43,2.73.45,1.29,1.29,2.38,1.15,3.87h.57c-.02.74.15,1.4-.29,2.01.06.05.3-.08.43,0,.85.48,2.21,3.4,1.58,4.16.78.62,1.14,1.69,1.43,2.58.86,2.61,1.49,5.17,2.01,7.75.34,1.67.89,2.42.29,4.59-.06.23.74,1.61.86,2.01.11.37-.91,1.15.29,1l-.57.72c.51.33.19.93.29,1.43.02.11.27.18.29.29.15.78.44,2.71.29,3.44-.09.41-.96,1.07-.86,1.43.06.22.54.2,0,.57.12.19.54.43.57.57.1.35-.43,4.34-.57,4.88-.1.36-1.21,1.44-.86,2.3l-.57.14.57.29v.86h-.57c.07,2.3-1.17,4.42-2.3,6.46-1.57,2.86-3.83,6.55-6.89,7.89.29.92-.88,1.26-1.58,1.72-1.86,1.22-3.34,2.19-5.45,2.87-1.84.59-4.45,1.82-6.6,1.43-.08-.01-.29-.45-.86-.29-.47.13-.39.82-.43.86-.06.06-1.33.04-1.58,0-.08-.01-.3-.46-.86-.29-2.98.91-10-.09-12.91-.86-1.1-.29-2.64-.2-4.02-.57-.47-.13-1.9-1.26-2.3-1.15-1.78.49-5.28-.83-7.17-1.43-1.32-.42-2.93-1.06-4.3-1.43-.62-.17-.85.38-.72-.86-.5-.06-1.11.08-1.58,0-.3-.05-3.3-1.43-3.73-1.72-.27-.18-.68-.81-.86-.86-1-.3-.53-.29-1.43-.86-.7-.44-.02-.74-1.43-1.15-.14-.04-.7-.92-.72-1-.13-.56.26-1.17-.43-1.58-.12.38-1.08-.06-1.43-.29-.76-.49-.89-1.42-1.29-2.15-.46-.85-1.83-3.17-2.01-4.02-.09-.41.1-1.06,0-1.43-.03-.09-.79-.83-.86-1.15-.05-.24-.06-1.22,0-1.43s.7-.42.57-.86c-.04-.16-.53-.41-.57-.57-.25-.87-.48-1.91-.29-2.58.16-.55-.48-.97-.29-1.58h-.57v-.57h.57c-.04-.32.06-.71,0-1-.02-.11-.27-.18-.29-.29-.2-1.07.71-2.18.29-2.87,1.18-.51-.42-2.11-.29-2.58.24-.86.46-1.84.29-2.87-.13-.81.1-1.81-.29-2.87.16-.21.5-.68.57-.86s.32-1.9.29-2.01c-.47-1.54.32-2.28,0-3.44-.04-.16-.53-.42-.57-.57-.04-.13.22-2.27.29-2.58.02-.1.55-.76.57-.86.27-1.25-.47-1.37-.57-1.72-.09-.32.47-2.14.57-2.58.21-.9-.94-1.81.29-2.58l-.57-.14c-.36-.89.5-1.32.57-1.58.36-1.31-.41-2.58.57-4.02-.25-.31-.67-1.38-.57-1.72.06-.22.54-.2,0-.57l.86-1.15c-.71-1.41.12-1.7.29-2.3.38-1.37-.74-1.58-.86-2.01-.05-.19.07-.43,0-.57-.27-.59-.76-.91-.57-1.72.03-.11.27-.18.29-.29.06-.35-.07-.81,0-1.15.01-.07.2-.56.29-.86.1-.36,1.22-.75.86-1.58-.95.41-1.65-1.29-2.15-1.43-.8-.23-1.6-.67-2.3-1.15-.98-.67-3.52-2.53-3.87-3.59-.07-.2.06-.65,0-.72-.05-.05-.29.08-.43,0-.2-.11-.42-.53-.57-.57-.21-.06-.66.06-.72,0-.05-.05.08-.29,0-.43-.11-.2-.53-.42-.57-.57-.06-.21.06-.66,0-.72-.05-.05-.29.08-.43,0-.29-.16-1.01-1.15-1.15-1.15-.09,0-.17.25-.29.29-.32.09-2.59-1.47-2.15-2.3h-.57l.29-.57c-.84.14-.45-.21-.57-.43-.19-.33-1.08-.91-1.15-1.15-.35-1.2.04-1.41-1-2.15-.61-.43-.73-1.13-1.29-1.58-.02-.62-.07-1.07.29-1.58l-1.15-.29c-.06-.6.08-1.29,0-1.86-.02-.11-.26-.18-.29-.29-.25-1.24-.62-2.95-.29-4.02.28-.91-.08-.86,0-1.15.15-.51,1.1-1.27,1.15-1.43.12-.45-.12-1.27,0-1.72.05-.17.69-.6.86-.86.3-.46.32-1.2,1-1.58.14-.08.38.05.43,0s-.08-.3,0-.43c.32-.57,1.47-.45,1.15-1.58.67-.19,2.25-.13,2.58-.72.08-.13-.05-.38,0-.43.04-.04.79-.17,1-.29l1.15.57c.49-.74.83-.67,1.43-.86.12-.04.18-.27.29-.29.25-.05.91-.05,1.15,0,.1.02.69.5.86.57.29.12.55-.26.43.57.82-.21.4.45,1,.86.35-.49,1-.37,1.29.14.08.13-.05.38,0,.43.16.16,1.61-.28,1.86.29.36,0,1-1.96,1-2.3-2.01.25-.8-2.61-1.15-3.87-.04-.16-.53-.42-.57-.57-.24-.86-.23-2.69,0-3.44s-.57-.94-.86-1.43c-.65-1.09.02-2.62-.29-3.73-.12-.45-1.36-1.04,0-2.01-.44-.23-.2-.63-.29-.86-.4-1.05-.85-.76-.57-2.01.25-1.12-.44-2.26-.86-3.16.48-.53.66-1.17.57-1.86h-1.15c.14-.48-.39-.64-.29-1,.35-1.27-.02-1.73.29-2.87.1-.39.41-2.44.29-3.16-.02-.1-.33-.67,0-1,.05-.05.3.08.43,0,.75-.42.81-2.3,1-3.01.02-.09.75-.8.86-1.15.07-.2-.06-.65,0-.72.05-.05.28.06.43,0,.38-.16.81-.69,1.29-.57-.09-1.68,1.79-1.85,3.16-1.72-.15-.47.24-.57.29-.72.06-.21-.06-.66,0-.72s.51.06.72,0c.93-.26.68,0,.86,0,.07,0,.88-.52,1-.72,1.2-1.88,1.42-.85,3.01-1.29.16-.04.41-.53.57-.57,2.86-.84,5.92-2.12,8.61-2.01.28-.59,1.98-.11,2.15-.29v-.86c.5.06,1.11-.08,1.58,0,.11.02.17.25.29.29.72.22.91-.51,1.15-.57,1.17-.32,2.35-.3,3.44,0,.38.1,1.38-.79,1.72-.86,1.07-.23,2.09.52,3.16.29.42-.09,1.83-1.1,2.01-1.15.58-.16,1.84.06,2.58,0,1.39-.12,1.37-.19,2.87,0s4.27-.77,5.74-1.15c.45-.12,2.99-.62,3.16-.57.67.19,1.09-.17,1.72,0,.16.04.42.53.57.57,1.13.31,3.4-.94,4.59,0,.31-.2.93-1.09,1.15-1.15.25-.07,1.42-.05,1.72,0,.1.02,1.05.56,1.15.57.43.08,1.06-.1,1.43,0,.16.04.41.53.57.57.35.1,1.08-.68,1.43-.57.65.43,1.61.54,2.3,1.15l.86-.57c.26.56,1.71.13,1.86.29ZM170.34,65.71c.18-.22-.09-.8-.29-.57-.18.22.09.8.29.57ZM174.93,65.99c-.6-.07-.65-.03-.57.57l.57-.57ZM167.04,71.44c-.19,0-.19.29,0,.29s.19-.29,0-.29ZM151.98,74.03c.18-.22-.09-.8-.29-.57-.18.22.09.8.29.57ZM140.79,73.74c-.22-.18-.8.09-.57.29.22.18.8-.09.57-.29ZM182.1,76.32l-.72-.29c-.27-.16-.83.48-.72.57h1.43v-.29ZM124.86,77.47c-.19,0-.19.29,0,.29s.19-.29,0-.29ZM153.41,82.06c.19-.86-.86-.96-.86-.43,0,.18.69.6.86.43ZM145.95,93.25c-.24.24-.68-.28-.72-.29-.51-.09-1.11.22-1.43-.29-.42.72-2.09.74-2.87.57-.1-.02-.76-.55-.86-.57-.75-.17-1.27.46-2.01.29-3.24-.76-6.72-.87-10.04-1.43-.11-.02-.26-.45-.72-.29-.09.08.51.83.57,1,.11.3.29,1.07,0,1.15.8.53.56,1.27.57,2.15h.57c.1.78.15,1.68.29,2.44.02.11.44.26.29.72-.58-.1-1.03.43-.86,1,.11.36.85.86.29,1.15.25.21.81.91.86,1.15.27,1.25-.28,6.17-.57,7.46-.21.94-.82,2.2-1.15,3.16-.57,1.7-1.16,3.3-2.01,4.88-.13.24-.42.76-.57.86-.31.19-.53.16-.86.14-.11.51.49.2.57.29.04.04-.13.45.29.72.38.24.9.41,1.15.86.08.14-.05.38,0,.43.06.06,1.66.06,1.72,0,.05-.05-.08-.29,0-.43.32-.57,2.42-1.62,3.01-1.86.29-.12.54.26.43-.57.5-.02,1,.15,1.29-.29.54.66,2.15.49,2.87.29.38-.1.45.25.57.29.38.1.46-.26.57-.29.33-.08.84.09,1.15,0,.28-.08,1.16-1.36,1.43-1.43.37-.1,1,.07,1.43,0,.23-.03.95-.73,1.43,0l1.15-1.43c.66.11,1.72-.16,2.3,0,.48.13-.03.65,1.15.29.47-.14,3.08.88,3.73,1.15,1.05.43.63.77.72.86.05.05.28-.06.43,0,.12.05.18.25.29.29.56.17.71-.24.86-.29.17-.05.39.05.57,0,.23-.07.83-.95,1.15-1.15.33-.1.94.52,1.15.57.39.11.84-.13,1.29.29l.57-1.43h.86l.29,1.43h.86c-.19-1.73,1.24-.9,2.15-1.15.2-.05.48-.59,1.43-.86.15-.04.38-.46.57-.57.14-.08.38.05.43,0s-.08-.29,0-.43c.19-.34,1.3-1.42.86-1.86-.05-.05-.29.08-.43,0-.86-.48-.56-1.01-.72-1.58-.45-1.66-1.81-2.12-1.15-4.3.13-.42-.54-1.65-.29-2.58.29-1.09.39-2.02.57-2.87.13-.57-.12-1.44,0-2.01.02-.11.54-.89.72-1,.21-.13.96-.25,1-.29.05-.05-.08-.29,0-.43.11-.2.53-.43.57-.57.15-.55.09-1.56.29-2.3.08-.32.16-.45.29-.72-1.19.05-2.4-.07-3.59,0-4.4.26-9.36.56-13.77,0-.54-.07-1.19.08-1.72,0-.08-.01-.48-.51-1-.29v-.57h-.29c-.02.18.04.54,0,.57ZM116.83,95.55c-.19,0-.19.29,0,.29s.19-.29,0-.29ZM125.01,111.9l-.43-.57-.43.43v.14h.86ZM123.57,112.47c-.6-.07-.65-.03-.57.57l.57-.57ZM182.1,129.98c.05-.05.3.08.43,0,.97-.55-.03-1.28.14-1.86.06-.22.93-.82,1.15-1.15.33-.5.41-1.32,1.15-1.72-.9-.65.47-1.9.57-2.3.14-.5-.1-1.42,0-2.01.14-.84-.17-.62-.29-1.15-.15-.71.21-1.76.57-2.3-.98-.7-1.05-1.79-1.15-2.87-.16-.12-.28-.33-.43-.43-.31-.2-1.07-.38-1.43-.57-.2-.11-.43-.53-.57-.57-.3-.08-.8.06-1.15,0-.11-.02-.18-.27-.29-.29-.26-.05-.89-.05-1.15,0-.11.02-.17.26-.29.29-.26.06-.63-.07-.86,0-.11.03-.17.25-.29.29-.18.06-.41-.06-.57,0-.79.31-2.4,1.96-2.58,2.01-1.41.4-.71.21-1,1.29-.02.07-.66.81-.86,1.15-.46.75-1.14,1.87-1.43,2.58-.06.15.05.38,0,.43-.05.05-.29-.08-.43,0-.2.11-.43.53-.57.57-.21.06-1.51.06-1.72,0-.16-.05-.6-.68-.86-.86-.06-.04-.21.05-.29,0-.42-.27-.37-.63-.43-.72-.32-.45-.77-.51-.57-1.29-.69.02-1.3.75-1.86,1.15-.06.04-.21-.05-.29,0-.44.28-.55.79-.43,1.29.03.14.55,1.04.57,1.15.05.3.07,1.47,0,1.72-.1.35-1.2,1.71-.57,2.3-.37,1.02-1.23,2.34-2.15,3.01-.06.04-.22-.05-.29,0-.2.13-.44.53-.57.57-.4.12-1.02.18-1.43.29-.11.03-.18.27-.29.29-.88.16-2.08-.11-3.01,0,.42-.39-1.19-1.15-1.29-1.15-.09,0-.17.25-.29.29-.07.02-1.21-.23-1.43-.29-.38-.1-.88-.71-1.15-.86-.14-.08-.38.05-.43,0-.08-.08.05-1.12,0-1.43-.68-.03-1.25-.46-1.72-1,.43-.24.21-.59.29-.86.19-.64,1.47-.18,1.15-.86-.39-.84-1.11-.09-1.15-.14.21-.77-1.86-2.5-1.72-3.01.04-.14.44-.25.29-.72-.46-.16-.6.27-.72.29-.92.16-1.58-.25-2.01-.29-.58-.05-2.09-.11-2.58,0-.19.04-1.15.68-1.43.86-.07.04-.22-.04-.29,0-.53.35-1.04,1.17-1.58,1.58.47.28.2.73.29,1.15.02.11.27.18.29.29.09.61.09,2.26,0,2.87-.02.11-.26.17-.29.29-.06.26.07.62,0,.86-.04.13-.49.67-.57.86-.07.14.05.38,0,.57-.04.13-.44.38-.57.57-.52.77-1.31,1.83-2.15,2.44-.75.55-1.93.88-2.87,1.15-.12.03-.18.26-.29.29-.66.15-.82-.15-1.15-.29-.15-.06-.38.05-.43,0-.06-.06.2-.83-.43-.57-.18.07-.42.53-.57.57-.22.06-1.16.05-1.43,0-.11-.02-.17-.25-.29-.29-.18-.05-.41.06-.57,0-.14-.05-1.07-.52-1.15-.57-.17-.12-1.27-1.2-1.29-1.29-.05-.17.05-.39,0-.57-.03-.12-.29-.19-.29-.29,0-.07.39-.2.29-.57-.06-.2-.81-.66-.86-.86-.12-.43.13-2.03,0-2.15-1.1.11-.69-.03-.86-.43-.05-.12-.26-.18-.29-.29-.06-.21.06-.66,0-.72-.05-.05-.29.08-.43,0-.58-.32-1.49-1.06-2.01-1.43-.36-.26-.69-.64-1.15-.86-.5.43-.93,1.03-1.43,1.43-.06.05-.23-.05-.29,0-.25.19-.71.82-.86.86-1.43.39-.69-.54-1.43-1.15-.35.48-1,.24-1.58.29v-.57c-.39-.06-.95.09-1.29,0-.41-.11-1.08-1.34-.57-1.43h.43v-1.15c-.43-.16-.67.29-.72.29-.09,0-.16-.23-.29-.29-.09-.04-.23.04-.29,0-.15-.09-.63-.58-.72-.72-.32-.54-.45-1.68-.86-2.3-.33-.51-1.86-1.61-2.44-1.86-.16-.07-.42.07-.57,0-.33-.16-1.2-.81-1.43-.86-.36-.08-2.22-.08-2.58,0-.09.02-.68.46-.86.57-.08.04-.23-.04-.29,0-.29.19-1.36,1.28-1.58,1.58-.04.06.05.21,0,.29-.35.55-.83.45-1.43.43-.17.63.7.82.57,1.29-.88,3.17.08,5.53,1.72,8.32.68,1.16,1.07,1.55,1.43,2.87.1.36,1.04.49,1.15.86.33,1.16,1.06,1.72,1.15,2.01.06.21-.06.66,0,.72.05.05.28-.06.43,0,.72.3.93.15,1.43.29.13.04.38.44.57.57.07.05.23-.04.29,0,.2.15,1.26,1.48,1.29,1.58.07.27-.05.69,0,1l.72-.29c.27.34.77.29,1,.72.44.78.11.19,1,.43.23.06.45.77,1,.57-.06-.53.91-1.67.57-2.01-.04-.04-.52.1-.86-.43-.2-.31-.78-1.79-.86-1.86-.05-.05-.52.05-.57,0s.08-.3,0-.43c-.3-.53-1.11-.44-1.58-.72-.52-.31-.66-.9-1-1.29-.17-.56.27-.78.29-.86.06-.35-.08-.84,0-1.15.04-.13.44-.38.57-.57.04-.06-.05-.21,0-.29.36-.56.64-.33,1-.43.16-.05.42-.53.57-.57.2-.05.91-.04,1.15,0,.1.02.16.24.29.29.15.06.38-.05.43,0s.14.98.72,1.15c.73.22.82-.42.72,1.15l.57-.29.29,1.15c1.15-.25.91.47,1.15,1.29.1.34.88.43,1.15.86.41.65.37,1.56.57,2.3.07.24,1.31,1.13,1.15,1.72-.04.13-.39.2-.29.57.23.83.51,2.18.29,3.16-.14.63-.19,1.52-.29,2.3-.08.63.13,3.46,0,3.59h-.57c-.02.31.52.54.57.72.1.38-.29.5-.29.57,0,.08.43.64.29,1.43-.77,4.2-.4,9.57-.57,14.06,0,.1-.28.19-.29.29-.03.8.17,4.84,0,5.02-.04.05-.93-.13-1.15.43.1.3.48.04.86.29.72.46.03.99,0,1.15-.3,1.71.07,4.68,0,6.6-.16,4.75-.51,9.88-.86,14.06-.22,2.67.4,5.27.57,7.75.07.99-.05,2.02,0,3.01h.57c-.07.65.23,1.45-.29,1.86.31.57,1.15.7,1.43,1.15.31.48,1.04,2.62,1.15,2.73.25.25.45-.42.86,1,.16.57,1.1.38,1.15.43.07.07-.06.73,0,1,.02.11.26.17.29.29.06.21-.06.66,0,.72s.51-.06.72,0c.11.03.17.25.29.29.67.2,1.68.33,2.3.57,1.02.41,1.15.94,1.58,1.86s.35.51.72.72c.54.31.34.65.43,1,.03.12.29.19.29.29,0,.03-.28.14-.29.57,0,.76.67.91,1.29.43.85-.65.89-.84,2.01-1.15.31-.08.62.04,1-.29-.2,1.21.91.28,1,.29.31.02,1.46.21,2.01.29.08.01.48.51,1,.29-.11,1.1.03.69.43.86.2.08.3.45.86.29.15-.04.25-.44.72-.29v.86c.5.06,1.11-.08,1.58,0,.1.02.16.24.29.29.15.06.38-.05.43,0s-.19.84.43.57c1.29-.54,1.42.19,2.58,0,1.25-.21,1.23.4,2.01.57.7.16,1.81-.11,2.58,0l.14.57.29-.57h.57v.57c.56-.25,1.22.29,1.29.29.05,0,.69-.45.86-.57.87.52,1.98.71,3.01.86-.14.7.25.82.72.29l.57.57c.14-.32.5-.24.57-.29.27-.17.68-.81.86-.86.8-.22,2.82-.07,3.44.57.7-.81,2.92-.82,3.73-.57.72.22.9-.5,1.15-.57.18-.05.4.05.57,0,.37-.11,2.26-2.53,3.16-1.72.86-1.13,1.31-.98,2.44-.29.05-.06-.08-.3,0-.43.45-.81,1.64-1.5,2.44-1.86.88-.41.51-.34.72-.72.3-.54,1.35-.86,1.43-1.15.07-.24-.07-.62,0-.86.03-.12.59-.97.72-1,1.55-.42,2.06.76,1,1.86l.57.29c.44-.27.21-.58.29-.86.05-.16.53-.42.57-.57.12-.44-.51-.64-.57-.86s-.06-1.79,0-2.01c.07-.24,1.08-.91,1.15-1.15.2-.73-.37-1.55.72-2.15.14-.08.38.05.43,0,.06-.06-.07-.52,0-.72.05-.14.55-.76.57-.86.32-1.5-.36-3.04.57-4.59.62-1.02.34-.66.57-1.72.17-.79,1.11-1.21.86-2.58-.11-.59-.43-.57-.29-1.43.22-1.3-.54-2.51.29-3.44v-.29c-.76-.91-.63-2.1-.86-3.16-.03-.11-.27-.18-.29-.29-.3-1.66.98-1.71,1.15-2.3.21-.73-.51-.9-.57-1.15-.08-.3-.1-1.39-.29-1.58-.05-.05-.3.08-.43,0-.69-.39-.51-1.94-.72-2.73-.09-.35-.18-.76-.29-1.15-.08-.28-1.4-1.59-1.43-1.72-.11-.39-.17-.73-.29-1.15-.04-.14.17-.39,0-1.15-.11-.49.12-1.27,0-1.72s-1.55-1.68-1.72-2.3c-.15-.56-.51-1.77-.29-2.01-1.16-.61-.09-2.25-.57-2.73-.05-.05-.3.08-.43,0-.58-.33-.33-.77-.43-1-.12-.26-.86-1.35-.86-1.43,0-.1.27-.18.29-.29.07-.39-.04-.88,0-1.29h-.86c-.1-.1.1-1.23,0-1.58-.07-.24-1.08-.9-1.15-1.15-.26-.91-.12-1.81-.29-2.58-.07-.34-1.15-1.51-1.15-1.72,0-.05.45-.29.29-.86-.09-.32-1.3-.68-1.43-1.15-.12-.4-.18-1.02-.29-1.43-.26-1.04-.34-2.08-.57-3.16-.02-.1-.55-.76-.57-.86-.15-.69.16-4,0-4.16-.05-.05-.3.08-.43,0-.59-.33-.83-1.53-.72-2.15.21-1.14.72-.69.29-2.3-.19-.7-.06-.79,0-1.15.07-.39-.04-.88,0-1.29-.84.14-.45-.21-.57-.43-.15-.27-.81-.67-.86-.86-.06-.23.05-.59,0-.86-.02-.11-.29-.19-.29-.29s.29-.19.29-.29c0-.07-.39-.2-.29-.57.3-1.09.22-2.72,0-4.02-.02-.11-.29-.19-.29-.29s.27-.18.29-.29c.07-.43-.1-1.06,0-1.43.06-.2.81-.66.86-.86.08-.29-.42-.48,0-1.15.28-.44,1.01-.66.86-1.29.8,0,1.41-.46,2.3-.29v.57l1.15.29c-.09.76.12,1.71,0,2.44-.34,2.06,0,7.3.29,9.76.01.11.27.18.29.29.06.38-.18,1.06.14,1.29.45-.16.39-.83.43-.86.04-.04.79-.16,1-.29.94-.57.47-1.7,1.72-2.58.86-.61,1.27-1.06,1.58-2.15.1-.34.57-.15.86-.86.14-.34,1.6-2.6,1.72-2.73ZM119.55,117.93s-.39.02-.57,0l.43.57h.14c-.02-.18.04-.54,0-.57ZM158.86,117.93h-.57v.86h.57v-.86ZM149.82,119.93c-.19,0-.19.29,0,.29s.19-.29,0-.29ZM123.14,120.22c-.19,0-.19.29,0,.29s.19-.29,0-.29ZM152.26,124.24c.18-.22-.09-.8-.29-.57-.18.22.09.8.29.57ZM138.78,127.11c.11-.41-.31-.97-.72-.86-.14.04-.25.44-.72.29-.11.41.31.97.72.86.14-.04.25-.44.72-.29ZM178.09,154.36h-1.15v.29h1.15v-.29ZM117.98,170.14c-.19,0-.19.29,0,.29s.19-.29,0-.29Z"/>
  <path d="M170.05,188.22c.05.05-.08.29,0,.43.11.2.53.43.57.57.3,1.05.49,2.13,0,3.16,1.57,1.56-.84,3.12.57,4.59.16.62-.86,2.22-.86,2.58,0,.09.25.17.29.29.06.23-1.4,3.82-1.72,4.3-.26.4-.88.75-1.15,1.15-.93,1.41-1.12,2.39-2.73,3.3-.86.49-.47.28-.72.72-.26.46-3.89,2.61-4.45,2.44-1-.3-.52-.1-1.43.29-.83.35-.27.41-.43.57-.38.38-3.08.48-3.87.57-.35.04-.86.43-1.72.29s-2.14-.6-3.16-.29c-.27.08-3.72-.9-4.3-1.15-2.26-.94-3.94-2.55-5.74-4.02-1.25-1.02-1.71-2.1-2.15-3.59-.12-.4-1.08-.75-1.43-2.01-.03-.1-.79-.83-.86-1.15-.14-.65.07-1.05.57-1.43-.43-.24-.21-.58-.29-.86-.05-.17-.49-.46-.29-1-.83.11-.45-.14-.57-.43-.05-.12-.27-.19-.29-.29-.19-1.07-.04-2.46.86-3.16-.51-.41-.22-1.21-.29-1.86h1.15l.29-.57.57,1.15.14-1.15c-.25-.38-.58-.3-1-.29-.2-.56.22-.8.29-1,.06-.17-.05-.39,0-.57.01-.05.61-.65.72-.72.06-.04.2.04.29,0,.35-.16.49-.43,1.15-.29.1.02.76.55.86.57.49.11,1.23-.11,1.72,0,.1.02.76.55.86.57.57.12.79.08,1.43.29,1.73.56,3.09.55,4.88.86.75.13,1.25-.03,2.3.29.56.17.73-.25.86-.29.47-.13.7.76,1.29.57l-.29.86c.73-.08,1.27.04,1.86.29.14-.04.67-.86.72-1,.07-.2-.06-.65,0-.72.05-.05.28.06.43,0,.12-.05.18-.25.29-.29,1.28-.38,2.75-.37,4.02,0,.25-.15,1.35-.86,1.43-.86.1,0,.18.27.29.29,1.71.28,2.03-1,2.58-1.15.65-.18,1.87.15,2.58,0,.24-.05,1.2-.81,1.43-.86.27-.06,2.35-.09,2.44,0ZM137.2,191.66c-.19,0-.19.29,0,.29s.19-.29,0-.29ZM161.73,198.84v-1.15h-.29v1.15h.29ZM162.59,198.26c-.31-.31-.89.26-.57.57s.89-.26.57-.57ZM150.68,198.55c-.19,0-.19.29,0,.29s.19-.29,0-.29ZM140.21,204v-.86h-.29v.86h.29ZM158.86,207.44c-.42-.04-1.31-.06-1.43.43-.1.37.54,1.01.72,1.29.19.31-.28.4-.14.86.24-.24.83-.25.86-.29.05-.05-.06-.28,0-.43.05-.12.25-.18.29-.29.16-.51-.48-.98-.29-1.58Z"/>
  <path d="M155.42,149.77c-.11,1.1.03.69.43.86,1.01.42,2.14,1.97,2.3,2.01,2.57.73,6.16,3.97,7.32,6.46.14.3.82,1.52.86,1.72.12.55.13.86.29,1.43.1.37-.91,1.15.29,1-.13,1.3.18,2.9,0,4.16-.02.11-.26.18-.29.29-.1.5-.11,1.24-.29,1.72-.04.11-.23.17-.29.29-.57,1.26-1.29,2.4-2.44,3.3-.09.07-.67.46-.86.57-.95.58-3.04,1.57-4.02.86-2.02.8-4.18-.02-5.88-1.29.38-.96-.49-1.43-.57-1.72-.3-1.01.5-.65.57-.72.05-.05-.08-.29,0-.43.18-.33.77-.9,1-1.29.72.08,1.62-.12,2.3,0,.44.08,1.35.84,1.43.86.98.27,1.17-.5,1.43-.57.51-.14,1.29-.04,1.58.43l.43,1.29.43-1-.57-.14c-.15-.71.23-1.13.29-1.72.52.23,1.57-.5,1.43-1-.81-.61.15-1.77,0-2.3-.14-.47-1.14-.48-.86-2.01.02-.11.44-.26.29-.72-1.16.15-.7-.15-.86-.43-.49-.89-1.63-1.1-2.01-2.01-.06-.15.05-.39,0-.57-.13-.45-1.48-.74-1.86-1-.89-.6-1.65-1.42-2.58-2.01-.53-.34-.39-.82-.43-.86-.05-.05-.98.14-1.15-.43-.1-.34.11-.7-.43-1-.48.63-.76.18-1.15,0-.09-.04-.22.04-.29,0-.16-.1-.58-.54-.72-.72-.37-.49-1.3-2.3-1.43-2.87-.06-.27.07-.93,0-1-.05-.05-.76-.07-1.15-.72-.3-.5-.17-1.02-.29-1.43-.03-.13-.55-.75-.57-.86-.16-.72.26-1,.29-1.15.06-.35-.08-.84,0-1.15.03-.09.79-.83.86-1.15.08-.36-.09-1.48,0-1.58.05-.05.29.08.43,0,.4-.22.5-.57,1.15-.86.12-.06.18-.26.29-.29.25-.06,1.5-.06,1.72,0,.11.03,1.55,1.47,1.58,1.58.05.19.05.94,0,1.15-.02.1-.24.16-.29.29-.22.56-.84,1.35-.86,1.43-.06.23-.06,2.06,0,2.3.06.2.81.66.86.86.07.24-.07.62,0,.86.09.34,1.79,1.5,2.3,1.29Z"/>
  <path d="M153.41,192.24h-.86c-.22-1.24,1.06-.16.86,0Z"/>
</svg>