<?xml version="1.0" encoding="UTF-8"?>
<svg id="zkouska_s_hlavamaa" data-name="zkouska s hlavamaa" xmlns="http://www.w3.org/2000/svg" viewBox="0 0 288.67 288.67">
  <path d="M167.83,83.43c.09.09.98-.08,1.29,0,.07.02.94.88,1,1,.25.45-.14.23.72.72.45.26,2.91,2.34,3.01,2.73.07.26-.08.93,0,1,.05.05.98-.14,1.15.43.05.19-.06.42,0,.57.08.18.44.24.29.72.7-.05,1.47.08,2.15,0,.1-.01.18-.27.29-.29.39-.06.88.04,1.29,0-.22.8.59.46,1,1.15,1-.84,1.52-.71,2.3.29.38-.5.78-.72,1.43-.57.1.02.76.55.86.57.59.13,1.04.12,1.72.29.62.15,1.53.15,2.01.29.16.04.41.53.57.57.56.16.93.25,1.43.57.64.41.37,1.09.43,1.15.1.1,1.52-.26,1.72.43.06.21-.06.66,0,.72s.52-.07.72,0c.39.13,1.28.88,1.58,1.29.53.73.33,1.19,1,1.58.3.17,1.07,1.49,1.29,1.86.28.48,1.06,2.16,1.15,2.58.07.34-.08.84,0,1.15.1.36.62.32.86,1.72.08.45.49,1.45.57,2.01.1.68.14,4.95,0,5.45-.07.25-.57.52-.86.43l.57,1.58c-.59.9-.34,2.25-1.15,3.16-.1,1.1-.67,2.04-1.15,3.01l1.15-.29v.86c.73.3,1.04-.51,1.29-.57.37-.1.94-.04,1.15.29l.86-1.15c.7.03,1.19.44,2.01.29.08-.02.3-.46.86-.29.11.03.17.25.29.29.18.06.41-.06.57,0,.51.2,1.38.8,1.29,1.43,1.84-.31,3.06.83,4.45,1.72.66.42,1.46,2.22,1.86,3.01.1.19.53.42.57.57.16.55.17,1.16.29,1.72.02.11.27.18.29.29.13.9.11,3.38,0,4.3-.01.11-.27.18-.29.29-.16.9-.21,1.94-.57,2.87-.54,1.36-2.35,4.24-3.59,5.02-.61.38-.64.06-.86,0-.36-.1-.54.43-1,.29l1.15.72c-.74.66-1.4,1.51-2.15,2.15-.74.63-1.8,1.19-2.58,1.72-.48.32-.36.78-1,.29.18.74-.48.69-.72.86-.78.56-1.47,1.34-2.44,1.43-.06,1.18.08,2.41,0,3.59-.12,1.71-.65,3.77-.86,5.45-.07.52.12,1.3,0,1.72-.04.16-.53.42-.57.57-.11.38.11,1.05,0,1.43-.04.16-.53.41-.57.57-.1.35.68,1.08.57,1.43-.4,1.36-.44,2.82-1.43,4.02.85.77.19,1.72,0,2.58-1.19,5.41-2.67,10.21-5.16,15.49-.7,1.49-1.5,2.34-2.01,3.73-.75,2.05-3.82,6.36-5.16,8.03-.85,1.05-1.38.86-1.72,2.01-.54,1.8-9.31,8.03-11.05,9.04-3.05,1.78-6.82,4.23-10.47,4.3.2.87-1.41.93-2.15,1.15-3.6,1.06-7.88,2.03-11.76,2.3-1.31.09-2.8-.15-3.73,0-3.03.5-6.96-.22-9.76-.57-.96-.12-2.59-.05-3.44-.29-.47-.13-.21-.83-1.15-.57-.27.07-.2-.19-.86,0-.26.07-4.18-.96-4.88-1.15-.09-.03-.83-.79-1.15-.86-.42-.09-1.02.09-1.43,0-.82-.18-1.75-1.91-3.01-1.43.32-.58-.88-.98-1.29-.86-.55.16-1.24-.3-2.01-.57-.64-.23-3.14-1.32-3.3-1.86-.41-1.43-.91-1.24-2.15-1.58-.2-.06-.66-.81-.86-.86-.24-.07-.62.07-.86,0-.51-.14-2.88-1.97-3.01-2.44-.43-1.49-.9-.77-1.43-1.72-.44-.79-1.77-.89-2.3-1.72-.3-.47-.6-2.04-1-2.15-.18-.05-.4.05-.57,0-.58-.17-.34-.95-.43-1.29-.08-.28-.81-1.19-.86-1.43-.07-.34.07-.81,0-1.15-.11-.5-.89-1.68-1.15-2.58-.11-.37-1.05-.5-1.15-.86-.23-.84-.36-2.09-.57-2.87-.11-.41-1.12-.89-.86-2.01.11-.46.17-1.95,0-2.58-.04-.16-.53-.42-.57-.57-.55-2.01.37-4.03-.29-6.31-.05-.16-.53-.41-.57-.57-.23-.8-.15-1.66,0-2.58.22-1.3-.48-3.19-.29-4.3.38-2.22-.16-4.28,0-6.74-.87.22-.62-1.11-1.43-1.58.63-.66.09-2,.29-2.87.27-1.22-.14-.64-.29-1.15-.16-.55.66-1.51.57-1.58h-.57c.3-.73-.51-1.04-.57-1.29-.14-.5.1-1.42,0-2.01-.03-.19-.55-.21,0-.57,0-.11-.86-.66-1-.72-.29-.11-1.07-.29-1.15,0-.88-.88-.55-1.1-1.72-1.43-.21-.06-.66-.81-.86-.86-.39-.11-1.75.12-1.86,0,.11-1.1-.03-.69-.43-.86s-1.07-.37-1.29-.72c-.68-1.07-1.49-1.51-2.73-1.86-.65-.18-.65-1.65-.72-1.72-.05-.05-.29.08-.43,0-.17-.09-1.83-1.74-1.86-1.86-.14-.51.02-1.15.29-1.58-1.52-.09-.92-1.34-1.15-2.15-.07-.27-.84-.46-.57-1.43.06-.22.74-.46.57-.86-.16-.26-.8-.67-.86-.86-.16-.54.45-.91.29-1.43s-.74-1.69-.57-2.3c.04-.16.53-.42.57-.57.23-.85.18-4.05.57-4.45.05-.05.3.08.43,0,.7-.4.34-1.34.43-1.43.05-.05.29.08.43,0,1.11-.62,1.48-1.72,2.87-2.3.71-.3.52-.76.86-.86.86-.25,1.72-.62,2.58-.86.46-.13,1.62-.53,2.01-.57.61-.06,2.99-.12,3.44,0,.16.04.42.53.57.57.38.1,1.02-.09,1.43,0,.12.03.92.67,1,.57.15-.47-.24-.56-.29-.72-.27-.89-.15-2.27.29-3.16-.81-.9-.37-1.66-.57-2.58-.02-.11-.54-.74-.57-.86-.16-.6-.02-.85.57-.72v-.86h-.57c-.08-1.25-.49-2.51-.29-3.87.2-1.37-.05-3.05.29-4.59.05-.24.81-1.2.86-1.43.19-.88.12-2.24.29-3.16.09-.53.83-1.34.57-2.15.88.26.4-1,1.43-.86.15-.47-.24-.57-.29-.72-.2-.67.33-.75.57-1.15.57-.94.52-2.26,1.86-3.01.14-.08.38.05.43,0,.11-.11-.11-1.61,0-1.72.05-.05.29.08.43,0,.77-.43,1.37-1.41,1.58-2.15.04-.14,2.01-1.83,2.15-1.86.31-.08,1.2.09,1.29,0,.05-.05-.08-.3,0-.43.3-.53.55-.12.86-.86.65-1.55,1.91-2.75,2.87-4.02.27-.35,2.25-1.45,2.73-1.58.3-.08,1.39-.1,1.58-.29.12-.12,0-1.18,1.15-.86v-.57c1.02.28,2.29-.7,3.01-.86,1.24-.27,2.7.26,3.73-1.15.1.34,1.2.38,1.29.29.05-.05-.08-.29,0-.43.07-.12.94-.99,1-1,.24-.07.6.06.86,0,1.3-.3,2.25-.59,3.44-1.15,1.94-.9,4.48-.56,6.6-1.15.38-.1.46.26.57.29,1.5.34,4.06-.22,5.16-.29.71,1.31,2.87.12,3.44.29.12.03.19.29.29.29.08,0,.68-.49,1.43-.29.57.16.13.93,1.43.57.16-.04,2.84.22,3.16.29.21.05.81.67,1.15.57,1.95-.54,1.28.37,2.01.57.46.13.8.09,1.43.29.7.22,1.28.37,2.01.57.09.02.99.78,1.43.86.59.11,1.95-.26,2.15.43.05.18-.05.4,0,.57.19.68,1.35.32,1.86.43s2.21,1.33,2.58,1.43c1.15.33,1.15.82,2.3,1.15.07.02.99.94,1,1,.16.6-.16,1.05.72,1.58.06.04.2-.04.29,0,.18.09.21.39.57.29.13-.04.29-.45.86-.29.07.02.94.88,1,1,.08.14-.05.38,0,.43ZM144.88,76.54v-.86h-.14l-.43.43.57.43ZM118.77,78.27c.08-.55-.31-.94-.86-.86v.86h.86ZM112.89,82.57c-.19,0-.19.29,0,.29s.19-.29,0-.29ZM124.51,87.73c.08-.93-.53-.71-1-.86-.25-.08-.45-.77-1-.57-.09.92-.02,1.29.86,1.58.64.21.57-.19,1.15-.14ZM100.41,91.75l-.43-.57-.43.43v.14h.86ZM97.54,93.76s-.02-.39,0-.57l-.57.43v.14c.18-.02.54.04.57,0ZM158.79,93.19c-.19,0-.19.29,0,.29s.19-.29,0-.29ZM136.27,97.78l-.72-.29c-.58.45-.58.7,0,1.15.34-.48.3-.13.72,0v-.86ZM111.02,98.35c-.15-.58-.61-.64-1.15-.57v.57h1.15ZM94.38,100.36c.4,0,1.24.6,1.43-.14.11-.43-.77-.95-1-1.29l-.43,1.43ZM108.73,99.21c-.23.02-.86.66-.86.72,0,.65,1.19.32.86-.72ZM107.43,101.22c-.19,0-.19.29,0,.29s.19-.29,0-.29ZM115.76,101.51c-.19,0-.19.29,0,.29s.19-.29,0-.29ZM195.09,101.51c-.07-.07-.87.05-1.15,0l-.29.72c.37.15.25.68.29.72.04.04.84.08,1,.57.71-.44-.07-.67.43-1-.45-.19-.22-.94-.29-1ZM170.41,112.41c-.47-.47-1.81-.32-2.44-.57-1.97-.79-3.77-1.97-5.74-2.58-.62-.19-1.48.01-2.01-.86-1.79.34-5.04-.67-7.17-1.43-4.7.12-11.16-.97-15.49,0-.76.17-1.06-.18-1.43-.29-.19-.05-1.5.76-2.58.57s-1.14.49-1.43.57c-.46.13-1.11-.24-1.43.29l-.29-.57c-.25.16-.68.81-.86.86-1.16.32-2.3.53-3.44.86-4.2,1.21-8.67,2.76-12.62,5.16-.5.3-2.69,2.01-2.87,2.01-.07,0-.31-.43-.43-.29.03.97-1.35,1.54-1.86,2.01-2.08,1.89-3.86,4.01-5.31,6.17-.23.35-.65.69-.86,1.15.18.46.82.39.86.43.05.05-.08.29,0,.43.18.33,1.26,1.1,1.58,1,.11-.03.17-.25.29-.29.71-.21,1.26.6,1.72.86.22.12.57-.27.43.57.47.18,2.76.18,2.87.29.05.05-.08.29,0,.43.45.8.94.61,1.58.72.19.03.21.55.57,0,.3.27.52.43.43.86h.29v-.57c.39.06.95-.09,1.29,0,.22.06.46.74.86.57,1.27-.63,3.11-1.11,4.3-.29,1.04-.91,1.61-.59,2.58,0,1.09-.65,2.61-.73,3.73,0,1.15-1.22,2.9-.1,4.59-.29,1.87-.2,4.13-.07,5.45-.29,1.54-.26,1.97.6,3.16,1.15.14.07.38-.05.57,0,.16.05.46.57.57.57.18,0-.07-.26.86,0,.14.04,1.95-.49,2.87-.29.12.03.2.39.57.29,1.94-.53,4.05,0,5.74-.29.39-.07.88.04,1.29,0v.72l.57.14.14-.57.72.29.29-1.15c.74.35,1.56-.78,1.86-.86.32-.09,2.47-.07,2.87,0,1.53.27.72-.08,1.43-.29.68-.19,1.35-.17,2.01-.29.11-.02.17-.26.29-.29.85-.2,1.19.3,1.72.86,1.22-.49,2.54.12,4.02-.29.16-.04.41-.53.57-.57.28-.08.62.14.86-.29.52-.1,1.26.81,1.43.86.97.27,2.48-.52,3.16.57l1.43-.86c.79.56,2.02.57,2.87,1.15.98-1,2.05-.85,3.16-1.15.9-.24.76-.28,1-.72.42-.74,1.97-.51,2.73-.72.13-.04.68-.49.86-.57.23-.1.67.15,1-.43.08-.13-.05-.38,0-.43s.52.05.57,0c.03-.03-.08-.57.29-.72-.43-.22-.45-.64-.57-.86-.49-.86-.28-.47-.72-.72-.65-.37-2.24-2.83-3.16-3.44-1.17-.77-5.36-3.52-5.88-4.45-.43-.78-.46-.43-1.29-.72-1.67-.59-2.93-1.89-4.59-2.58-.83-.35-.27-.41-.43-.57ZM90.36,127.62c-.05-.05-.29.08-.43,0-.81-.45-2.01-1.82-2.87-2.01-.64-.14-1.61.11-2.3,0-.11-.02-.19-.29-.29-.29s-.17.26-.29.29c-.22.05-.66-.05-.72,0s.08.29,0,.43c-.33.59-1.51.98-2.01,1.72-.14.21-1.12,2.17-1.15,2.3-.09.41.06.99,0,1.43-.02.11-.27.18-.29.29-.05.26-.05.89,0,1.15.02.11.27.18.29.29.13.67.11,1.63.29,2.3.19.68,1.13,1.22.57,2.01,1.28.66,1.61,1.81,2.3,2.87.24.38,2.19,1.51,2.73,1.86.41.28,1.7,1.63,1.58.29-.4-.01-.77.09-1.15-.14-.34-.21-.4-.81-.57-1.15-.42-.84-.13-.43,0-.86.3-.99-.8-.95-.86-1-.07-.07.04-.87,0-1.15.32.07,1.43-.5,1.43-.72l-.57-.57c.45-.19.22-.93.29-1,.05-.05.28.06.43,0,.12-.05.19-.27.29-.29.61-.11,1.9-.11,2.3.29l1.43.29c.45-.29.41-.86.86-1.15.08-.05.61-.07.72-.43.18-.62-.5-1.1-.57-1.43-.17-.78.25-1.2.29-1.43.05-.34.06-1.11,0-1.43-.02-.11-.25-.17-.29-.29-.05-.17.05-.39,0-.57-.13-.47-1.34-.83-1.43-1.15-.06-.21.06-.66,0-.72ZM205.99,127.62c-.05-.05-.28.06-.43,0-.19-.08-.68-.51-.86-.57-.16-.06-.4.06-.57,0-.12-.04-.17-.25-.29-.29-.24-.07-.6.06-.86,0-.11-.02-.3-.46-.86-.29-.23.44-.62.2-.86.29s-1.55.75-1.72.86c-.74.49-.97,1.32-1.58,1.86l-.29,1.43-.29.29c.13.16.56.79.57.86.09.41-.1,1.06,0,1.43.04.16.53.41.57.57.66,2.25,1.14,4.65,1.43,6.89.06.5-.04,1.07,0,1.58.32-.04.71.06,1,0,.07-.01.56-.2.86-.29.1-.03,1.47-1.11,1.58-1.29.47-.84.81-.35,1.15-1.15.32-.77.79-.92,1.43-1.43.06-.28.81-1.52,1-1.58.33-.1.67,0,.86.29.84-.54.14-.91.14-1,0-.17.5-1.68.57-2.01.18-.78-.57-1.76-.57-2.01,0-.09.25-.17.29-.29.18-.62-.61-1.13-.86-1.72-.08-.19-.09-.84-.29-1.15-.29-.45-.9-.42-1.15-.86-.08-.14.05-.38,0-.43ZM139.43,137.37v5.59c0,.09-.26.17-.29.29-.06.26.07.62,0,.86-.04.13-.5.68-.57.86-.06.15.05.38,0,.43-.05.05-.3-.08-.43,0-.44.24-.41.86-.86,1.15-.61.38-1.9.62-2.73.57v.57c-2.56,0-5.18,1.31-7.89.86-1.22-.2-4.57-.08-6.03.29-.69.17-1.73.52-2.58.29-.16-.04-.41-.53-.57-.57-.1-.03-1.64.23-2.01.29-.11.02-.19.29-.29.29s-.18-.27-.29-.29c-.27-.05-.63.06-.86,0-.37-.1-.86-.68-1.15-.86-1.02-.64-1.22-.32-1.58-1.58-.15-.53-1.17-.88-1.72-.72-.05-.92-1.09-1.75-.86-2.73.06-.25.53-1.21.57-1.43.17-.95-.48-1.73-.29-2.73h-.57c-.21-.97.5-1.92,1.43-2.01.24-.24-.49-1.05-.57-1.29-.07-.2.06-.65,0-.72-.08-.08-.97.07-1.29,0-.24-.05-.93-.61-1.15-.86-.56.32-1.71-.32-2.58-.57-.39-.11-.45-.96-.86-1.15-.96.66-2.66-.2-3.73-.57-.17-.06-.24-.44-.72-.29.12.48-.43.92-.57,1.29-.5,1.29-.93,3.03-1.15,4.45-1.24-.18-.2.96-.29,1.29-.37,1.35-.39,2.01-.57,3.44-.01.11-.28.18-.29.29-.1,1.15.08,2.42,0,3.59h-.86c-.3.8.72.48.86,1,.1.38.06,2.37,0,2.87-.24,1.97.35,2.46.57,4.3.33,2.78.42,5.72,1.15,8.32.05.19-.03.49,0,.72l-1.15.29,1.15.29c.04.32-.06.71,0,1,.26,1.32.16,2.11.29,3.44.11,1.18.2.97,0,2.3-.21,1.4.42,1.59.57,2.3.07.31.33,2.73.29,2.87-.35,1.23.9,3.15,0,4.59.99,1.59.91,3.54,1.43,5.45.07.26.54,1.24.57,1.43.07.48-.05,1.07,0,1.58h-.57v1.15l1.15.29c1.15,1.77,2.36,3.68,3.44,5.59.07.12.24.18.29.29.06.15-.05.38,0,.43.03.03.57-.08.72.29.41-.19.47-1.04.86-1.15,1.23-.35.91-.61,1.72-1.15.77-.51,2.46-1.15,2.44-2.01h.57c-.44-1.31,1.05-.76,1.43-1.15.05-.05.14-.98.72-1.15,1.41-.4.71-.21,1-1.29.15-.55,1.23-.78,1.58-1,.26-.17.69-.81.86-.86.4-.11,2.23-.08,2.44-.29-.1-.55,1.72-1.94,2.15-1.43.65-.6,1.02-1.38,2.01-1.15.11.03.18.26.29.29.43.1.83-.12,1.29.29-.25-1.25.7-1.74,1.58-2.3.73-.04,1.74.89,1.58-.29h1.72l.29-1.15c.79-.24.89.36,1.29.57.33.18.91.22,1.15.57.55-.38,1.24-.8,1.86-.86v-.57h.57v-.57c.54.2,2.02-.56,2.3-.29.04.04-.04.73.43.86.73.21.9-.5,1.15-.57.57-.16.95-.21,1.43,0,.31-.38,1.22.06,1.72.29.29.13.6.15.86.57.41-.19.47-1.04.86-1.15.28-.08.62.14.86-.29.83.98,2.25.32,3.16.57.16.04.42.53.57.57.71.2,2.87.1,3.44,0,1.53-.28,1.85.94,2.58,1.15,1.6.46,3.09.95,4.59,1.43.66.21,1.14.07,1.72.29.07.03.52.26.57.29.57.34,1,1.6,1.43,1.72.24.07.62-.07.86,0,.2.06.66.8.86.86.91.26,1.18.29,1.58,1,.18.32,1.65,1.35,1.86,1.29.13-.04.29-.45.86-.29.67,1.18.92,1.12,2.01,1.43.17.05,2.39,2.27,2.44,2.44.24.88-.36.57.43,1,.54.3.86,1.35,1.15,1.43.24.07.62-.07.86,0,.2.06.72.83,1,1l-.57.86.29.72c.52-.47.75.17,1.29,0,.12-.04.18-.26.29-.29.27-.06.94.07,1,0,.05-.05-.06-.28,0-.43.05-.12.26-.18.29-.29.06-.21-.06-.66,0-.72s.51.06.72,0c.36-.11.43-.91.86-1.15.14-.08.38.05.43,0,.09-.09-.08-.98,0-1.29.2-.72,3.02-3.22,3.16-3.73.07-.24-.07-.62,0-.86.18-.64,1.91-2.24,2.01-2.58.14-.52-.14-1.49,0-2.01.09-.34,1.79-2.05,1.43-3.01h.57c-.08-.73.46-1.21.29-2.01.8.22.46-.59,1.15-1,0-.1-.27-.18-.29-.29-.26-1.57,1.15-3.43.86-5.16-.16-.95.33-1.44.57-2.3.05-.19,1.07-.99,1.15-1.43-.27-.46-.69-1.78-.57-2.3.06-.26.77-1.14.86-1.43.1-.33-.22-1.21-.29-1.43-.22-.77.78-1.43.86-1.72.09-.32.05-1.59,0-2.01-.01-.1-.27-.18-.29-.29-.04-.27-.06-1.52,0-1.58s.3.08.43,0c.58-.33.33-.77.43-1,.17-.38.51-.84.86-1.15-.63-.36-.45-.75-.57-1.15-.04-.12-.27-.18-.29-.29-.19-1.04.31-1.49.86-2.3-.25-.31-.67-1.38-.57-1.72.17-.58.03-1.34.57-2.01-.54-.57-.74-1.54-.57-2.3.02-.1.55-.76.57-.86.11-.48.01-1.04-.43-1.29-.13-.08-.38.05-.43,0-.2-.2.05-2.16.57-2.44-1.52-.92-.56-2.64-.86-4.02-.23-1.04-1.26-2.61-1.15-3.87h-.57v-1.15c-.56-.12-1.37-.17-1.15-.86-.32.04-.71-.06-1,0-1.18.24-3.6,1.53-4.88,2.01-1.62.6-2.98.99-4.59,1.72-.15.07-.38-.05-.57,0-.13.04-.69.89-.72,1-.12.45-.16,1.21-.29,1.72-.23.93-.34,1.93-.57,2.87-.06.25-.77,2.06-.86,2.15-.05.05-.3-.08-.43,0-.76.43-.26,1.26-.43,1.86-.05.16-.68.6-.86.86-.04.06.05.21,0,.29-.08.12-1.07.87-1.29,1-.33.2-2.9.94-3.16.86-.68-.19-1.15.14-2.01,0-.95-.16-2.41.12-3.73,0-1.09-.1-6.63-1.31-7.17-1.15-.59.18-2.82.2-3.73,0-.43-.09-.32-.52-1.15-.29-.87.25-1.09-.94-2.3-.57-.71.22-2.84-1.53-3.01-2.15-.07-.24.07-.62,0-.86-.03-.13-.54-.74-.57-.86-.26-.95-.31-2.21-.57-3.16-.04-.16-.53-.41-.57-.57-.05-.18.05-.4,0-.57-.19-.67-1.54-.36-2.15-.43-.11-.01-.18-.27-.29-.29-1.27-.19-1.97.44-2.87.57-.48.07-1.07-.05-1.58,0ZM151.19,133.07c-.6-.07-.65-.03-.57.57l.57-.57ZM164.68,135.08c.2-.16-1.08-1.24-.86,0h.86ZM137.42,136.51l-.72-.29c-.89.72-.38,1.6.72,1.43v-1.15ZM154.06,141.1l.29-.72c-.42-.45-1.05-.79-1.72-.72v.86h.57v.57h.86ZM114.18,142.25l.57-.43-.43-.43h-.14v.86ZM87.64,143.4c-.19,0-.19.29,0,.29s.19-.29,0-.29ZM199.54,145.41c-.19,0-.19.29,0,.29s.19-.29,0-.29ZM199.68,145.98c-.6-.07-.65-.03-.57.57l.57-.57ZM96.24,170.66c-.19,0-.19.29,0,.29s.19-.29,0-.29ZM139.43,189.59c.03-.63.13-1.24-.57-1.43v1.43h.57ZM131.39,189.59c-.17-.17-.99.49-1.43.29v.29c.52.22.95-.29,1-.29.07,0,.31.43.43.29-.02-.18.04-.54,0-.57ZM122.21,192.75c.19-.86-.86-.96-.86-.43,0,.18.69.6.86.43ZM153.2,193.04v-.57c-.32-.02-.53.52-.72.57-.57.16-.75-.26-.86-.29-.95-.22-1.37.43-2.01.86-1.71,1.15-3.59,2.33-5.45,3.16-1.44.64-2.34-.15-2.87,0-.16.05-.42.53-.57.57-.42.12-1.2-.07-1.72,0-.11.01-.18.28-.29.29-.49.05-1.56.08-2.01,0-.11-.02-.17-.25-.29-.29-.18-.05-.41.06-.57,0-.52-.19-2.21-1.17-2.44-1.58-.4-.72-.66-.54-1.29-1-.87-.64-.84-1.41-2.3-1.15-.11.02-.17.25-.29.29-.19.05-.42-.06-.57,0-.11.04-.17.23-.29.29-.09.04-.22-.04-.29,0-.24.14-.47.53-.72.72l-.57,1.72c.44.23.2.64.29.86.17.41.75,1.09.86,1.43.07.2-.06.65,0,.72.05.05.29-.08.43,0,.2.11.38.47.57.57.46.25,1.23.1,1,.86h.57c-.25.82.78.56,1.29,1.15l.72-.29c-.14.84.21.45.43.57,1.29.72,2.31,1.29,3.73,1.72.98.3,1.87.12,2.87.29.11.02.19.29.29.29s.18-.27.29-.29c.6-.1,1.44.12,2.01,0,.32-.07,1.05-.84,1.15-.86.52-.14,1.17.28,1.58-.43.08-.13-.05-.38,0-.43.07-.07.74.06,1,0,.52-.12,1.96-1.27,2.87-1.43.47-.08,1.08.06,1.58,0-.15-1.16.15-.7.43-.86.71-.4,1.77-1.84,2.58-2.3.25-.14.58.29.43-.72.72-.56,1.09-1.73.86-2.58-.04-.16-.53-.42-.57-.57-.2-.73.24-1.45-1.15-1.29ZM139,192.75c-.19,0-.19.29,0,.29s.19-.29,0-.29ZM100.41,195.33c.18-.22-.09-.8-.29-.57-.18.22.09.8.29.57ZM119.06,195.9c-.6-.07-.65-.03-.57.57l.57-.57ZM107.15,196.77c-.19,0-.19.29,0,.29s.19-.29,0-.29ZM128.38,201.36c-.19,0-.19.29,0,.29s.19-.29,0-.29ZM127.81,203.08c-.19,0-.19.29,0,.29s.19-.29,0-.29ZM127.66,205.66c-.22-.18-.8.09-.57.29.22.18.8-.09.57-.29ZM118.77,207.95c.18-.22-.09-.8-.29-.57-.18.22.09.8.29.57ZM147.6,207.95c-.19,0-.19.29,0,.29s.19-.29,0-.29ZM141.58,213.41c-.19,0-.19.29,0,.29s.19-.29,0-.29Z"/>
  <path d="M144.3,150.57c.05.05-.06.28,0,.43.08.19.51.68.57.86.08.21.33,1.29.29,1.43-.03.12-.29.19-.29.29s.27.18.29.29c.46,2.77-.34,5.79-2.15,7.89-1.01-.15-.58.19-.72.43-.25.44-1.71,1.07-2.3,1v.57c-.69.17-1.47.17-2.15.29-.11.02-.18.27-.29.29-.83.1-2.29.06-3.16,0-.61-.05-2.26-.53-2.87-.57-.83-.06-3.04-.15-3.73,0-.1.02-.68.49-.86.57-.14.07-.38-.05-.57,0-.68.2-1.08,1.5-.29,2.01.5.32,1.88,1.09,2.15,1.58.11.2-.25.63.72.43.11-.02.19-.29.29-.29s.17.25.29.29c.37.1.5-.29.57-.29.1,0,.85.88,1.43,1.15.12.06.18.26.29.29.89.21,1.77-.82,3.16-.57.11.02.17.25.29.29.4.13.79-.05,1.15.57.46-.18.39-.82.43-.86s.81-.04,1,0c.11.02.17.25.29.29.33.1,1.41-.33,1.72-.57,1.18.81,2.81.06,4.45.29v-.57c.58-.02,1.12-.12,1.43.43.12.22-.27.57.57.43-.05.76.47,1.31.29,2.15-.02.1-.49.68-.57.86-.07.14.05.38,0,.57-.01.05-.61.65-.72.72-.06.04-.2-.04-.29,0-.12.06-.18.24-.29.29-.16.06-.39-.05-.57,0-.12.03-.19.29-.29.29-.08,0-1-.56-1.58-.29v.57c-1.36.18-2.4-.41-3.73-.29v.57c-.87-.17-6.09.22-6.31,0-.05-.05.04-.51,0-.72l-.57-.72v1.15c-.51-.05-1.08.07-1.58,0-.11-.01-.18-.27-.29-.29-1.67-.29-3.66-.3-4.59-2.01l-.29.29c-1.63-1.3-2.43-1.27-3.01-3.3-.08-.29-1.4-1.59-1.43-1.72-.1-.37.06-1,0-1.43-.02-.11-.27-.18-.29-.29-.04-.36-.08-1.44,0-1.72.12-.44,1.18-.74,1.43-1.15.31-.48.5-1.79.57-1.86.05-.05.29.08.43,0,.42-.23,1.55-1.56,2.01-1.43,1.29.35,1.4-.98,2.01-1.15.24-.07.62.07.86,0,.16-.04.42-.53.57-.57.25-.07,2.62-.07,2.87,0,.16.04.42.53.57.57.23.06,2.17.32,2.3.29.86-.2.86-.19,1.72,0,1,.22,1.3-.25,2.01-.57.23-.1.67.15,1-.43.08-.13-.05-.38,0-.43.05-.05.99.13,1.15-.43.09-.31-.08-.81,0-1.15.02-.11.26-.17.29-.29.03-.12-.57-1.82-.29-2.44h-.57c-.15-1.16.14-.7.43-.86.88-.49,1.06-2.36,2.58-2.01.11.03.17.26.29.29.25.06.62-.06.86,0,.11.03.17.26.29.29.21.06.66-.06.72,0Z"/>
</svg>