<?xml version="1.0" encoding="UTF-8"?>
<svg id="zkouska_s_hlavamaa" data-name="zkouska s hlavamaa" xmlns="http://www.w3.org/2000/svg" viewBox="0 0 288.67 288.67">
  <path d="M148.93,64.71v.86h2.01v-.57c.89-.36,1.32.5,1.58.57.44.12.64-.51.86-.57.98-.27,1.17.5,1.43.57.57.16,1.9-.23,2.3-.29.5.63,1.39.82,2.15.86-.14,1.2.63.18,1,.29.06.02,1.05.51,1.15.57.97.65,1.84,1.33,2.87,2.01,1.5.98,1.59.49,2.15,2.44.09.31,3.04,3.02,3.44,3.73.08.13-.05.37,0,.43.36-.34.8-.2,1-.29.35-.15,1.36-.9,1.58-1.29.08-.14-.05-.38,0-.43.07-.07.87.04,1.15,0,.04-.22.24-1.11.29-1.15.05-.05.28.06.43,0,1.03-.43,1.45-1.31,2.87-1.72.29-.08,1.15-1.36,1.43-1.43.31-.08.81.07,1.15,0,.11-.02.18-.26.29-.29,1.33-.29,2.7-.25,4.02-.57,1.07-.27,2.14-.26,3.16.29.25-.42.57-.44.86-.57.12-.06.18-.25.29-.29.8-.24,1.09.77,1.43.86.38.1,1.02-.09,1.43,0,.24.05,1.19.8,1.43.86.27.06.93-.07,1,0,.06.06-.06.51,0,.72.05.17.57.49.72.72,1.05-1.07,1.28.73,1.72.86,1.55.44,1.25.39,2.15,1.58.45.6,1.81,1.29,2.01,2.01.12.44-.05,1.81.29,2.15.05.05.52-.05.57,0,.16.16,1.18,2.74,1.43,3.3.53,1.14.9,2.21,1.15,3.44.06.3-.04.68,0,1,.1.1,1.46-.09,1.86,0,.52.11.31.43,1.15.29.76-.13,1.57.33,1.72.29.13-.03.75-.55.86-.57.58-.13,3.01.57,3.73.86s.41.49,1.15.29c.18-.05,1.27.55,1.86.29v.57c1.06-.4,1.14,1.03,1.58,1.15.69.19,2.36-.27,2.15.86.23.03.53-.06.72,0,.8.24,2.62,3.18,3.01,3.87.44.78,1.87,3.77,1.72,4.3-.2.73-.16.66,0,1.43.81,4.03-.62,7.68-2.58,11.19l-1.72,2.01c.3.54.67.33,1,.43.21.06.65.8.86.86,1.21.36,2.04.78,3.16,1.15,1.04.35,1.29,1.11,1.43,1.15.3.08.8-.06,1.15,0,.11.02.18.27.29.29.59.11,1.11-.08,1.72.29.69.41.93,1.37,1,1.43.08.08.74-.07,1,0,.96.27,1.96,2.17,2.44,3.01.51.91,1.43,1.55,1.72,2.01.13.21.25.96.29,1,.06.06.51-.06.72,0,.87.26.75,1.8.72,2.58l1.15-.29c-.15.47.23.55.29.72.26.71,1,3.09.86,3.73-.11.49-.28-.02,0,.86.72,2.24.12,5.1-.86,7.17-.69,1.65-2.63,5.03-4.16,5.88-.14.08-.37-.05-.43,0v.14c.54.61,1.34.97,1.15,1.86.84-.14.45.21.57.43.46.82,1.73.34,2.3,2.3.03.11,1.26.83,1.43,1.43.41,1.43,1.72,3,2.3,4.59.3.82.41,1.79.57,2.58.36,1.78,1,3.75.29,6.03-.06.18.14.93,0,1.72-.12.66.29,1.46-.43,1.86-.13.08-.38-.05-.43,0-.05.05-.04,1.06,0,1.29.02.11.29.19.29.29,0,.05-.51.7-.57.86-.45,1.15-.92,2.42-1.72,3.44-.36.46-1.2,1.02-1.43,1.43-.08.14.05.38,0,.43s-.29-.08-.43,0c-.42.23-.97,1.08-1.43,1.43-1.17.91-2.76,1.7-4.3,2.01-1.02.21-2.24,1-3.44,1.15-.76.09-1.65-.07-2.44,0,.32.38.2.69.29,1,.17.65-.07.62,0,.86.07.27,1.32,1.67,1.15,2.3-.47,1.71.64,2.25.86,4.02.19,1.53-.04,3.24-.29,4.59-.16.85.25,1.66,0,2.87-.87,4.12-3.18,8.75-6.74,11.62-.84.67-3.57,2.3-4.59,2.58-.24.07-.61-.06-.86,0-.11.03-.17.26-.29.29-.79.18-1-.22-1.58-.57.09.29-.18.79-.43.86-.42.12-2.88.07-3.44,0s-2.44-.59-3.16-.86c-.16-.06-.93-.67-1-.57-.02.14.05.31,0,.43-1.46,3.53-3.35,6.76-7.03,8.46-.74.34-1.98.95-2.58.57-.54.87-1.21.46-2.01.57-.11.02-.18.27-.29.29-1.3.24-1.34-.46-1.72-.57-.51-.15-1.41.52-1.72.57-1.28.23-3.41-.84-4.73-.86v-.57c-.74.07-3.57-1.03-3.73-1.58-.39-1.37-.35-.68-1.29-1.29-.61-.4-1.56-2.4-2.3-2.87s-1.29-.91-1.72-1.15-1.65-1.89-1.58-2.15c.23-.85-.17-.46-.29-.86-.05-.18.05-.4,0-.57-.04-.12-.26-.18-.29-.29-.23-.99.46-1.14.86-1.86l-1.29-.29c-.44-.28-.54-.78-.43-1.29.02-.1.54-.73.57-.86.21-.73-.53-.95-.86-1.43-.05-.07.04-.22,0-.29-.25-.35-.72-.46-.57-1h-.14c-.43.17-.78.65-1.15.86-1.05.59-2.47,1.45-3.59,1.43v.57c-4.79,1.82-9.55,3.67-14.49,4.59-1.17.22-5.01.79-6.03.57-.32-.07-1.05-.84-1.15-.86-.27-.07-.69.05-1,0,.11,1.1-.03.69-.43.86-.12.05-.18.25-.29.29-.53.16-.88-.43-1.43-.29l-.29-.29c-1.08.75-2.59.68-4.02.57-.31-.02-2.35-.22-2.58-.29-.28-.08-.41-.81-1.43-.57s-1.71.25-2.87,0c-.32-.07-1.05-.84-1.15-.86-.99-.27-2.99-.07-4.02-.29-.1-.02-.76-.55-.86-.57-.28-.06-.69.04-1,0-.16.47.24.57.29.72.1.35-.19.59,0,1.43.11.5-.4,4.54-.57,5.16-.03.11-.25.17-.29.29-1.05,3.29-2.7,5.86-5.59,7.89-.34.24-1.82,1.38-2.01,1.43-.86.25-1.6.66-2.3.86-.78.22-1.78.17-2.58.29-.11.02-.18.28-.29.29-.63.07-1.66.06-2.3,0-.1,0-.18-.27-.29-.29-.94-.12-1.67-.03-2.58-.29-.16-.05-.42-.53-.57-.57-.26-.07-.93.08-1,0-.05-.05.08-.3,0-.43-.59-1.04-1.15.14-1.29.14-.23-.36-.84-.39-1.15-.57-.36-.21-2.66-2.51-2.73-2.73-.18-.6.4-.85-.86-.72v-.57c-1.09.23-1.46-.46-2.15-1.15-.3.24-.56.65-.86.86-1.2.84-4.55,2.61-6.03,2.87-.43.08-1-.07-1.43,0-.11.02-.19.29-.29.29-.07,0-1.02-.55-1.15-.57-.91-.16-2.01.33-2.15-1.15l-.57.86-.57-.86-.29,1-.43.43c-.57.16-.7-.24-.86-.29-.91-.3-3.55-.77-3.87-1.86-.21-.7.32-.52-.72-1-.55-.26-1.55-.52-1.86-1-.67-1.04-.34-.76-1.29-1.58-.69-.6-1.28-1.39-1.58-2.15,1.05-.96-.47-1.61-.57-2.01-.27-.98.5-1.17.57-1.43.18-.64-1.03-.74-1.15-1.15l.57-1.43c-.47-.41-.04-.9-.86-.72v-.57c-.19-.19-4.45.13-5.31,0-.2-.03-1.74-.47-2.01-.57-.35-.14-1.06-.84-1.15-.86-1.1-.31-1.91-.57-2.44-1.58-.46-.88-.31-.49-.72-.72-.44-.25-.49-.67-.43-1.15-.12-.14-.36.29-.43.29-.09,0-1.27-1.2-1.29-1.29-.07-.24.07-.62,0-.86-.29-1.07-1.39-2.48-1.72-3.73-.3-1.12-.54-3.08-.29-4.02.13-.46-.79-.68-.57-1.43.16-.57,1.1-.38,1.15-.43.04-.04.04-.81,0-1-.09-.43-.19-.91-.29-1.43-.02-.11-.27-.18-.29-.29-.26-1.42.7-1.55.86-2.3.13-.6.1-1.34.29-2.01.05-.16,1.1-1.28,1.15-1.43.07-.24-.06-.6,0-.86.02-.11.46-.3.29-.86-.04-.12-.26-.17-.29-.29-.06-.21.06-.66,0-.72-.09-.09-1.46.06-1.86,0-.11-.02-.17-.26-.29-.29-1.27-.3-2.52-.71-3.73-1.15-.76-.27-3.11-1.51-3.3-2.15-.06-.21.06-.66,0-.72-.07-.07-.97.28-1.72-.72-.05-.06.04-.23,0-.29-.55-.69-1.4-.94-1.15-2.01.03-.11.25-.17.29-.29.26-.92-.25-.62-.43-.72-.43-.24-1.64-2.18-1.86-2.73-.06-.16.06-.39,0-.57-.04-.14-.39-.2-.29-.57.03-.12.29-.19.29-.29s-.25-.17-.29-.29c-.1-.34.33-1.41.57-1.72v-.29c-.43-.52-1.36-1.01-1.15-1.72.03-.11.24-.17.29-.29.16-.39.66-1.71.57-2.01-.32-1.04-.16-1.54-.29-2.3-.24-1.43.45-1.56,1.43-2.3-.11-1.2.09-2.24.29-3.3.79.23.57-.52.86-1,.16-.27.81-.68.86-.86.19-.68-.2-1.48.29-2.3.63-1.04,1.26-1.48,2.15-2.15.89-.68.9-2.24,1.58-3.3.26-.41,1.31-.7,1.43-1.15.08-.3-.06-.8,0-1.15.02-.08.45-.29.29-.86-.02-.07-.57-.61-.72-.72-.06-.05-.23.04-.29,0-.23-.19-1.55-1.47-1.58-1.58-.17-.62.13-1.22.29-1.72-.16-.38-.63-.37-.72-.43-1.37-.97-1.43-2.51-1.86-3.87-.28-.88-.11-.37,0-.86.34-1.5-1.12-3.06,0-4.3-.37-.1-.37-1.5-.29-1.58.05-.05.3.08.43,0,.49-.28.55-1.73,1-2.44.33-.52,1.36-.88,1.43-1.15.21-.75.3-1.73.57-2.58,1.22-.74,1.37-1.3,2.01-2.3.45-.7,2.95-1.25,3.16-2.01.07-.24-.07-.62,0-.86.09-.31,1.22-.83,1.58-.72,1.08.33.84.02,1.72-.57,1.1-.74,2.12-1.26,3.59-1.15-.23-.81.7-.69,1.29-.86.11-.03,1.55-1.47,1.58-1.58.07-.24-.06-.6,0-.86.03-.11.27-.18.29-.29.06-.32-.08-1.21,0-1.29.04-.04.68.03.86-.43-.47-.28-.21-.72-.29-1.15-.02-.11-.29-.19-.29-.29,0-.08.57-1.35.57-1.43,0-.16-.2-.46,0-1.15.18-.63.84-.19.57-1.15-.05-.17.42-1.39.72-1.58,1.47-.94,1.09-1.88,2.44-2.3l-.29-.72c.16-.39,1.4-1.88,1.43-2.01.11-.39.17-1.05.29-1.43s2.97-1.89,3.59-2.15c.83-.35.27-.41.43-.57.21-.21,1.8-.42,1.43-1.15,1.04.16,1.86-.99,2.73-1.15.52-.09,1.23.11,1.72,0,.1-.02.76-.55.86-.57.8-.17,1.98-.04,2.87-.29.13-.03.75-.55.86-.57.47-.1,2.93-.09,3.44,0,.05,0,.71.23.86.29.33.12,1.18.81,1.43.86.77.17,1.44-.06,1.86-.72.13-.2.89-1.9.86-2.01s-.25-.17-.29-.29c-.23-.78,1.38-1.52,1.43-1.72.07-.24-.07-.62,0-.86.04-.13.37-.43.57-1.15.06-.2,1.54-1.11,1.86-1.29.71-.4,1.22-1.03,2.3-1.72,1.28-.82.2-1.73,3.16-2.58.18-.05.6-.68.86-.86.05-.04,1.08-.56,1.15-.57.24-.06,1,.53,1.58.29-.45-.62-.09-.46,0-.72.06-.16-.05-.38,0-.43s.27.06.43,0c.12-.04.2-.29.29-.29.07,0,.2.39.57.29,1.27-.35,1.97-.51,3.16-.29.38.07.88-.05,1.29,0-.12-1.13.47-.33.72-.29.76.13,1.49.05,2.3.29.22.06.42.7.86.57.34-.09.47-.84,1.72-.57.25.05,1.15.78,1.43.86,1.74.48,1.5.61,2.87,1.43.56.34,1.44.24,2.01.57.4.24,1.48,1.53,1.58,1.86.07.24-.07.62,0,.86.1.37,2.45,1.27,2.58,1.72.1.34-.11.7.43,1,.57-.66.93-1.03,1.86-.86-.16-.46.27-.6.29-.72.08-.43-.09-1.03,0-1.43.02-.1.23-.16.29-.29.41-.89.26-.5,1-.72.65-.19.54-1.46,1.29-1.15.07-.34.49-2.21.57-2.3.06-.06.74.21,1.15-.43.29-.46,2.32-2.9,2.73-3.01.31-.08,1.2.09,1.29,0,.05-.05-.08-.29,0-.43.52-.94,1.14-.59,1.86-.72.45-.08,1.36-.19,1.72-.29.08-.02,1.24-.73,1.43-.86.61-.41.92-1.4,1.86-1.15ZM186.22,74.18c-.22-.18-.8.09-.57.29.22.18.8-.09.57-.29ZM182.78,78.48c.19-.86-.86-.96-.86-.43,0,.18.69.6.86.43ZM110.76,77.91c-.6-.07-.65-.03-.57.57l.57-.57ZM147.78,78.48h-.57c.04.58.04.96-.29,1.43h.57c-.04-.58-.04-.96.29-1.43ZM182.93,78.77c-.19,0-.19.29,0,.29s.19-.29,0-.29ZM136.87,79.63c.18-.22-.09-.8-.29-.57-.18.22.09.8.29.57ZM185.94,82.5c1.35-.08.56-.84.57-1.72l-.86.72.29,1ZM198.28,82.21c-.31-.09-.79.19-.86.43-.1.36.43.53.29,1l1.15-.43-.57-1ZM186.22,82.79c-.2-.2-.8.42-1.15.29l.43.57h.29c.26-.16.61-.69.43-.86ZM190.96,85.94c-.19,0-.19.29,0,.29s.19-.29,0-.29ZM161.69,86.8c-.19,0-.19.29,0,.29s.19-.29,0-.29ZM188.52,87.95c.47-.47-1.52-1.77-1.15,0h1.15ZM121.67,89.96c-.43-.09-.59.13-.86.43l.29.72h.57v-1.15ZM100.72,96.27c-.31-.31-.89.26-.57.57s.89-.26.57-.57ZM100.72,97.13h-.86v.57h.86v-.57ZM89.53,100.86s-.02-.39,0-.57l-.57.43v.14c.18-.02.54.04.57,0ZM69.16,104.31c.18-.22-.09-.8-.29-.57-.18.22.09.8.29.57ZM152.22,104.31c-.19,0-.19.29,0,.29s.19-.29,0-.29ZM92.69,104.88h-.86l-.29,1.15,1.15-1.15ZM146.34,107.18c.07,1.36,1.65,1.09,1.43-.29-.47.33-.86.33-1.43.29ZM155.52,107.46c-.31-.31-.89.26-.57.57s.89-.26.57-.57ZM209.9,107.46c-.19,0-.19.29,0,.29s.19-.29,0-.29ZM202.44,108.04c-.19,0-.19.29,0,.29s.19-.29,0-.29ZM201.43,108.9c-.31-.31-.89.26-.57.57s.89-.26.57-.57ZM173.89,109.18c-.22-.18-.8.09-.57.29.22.18.8-.09.57-.29ZM184.79,110.62s-.02-.39,0-.57l-.57.43v.14c.18-.02.54.04.57,0ZM128.27,110.62h-1.15v.29c.49-.09.75.06,1.15.29v-.57ZM184.07,110.91c-.19,0-.19.29,0,.29s.19-.29,0-.29ZM203.58,110.91c-.19,0-.19.29,0,.29s.19-.29,0-.29ZM176.47,112.34s-.02-.39,0-.57l-.57.43v.14c.18-.02.54.04.57,0ZM92.55,112.91c-.19,0-.19.29,0,.29s.19-.29,0-.29ZM92.98,113.49h-.86c-.22,1.24,1.06.16.86,0ZM80.06,114.92l-.43-.57h-.29l-.43.43v.14h1.15ZM140.89,116.07s-.02-.39,0-.57l-.57.43v.14c.18-.02.54.04.57,0ZM109.33,117.22h-.57c-.12.88.27,1.27,1.15,1.15-.14-.48-.72-.58-.57-1.15ZM145.63,117.51c-.19,0-.19.29,0,.29s.19-.29,0-.29ZM174.32,118.65c-.19,0-.19.29,0,.29s.19-.29,0-.29ZM111.05,120.66h-.86c-.22,1.24,1.06.16.86,0ZM68.01,125.54c-.22-.18-.8.09-.57.29.22.18.8-.09.57-.29ZM205.59,125.83c-.19,0-.19.29,0,.29s.19-.29,0-.29ZM215.78,126.69c-.22-.18-.8.09-.57.29.22.18.8-.09.57-.29ZM120.81,127.83c.86.19.96-.86.43-.86-.18,0-.6.69-.43.86ZM93.26,128.41c-.21,1.18.51,2.02,1.43,1l-1.43-1ZM187.66,129.84v-1.15h-.29c-.04.7-.79,1.28.29,1.15ZM197.7,129.27h-.86v.14l.43.43.43-.57ZM123.96,130.99c.53.06.83.01,1.15-.43.11-.41-.45-.83-.86-.72l-.29,1.15ZM161.84,130.7c-.22-.18-.8.09-.57.29.22.18.8-.09.57-.29ZM219.51,132.14l-1.43.14c.17.45.82.39.86.43.08.07-.25.85.57.57v-1.15ZM168.44,132.71c-.35.06-.51,0-.72-.29l-1,.43,1.72.43v-.57ZM70.74,135.01c-.19,0-.19.29,0,.29s.19-.29,0-.29ZM232.13,135.29c-.53.03-.81-.44-1.43-.29v.57h1.43v-.29ZM134.01,137.02c.17-.17-.07-.99-.43-1.15l-.72.29.29.86c.23-.03.81.05.86,0ZM179.05,135.87h-.86v.29h.86v-.29ZM61.84,136.16c-.19,0-.19.29,0,.29s.19-.29,0-.29ZM88.38,136.73l-.57-.57c-.07.6-.03.65.57.57ZM232.56,137.3c-.19,0-.19.29,0,.29s.19-.29,0-.29ZM158.39,138.45c-.72-.07-.97.46-.86,1.15.38-.06,1.1-.91.86-1.15ZM225.82,139.89c-.31-.31-.89.26-.57.57s.89-.26.57-.57ZM92.26,140.75c-.58.45-.58.7,0,1.15.58-.45.58-.7,0-1.15ZM224.53,140.75c-.19,0-.19.29,0,.29s.19-.29,0-.29ZM156.39,141.61l-.57-.57c-.07.6-.03.65.57.57ZM61.27,141.32c-.19,0-.19.29,0,.29s.19-.29,0-.29ZM173.89,141.32c-.63-.03-1.24-.13-1.43.57.35-.06.51,0,.72.29l.72-.86ZM127.12,141.61h-.86c-.22,1.24,1.06.16.86,0ZM224.1,141.61h-.86c-.22,1.24,1.06.16.86,0ZM198.56,141.89c-.31-.31-.89.26-.57.57s.89-.26.57-.57ZM222.52,142.18c-.19,0-.19.29,0,.29s.19-.29,0-.29ZM126.26,143.62c.18-.22-.09-.8-.29-.57-.18.22.09.8.29.57ZM133.14,144.48c-.05-.05.08-.29,0-.43-.07-.12-.94-.99-1-1-.42-.12-.8.62-1.15.86-.36.26-1.58.98-2.01,1.15-.23.09-.63-.15-.86.29l-.86-.86c-.4-.16-.64.51-.86.57-.39.11-1.05.17-1.43.29-.25.07-.43.79-1.15.57-.12-.04-.18-.27-.29-.29-.43-.08-.99.07-1.43,0-.38-.06-2.82-.94-3.16-1.15-.29-.18-.45-.69-.86-.57-.51.14-.35.84-.43,1-.87,1.93-2.13,3.6-3.87,4.73-.74.48-2.41,1.51-3.16.86-1.97,1.95-4.92.62-7.17.86-.1.01-.18.28-.29.29-.59.07-1.26-.05-1.86,0,.08.27.5.74.72.86.84.47.21.64.43.86.08.08,1.56.66,1.86.86,1.49.97,3.17,2.65,4.59,3.44.22.12.57-.27.43.57h.57v-.57c1.3-.51,1.44,1.03,1.86,1.15.24.07.62-.07.86,0,.13.03.75.55.86.57.8.17,1.66-.11,2.3.86,1.67-.72,4.91-.11,6.6-.57.16-.04.42-.53.57-.57,1.41-.39,3.58.63,4.59-.29h.57c.77.84,1.72.2,2.58,0,1.39-.32,2.68-.17,4.02-.57.36-.11,1.43.43,2.3.29.67-.11,1.73.16,2.3,0,.16-.04.42-.53.57-.57,2.44-.67,4.4-.04,6.6.29,1.15.17,2.01-.46,3.16-.29.34.05,2.45.61,2.58.57.83-.23,1.01.14,1.72.29.29.06.68-.04,1,0-.04.46-.05,1.3.43,1.43.38.1.46-.26.57-.29.33-.08.84.09,1.15,0,.14-.04,1.2-.83,1.72-.86.67.76,1.5.45,2.3.57.1.02.17.25.29.29,1.07.3.55-.7,1.15-.86.51-.14,3.6-.07,4.3,0,.27.03.94.5,1.72.29.16-.04.42-.53.57-.57.69-.19,1.77.06,2.3.57h.29c.53-.56.87-1.06,1.72-.86.11.03.18.27.29.29,1.31.19,1.82-.03,2.87-.57.98-.5,1.58-1.07,2.87-.86.11.02.19.29.29.29.06,0,.49-.51,1-.29.09-.5-.45-.75-.29-1.29.34-.41.49-.96,1-1.29.07-.04.22.04.29,0,.35-.22.73-.39,1-.72l-.86-.14v-.86c-.41.04-.9-.07-1.29,0-.11.02-.19.29-.29.29-.05,0-.7-.5-.86-.57-.29-.12-.55.26-.43-.57h-.86c.15-.87-1.13-.65-1.72-1.58-.76-1.2-1.4-1.63-2.01-2.58-.1-.15-.31-.27-.43-.43-.26.2-1.29,1.11-1.43,1.15-.91.26-.99.54-1.72.86-.83.36-1.4.12-2.01.29-.33.09-1.15,1.25-2.01.29-1.32,1.02-2.37.26-3.73.57-.6.14-1.99-.42-2.58-.57-1.5-.39-2.82-.93-4.02-1.72-.39-.26-.87-.72-1.29-1,0-.65.16-1.2-.43-1.58-.07-.05-.23.04-.29,0-.18-.13-.49-.57-.57-.57-.12,0-.54.7-1.15-.29-1.1,1.22-2.45,1.99-4.02,2.58-2.8,1.51-7.04,1.52-10.04.57-.23-.07-2.07-.77-2.15-.86-.15-.15.35-.14-.43-.57-.33-.18-.9-.77-1.29-1-.19-.65.38-.78.57-1.29-.42-.07-2.19.1-2.3,0ZM112.63,144.48c-.19,0-.19.29,0,.29s.19-.29,0-.29ZM93.26,145.62c.18-.22-.09-.8-.29-.57-.18.22.09.8.29.57ZM64.28,146.2c-.31-.31-.89.26-.57.57s.89-.26.57-.57ZM232.28,146.48c-.19,0-.19.29,0,.29s.19-.29,0-.29ZM62.99,147.06c-.19,0-.19.29,0,.29s.19-.29,0-.29ZM55.96,150.79h-.86v.14c.48.6,1,.7.86-.14ZM82.07,151.65c-.31-.31-.89.26-.57.57s.89-.26.57-.57ZM96.42,154.23c-.47-.16-.57.25-.72.29-.4.11-.57-.38-.86-.57-.07-.05-.23.04-.29,0-.64-.47-1.12-1.36-1.86-1.72.05.8-.07,1.65,0,2.44.06.7.47,2.14.57,2.87.12.83.12,1.97-.86,1.86v.14c.78.58,1.09,1.42,1.43,2.3.49,1.23.7,2.68,1.15,4.02.35,1.06.73,2.29,1.15,3.44.29.8,1.17,1.15,0,2.01.46.21.66,1.19,1,1.29.21.06.66-.06.72,0s.05,1.33.57,1.58l-.29,1,1.15.29c.43,1.32,1.28,2.71,2.01,3.87.6.95.99,2.11,1.58,2.44.1.06,1.15,1.61,1.29,1.86.08.14-.05.38,0,.43.04.04,1.11.24,1.15.29.05.05-.06.28,0,.43.05.12.27.18.29.29.06.27-.07.93,0,1,.06.06.51-.06.72,0,.57.17.38,1.1.43,1.15.04.04,1.11.24,1.15.29.05.05.15.98.72,1.15,1.79.52,2.65,2.72,3.16,2.87.88.25.88-.02,1.29.72.52.94,1.74.97,2.01,1.43.5.88,1.44.71,1.43,1.58,2.08.22,3.75,2.29,5.88,2.87,1.13.31,1.49.8,1.72.86.56.15,1.45,0,1.86.72.19.33-.16.35.72.72.72-1.15,2.82,1.63,3.3,1.15.04-.04-.02-.39,0-.57,1.13-.12,1.99.47,3.16.29-.01,1.43,1.75.64,2.73.86.35.08.85.24,1.15.29.92.15,1.66-.46,2.3-.29.2.06.66.81.86.86.37.1,1-.07,1.43,0,.12.02.43.45,1.15.29.65-.15,1.75-.75,2.3-.86.19-.04.97-.04,1,0s-.03.68.43.86c.52.22,1.13-.51,1.43-.57.91-.2,2.75-.09,3.44.57.69-1.01,1.93-.66,2.87-.86s.31-.67,1.72-.29c.68.19.67-.81.72-.86.08-.08,1.48-.08,1.58.29.7-1.25,2.01-.11,2.58-.29.12-.04.18-.27.29-.29.35-.06.84.08,1.15,0,.43-.12.65-1.45,1.15-1.72.61.09.92-.44,1.58-.29v-.57c.12-.12,2.71.07,3.3,0,.11-.01.18-.27.29-.29.46-.08,1.41.19,1.58-.43.07-.24-.07-.62,0-.86.04-.15.44-.25.29-.72.47.15.55-.23.72-.29.48-.17,1.29-.17,1.72-.29s1.17-1.85,1.72-2.01c.18-.05.4.05.57,0,.67-.19,1.35-2.33,2.73-1.15v-.86l1.15-.29c-.2-.55.22-.81.29-1,.06-.17-.05-.39,0-.57.14-.5,1.56-.45,2.01-1.15.63-.99-.27-1.13,1.29-1.58.12-.03,1.86-1.45,1.86-1.58,0-.1-.48-.3-.29-.57.57-.29,2.58-2.52,2.58-2.87,0-.1-.29-.19-.29-.29,0-.18,1.49-2.36,1.72-2.87.51-1.09,1.09-.75,1.43-2.01.06-.21-.06-.66,0-.72.05-.05.29.08.43,0,.2-.11.38-.46.57-.57.14-.08.38.05.43,0,.09-.09-.08-.98,0-1.29.06-.2.81-.66.86-.86.14-.52-.14-1.49,0-2.01.06-.2.8-.66.86-.86.08-.29.28-.81.29-.86.07-.4-.09-1.77,0-1.86.05-.05.29.08.43,0,1.02-.57.82-1.83,1-2.73.09-.43.79-1.6.86-2.01.12-.68-.14-1.65,0-2.3.26-1.19,1.46-2.04.57-3.73.38-.46.74-1.12.57-1.72-.04-.16-.53-.42-.57-.57-.08-.31.27-1.62-.43-1.29-.44.21-.85.7-1.15.86-2.49,1.38-5.36,3.2-7.75,4.3-.76.35-1.32.83-2.01,1.15-.32.15-.11.42-.72,0,.09.97-1.19,1.04-1.86,1.43-.36.21-.89.75-1.29,1,0,.1.27.18.29.29.12.71-.54,3.49-.86,4.3-1.7,4.29-6.45,8.09-10.76,9.04-.33.07-.8-.06-1.15,0-.11.02-.18.27-.29.29-.88.11-2.35-.36-2.58-.29-1.11.34-.76-.14-1.43-.29-.41-.09-1,.07-1.43,0-.63-.1-1.78-.63-2.58-.86-.13-.04-.95-.95-1.43-1.15-.83-.35-.27-.41-.43-.57-.08-.08-1.32-.93-1.58-1.15-.94-.78-.4-1.05-1.72-1.43-.26-.08-1.22-1.35-1.29-1.58-.09-.29.23-.93,0-1.72-.06-.21-1.11-1.02-1.43-1.72-.06-.12-.26-.18-.29-.29-.12-.54,0-1.13.29-1.58-.49-.07-1.14.1-1.58,0-.12-.03-.2-.39-.57-.29-1.57.43-4.51-.35-6.31-.57-.76-.09-1.5.21-2.15-.29.11.83-.14.45-.43.57-.12.05-.19.27-.29.29-.47.08-1.08-.06-1.58,0-.05.6.08,1.28,0,1.86-.08.64-.62,2.78-.86,3.44-.26.7-3.06,5.02-3.59,5.02l-.29-.29c-.77,1.15-2.4,1.98-3.73,2.58-.75.34-3.45,1.31-4.02,1.15-.12-.03-.19-.29-.29-.29s-.18.27-.29.29c-1.24.21-3.19-.03-4.3-.29-.11-.03-.18-.26-.29-.29-.34-.07-.81.07-1.15,0-.16-.03-.9-.46-1.15-.57-.9-.42-.66-.87-1.15-1.15-.14-.08-.38.05-.43,0-.04-.04-.25-.93-.29-1.15-.12-.12-1.47.11-1.86,0-.5-.14-1.28-1.41-1-2.01-.31-.05-.74.07-1,0-.13-.04-1.83-1.74-1.86-1.86-.05-.19.07-.43,0-.57-.08-.18-.55-.76-.57-.86-.12-.57.14-1.49,0-2.01-.12-.44-1.55-1.68-1.72-2.3-.11-.39-.19-.79-.29-1.15-.06-.21.06-.66,0-.72-.03-.03-.59-.03-.86-.29v.57c-1.21.51-1.77-.75-2.15-.86-1.08-.31-2.36-1.16-3.44-1.72s-2.78-1.49-3.3-2.73c-.06-.15.05-.38,0-.43s-.28.06-.43,0c-.17-.07-.75-.55-.86-.57-.27-.06-.93.07-1,0-.05-.05.08-.29,0-.43-.23-.41-.81-.5-.57-1.29ZM61.27,154.52c-.19,0-.19.29,0,.29s.19-.29,0-.29ZM52.81,157.96c.53.06.83.01,1.15-.43l-.72-.43c-.3.27-.52.43-.43.86ZM81.5,158.25c1.04.33,1.36-.86.72-.86-.06,0-.7.63-.72.86ZM219.22,159.4c-.72-.07-.97.46-.86,1.15.72.07.97-.46.86-1.15ZM72.6,160.54c-.31-.31-.89.26-.57.57s.89-.26.57-.57ZM127.55,162.55c-.19,0-.19.29,0,.29s.19-.29,0-.29ZM156.1,163.13c.18-.22-.09-.8-.29-.57-.18.22.09.8.29.57ZM55.1,164.56c.07-.54,0-.99-.57-1.15.03.53-.44.81-.29,1.43l.86-.29ZM202.58,163.7s-.39.02-.57,0l.43.57h.14c-.02-.18.04-.54,0-.57ZM53.09,163.99c-.31-.31-.89.26-.57.57s.89-.26.57-.57ZM53.95,164.85c.18-.22-.09-.8-.29-.57-.18.22.09.8.29.57ZM235.58,164.56h-1.43c-.07.67.26,1.3.72,1.72l.72-.29c-.54-.65-.03-.76,0-1.43ZM217.21,165.42c.18-.22-.09-.8-.29-.57-.18.22.09.8.29.57ZM222.95,168.86l.57-.43v-.29c-.27-.3-.43-.52-.86-.43.23.4.38.66.29,1.15ZM176.61,168c-.19,0-.19.29,0,.29s.19-.29,0-.29ZM126.26,168.58c-.22-.18-.8.09-.57.29.22.18.8-.09.57-.29ZM230.84,169.44c-.19,0-.19.29,0,.29s.19-.29,0-.29ZM159.11,170.01c-.19,0-.19.29,0,.29s.19-.29,0-.29ZM65.72,171.73c.38.38,1.5-.41,1.15-1.15l-1.15.29c.03.23-.05.81,0,.86ZM160.26,170.87c-.19,0-.19.29,0,.29s.19-.29,0-.29ZM213.2,172.02c-.22-.18-.8.09-.57.29.22.18.8-.09.57-.29ZM237.01,173.17c.18-.22-.09-.8-.29-.57-.18.22.09.8.29.57ZM124.68,172.88c-.19,0-.19.29,0,.29s.19-.29,0-.29ZM202.58,174.6v-1.15h-.14c-.44.32-.5.61-.43,1.15h.57ZM234.43,174.32l-.14-.57c-.33.11-.15.62,0,.86.29.48.88.25,1.29.29l-1.15-.57ZM229.55,175.18c.18-.22-.09-.8-.29-.57-.18.22.09.8.29.57ZM236.29,175.46c-.19,0-.19.29,0,.29s.19-.29,0-.29ZM81.5,178.05v-1.43h-.14l-.43.72.29.72h.29ZM208.6,179.19c.36.97,1.49.7,1.43-.29-.47.33-.86.33-1.43.29ZM86.38,182.92c-.31-.31-.89.26-.57.57s.89-.26.57-.57ZM96.42,184.07h-.86v.86c.55.08.94-.31.86-.86ZM96.99,184.93l-.57.14c.04.4-1.01,1.07-.14,1.29.48.12.99.02,1.29-.43l-.57-.14v-.86ZM99,189.81h-1.29c-.36.23-.33.42-.43.72-.12.34-.68-.11-.57.43.81.07,2.26,0,2.3-1.15ZM189.95,190.38c-.31-.31-.89.26-.57.57s.89-.26.57-.57ZM75.19,192.68v-.86h-.29v.86h.29ZM93.84,194.11c-.51.08-.74-.44-1.29-.29-.39.11-.51.77-.43,1.15l1.15.29c-.15-.57.43-.67.57-1.15ZM70.74,194.11c-.19,0-.19.29,0,.29s.19-.29,0-.29ZM93.26,195.84h-.86v.29h.86v-.29ZM107.18,195.84c-.19,0-.19.29,0,.29s.19-.29,0-.29ZM108.18,196.41c.18-.22-.09-.8-.29-.57-.18.22.09.8.29.57ZM212.62,196.12c-.22-.18-.8.09-.57.29.22.18.8-.09.57-.29ZM92.55,196.7c-.19,0-.19.29,0,.29s.19-.29,0-.29ZM213.48,197.56c.08-.55-.31-.94-.86-.86v.86h.86ZM194.26,198.13c.04,1.29,1.07.82,1.72.14l-1.72-.14ZM169.58,200.71l-.57-.57c-.07.6-.03.65.57.57ZM105.46,200.43c-.19,0-.19.29,0,.29s.19-.29,0-.29ZM67.3,201c-.19,0-.19.29,0,.29s.19-.29,0-.29ZM118.22,201s-.39.02-.57,0l.43.57h.14c-.02-.18.04-.54,0-.57ZM106.03,201.29c-.19,0-.19.29,0,.29s.19-.29,0-.29ZM169.87,201.86c.18-.22-.09-.8-.29-.57-.18.22.09.8.29.57ZM194.69,203.87c-.19,0-.19.29,0,.29s.19-.29,0-.29ZM216.06,206.74l-.57-.57c-.07.6-.03.65.57.57ZM98.86,206.74c-.19,0-.19.29,0,.29s.19-.29,0-.29ZM91.83,208.17s-.02-.39,0-.57l-.57.43v.14c.18-.02.54.04.57,0ZM121.24,209.61c-.19,0-.19.29,0,.29s.19-.29,0-.29ZM83.79,211.04c.18-.22-.09-.8-.29-.57-.18.22.09.8.29.57ZM115.36,212.19c.17-1.01-.33-1.85-1.43-1.72l-.57,1.29.72.72c.29-.44.79-.27,1.29-.29ZM83.08,211.33c-.19,0-.19.29,0,.29s.19-.29,0-.29ZM116.36,216.21c-.19,0-.19.29,0,.29s.19-.29,0-.29Z"/>
  <path d="M151.79,185.51c.05.05-.08.3,0,.43.22.4,1.3.68,1.43,1.15.23.81.72,1.5.86,2.01.07.25-.07.62,0,.86.03.11.24.17.29.29.06.15-.05.38,0,.43.03.03.57-.08.72.29.58-.87,1.49-.52,2.44-.57v-.57h1.72c-.15.47.21.53.29.72.25.62.27.61.57,1.15.12.22-.27.57.57.43-.48.51-.16,1.1-.29,1.58-.02.07-.86.91-1,1-.66.44-1.39.4-2.01.57-.16.04-.41.53-.57.57-1.56.46-3.38.66-4.59,1.72-.95-.5-.83.13-1,.72-.11.36-.91.43-1.15.86-.08.14.05.38,0,.43-.05.05-.28-.06-.43,0-.19.08-.68.51-.86.57-.87.32-1.68.18-2.58.29-.11.01-.18.27-.29.29-.35.05-1.08.05-1.43,0-.11-.02-.18-.27-.29-.29-.35-.06-.81.07-1.15,0-.1-.02-.68-.49-.86-.57-.14-.07-.38.05-.57,0-.1-.03-1.55-1.19-1.58-1.29-.06-.21.06-.66,0-.72s-1.27-.46-1.58-.57c-1.35-.49-2.33-.44-3.73-.86-.92-.28-.74-.26-1-.72-.43-.76-1.26-.26-1.86-.43-.16-.04-.41-.53-.57-.57-.18-.05-.4.05-.57,0-.11-.03-1.45-1.38-1.58-1.58-.04-.06.04-.21,0-.29-.25-.43-.72-.93-.57-1.43.03-.11,1.47-1.55,1.58-1.58.31-.09.83.09,1.15,0,.26-.07.69-.94,1.58-.57v.86c.83-.15,1.42.22,2.15.29.29-.35.72-.28,1-.72.05-.07.54-1.06.57-1.15.07-.2-.06-.65,0-.72.05-.05.79.2,1.15-.43.08-.13-.05-.38,0-.43.09-.09,1.22.08,1.58,0,.11-.02.74-.54.86-.57,1.13-.3.43.86,1.15.57.6-.24.49-1.14,2.01-.86.13.02.96.51,1.15.57.23.07.61-.07.86,0,.34.09,1.04.83,1.15.86.59.17.86,0,.72-.57h2.01c-.11-1.1.03-.69.43-.86.17-.07.76-.55.86-.57.21-.04,1.25-.05,1.29,0Z"/>
  <path d="M140.03,182.35s.02-.39,0-.57c-.84.14-.45-.21-.57-.43-.11-.2-.53-.43-.57-.57-.11-.39.2-.88-.29-1.15.92-.52.39-1.34.57-2.01.1-.35,1.9-1.08,2.15-1.58h.29c.24.43.58.21.86.29.19.05,1.16,1.05,1,1.43.31-.18,1.07-.42,1.15-.72.08-.28.07-2.26,0-2.58s-.83-1.05-.86-1.15c-.08-.29-.28-.81-.29-.86-.05-.27-.05-.88,0-1.15.03-.19.55-.21,0-.57.4-.52.28-1.14,1-1.58l1.43-.29.29-.29c.63.43,1.69,1.16,2.15,1.86.71,1.08.93,2.67,1.43,3.73-.55.37-.03.38,0,.57.11.65.1,2.77,0,3.44-.02.11-.26.17-.29.29-.06.26.07.62,0,.86-.03.11-.24.17-.29.29-.28.76-.46.87-.86,1.43-.05.07.04.23,0,.29-.57.77-1.41,1.19-2.15,1.58-.18.1-.76.55-.86.57-.29.06-1.11.05-1.43,0-.11-.02-.18-.28-.29-.29-.67-.07-1.76.15-2.3,0-.19-.05-.59-.71-.86-.86-.14-.08-.38.05-.43,0Z"/>
</svg>