<?xml version="1.0" encoding="UTF-8"?>
<svg id="zkouska_s_hlavamaa" data-name="zkouska s hlavamaa" xmlns="http://www.w3.org/2000/svg" viewBox="0 0 288.67 288.67">
  <path d="M193.83,75.19v.57c1.21-.16,1.91.93,3.01,1.43,1.33.62,2.2,1.43,3.44,2.01.32.15,1.18.64,1.29,1,.06.21-.06.66,0,.72.12.12,1.59.47,1.86.57.43.16,1.62,1.26,1.58,1.72h.57c-.24,1.2.65,1.03,1.29,1.43.53.33.87,1.35,1.15,1.43.21.06.66-.06.72,0,.1.1-.1,1.34,0,1.43.04.04.68-.03.86.43l-.86,1.58,3.16-.29.29,1.72c1.1-.11.69.03.86.43.58,1.37,1.83,2.25,2.58,3.44.54.87.98,2,1.43,2.87.71,1.35,1.61,2.63,1.15,4.3-.04.14-.45.39-.57.57.4.7,1.06.29,1.58.43.49.14.35.77.43,1,.26.81.65,1.76.86,2.58.19.76.7,2.76.57,3.44-.04.25-.84.84.29.72-.18,2.44.25,5.2,0,7.6-.16,1.56-1.08,4.77-1.72,6.31-.17.41-.7,1.03-.86,1.43-.05.12.02.29,0,.43,1.34-.35,1.05,1.05,1.15,1.15.16.16,1.56-.36,2.01.43.08.13-.05.38,0,.43.19.19,1.52.05,1.15.86.96-.23.76,1.66,1.72,1.43-.1.92.63.37,1.15,1.29.29.52,1.16,1.31,1.58,1.58.67.42,2.47,4.64,2.73,5.59.33,1.25.18,2.42.29,3.73,0,.1.28.18.29.29.22,2.03-.56,4.82-1.15,6.6-1.71,5.03-5.7,9.34-10.76,11.62-.15.07-.39-.05-.57,0-.7.2-.37,2.26-.43,3.01-.2,2.41-.74,5.11-1.15,7.46-.14.8-.41,1.87-.29,2.3.07.24-.96,3.95-1.15,4.59-.05.16-.53.42-.57.57-.24.87.23,2.2-.86,2.15-.13,2.85-1.83,5.91-3.16,8.46-4.62,8.9-11.61,16.69-20.51,21.66-.54.3-3.15,1.8-3.44,1.72-1.03-.28-.53.39-.72.57-.12.12-1.6.47-1.86.57-9.25,3.73-19.6,4.91-29.55,2.58-1.51-.35-3.25-.95-4.88-1.43-.16-.05-.42-.53-.57-.57-.35-.1-1.47.1-1.58,0v-.57c-1.16.3-2.71-.9-3.87-1.43-.6-.28-1.3-1.11-1.43-1.15-1.02-.28-1.32-.04-1.86-1-.37-.65-.69-.06-1.15-.86-.37-.65-2.95-1.42-3.44-2.3s-1.3-.81-1.72-2.3c-.18-.61-1.9-1.02-2.01-1.43-.06-.23.05-.59,0-.86-.02-.11-.29-.19-.29-.29,0-.06.44-.28.29-.72-.83.24-.8-.8-.86-.86-.15-.15-.13.34-.57-.43-.21-.37-1.01-.71-1.43-.72.05-.58-.2-1.23.29-1.58-.19-.39-.55-.35-.72-.43-.88-.45-.49-.31-.72-.72-.46-.83-1.84-2.24-1.43-2.87,0-.24-1.31-.7-1.43-1.15-.11-.39-.06-1.21.29-1.43-1.37-.83-.4-1.4-.57-2.01-.05-.16-1.1-1.27-1.15-1.43-.16-.55-.19-1.16-.29-1.72-.02-.1-.31-1.35-.29-1.43.36-1.26-.42-1.44-.57-2.01-.08-.28-.05-1.37,0-1.72.01-.1.26-.17.29-.29.06-.29-.04-.68,0-1h-.86c-.21-.55.37-.99.29-1.29-.36-1.31-.04-2.53-.29-3.44-.13-.47-1.2-.81,0-2.01-.58-.6-.75-1.79-.57-2.58.42-1.89-.11-3.7.29-6.03.02-.11.29-.19.29-.29,0-.07-.71-.69,0-1.15-.8-.62-.38-.54-.29-.86.1-.37-.22-.41-.29-.57-.12-.29.26-.55-.57-.43v-.57c-.12-.14-.33.27-.43.29-.95.19-2.89-.59-3.73-1.15-1.17-.78-2.33-2.23-3.01-3.3-.19-.31-1.26-.8-1.43-1.43-.11-.38.11-1.05,0-1.43-.04-.14-1.61-1.9-1.72-2.3-.05-.18.05-.4,0-.57-.14-.43-.43-.66-.29-1.43.04-.25.84-.84-.29-.72.1-.74-.15-1.76,0-2.44.02-.1.55-.76.57-.86.15-.69-.1-1.48-.57-2.01.83-.49.43-1.07.57-1.72.08-.39.41-.95.57-1.72.2-.93.7-2.47.57-3.16,1.03-.68.71-1.1.86-2.01.02-.11.28-.19.29-.29,0-.05-.44-.29-.29-.72-.14-.16-.57.53-.72.57-.38.1-3.24.08-3.73,0-.11-.02-.19-.29-.29-.29s-.18.27-.29.29c-1.32.22-1.36-.47-1.72-.57-.44-.12-.64.51-.86.57-.35.1-2.71.07-3.16,0-1.4-.23-3.9.08-5.74,0-2.67-.11-6.74-.72-9.18-.29-1.52.27-3.43-.16-5.16,0-3.74.35-7.97-.26-11.76,0l-.86-.86-.14.57c-.76-.09-1.72.13-2.44,0-.11-.02-.17-.25-.29-.29-.56-.17-.78.27-.86.29-.91.16-5.68.16-6.6,0-.11-.02-.26-.44-.72-.29-.06-.5.08-1.11,0-1.58-.12-.65-.15-1.14-.29-1.72-.16-.72.26-1,.29-1.15.06-.35-.08-.84,0-1.15.23-.83,1.33-.62,1.86-.72.13-.02.46-.48,1.15-.29.48.13-.01.43.86.29.61-.1,1.41.11,2.01,0,.94-.17,2.17-1.07,3.44-.86.71.12.57.2,1.43,0,.67-.15.82.15,1.15.29.15.06.38-.05.43,0,.05.05-.05.52,0,.57.17.17.99-.49,1.43-.29v-.57c1.51-.04,3.47-1.1,4.73,0,.5-.37,1.62.03,1.72,0,.3-.09,1.27-1.09,2.01-.86,2.26.69,2.54-.58,2.87-.57.09,0,.17.25.29.29.38.11.48-.4.86-.29.11.03.17.25.29.29.6.2,1.18.38,1.72.57,1.38.49.94-.15,1.43-.29,1.85-.51,4.26.2,5.74-.29.9.44,1.68-.24,2.58-.86.37.54,1.07.03,1.43.57.54-1.06,1.99-.12,2.58-.29.93-.27,1.82.43,2.3.29,2.15-.65,2.56-.92,4.88-.57,1.28.19,3.45-.77,4.3-.57,1.39.32,3.44.15,4.88-.29.59-.18,1.75.99,1.58-.29.32.04.71-.06,1,0,.11.02.18.27.29.29.39.05,1.7.08,2.01,0,.07-.02.99-.94,1-1,.07-.24-.07-.62,0-.86.04-.16.53-.42.57-.57.15-.53-.28-1.35.29-1.72v-.14c-.97.21-1.06-1.44-.86-2.15.04-.16.53-.41.57-.57.16-.54-.45-.9-.29-1.43.05-.16.53-.42.57-.57.23-.85-.23-2.6,0-3.44.09-.34,1.29-.92,1.15-1.43-.82-.93.03-2.33,1.15-2.44l-.57-1.86c.44-.34.39-1.26.57-1.72.39-.98.56-1.19.86-2.3.09-.34.84-1.05.86-1.15.16-.6-.15-1.27.29-2.01.2-.33,1.09-.92,1.15-1.15.08-.3-.06-.79,0-1.15.1-.59,0-.41,0-.57,0-.21.84-1.06.86-1.15.05-.18-.05-.4,0-.57.19-.66,1.65-.93,1.72-1,.09-.09-.05-1.12,1-1.72.41-.24.99-1.47,1.29-1.86.43-.57,1.18-.75,1.43-1.15.55-.87-.17-.91,1-1.58,1.17-.66.72-.69,1.29-1.58.36-.55,1.34-.81,2.01-.72-.08-1.24.81-2.09,2.01-2.01v-.57h.86v-1.15c.32-.04.72.06,1,0,.11-.02.69-.5.86-.57.4-.17.54.24.43-.86.35.07,1.61-.18,1.72-.29.12-.12-.11-.27.72-.86.39-.28,1.88-1.69,2.01-1.72.31-.09.83.09,1.15,0,.28-.08,1.16-1.36,1.43-1.43.6-.17,1.26.19,1.72.57.25-.53,1.52-.51,1.58-.57.05-.05-.08-.3,0-.43.48-.85,1.92-.49,2.3-1.15.08-.13-.05-.38,0-.43.1-.1,1.23.1,1.58,0,.24-.07,1.13-1.31,1.72-1.15s1.84.2,2.58,0c.28-.08.4-.81,1.43-.57.13.03.25.44.72.29-.4-.97,1.83-1.04,2.01-.86.05.05-.08.3,0,.43.35.62,1.37.62,1.72,0,.08-.13-.05-.38,0-.43.05-.05,1.06-.04,1.29,0,.11.02.18.28.29.29.78.08,1.65-.06,2.44,0v-.57c1.38-.31,1.29.7,2.15,1.43.27-.49.76-.18,1.15-.29.16-.04.42-.53.57-.57.36-.1,3.27-.08,3.73,0,.12.02.96.51,1.15.57.85.27,2,.39,2.87.57.21.05.81.67,1.15.57,2.48-.69,5.51,2.57,8.18,2.58ZM174.61,71.75l-1.15.29c.37.76.14,1.02,1.15.86v-1.15ZM198.28,80.07c-.19,0-.19.29,0,.29s.19-.29,0-.29ZM194.83,83.8c-.19,0-.19.29,0,.29s.19-.29,0-.29ZM160.55,85.81c-.12-.55.48-.61.14-1.15-.25-.39-.61-.29-1-.29v1.43l.57-.86.29.86ZM170.59,84.95c-.83.39-1.26,1.11-.43,1.72.62-.41.41-1.03.43-1.72ZM163.13,90.11c-.36-.19-1,.46-.86.57.43-.12.52.2.86.29v-.86ZM186.94,91.26c.18-.22-.09-.8-.29-.57-.18.22.09.8.29.57ZM184.5,91.26c-.19,0-.19.29,0,.29s.19-.29,0-.29ZM159.97,93.56c-.22-.18-.8.09-.57.29.22.18.8-.09.57-.29ZM177.62,94.7c-.19,0-.19.29,0,.29s.19-.29,0-.29ZM177.19,101.3c-.94-.18-1.64-.85-1.43.57.53.03.81-.44,1.43-.29v-.29ZM133.86,103.88v-.86h-.14l-.43.43.57.43ZM189.24,110.48l-.86-.29v.86l-.57.57h1.43c.02-.62-.44-.61,0-1.15ZM171.88,112.21c-.19,0-.19.29,0,.29s.19-.29,0-.29ZM171.45,113.07c.18-.22-.09-.8-.29-.57-.18.22.09.8.29.57ZM199.86,118.52l.29-1.15-1.43.86,1.15.29ZM189.53,121.1c.18-.22-.09-.8-.29-.57-.18.22.09.8.29.57ZM197.99,124.26c-.19,0-.19.29,0,.29s.19-.29,0-.29ZM133.58,124.54h-.86v.29h.86v-.29ZM138.45,126.55l-.57.14v1l1.43.29c.15-.79-.19-.44-.57-.72-.28-.21-.34-.37-.29-.72ZM98.86,127.7s-.39.02-.57,0l.43.57h.14c-.02-.18.04-.54,0-.57ZM129.85,128.27c-.84-.14-.74.38-.14.86h.14v-.86ZM158.83,128.56c-.31-.31-.89.26-.57.57s.89-.26.57-.57ZM131.28,130.86c-.22-.18-.8.09-.57.29.22.18.8-.09.57-.29ZM223.38,139.46c.05-.58-.2-1.23.29-1.58-1.1-.7-.89-1.63-1.15-2.58-.03-.11-.26-.18-.29-.29-.15-.64.12-1.06-.72-1.58l-.14,1c-.29.37-.52.52-1,.43-1.26-.99-2.48-2.08-4.02-2.58l-1.29-.57c.1.62-.15,1.61,0,2.15.03.09.79.83.86,1.15.29,1.36.33,2.92.57,4.3.63,3.57,1.6,7.89,1.15,11.48-.09.69.25,1.56-.29,2.01.66.57,1.03.93.86,1.86l.72-.57,1.43,1.15c.31-.03.08-.49.14-.72.08-.25,1.08-.9,1.15-1.15s-.07-.62,0-.86c.08-.28,1.36-1.16,1.43-1.43.24-.88-.35-.56.43-1,1.07-.61.49-2.19.72-3.01.06-.2.81-.66.86-.86.14-.51.06-.98.29-1.72.17-.56-.24-.72-.29-.86-.17-.56.25-.73.29-.86.09-.32-1.97-2.33-1.43-3.3h-.57ZM147.64,135.45c-.47-.08-1.17.11-1.58,0-.69-.19.1-.56-1.43-.29-.96.17-2.29-.12-3.3,0,.48.68.95,1.24,1.43,1.86.96,1.24,1.23,1.82,1.72,2.87.23.5.84,1.06.86,1.15.13.46-.15,1.63.72,1.86.24.07.62-.07.86,0,.13.03.73.54.86.57.38.11.48-.4.86-.29.24.07.9.39,1.15.57h.29c.23-.44.63-.2.86-.29.71-.28,1.03-1.09,2.01-.86.12.03.2.39.57.29.13-.04.29-.45.86-.29.34.1,1.06.84,1.15.86.65.18,2.02.07,2.87.29.42.11,1.89.89,2.01.86s.19-.29.29-.29c.12,0,.44.78,1.15.57.29-.08,1.15-1.35,1.43-1.43.18-.05.4.05.57,0,.12-.04.18-.27.29-.29.26-.05.89-.05,1.15,0s.84.84.72-.29c.6.06,1.29-.08,1.86,0,.12.02.43.45,1.15.29.81-.18.77-.78,2.01-.57.81.13,1.22-.26,1.43-.29,1.39-.17,2.07.25,3.44,0,.57-.1,1.47.13,2.01.29.21.06.66.8.86.86.84.24.65.31,1.15.57.34.18.91.22,1.15.57l1.29-.29c.04-.28-.07-1.08,0-1.15.05-.05.29.08.43,0,.29-.16.44-.69.86-.57.12.03.19.29.29.29s.18-.27.29-.29c1.32-.22,1.36.47,1.72.57.12.03,1.45-.41,2.3-.29.11.02.17.26.29.29.26.06.62-.07.86,0,.28.08,1.16,1.36,1.43,1.43.46.13,1.95-.14,2.15,0l.29.86.29-1.15-.57-.57.86-.14c-.1-1.5,2.21-.88,1.72-2.73.46.16.6-.27.72-.29.36-.06,1.49.09,1.58,0,.05-.05-.08-.29,0-.43.55-.98,2.02-.59,2.01-1.43l1.72-2.01-.57-.29.57-.72c-.51.05-1.08-.07-1.58,0-1.37.18-2.74.37-4.3.29-3.59-.19-8.72-.79-11.76-.29-2.36.39-5.43-.36-7.46,0-.55.1-4.74.12-5.16,0-.16-.04-.42-.53-.57-.57-.78-.21-1.45.26-1.72.29-.46.05-1.95.1-2.3,0-.67-.19.03-.75-1.72-.29-.78.21-1.45-.08-1.72,0-2.29.7-12.05.44-14.63,0-.11-.02-.19-.29-.29-.29-.11,0-.15.47-.72,0v.57ZM118.66,135.45l-1.15-.29c-.39,1.69,1.41.51,1.15.29ZM127.26,135.16h-5.88c-.46.13-1.27,1.88-1.72,1.15-1.09,1.69-2.32,3.39-3.01,5.31-.23.64-.77,2-.86,2.58-.15,1.03.51,2.74-.86,2.73-.17.56.38.66.57,1,.64,1.12.65,1.74.86,2.87.01.06.58.68.29,1-.07.08-.69-.23-.57.29.32.05,1.35-.08,1.43,0,.05.05-.08.29,0,.43.18.33,1.08.92,1.15,1.15.16.56-.15,1.1.72,1.58.14.08.38-.05.43,0,.05.05-.19.84.43.57.12-.05.18-.26.29-.29,1.05-.24,1.17.74,2.15.57l.29-1.43h.86c-.24-.58.35-1.34.29-1.58-.03-.11-.26-.18-.29-.29-.18-.79.2-1.32,0-2.01-.22-.76.57-.95.86-1.43.56-.93.34-2.91.57-4.02.07-.32.84-1.05.86-1.15.07-.26.25-1.7.29-2.01.07-.59-.05-1.26,0-1.86.47.15.57-.24.72-.29.56-.16.99.32.72-1-.02-.11-.27-.18-.29-.29-.11-.89.15-2.03,0-2.87-.02-.11-.44-.26-.29-.72ZM133.86,140.04s-.02-.39,0-.57l-.57.43v.14c.18-.02.54.04.57,0ZM175.18,148.07h-4.73c-.1,0-.18.27-.29.29-2.33.35-4.17.66-6.31,1.43-.17.06-.24.44-.72.29-.11.11.07,2.47,0,3.01-.04.29-.47,1.36-.57,1.72-.8,2.83-2.73,5.14-5.59,6.17-1.36.66-3.47,1.07-5.16.86-.11-.01-.18-.27-.29-.29-.63-.11-1.38-.06-2.01-.29-.38-.14-1.03-.64-1.43-.86-.97-.54-.72-.59-1-1.58-.17-.58-.95-.34-1.29-.43-.09-.02-1.27-1.2-1.29-1.29-.15-.51-.16-1.27-.29-1.72-.1-.37-.96-1.35-.86-1.72.56-2.01-.2-3.48.29-5.16.15-.51-.46-1.3-.57-1.72-.06-.21.06-.66,0-.72-.09-.09-1.06.09-1.15,0-.06-.06.06-.51,0-.72-.16-.54-1.53-1.56-2.01-2.58-.09-.19-.04-.52-.43-.72-.27-.19-.48.29-.57.29-.31,0-.48-1.14-1-1.15-.04.32.06.71,0,1-.3,1.53-.95,3.32-1.15,4.88-.07.59.05,1.26,0,1.86l-1.15.29c.05.4-.08.92,0,1.29.07.32.84,1.05.86,1.15.07.27.05,1.39,0,1.72-.02.11-.26.17-.29.29-.06.26.07.63,0,.86-.04.15-.44.25-.29.72l-.57-.14-.29-.43c.2.8-.76,1.5-.57,2.15.1.36.66.39.72.43.19.13,1.27,1.2,1.29,1.29.16.6-.08,1.83,0,2.58.11,1.01.3.7,0,2.01-.21.91.7,1.53.86,2.3.24,1.15.05,3.17.29,4.02.03.09.77.81.86,1.15.2.75.3,1.74.57,2.58.63,1.9,1.84,3.81,1.43,5.74-.04.21.02.48,0,.72.47-.13.49.16.72.29.08.04.22-.04.29,0,.68.42.88,1.82,1.43,1.15.43.18,1.16.15,1.72,0,.34-.09,1.05-.83,1.15-.86.18-.05.4.05.57,0,.23-.07.83-.95,1.15-1.15.1.34,1.2.38,1.29.29.06-.06-.06-.51,0-.72.04-.13,2.02-1.55,2.15-1.58.33-.08.84.09,1.15,0s1.41-1.64,1.72-1.72c.45-.12,1.27.12,1.72,0,.16-.04.42-.53.57-.57.66-.18,2.2.34,3.44,0,.24-.07.42-.78,1.15-.57.16.05.42.53.57.57.48.13,1.26-.04,1.72.57,1.69-.34,3.47.31,5.16.57.32.05,1.22-.07,1.29,0,.05.05-.08.3,0,.43.43.76,1.26.26,1.86.43.34.09,3.38,3.34,3.73,3.44.38.11.48-.39.86-.29.6.17,2.2,1.33,2.58,1.43.45.12.83.1,1.43.29.57.17.81-.29.86-.29s.29.45.86.29c.21-.06.66-.81.86-.86.78-.21,1.52-.36,2.3-.57.24-.07.9-1.08,1.15-1.15.93-.27,2.06-.96,2.44-1.86.06-.15-.05-.38,0-.43s.27.06.43,0c.36-.13.15-.32.86,0,.55-.27.33-.78.43-1,.41-.9.57-1.17,1.29-1.58,1.44-.81,1.25-2.1,2.01-2.58.89-.57,1.13-1.1,1.72-1.43.15-.08,1.26-1.73,1.29-1.86.08-.33-.09-.84,0-1.15.07-.24,2.23-2.34,2.3-2.58.11-.38-.11-1.05,0-1.43.15-.55,1.95-2.03,1.72-2.87-.24-.87.16-.46.57-1.15.37-.62.17-1.15.29-1.72.1-.48,1.05-1.9,1.43-2.58.11-.19.57-.48.57-.57s-.25-.17-.29-.29c-.07-.27.19-.2,0-.86-.16-.57.24-.71.29-.86.1-.32-.13-.69.43-1,.18-.1.69.2.43-.72-.03-.12-.27-.18-.29-.29-.22-1.2.25-1.13.57-1.72.09-.16.2-.72.29-.86.39-.64,1.09-1.01.86-2.01-.03-.11-.25-.17-.29-.29-.25-.88-.62-1.53-.86-2.3-.17-.54.64-1.1.14-1.58-.4.34-.74.82-1.15,1.15-.97.77-2.44,2.06-3.59,2.3v.57h-.86c.15,1.16-.15.7-.43.86-.55.31-.91,1.39-1.72,1.15-.12-.04-.18-.26-.29-.29-.29-.06-.68.04-1,0-.02.32.52.53.57.72.27.91-.25.62-.43.72-.52.29-.86,1.29-1.58,1.15-.16.46.27.6.29.72.19,1.06-.26,1.64,0,2.58.1.38-.26.46-.29.57-.23,1.12-.36,1.79-.86,2.87-.49,1.05-.76.61-.86.72-.05.05.06.28,0,.43-.52,1.24-1.86,1.67-2.73,2.73l-1.72.86c-.3-.27-.52-.43-.43-.86-.73-.12-1.04.82-1.58,1.15-.06.04-.2-.04-.29,0-.12.06-.18.26-.29.29-.78.17-2.33.13-2.15-.86-.64.29-.78.04-1,0-.59-.1-1.51.14-2.01,0-.13-.04-.38-.44-.57-.57-.06-.04-.21.05-.29,0-.2-.12-.37-.43-.57-.57-.15-.11-.89-.32-1-.72-.33-1.16-.87-2.07-1.43-3.16-.04-.08.04-.22,0-.29-.36-.64-1.1-1-.86-2.01.03-.11.25-.17.29-.29.05-.17-.05-.39,0-.57s.6-.4.57-.72c-1.13-.05-1.3-1.12-1.15-2.15.02-.11.26-.17.29-.29.16-.67-.27-1.02-.29-1.58ZM180.06,147.21c.38-.38-.41-1.5-1.15-1.15.23.4.38.66.29,1.15.23-.03.81.05.86,0ZM150.79,147.21h-1.43c-.12.73.13,1.33.29,2.01l1-1.15.14-.86ZM149.36,150.65l-1.43-.29v.29c.53-.03.81.44,1.43.29v-.29ZM207.75,156.1c-.19,0-.19.29,0,.29s.19-.29,0-.29ZM214.2,158.69c-.22-.18-.8.09-.57.29.22.18.8-.09.57-.29ZM129.13,159.55c-.19,0-.19.29,0,.29s.19-.29,0-.29ZM208.46,163.56c-1.08-.13-.33.45-.29,1.15h.29v-1.15ZM133.29,168.44s-.02-.39,0-.57l-.57.43v.14c.18-.02.54.04.57,0ZM135.73,172.46c-.19,0-.19.29,0,.29s.19-.29,0-.29ZM131.85,175.9c.62.02,1.07.12,1.43-.43-.55-.8-1.05-.29-1.43.43ZM200.72,184.22c-.24-.24-1.03.44-.86.57h.86c-.02-.18.04-.54,0-.57ZM202.01,184.22c-.19,0-.19.29,0,.29s.19-.29,0-.29ZM149.5,185.94c-.19,0-.19.29,0,.29s.19-.29,0-.29ZM176.18,186.52l-.43.43.14.14.43-.43-.14-.14ZM190.96,188.24h-.57v.86h.57v-.86ZM135.3,190.53c.18-.22-.09-.8-.29-.57-.18.22.09.8.29.57ZM134.44,191.11c.18-.22-.09-.8-.29-.57-.18.22.09.8.29.57ZM159.11,196.85c.24-1.3-.95-1.16-1.86-1.43-.3-.09-1.59-1.4-1.72-1.43-.38-.1-.5.29-.57.29-.12,0-.42-.61-.72-.57.14,1.26-.12.68-.72.86-.09.03-1.2,1.14-1.29,1.29-.04.06.04.2,0,.29-.06.12-.26.18-.29.29-.09.4.06.99,0,1.43.21.45.63.8.86,1.15.18.27.84,1.08.86,1.15.06.21-.06.66,0,.72.05.05.3-.08.43,0,.44.24.41.86.86,1.15,1.24.79,2.66,1.33,4.02,1.72.51.15,1.46-.01,1.86.72.08.14-.05.38,0,.43.46.16.6-.27.72-.29.69-.12,2.2-.11,2.58,0,.42.12,3.03-1.75,3.44-1.15.7-1.2,1.99-1.14,2.87-1.72.81-.54.49-.8,1.72-1.15.82-.23.08-1.07.14-1.29.03-.12.26-.18.29-.29.06-.25.08-2.08,0-2.15-.05-.05-.79.2-1.15-.43-.08-.13.05-.38,0-.43-.08-.08-1.79-.53-2.15-.57l-.43-.43-.29-1c-.61.02-.16,1.19-.29,1.58-.83.6-1.66,1.43-2.73,1.29-.64,1.29-.79.7-2.01.86-.11.01-.18.28-.29.29-.95.09-3.1.16-3.59-.72-.12-.22.27-.57-.57-.43ZM139.31,194.55c.43.09.59-.13.86-.43l-.14-.14-.72.29v.29ZM197.85,194.84c.79.08,1.49.03,1.43-.86l-1.43.57v.29ZM197.56,195.13h-1.15v.29c.35-.06.51,0,.72.29l.43-.57ZM193.54,200.58c-.22-.18-.8.09-.57.29.22.18.8-.09.57-.29ZM145.91,200.86h-.57c-.06.53-.01.83.43,1.15h.14v-1.15ZM176.04,204.02c-.2-.2-.8.42-1.15.29-.13,1.08.45.33,1.15.29-.02-.18.04-.53,0-.57ZM141.61,207.46c.18-.22-.09-.8-.29-.57-.18.22.09.8.29.57ZM170.88,208.61l-.14-1.72c-.52.36-.46.73-.43,1.29.02.46.24.83.57.43ZM185.22,207.75l.57-.43-.43-.43h-.14v.86ZM176.47,208.61c-.19,0-.19.29,0,.29s.19-.29,0-.29ZM171.45,214.06c.43.09.59-.13.86-.43-.27-.3-.43-.52-.86-.43v.86ZM171.16,213.49c-.22-.18-.8.09-.57.29.22.18.8-.09.57-.29ZM158.54,214.35c-.6-.07-.65-.03-.57.57l.57-.57Z"/>
  <path d="M172.6,158.11c-.16.46.27.6.29.72.07.39.08,1.93,0,2.3-.02.1-.23.16-.29.29-.04.09.04.23,0,.29-.12.2-.79.84-1,1-1,.74-2.67,1.39-3.73,2.01-.51.3-.99.85-1.58.86-.05.62,1.27.12,1.43.29-.15,1.16.62.29.72.29.09,0,.17.25.29.29.58.17.81-.29.86-.29.09,0,.17.26.29.29.18.05.4-.05.57,0,.19.06.59.71.86.86.14.08.38-.05.43,0,.05.05-.06.28,0,.43.05.12.27.19.29.29.06.33.07,1.42,0,1.72-.04.18-.64.77-.57,1.15-.26.15-1.2.98-1.29,1-.22.06-1.79.06-2.01,0-.24-.07-.42-.78-1.15-.57-.21.06-.66.81-.86.86-.27.07-1.68.06-2.01,0-.13-.02-.92-.47-1.15-.57-.61-.27-1.22-.54-1.72-.86-.18-.11-.68-.86-.72-1-.07-.24.07-.62,0-.86-.06-.22-.57-1.35-.57-1.43,0-.12.7-.54-.29-1.15.92-.89.41-2.08.57-3.16.02-.1.26-.17.29-.29.06-.21-.06-.66,0-.72.05-.05.28.06.43,0,.12-.05.18-.26.29-.29.65-.15,1.05.07,1.43.57.49-.45.86-.72.72-1.43,1.26.14.68-.12.86-.72.04-.15.46-.38.57-.57.08-.14-.05-.38,0-.43.07-.07.74.06,1,0,.11-.03.17-.25.29-.29,1.18-.34,2.43-.58,3.44-1.15.28-.15.62-.37.86-.57l2.15.86Z"/>
</svg>