<?xml version="1.0" encoding="UTF-8"?>
<svg id="zkouska_s_hlavamaa" data-name="zkouska s hlavamaa" xmlns="http://www.w3.org/2000/svg" viewBox="0 0 288.67 288.67">
  <path d="M175.74,60.69c.06.06-.21.73.43,1.15.59.38,2.53.88,2.73,1.58.07.24-.07.62,0,.86.02.09,1.08,1.12,1.29,1.29,1.1.91,1.47,1.2,2.15,2.44.35.63,1.62,2.67,1.72,3.15.12.56-.14,1.49,0,2.01.1.36,1.04.49,1.15.86.16.56.17,1.15.29,1.72.2.97.56,1.93.86,2.87.11.34.61,2.17.57,2.29-.17.61.46,1.47.57,2.29.09.69-.25,1.56.29,2.01-.15.1-.31.4-.43.43-.29.08-.89-.19-1,.14.24.25.72.6,1,.72.15.06.38-.05.43,0,.06.06-.06.5,0,.72.03.12.27.18.29.29.12.78-.07,1.76,0,2.58.12,1.42.52,1.74,0,3.44-.22.72.51.91.57,1.15.31,1.13.18,3.3.29,4.59.18,2.13,1.04,4.49.57,6.59-.02.11-.26.17-.29.29-.09.33.48.87.57,1.15.07.2-.06.65,0,.72.05.05.3-.08.43,0,.64.36.32.83.43,1.29.63,2.69,2.14,5.76,3.44,8.31.24.46,1.05,2.34,1.15,2.44.06.06.51-.06.72,0,.33.1,1.32,2.1,1.58,2.44.55.72,2.4,1.36,2.58,2.01.3,1.08-.4.89,1,1.29.57.16.67,1.09.72,1.15.04.04,1.11.24,1.15.29.05.05-.13.93.43,1.15.71-.79.98.03,1.43.29.14.08.38-.05.43,0,.07.07-.16,1.48.72,1.72.24.07.62-.07.86,0,.11.03.17.24.29.29.15.06.38-.05.43,0,.05.05.13,1.15.29,1.43.66.14,1.63.33,2.01,1,.44.79.12.19,1,.43.13.04,2.08,1.46,2.15,1.58.21.36-.17.31.72.72,1.14.53,5.84,3.58,6.46,4.44s1.22.75,2.01,1.72c1.08,1.32,2.29,2.11,2.58,3.87.39-.04,1.92.98,2.01,1.29.11.39-.12,1.75,0,1.86,1.26-.14.68.12.86.72.06.19.76.45,1.15,1.15,1.58,2.86,2.12,4.97,2.58,8.03.02.11.27.18.29.29.2,1.37-.79,2.38-.57,3.15.04.16.53.42.57.57.09.33.05,1.86,0,2.29-.01.11-.27.18-.29.29-.41,2.28-.73,3.6-1.72,5.73-1.37,2.95-4,5.47-6.74,7.02-1.51.86-5.33,2.55-6.89,2.29-.11-.02-.19-.29-.29-.29-.49,0-1.62,1.06-2.01,1.15-2.59.56-5.21.74-7.75,1.43-.47.13-1.59.78-2.01.86-.66.12-1.46-.29-1.86.43-.52.91-1.63,1.42-2.3,2.29-1.08,1.44-2.4,3.69-2.87,5.45-.34,1.26-.37,2.69-.57,4.01-.01.09-.51.48-.29,1-.06.05-.83-.2-.57.43.8,2-.56,7.32-1.15,9.74-2.18,8.92-8.8,17.61-17.07,21.93-.81.42-1.52.9-2.44.86.17.52-.24.69-.72.86-4.24,1.54-7.99,2.36-12.34,3.15-.72.13-1.31.03-1.72-.57-.17.13-.81.57-.86.57-2.67-.03-6.43.22-9.47,0-.8-.06-3.55-.36-4.3-.57-.16-.04-.42-.53-.57-.57-1.51-.42-3.39.89-4.3-.29-.88,1-1.95-.48-2.58-.29-1.97.6-4.56-.36-6.6-.57-1.37-.14-3.05.23-4.02-.86-5.61.35-12.2-.64-17.5-2.01-.91-.23-1.69-.77-2.01-.86-.87-.24-.81.43-1.29-.43-.52-.93-1.81-.48-1.72-1.58-.7.24-.63.1-1,0s-.45.25-.57.29c-.32.09-1.35-.87-1.72-1.15-.76-.56-1.66-1.8-2.01-1.43-.69-1.23-1.53-1.29-2.58-2.01-.36-.25-1.83-1.67-2.01-1.72-.37-.1-1,.06-1.43,0-.11-.02-.18-.27-.29-.29-.39-.07-2.09.18-2.58.29-1.37.3-2.92,1.06-4.3,1.43-.91.24-.74-.19-2.01.57-.77.47-4.43.85-5.45.57-.56-.15-1.11-1.08-2.3,0-1.36-.25-2.65-.75-4.02-1.15-.29-.08-.75-1.08-.72-1.43-.1-.1-1.23.1-1.58,0-.31-.09-1.4-1.63-1.72-1.72-.58-.17-1.45-.5-2.01-.86-.27-.18-1-1.17-1-1.29,0-.09.25-.17.29-.29.15-.56-1.74-1.89-2.15-2.15-.12-.08-1.18-2.09-1.29-2.44-.07-.2.06-.65,0-.72-.05-.05-.29.08-.43,0-.59-.33-1.22-1.37-1.58-1.86.45-.85-.19-1.61,0-2.72h-.57v-.86h-.57c.05-.6-.07-1.27,0-1.86.01-.11.28-.18.29-.29.17-1.55-.33-2.74-.86-4.01.92-.62.49-1.71.57-2.72-.83.11-.45-.14-.57-.43-.05-.12-.26-.18-.29-.29-.29-1.26,1-1.49,1.15-2.01.05-.18-.05-.4,0-.57.06-.2.86-.73.86-.86,0-.08-.59-.36,0-1-.83.11-.45-.14-.57-.43-.05-.12-.27-.19-.29-.29-.08-.45-.05-1.51,0-2.01.01-.1.27-.18.29-.29.18-1.24-.05-1.5.86-2.58-.64-1.48-.47-3.44.86-4.59-.66-.41.51-1.49.57-1.72.02-.09-.08-.35,0-.86.1-.59-.14-1.5,0-2.01.06-.22.95-.82,1.15-1.15.04-.06-.04-.2,0-.29.06-.12.25-.18.29-.29.22-.72-.51-.91-.57-1.15-.27-.98.5-1.17.57-1.43.12-.45-.11-1.23,0-1.72.02-.1.55-.76.57-.86.09-.41-.1-1.06,0-1.43.04-.16.53-.42.57-.57.12-.45-.12-1.27,0-1.72.04-.16,1.15-1.08,1.15-1.43,0-.09-.25-.17-.29-.29-.1-.38.26-.46.29-.57.05-.22.05-.92,0-1.15-.16-.73-1.43-1.38-1.15-2.58.03-.11.27-.18.29-.29.06-.43.32-2.45.29-2.58-.08-.3-.76-.34-.57-1.43.15-.9-.01-1.55-.29-2.58-.33-1.23,0-3.49.29-4.87.06-.29-.04-.68,0-1-.42,0-1.19-.33-1.43-.72-.2-.31-.2-.84-.29-1.15-.05-.16-.53-.42-.57-.57-.29-1.07.61-2.2,0-2.87.68-.43-.77-1.68-.86-2.01-.12-.45.12-1.27,0-1.72-.04-.16-.53-.42-.57-.57-.11-.41-.15-.92-.29-1.43-.42-1.64-.49-3.11-.86-4.59-.03-.11-.27-.18-.29-.29-.14-.81.13-1.47.29-2.15-.44.04-1.29.07-1.43-.43-.21-.72.51-.91.57-1.15.05-.18-.05-.39,0-.57.03-.12.29-.19.29-.29,0-.06-.51-.49-.29-1h-.57c0-1.08-.46-1.99-.29-3.15h-.57c-.2-.2.33-2.39-.29-2.72,1.16-1.46-.19-3.73.29-5.45.07-.26-.65-1.46-.57-1.72.4-1.47.33-1.72,0-3.15-.18-.75.3-1.12.57-1.72.47-1,1.05-1.57.86-2.87-.02-.11-.27-.18-.29-.29-.15-.8.25-1.19.29-1.43.11-.77-.05-.9.29-1.72.06-.15-.05-.38,0-.43.04-.04.73.03.86-.43.1-.38-.26-.46-.29-.57-.36-1.59.98-1.72,1.15-2.29.2-.71.54-1.01.57-1.15.14-.52-.28-1.17.43-1.58.13-.08.38.05.43,0,.09-.09-.04-1.87.72-2.29.71-.4.3-.54.72-1.58.4-.99,1.16-2.67,2.01-2.72-.21-1.11,1.18-2.83,2.15-3.15.56-.19.63.32,1-.72.56-1.54.82-1.26,1.43-2.29.3-.5.2-1.71.72-1.86.91-.27,1.5-.14,2.15-1,1.31-1.73.5-1.69,3.01-2.44.44-.13,1.57-1.38,2.3-1.72.98-.45,2-1.08,2.44-1.86.05-.09,1.48-1.26,1.58-1.29.38-.11,1.05.11,1.43,0,.28-.08,1.59-1.4,1.72-1.43.27-.07.69.05,1,0v.57c.32-.04.72.06,1,0,.41-.09,1.61-1.06,2.01-1.15.6-.13,1.34-.1,2.01-.29.25-.07.91-1.08,1.15-1.15.79-.22,2.47.12,3.44,0,.1-.01.73-.54,1.29-.29v.57c.39-.06.95.09,1.29,0,.2-.06.66-.8.86-.86.8-.22,1.99.9,3.44.57.12-.03.2-.39.57-.29.85.23.46-.17.86-.29.65-.19,1.56-.4,2.3-.29.44.06,2.36.92,2.58.86,1.13-.31,1.78-.15,2.58-.29,1.18-.2,2.34.8,3.16.57.16-.04.42-.53.57-.57.49-.13,1.41.07,2.01,0,1.3-.16,1.31-.65,2.87-.29,1.17.27,1.31-.74,1.72-.86.18-.05.4.05.57,0,.53-.15.33-1.28.86-1.43.96-.27,1.79-.98,2.58-1.15.34-.07.8.06,1.15,0,.11-.02.17-.26.29-.29.21-.06.66.06.72,0,.08-.08.31-.98,1-1.43.79-.53,1.76-.63,2.58-.86.2-.06.66-.8.86-.86.39-.11,1.9-.57,2.01-.57.06,0,.28.44.72.29v-.86c.4-.05.92.08,1.29,0,.32-.07,1.05-.83,1.15-.86.45-.12,1.27.12,1.72,0,.56-.15,1.74-1.7,2.87-.57.38-.49.67-.64,1.15-.86.12-.06.18-.26.29-.29.65-.15.99.25,1.58.29-.15-1.27.15-.67.72-.86.35-.11,1.06-.84,1.15-.86.85-.23,2.39.26,3.16-.57.55.49,1.28.71,2.01.57,1.86-.34,4.21-1.1,6.03-.57,1.42.41,2.18-.52,3.16.57.44-.44.84-.19,1.43-.29,1.32-.22,1.34.46,1.72.57,1.67.48,3.94.75,5.45,1.43.51.23,1.06.84,1.15.86.24.07.62-.07.86,0,.26.07.63,1.1,1.15,1.43.36.23,1.62,1.12,1.72,1.15.21.06.66-.06.72,0ZM128.98,69h-1.15c-.13,1.08.45.33,1.15.29v-.29ZM178.33,73.3c.38-.6-1.05-1.84-1.15-1.72-.15.85.2,1.7,1.15,1.72ZM100.28,73.3h-1.15v.14c.32.44.61.49,1.15.43v-.57ZM107.6,75.02c-.19,0-.19.29,0,.29s.19-.29,0-.29ZM154.8,76.74c.03-.63.13-1.24-.57-1.43v1.43h.57ZM178.04,78.46l.43.86c.21-.32.9-.35,1-.72.22-.75-.69-.89-.57-1.58-.71.55-1.66.68-1.43,1.72l.57-.29ZM167.42,77.6c-.6-.07-.65-.03-.57.57l.57-.57ZM145.91,79.32c.18-.22-.09-.8-.29-.57-.18.22.09.8.29.57ZM108.46,79.03c-.19,0-.19.29,0,.29s.19-.29,0-.29ZM157.38,82.76c.43.09.59-.13.86-.43-.27-.3-.43-.52-.86-.43v.86ZM143.47,83.9c-.19,0-.19.29,0,.29s.19-.29,0-.29ZM92.82,88.78v-.86h-.29v.86h.29ZM95.41,91.07l-.43-.57-.43.43v.14h.86ZM144.76,95.37v-.86h-.14l-.43.43.57.43ZM84.07,94.79c-.19,0-.19.29,0,.29s.19-.29,0-.29ZM144.76,95.94c.43.09.59-.13.86-.43l-.29-.72h-.29c.09.49-.06.75-.29,1.15ZM158.53,95.65c.18-.22-.09-.8-.29-.57-.18.22.09.8.29.57ZM83.93,95.65l-1.72,1c.81,1.06,1.44-.36,1.72-1ZM139.02,97.09h-.86v.29h.86v-.29ZM166.42,97.37c-.19,0-.19.29,0,.29s.19-.29,0-.29ZM88.23,98.23c-.22-.18-.8.09-.57.29.22.18.8-.09.57-.29ZM185.93,99.09c-.19,0-.19.29,0,.29s.19-.29,0-.29ZM154.94,101.67c-.19,0-.19.29,0,.29s.19-.29,0-.29ZM87.37,102.53c-.22-.18-.8.09-.57.29.22.18.8-.09.57-.29ZM97.42,103.11c-.22-.18-.8.09-.57.29.22.18.8-.09.57-.29ZM132.71,107.98c-.18-.18.36-1.94-.43-2.29-.57.3-.34,1.29-.86,1.43-.29.08-.85-.41-1.15-.57-1.09-.61-2.28-1.03-3.44-1.72-.23-.14-.39-.57-.72-.57-.05.89.08,1.84,0,2.72-.5,5.76-3.15,12.09-6.6,16.91-.66.92-1.62,1.9-2.01,2.58-1.49,2.63-6.94,6.97-9.32,8.74-.49.37-2.04,1.87-2.58,1.72-.11-.03-.31-.43-.43-.29.28,1.16-.98,1.2-1.43,2.01h1.15c-.13,1.24.09.69.72.86.12.03.18.27.29.29.77.11.9-.06,1.72.29.29.12.54-.26.43.57.32-.14,1.61-.69,1.72-.57.04.04-.02.39,0,.57.14.14,3.21-.1,3.87,0,.11.02.17.26.29.29.5.12.89-.05,1.29-.29v.43l.57.14c.01-.59.56-1.08.86-1.58.4-.68.34-1.01,1-1.29.95-.4.79-.53,1-1.29.16-.54,1.54-.64,1.86-.14.61-.41.18-1.07,1-.86v-.86c.41.04.9-.06,1.29,0,.75.12,1.62.5,2.3.86.6-.41,2.6.05,3.44.29.16.04.42.53.57.57.72.2,1.17-.27,1.72-.57.08-.04.22.04.29,0,.56-.36.59-1.36,1.15-1.72.06-.04.2.04.29,0,.12-.06.19-.26.29-.29.48-.11,2.32.12,2.44,0s-.12-.27.72-.86c.93-.66.89-1.43,2.3-.29.46-.18.39-.82.43-.86.05-.05.28.06.43,0,.12-.05.18-.25.29-.29.57-.17.81.29.86.29.2,0-.02-.2.86,0,.29.07,2.04.07,2.3,0,.24-.07.9-1.08,1.15-1.15,1.69-.48.97-.54,1.58-1.15.11-.11,2.35-.73,2.73-.86.84-.29,1.49-.35,2.3-.57.18-.05.59-.69.86-.86.08-.05.43.04.57-.29.34.41,1.32,1.26,1.72,1.15.11-.03.18-.26.29-.29.73-.17,1.08.29,1.15.29.21,0,.94-.75,1.15-.86.14-.08.38.05.43,0,.05-.05-.06-.28,0-.43.05-.12.25-.18.29-.29.11-.37.14-.69.29-1.15.05-.17-.05-.39,0-.57.04-.14.86-.67,1-.72.2-.07.65.06.72,0s-.07-.52,0-.72c.42-1.26,1.07-2.12,1.43-3.44.03-.13.55-.75.57-.86.07-.34-.08-.84,0-1.15.09-.34.88-.43,1.15-.86.35-.56.75-1.17,1.15-1.72-.14-.56.45-.9.29-1.43-.01-.05-.67-.7-.72-.72-2.43-.14-5.06.2-7.46,0-1.16-.09-2.74-.79-3.73-.57s-6.21-.84-7.46-1.15c-.9-.22-1.89-.74-2.58-.86-1.05-.18-1.87-.13-2.58-1.15-1.13.91-2.39-.96-3.44-1.15-.43-.08-1.02.09-1.43,0-.25-.05-1.12-.76-1.43-.86-.2-.07-.65.06-.72,0ZM71.16,104.83c-.19,0-.19.29,0,.29s.19-.29,0-.29ZM80.34,105.69c-.19,0-.19.29,0,.29s.19-.29,0-.29ZM165.7,108.55s-.02-.39,0-.57l-.57.43v.14c.18-.02.54.04.57,0ZM101.58,108.55c-.19,0-.19.29,0,.29s.19-.29,0-.29ZM106.6,110.27h-1.43v.57c.58-.39.85-.39,1.43,0v-.57ZM62.55,110.56c-.19,0-.19.29,0,.29s.19-.29,0-.29ZM71.59,111.13l-1.72,1,.86.43v-.86l.86-.57ZM97.42,112.85c.17.17.99-.07,1.15-.43.09-.34-.38-.81-.72-.72-.36.15-.6.97-.43,1.15ZM96.98,112.28c-.19,0-.19.29,0,.29s.19-.29,0-.29ZM113.63,115.14c-.19,0-.19.29,0,.29s.19-.29,0-.29ZM100.28,115.72h-1.15v.29h1.15v-.29ZM184.07,117.15l.29-.72c-.27-.3-.43-.52-.86-.43.23.4.38.66.29,1.15h.29ZM112.34,118.3v-.86h-.14l-.43.43.57.43ZM190.66,119.16c-.05-.05-.29.08-.43,0-.23-.13-.39-.57-.72-.57v1.15l1.15.29c-.03-.23.05-.81,0-.86ZM86.51,119.16l-1.15.29c-.09.43.13.59.43.86h.14c-.15-.57.43-.67.57-1.15ZM116.64,120.02h-.86v.29h.86v-.29ZM170.01,136.07c-.05-1.01-.22-2.17-.86-3.01-.11-.42.81-.69.57-1.72-.03-.11-.27-.18-.29-.29-.07-.44.1-1.07,0-1.43-.04-.13-.95-1.18-1.15-1.43.79-.5-.06-2.06,0-2.29.03-.11.26-.17.29-.29.12-.43-.85-1.04-1.15-1.43.11-.43-1.06-2.72-1.29-2.72-.3.27-.53.66-.72,1-1.15,2.14-4.08,6.25-4.59,8.03-.07.25-.57.52-.86.43.4.56-.15,1.1,0,1.58.58,1.92.67,1.94.29,4.01-.14.79.29,1.36.29,1.43,0,.1-.27.18-.29.29-.05.27.06.63,0,.86-.1.37-.88,1.56-1.15,2.01s-.59,1-.86,1.43c-.08.13-2.29,1.82-2.44,1.86-.38.1-1.02-.09-1.43,0-.1.02-.76.55-.86.57-.33.07-1.35.05-1.72,0-1.02-.15-1.77-.89-2.87-.57-.94.27-1.75-.95-2.15-1.58-.27-.42-.63-.37-.72-.43-.19-.13-1.27-1.2-1.29-1.29-.1-.35.1-1.47,0-1.58-.06-.06-.51.06-.72,0-.08-.02-.98-1.21-1-1.29-.06-.21.06-.66,0-.72-.05-.05-.28.06-.43,0-.12-.05-.19-.27-.29-.29-1.05-.19-3.09,0-4.02.29-.51.16-1.13.4-1.72.57-.15.04-.38.46-.57.57-1.39.78-1.75.91-2.73,2.15-.19.24-.82.71-.86.86-.18.67.18,3.97,0,4.16-1.18-.16-.68,1.62-.86,2.44-.13.62-2.09,2.82-2.73,3.3-.97.73-2.2,1.13-3.44,1.43-.11.03-.18.27-.29.29-.46.08-3.36.1-3.73,0-.57-.16-1.77-1.8-2.73-1.43v-.57c-.6.28-1.86-.5-2.01-1-.05-.18.05-.4,0-.57-.04-.12-.27-.18-.29-.29-.08-.43.1-1.06,0-1.43-.15-.53-1.18-.88-1.72-.72.32-.3-.85-1.1-1-1.15-.69-.19-2.21-.07-3.16-.29-1.57-.36-3.27-.74-4.88-1.15-.16-.04-.48-.5-1-.29.33.36.2.73.29,1,.24.71.5.68.29,1.43-.04.14.48,2.34.57,2.44.05.05.3-.08.43,0,.58.33,2.8,8.23,3.3,9.6,1.28,3.52,2.46,7.29,3.44,10.89.13.47,1.15,2.18,1.15,2.58,0,.1-.27.18-.29.29-.22,1.23.12.83.43,1,.54.3,1.74,4.52,2.15,5.59.68,1.76,1.79,3.59,2.3,5.45.07.24-.07.62,0,.86.04.16.53.42.57.57.1.35-.1,1.47,0,1.58.68.02,1.32-.2,1.72.43.05.07-.04.23,0,.29.2.28.79.82.86,1.15.06.27-.07.93,0,1,.05.05.29-.08.43,0,.99.55,1.12,2.69,1.72,2.87,1.44.41,3.18,2.17,3.59,3.58.04.15,2.08,1.61,2.44,1.86.23.17.89.12.72.86.78-.54,1.63-.2,2.44,0s1.49.14,2.01.29c.16.04.68.9,1,.57.05-.05-.19-.83.43-.57.12.05.18.25.29.29.76.27,1.78.34,2.58.57.29.08,1.03,1.37,1,0,1.17.21,2.17-.49,3.3-.29,1.45.26,1.61-.74,2.87,0,.38-.47.66-.68,1.29-.57-.15-1.27.15-.67.72-.86,1.1-.36,1.7-1.2,3.16-1.43.32-.05,1.22.07,1.29,0,.05-.05-.08-.29,0-.43.15-.28,1.05-1.44,1.29-1.58.46-.27,1.99-.41,2.15-.57.04-.04-.04-.73.43-.86,1.86-.53,2.74-1.87,4.3-2.87.75-.48-.1-.49,1.15-.86.17-.05.49-.57.72-.72-.56-.37-.75-1.07-.57-1.72.1-.36,1.05-.5,1.15-.86.11-.38-.11-1.05,0-1.43.04-.13,1.63-1.7,1.86-1.86.11-.08.74-.21.86-.29.49-.31.56-1.02.43-1.58-.08-.35-.24-.85-.29-1.15-.09-.56-.08-1.29.43-1.58.67-.38.43-.61.86-.86.13-.08.38.05.43,0,.09-.09.06-2.13,0-2.44-.02-.11-.25-.17-.29-.29-.24-.8.77-1.09.86-1.43.07-.24-.07-.62,0-.86s1.27-1.73,1.43-2.29c.11-.38-.4-.48-.29-.86.3-1.03.16-2.01.86-2.87.16-.4-.51-.64-.57-.86-.26-.94.57-2.07.86-2.87.2-.56.17-.98.29-1.43.05-.21.52-.6.29-1.15l.86.14c.26-.96-.75-.44-.86-.57-.05-.06.06-.28,0-.43-.31-.74-1.07-1.38-.86-2.29.31-1.31.59-1.52.29-2.87-.33-1.49.2-4.68,1.15-5.73-.71-.46,0-1.08,0-1.15,0-.09-.24-.16-.29-.29-.12-.32.25-.53-.57-.43.21-.55-.37-.99-.29-1.29.58-2.11-.72-3.54-.57-4.01.58-1.9-.05-1.56-.29-2.87-.18-.97.57-2.15.29-3.3h-.57ZM173.59,122.6c-.19,0-.19.29,0,.29s.19-.29,0-.29ZM102.87,125.46c.18-.22-.09-.8-.29-.57-.18.22.09.8.29.57ZM191.53,126.04l-.86-1.15-.29,1.43,1.15-.29ZM80.77,127.47c-.22-.18-.8.09-.57.29.22.18.8-.09.57-.29ZM181.63,127.47c-.19,0-.19.29,0,.29s.19-.29,0-.29ZM91.68,130.91c.18-.22-.09-.8-.29-.57-.18.22.09.8.29.57ZM104.59,134.63h-.86v.14c.48.6,1,.7.86-.14ZM145.91,134.63c-.22-.18-.8.09-.57.29.22.18.8-.09.57-.29ZM105.02,134.92c-.19,0-.19.29,0,.29s.19-.29,0-.29ZM208.02,136.93c-.19,0-.19.29,0,.29s.19-.29,0-.29ZM87.8,138.65c-.19,0-.19.29,0,.29s.19-.29,0-.29ZM176.61,140.65c.09-.43-.13-.59-.43-.86-.3.27-.52.43-.43.86h.86ZM88.66,146.1c-.19,0-.19.29,0,.29s.19-.29,0-.29ZM220.79,146.96v-.86h-.29v.86h.29ZM175.6,147.53c-.19,0-.19.29,0,.29s.19-.29,0-.29ZM211.32,148.1l-.72-.29c-1.13.97.65,1.81.72.29ZM227.25,149.54c-.19,0-.19.29,0,.29s.19-.29,0-.29ZM75.32,150.68c-.29.27.89,1.82,1.43.72l-.57-1-.86.29ZM85.08,150.97c.2-.16-1.08-1.24-.86,0h.86ZM188.94,152.4l.72.29.43-.43-.14-1.29-1,1.43ZM183.64,153.55c-.19,0-.19.29,0,.29s.19-.29,0-.29ZM214.05,157.85c-.19,0-.19.29,0,.29s.19-.29,0-.29ZM99.14,160.43c-.33-.02-.5.05-.72-.29l-.43.43.29.72h.86c.02-.28-.04-.58,0-.86.55.04.98.03,1.15-.57l-.72-.29c-.42.29-.38.45-.43.86ZM223.37,160.43c-.54-.07-.99,0-1.15.57h1.15v-.57ZM202.43,160.72h-.86v.29h.86v-.29ZM193.82,161.58c.18-.22-.09-.8-.29-.57-.18.22.09.8.29.57ZM203.15,161.58c-.19,0-.19.29,0,.29s.19-.29,0-.29ZM225.38,161.58c-.16-.18-.72.18-.86.43.5.55,1.01,1.04,1.72,1.29l-.29-1.15h-.57c-.02-.18.04-.53,0-.57ZM178.33,162.15c-.58.11-.5.71-.86,1l.14.14c.34-.38.83-.6.72-1.15ZM82.5,164.44c.1-.69-.14-1.22-.86-1.15-.1.69.14,1.22.86,1.15ZM226.96,163.87c-.58.45-.58.7,0,1.15.58-.45.58-.7,0-1.15ZM71.31,165.59s.02-.39,0-.57c-.6-.07-.65-.03-.57.57.18.02.54-.04.57,0,.06.06.03,1.1.86.86.24-.83-.8-.8-.86-.86ZM196.4,166.16c.18-.22-.09-.8-.29-.57-.18.22.09.8.29.57ZM222.08,166.45c-.19,0-.19.29,0,.29s.19-.29,0-.29ZM202.43,169.6l-.43-.57c-.25.38-.58.3-1,.29v.29h1.43ZM77.9,173.61c.07-.54,0-.99-.57-1.15v1.15h.57ZM87.95,172.47c-.09.4.04,1.43.43,1.43.03,0,.43-.4.43-.43,0-.14-.8-.51-.57-1h-.29ZM88.81,175.05h-.86v.57h.86v-.57ZM206.16,177.05s-.02-.39,0-.57l-.57.43v.14c.18-.02.54.04.57,0ZM107.6,177.91c-.59.45-1.81.35-.86,1.15.59-.45,1.81-.35.86-1.15ZM91.68,180.21l-2.01-.29c-.22.84.81.81.86.86.05.05-.03.63,0,.86h.86l.29-1.43ZM66.43,181.64c.52-.22.99.37,1.29.29.76-.21.49-1.75-.57-1.43-.21.06-.95.94-.72,1.15ZM83.36,183.64l-.57.14c-.15.58.36.98.57,1.43.07.14-.05.38,0,.57.11.39,1,.72,1.29,1l.72-1.43c-.28-.04-1.08.07-1.15,0-.05-.05.08-.29,0-.43-.23-.41-1.01-.64-.86-1.29ZM102.87,186.51c.18-.22-.09-.8-.29-.57-.18.22.09.8.29.57ZM186.36,188.52v-.86h-.29v.86h.29ZM181.34,190.24c-.19,0-.19.29,0,.29s.19-.29,0-.29ZM108.89,192.53v-.86h-.14l-.43.43.57.43ZM186.65,192.82c-.22-.18-.8.09-.57.29.22.18.8-.09.57-.29ZM98.13,196.26c-.19,0-.19.29,0,.29s.19-.29,0-.29ZM67.29,197.98c.18-.22-.09-.8-.29-.57-.18.22.09.8.29.57ZM178.33,200.55c.18-.22-.09-.8-.29-.57-.18.22.09.8.29.57ZM107.46,201.7c.16-.93-.41-1.35-1.29-1.15-.13.03-.25.44-.72.29v1.43l1-.57c.34.53.42-.09,1,0ZM179.76,203.42c-.22-.18-.8.09-.57.29.22.18.8-.09.57-.29ZM128.98,205.43c-.31-.39-.22-.8-.43-1.15-.28-.45-.85-.26-1.29-.29l1.72,1.43ZM134.28,204.28c-.19,0-.19.29,0,.29s.19-.29,0-.29ZM136.15,205.14c.18-.22-.09-.8-.29-.57-.18.22.09.8.29.57ZM107.74,205.43h-1.43v.14c.36.55.82.45,1.43.43v-.57ZM128.4,207.15c-1.08.41-.63,2,.43,1.72.4-.11.43-.35.14-.72-.26-.33-.7-.46-.57-1ZM137.01,209.44c1.59-.15.8-2.09-.29-2.01l.29,2.01ZM189.95,208.01c-.19,0-.19.29,0,.29s.19-.29,0-.29ZM184.64,208.29l-1.72,1,.29.72h.86l.57-1.72ZM154.8,209.73s-.33-.07-.57-.14c-.36-.11-.34.07-.57.29.2.37.2.84.29,1.15.02.08,1,1.06,1.15,1.15.38.23.74.13,1.15.14-.36-.58-.41-1.67-1-2.01-.13-.08-.38.05-.43,0s.05-.52,0-.57ZM79.91,209.73c-.6-.07-.65-.03-.57.57l.57-.57ZM121.66,209.73c-.19,0-.19.29,0,.29s.19-.29,0-.29ZM97.99,210.01h-.57v.86h.29c-.12-.43.2-.52.29-.86ZM78.77,210.87c-.6-.07-.65-.03-.57.57l.57-.57ZM134.43,212.88c-.6-.07-.65-.03-.57.57l.57-.57ZM93.11,213.17c-.31-.31-.89.26-.57.57s.89-.26.57-.57ZM141.17,217.18c-.19,0-.19.29,0,.29s.19-.29,0-.29ZM125.39,219.76c-.19,0-.19.29,0,.29s.19-.29,0-.29ZM171.3,221.48l-.43.43.14.14.43-.43-.14-.14ZM161.11,224.63c-.94-.09-.95-.08-.86.86h.57c-.12-.43.2-.52.29-.86ZM153.22,228.07c-.19,0-.19.29,0,.29s.19-.29,0-.29ZM150.78,230.08v-.86h-.14c-.6.48-.7,1,.14.86Z"/>
  <path d="M155.95,173.04c.05.05-.06.28,0,.43.04.11.22.17.29.29.15.26.62.99.57,1.15-.03.12-.29.19-.29.29,0,.1.99,1.2.86,1.72-.43.24-.21.58-.29.86-.42,1.46-.54,3.08-1.15,4.59-.29.74-1.28,2.22-1.72,2.87-1.38,2.02-3.21,3.34-5.31,4.44-1.54.81-2.12.86-3.73,1.15-.11.02-.18.27-.29.29-.93.11-3.4.13-4.3,0-.11-.02-.18-.26-.29-.29-.97-.19-2.36-.12-2.44-1.43-.72.63-.97.07-1.29,0-.26-.06-.62.07-.86,0-.14-.04-1.16-.96-1.43-1.15-1.12-.78-.89-.88-1.58-1.86-.71-1.01-2.07-2.62-2.3-3.73-.07-.34.08-.84,0-1.15-.04-.14-.46-.38-.57-.57-.08-.14.05-.38,0-.43-.05-.05-.99.13-1.15-.43-.21-.77.78-2.35,1.29-3.01.82.33,1.17-.5,1.43-.57.35-.1.67-.23.86-.29.16-.04,1.04.35,2.3,0,.24-.07,1.61,1.13,2.58.86.16-.04.42-.53.57-.57.91-.25,2.76.07,3.44.57h.29c1.38-1.35,2.55-.73,4.16-.57-.1-.82.11-.46.43-.57.12-.04.2-.29.29-.29s.96.49,1.72.29c.39-.11,1.32-1.52,2.01-.57.7-.81,1.72-1.27,2.58-1.72s1.47-1.06,2.58-.86c.1.02.16.24.29.29.15.06.38-.05.43,0ZM137.3,179.35c-.22-.18-.8.09-.57.29.22.18.8-.09.57-.29ZM144.47,184.79c.18-.22-.09-.8-.29-.57-.18.22.09.8.29.57Z"/>
  <path d="M147.05,152.69c.4-.24.79-.4,1.29-.29.73.17,1.51.15,2.01.29.39.11,0,.52.86.29.49-.14,1.55,1.05,2.01,1.15.57.12,1.49-.14,2.01,0,.27.08.62,1.11,1.15,1.43.81.49.7-.03,1.29,1,.44.77.37.98.57,1.72.04.16.53.42.57.57.08.28.04,1.36,0,1.72-.01.11-.27.18-.29.29-.06.35.07.81,0,1.15s-.83,1.05-.86,1.15c-.41,1.42-.61.75-.86,1-.09.09.08.98,0,1.29-.16.6-3.16,2.46-3.87,2.72-.63.23-1.38.18-2.01.29-.11.02-.18.27-.29.29-1.26.16-4.48.16-5.74,0-.11-.01-.18-.27-.29-.29-.35-.06-.81.07-1.15,0-.1-.02-.69-.5-.86-.57-.15-.06-.38.05-.43,0s.06-.28,0-.43c-.05-.12-.26-.18-.29-.29-.16-.72.27-1.03.29-1.15.07-.44-.1-1.07,0-1.43.06-.2.83-.72,1-1,.56.14.9-.44,1.43-.29.21.06.65.8.86.86.41.12,1.42-.53,2.3-.29.23.06.95,1,1.43.86.16-.05.41-.53.57-.57.77-.22,2.59-.62,2.44-1.43h.57c-.14-.84.21-.45.43-.57,1.42-.79.23-1.27.14-1.58-.13-.48.27-1.66-.43-1.86-.19-.05-.43.07-.57,0-.9-.41-1.97-1-2.87-1.15-.43-.07-1.07.1-1.43,0-.24-.07-.42-.78-1.15-.57-.68.19-1.24.01-2.01-.57-.88.06-1.58-.83-2.44-.86.08-1-.26-2.21-1.43-2.01.19-.65-1.34-1.83-1.43-2.15-.12-.4-.18-1.02-.29-1.43-.27-1.1-.36-.82,0-2.01.1-.33-.33-1.41-.57-1.72.7-.43.77-1.44,1.15-2.01.26-.39.94-.78,1.15-1.15.08-.14-.05-.38,0-.43.08-.08,1,.05,1.29,0,.46.22.79.61,1.15.86.05.04.62.07.72.43.08.28.04,1.36,0,1.72-.01.11-.28.18-.29.29-.05.53-.1,1.84,0,2.29.07.32.87.86.29,1.15.65.51,1.05,1.12,1.43,1.72.34.53,1.6.67,1.43,1.58Z"/>
</svg>