<?xml version="1.0" encoding="UTF-8"?>
<svg id="zkouska_s_hlavamaa" data-name="zkouska s hlavamaa" xmlns="http://www.w3.org/2000/svg" viewBox="0 0 288.67 288.67">
  <path d="M168.43,70.73v.86c.41-.04.9.06,1.29,0,.11-.02.18-.28.29-.29,1.09-.12,2.21.03,3.16.29.22.06.2.54.57,0,.56.21.38,1.1.43,1.15.06.06.51-.06.72,0,.11.03.83.79,1.15.86.65.14,1.65-.14,2.3,0,.1.02.68.49.86.57.14.07.38-.05.57,0,.57.16.67,1.1.72,1.15.11.11,1.61-.11,1.72,0,.05.05-.08.29,0,.43.11.19,1.45,1.79,1.58,1.86.75.45.86-.05,1.29.72.27.49.73.24,1.15,1.15,1.05,2.25,2.52,2.03,3.44,5.16.07.25,1.18,1.05,1.43,1.43.68,1.02,1.12,2.59,1.43,3.73.06.2.8.65.86.86.18.6.41,1.2.57,1.72.26.8.37,2.11.57,2.87.07.24,1.07.9,1.15,1.15.75,2.55,1.72,4.88,2.58,7.17.53,1.4.74,2.66,1.15,4.02.28.92.26.74.72,1,.16.09,1.52,2.46,1.58,2.73.07.34-.08.84,0,1.15.1.36,1.05.5,1.15.86.37,1.34.61,1.49,1.43,2.58.47.63,1.1.67,1.15.72.06.06-.06.51,0,.72.17.57,1.1.38,1.15.43.13.13.39,1.61,1,2.01.51.32.88.41,1.43.57.64.18,1.28,2.64,2.73,2.01v.57l1-.57c.24.43.58.21.86.29.34.1.43.88.86,1.15.3.19.53.34.86.57.55.38.86.16.72.86h.29v-.57c.32-.04.72.07,1,0,.14-.03,1.04-.55,1.15-.57,1.25-.22,2.1.63,2.3.57.16-.04.41-.53.57-.57,1.19-.34,2.34-.98,3.44-1.43.88-.36.53-.39.72-.72.35-.61.79-.35,1.29-.43.11-.02.19-.29.29-.29s1.53.63,1.72.57c.22-.06.47-.47,1.15-.29.62.17.35,1.12.43,1.58.02.11.27.18.29.29.17,1.14-.31,1.94-.57,2.87-1.04,3.62-2.55,7.51-4.59,10.9-.25.42-.39,1.12-1.15,1,.65.85,0,.79-.29,1.29-1.67,2.89-3.58,5.78-5.74,8.32-.7.83-2.06,1.72-2.3,2.3s-5.21,5.49-5.59,5.59c-.34.09-.9-.06-1.29,0,.31.8-.71.47-.86,1-.33,1.14-.58,1.15-1.58,1.86-4.82,3.45-10.06,6.32-15.78,8.32-.15.05-.75.55-.86.57-.61.14-1.65-.5-1.86-.29-.11.11.02.74-1,1.15-.68.27-2.39.68-3.16.86-.26.06-.62-.07-.86,0-.67.18-.35,1.55-.43,2.15-.7,5.58-2.33,10.96-4.59,16.35-.35.83-.41.27-.57.43-.24.24.29.68.29.72,0,.09-.23.16-.29.29-1.31,2.79-2.77,5.98-4.59,8.61-.42.61-1.68,1.59-1.72,1.72-.39,1.37-.82,1.53-1.72,2.58-2.4,2.79-5.39,5.91-8.75,8.18-1.33.9-3.11,1.81-4.59,2.58-1.39.73-2.78,1.34-4.02,2.01-.94.51-4.85,1.88-5.74,1.72-2.05-.37-1.4.46-2.87.86-.24.07-.6-.06-.86,0-.29.06-.71.49-1.43.29-.28-.08-1.31-1.49-1.29,0-.55.21-.84-.24-1-.29-.06-.02-.95.22-1.15.29-1.53.49-6.08.43-8.03,0-.5-.11-2.37-.93-2.58-.86-1.46.44-2.35-.44-3.87-.57v-.57c-.9-.3-3.33-.59-3.73-1.29-.08-.13.05-.38,0-.43-.27-.27-1.5-.19-1.86-.29s-.76-1.22-1.58-.86c.22-.82-.98-.76-1.58-1.15-1.42-.94-2.32-2.85-3.87-3.16-.04-1.16-.91-1.17-1.43-2.44-.24-.57-1.43-1.4-2.15-1.86-.78-.5-1.48-3.35-1.86-3.73-.05-.05-.29.08-.43,0-.8-.45-.78-1.39-1-2.15-.16-.53-2.07-1.33-.86-2.58-.74-.8-.37-1.56-.57-2.3-.1-.36-1.05-.5-1.15-.86-.14-.5-.11-1.38-.29-2.01-.04-.13-1.25-1.37-1.43-1.72-.1-.63.23-1.08.86-1,.15-.47-.2-.53-.29-.72-.22-.51-.84-1.35-.86-1.43-.08-.31.09-1.2,0-1.29-.04-.04-.56.1-.86-.43-.16-.28.3-.58-.86-.43v-.86c-.22-.24-1.01.47-1.15.72-.08.14.05.38,0,.43-.07.07-1.6.05-1.86,0-.11-.02-.17-.25-.29-.29-.56-.17-.78.27-.86.29-.67.12-4.55.13-5.16,0-.09-.02-1-.62-1-.72l.29-.29-.86-.72c.15.77-.13,1.7-1,1.43-.12-.04-.18-.27-.29-.29-1.12-.2-2.09-.3-3.16-.57-3.72-.95-7.54-2.55-10.9-4.59-1.51-.92-2.8-1.92-4.3-2.87-1.02-.65-.54-1.51-2.3-2.01-.16-.05-1.96-2.17-2.15-2.44-.59-.83-1.45-1.93-1.72-2.87-.07-.25-1.08-.91-1.15-1.15-.09-.34.06-.9,0-1.29-1.24.13-.69-.09-.86-.72-.04-.16-.21-.63-.29-.86-.05-.15-.55-.75-.57-.86-.16-.72.38-1.5,1-1.86.56-.33,1.41-.19,1.86-1,.14-.25-.09-.5.72-.72.37-.1.5.29.57.29.51,0,2.82-1.63,3.16-1.72.31-.09.83.09,1.15,0s.69-1.31,1.15-1.43c.51-.14,1.15.02,1.58.29-.07-.8.75-1.21,1.29-.57.55-.29.33-.71.43-1,.04-.12.26-.18.29-.29.06-.21-.06-.66,0-.72.05-.05.29.08.43,0,.37-.21,1.06-.62,1.43-.86.44-.28.57-1.11,1.15-1.43.14-.08.38.05.43,0,.19-.19.05-1.52.86-1.15-.31-.3.83-1.1,1-1.15.21-.06.66.06.72,0,.12-.12-.11-1.47,0-1.86.05-.18,1.93-2,2.01-2.3.09-.31-.09-.83,0-1.15.06-.21,1.09-1.17,1.43-1l-.29-1.29c.46-.69,1.65-1.69,2.01-2.3.3-.5.17-1.02.29-1.43.47-1.72,2.41-3.5,2.87-4.88.07-.2-.06-.65,0-.72.05-.05.28.06.43,0,.12-.05.17-.24.29-.29.26-.1.73.12,1-.43-1.09-.75-.29-1.45-.29-2.44.83.11.45-.14.57-.43.42-1,.74-1.96,1.15-2.87.22-.49,1.07-1.35,1.15-1.72.07-.33-.06-.8,0-1.15.02-.1.24-.16.29-.29.06-.15-.05-.38,0-.43.04-.04,1.11-.24,1.15-.29.05-.05-.09-1.05.57-1.29-.56-.36,0-.43,0-.57,0-.07-.39-.2-.29-.57.32-1.15.51-2.27,1.15-3.44.2-.36.78-.46.57-1.15-.25-.83.8-3.09,1.15-4.3.06-.21.81-.66.86-.86.12-.45-.12-1.27,0-1.72.06-.2.81-.66.86-.86.2-.73.5-1.93.29-2.44h.57l.29-1.15c.45.13,1.26-.61,1.15-1-.38-.31-.4-1.5-.29-2.01.2-.88,0-.66,0-.86,0-.1.27-.18.29-.29.28-1.66,1.01-1.8,1.15-2.3.2-.71.37-1.27.57-2.01.12-.44,1.17-.74,1.43-1.15.36-.56.33-1.77,1-2.15.77-.44.27-.54.72-1.29.23-.38.94-.78,1.15-1.15.08-.14-.05-.38,0-.43.08-.08,1.12.05,1.43,0v-.57c1.08.45,1.45-1.32,1.86-1.43,1.42-.41.75-.61,1-.86.05-.05,1.05.09,1.29-.57l.43.57c-.09-.47.37-.89.72-1.15,1-.76,2.16-1.39,3.59-1.15v-.57c.63.26,1.22-.49,1.58-.57.6-.13.77.18,1.43,0,1.16-.31,2.68-.64,3.73.29.32.09.81-.79,2.01-.57,1.53.28,2.43-.04,3.73.29,1.44.36,3,.51,4.45.86v.57c1.01.09,2.7.04,3.59.29.24.07.9,1.08,1.15,1.15.21.06,1.09.3,1.15.29,1.13-.31,1.26.41,2.01.57.52.11,1.66-.25,1.86.43.06.21-.06.66,0,.72s.51-.06.72,0c.12.03.18.27.29.29.95.14,1.59-.24,2.44-.29-.04-.61.62-1.02.86-1.58.4-.92.77-1.48,1.15-2.3.71-1.54.75-1.02,1.86-1.86.93-.7.78-2.4,1.43-2.58,1.41-.4.78-.78,1.43-1.15.14-.08.38.05.43,0s.47-1.04.57-1.29c.06-.15-.05-.38,0-.43s.28.06.43,0c.17-.07.76-.55.86-.57.54-.12.87-.13,1.43-.29.63-.17.84.38.72-.86.8.31.47-.71,1-.86.64-.18.99-.16,1.58,0-.19-.31,1.72-1.97,1.86-2.01.37-.1,1,.06,1.43,0,.48-.07,1.34-.53,2.15-.29v-.57c.9-.25,1.9.9,1.72-.29.47.16.59-.26.72-.29.73-.17,1.08.29,1.15.29.06,0,.28-.44.72-.29ZM171.88,85.94c.18-.22-.09-.8-.29-.57-.18.22.09.8.29.57ZM171.3,86.51c-.22-.18-.8.09-.57.29.22.18.8-.09.57-.29ZM157.82,88.52c.18-.22-.09-.8-.29-.57-.18.22.09.8.29.57ZM179.77,89.38c-.19,0-.19.29,0,.29s.19-.29,0-.29ZM164.42,91.67s-.16-1.05-.43-1.15l-.14,1,1.15.29c.02-.3-.51-.08-.57-.14ZM141.32,91.1c-.19,0-.19.29,0,.29s.19-.29,0-.29ZM187.66,91.67c.18-.22-.09-.8-.29-.57-.18.22.09.8.29.57ZM185.65,93.4c.25.25,1.06-.37.86-.86l-.86.29c.02.18-.04.54,0,.57ZM192.82,99.13c-.22-.18-.8.09-.57.29.22.18.8-.09.57-.29ZM100.86,100.57c-.19,0-.19.29,0,.29s.19-.29,0-.29ZM178.76,101.72c-.61.27-1.49-.68-1.86-.57-.31.09-.53.66-.43,1,.19.64,1.5.4,2.01.43l.29-.86ZM126.4,102.29c-.19,0-.19.29,0,.29s.19-.29,0-.29ZM134.86,103.72c-.22-.18-.8.09-.57.29.22.18.8-.09.57-.29ZM128.84,108.03c.14-.11-.5-.76-.86-.57-.14.11.5.76.86.57ZM110.33,108.89c-.19,0-.19.29,0,.29s.19-.29,0-.29ZM189.67,111.47c.18-.22-.09-.8-.29-.57-.18.22.09.8.29.57ZM117.94,111.76c.18-.22-.09-.8-.29-.57-.18.22.09.8.29.57ZM173.6,112.33c.18-.22-.09-.8-.29-.57-.18.22.09.8.29.57ZM172.59,112.62c-.19,0-.19.29,0,.29s.19-.29,0-.29ZM172.16,113.48c.18-.22-.09-.8-.29-.57-.18.22.09.8.29.57ZM152.94,121.51c-.06-.06.06-.51,0-.72-.13-.43-1.38-.61-1.72-1.15-.61-.94.08-.9-1.29-1.29-.23-.07-.83-.95-1.15-1.15l-.72,1.29c-3.57,11.98-12.96,22-24.24,27.4-.62.3-2.62,1.32-3.16,1.43-.45.1-1.09-.07-1.58,0l-.29-.57v1.15c-.46.16-.6-.27-.72-.29-1.57-.28-1.43.63-2.3,1.15-1.17.69-4.73,1.01-6.31,1.43-.51.14-1.19-.38-1,.57l2.15.29c1.29,1.3,3.26,1.03,4.88,1.43s2.4-.17,3.16,0,1.6.11,2.3,0c.48-.08,1.08.05,1.58,0v-.86c.4.05.93-.08,1.29,0,.11.02.17.26.29.29.07.02,1.21-.23,1.43-.29.3-.08,1.14-.78,1.43-.86.39-.11.88.2,1.15-.29.4-.16.64.51.86.57.81.23,1.08-.76,1.43-.86.54-.16.9.45,1.43.29.15-.04.38-.47.57-.57.95-.52,1.48-.34,2.3-.57.28-.08,1.04-1.21,1.43-1.43.67-.37.52-.75,1.15-1.15.35-.22,1.02-.23,1.29-.72.08-.13-.05-.38,0-.43.29-.29,1.61.32,2.01.57-.18-.44.34-1.33.72-1.43.24-.07.61.06.86,0,.11-.03.18-.26.29-.29,1.03-.24,1.16.5,1.43.57.99.27,1.36-.33,2.01-.57.74-.27,1.99-.38,2.87-.29.1.01.18.28.29.29.6.07,1.53-.13,2.01,0,.62.17,1.1,1.62.43,2.15l.57.14c.06-.39-.09-.95,0-1.29.1-.36.8-.4,1-.72h.29c.3.47.85.1,1.15.57,1.29-1.12,2.55-.46,4.02-.86.28-.08,1.08-.67,1.43-.86.57-.17.78.27.86.29.84.15,2.92.23,2.73-.86.12-.14.36.29.43.29.1,0,1.41-.8,1.72-.86.73-.13,1.46.08,2.01.57.56.16.66-.21.86-.29.15-.06.38.05.43,0s-.06-.28,0-.43c.65-1.54,1.72-2.19,3.01-3.01.47-.3.57-1.24,1.43-1.43.57-.13,1.89.22,2.15-.72.19-.71-.19-.89.72-1.58.06-.04.22.05.29,0,.29-.2.46-.68.86-.57.12.03.19.29.29.29.43,0,.85-1.74,1.58-1.43-.58-.67-.68-1.1-.57-2.01-.99-.06-2.03.08-3.01,0-2.95-.24-6.06-1.2-8.89-2.01-1.19-.34-1.51-.81-2.58-1.15-1.02-.32-2.17-.68-3.16-1.15-.35-.16-1.79-.79-1.86-.86-.19-.19-.05-1.52-.86-1.15v-.57c-.74.14-1.06-.07-1.58-.29-.15-.06-.38.05-.43,0-.05-.05.08-.29,0-.43-.32-.57-1.49-.99-2.01-1.72-.73-1.04-1.25-.82-1.43-1ZM201.72,119.51s-.17-.78-.29-1c-.1-.19-.59-1.01-.72-1-.19.25-.57.48-.72.72-.13.22.25.58-.57.43l1,.57c.68-.28,1.43.77,1.72.86.15.04.72.1.72-.14-.22-.56-1.1-.39-1.15-.43ZM198.7,124.67c-.19,0-.19.29,0,.29s.19-.29,0-.29ZM106.31,126.68c-.19,0-.19.29,0,.29s.19-.29,0-.29ZM131.71,128.97c-.63.18-1.88-.96-1.72.29l1.29.29.43-.57ZM131.85,130.12c-.19,0-.19.29,0,.29s.19-.29,0-.29ZM133.72,132.42h-.57v.86h.57v-.86ZM223.52,134.43l-1.43-.57.29,1.43,1.15-.86ZM120.52,136.15l-2.01-.29c-.04.47.57.19.86.72.08.13-.05.37,0,.43.04.04.84.08,1,.57.27-.27.64-.41.14-.72-.35-.21-.65,0-.57-.43l.57-.29ZM223.24,136.72h-.86v.29h.86v-.29ZM191.39,142.75c.58-.15.64-.61.57-1.15h-.29l-.29,1.15ZM176.75,144.47l.29-.43-.14-1.58c-1.11.91-2.04,1.92-3.16,2.87-.59.5-1.73,1.21-2.3,1.72-.25.23-1.55,1.47-1.58,1.58-.12.42.07,1.2,0,1.72-.01.11-.28.18-.29.29-.07.81.13,1.84,0,2.58-.02.11-.25.17-.29.29-.12.39.14.54-.43,1-.25.2-.28.39-.72.29l.57.29c.17.94-.4,1.66-.86,2.44-1.17,1.97-2.56,3.47-4.73,4.45-.44.2-1.64.8-2.01.86-.88.16-2.08-.11-3.01,0v-.57c-1.09.06-2.06-.01-3.01-.29-.13-.04-.38-.44-.57-.57-.07-.05-.23.04-.29,0-.19-.14-1.27-1.2-1.29-1.29-.06-.21.06-.66,0-.72-.08-.08-.74.07-1,0-.07-.02-.92-.87-1-1-.38-.63-.15-1.22-.29-1.72-.04-.16-.53-.42-.57-.57-.15-.55-.11-1.69-.29-2.3-.04-.15-.44-.25-.29-.72h-1.15c.17-1.02-.73-1.5.29-2.15-.26-.15-1.2-.98-1.29-1-.37-.1-2.67-.07-3.16,0-.11.02-.17.26-.29.29-1.14.25-2.12.57-3.16,1.15-.2.11-.37.45-.57.57-.14.08-.74.21-.86.29-.44.28-.55.79-.43,1.29.3,1.3.11,1,0,2.01-.14,1.35.12,2.4-.29,3.73-.9,2.97-2.47,4.97-4.3,7.17-.67.8-2.29,1.7-3.3,2.15-.86.39-1.97.94-2.87,1.15-.77.18-2.66.42-3.44.29-.11-.02-.19-.29-.29-.29-.08,0-.64.43-1.43.29-.11-.02-.18-.27-.29-.29-.73-.14-1.98,0-2.44-.72-.61-.95-.41-.96-1.58-1.29-.17-.05-1.15-.99-1.43-1.15-.14-.08-.38.05-.43,0-.08-.08.05-1.12,0-1.43-.61.46-.5.06-.72,0-.18-.05-.4.05-.57,0-.57-.16-.38-1.1-.43-1.15-.04-.04-.73.03-.86-.43-.19-.68.27-1.04.29-1.15.04-.3.07-1.2,0-1.43-.07-.25-1.29-1.09-1.43-1.72-.07-.28.04-.69,0-1-.59-.06-1.01-.44-1.72-.29v-.57c-.06-.08-.5.44-1,.29-.83-.25-2.07-.7-2.87-.86-1.31-.27-.85.14-1,.72-.51,1.88-1.07,4.09-1.43,5.74-.1.45-.23,1.34-.29,1.72-.13.91.42,2.17-.86,2.15-.12.68.8.83.57,1.58-.11.35-.61,2.45-.57,2.58.58,2.11.45,6.03.57,8.32.06,1.06-.22,3.22,0,4.02.11.41,1.3.77,0,1.72.94.58.67,1.04.86,1.72.04.16.53.41.57.57.88,2.98,1.98,5.71,3.44,8.61.75,1.49,1.74,2.77,2.3,4.3.38,1.04.44.53,1,.72.23.07,3.1,2.93,3.3,3.3.34.61.79.62.86.86.06.21-.06.66,0,.72.17.17,1.7.3,2.15.57.75.45,2.82,2.12,3.44,2.3,1.81.52,2.44,1.67,4.16,1.72v.57c.61-.26,1.42.27,1.58.29.98.11,2.85-.32,2.73.86.56-.25,1.22.29,1.29.29s.2-.39.57-.29c.85.23.47-.18.86-.29.69-.19,1.77.06,2.3.57.67-.45,1.5-1,2.3-.86s1.81-.1,2.87.29l1.15-.57,1.58.57c-.05-1.81,1.23-1.28,2.44-1.43.57-.07,1.68-.15,2.3-.29.52-.11,2.39-1.51,3.16-1.72.3-.08,1.39-.1,1.58-.29.05-.05-.08-.29,0-.43.53-.95,2.42-.84,2.87-1.29.76-.76-.04-.89,1.86-1.43.34-.1-.02-.52,1.15-.86.26-.08.56-1.22,2.3-1.72.45-.13,1.23-1.78,2.01-2.01.21-.06.66.06.72,0,.09-.09.76-1.81.86-2.15.1-.36,2.41-1.69,2.58-2.3.07-.24-.07-.62,0-.86.14-.5,1.27-.65,1.58-.14.93-.56.05-1.24.14-1.58.18-.64.38-1.34.57-2.01.06-.21.81-.66.86-.86.07-.24-.07-.62,0-.86.08-.29,1.45-1.27,1.72-1.72.04-.06-.04-.2,0-.29.06-.12.26-.18.29-.29.2-.89-.47-1.63-.29-2.3.05-.2.98-1.38,1.15-2.01.05-.19-.03-.49,0-.72.48-.14.64.39,1,.29.57-.16.35-.93.43-1.29.27-1.17.33-2.32.57-3.44.15-.68.62-.33.29-1.43-.23-.76.78-1.44.86-1.72.04-.16.04-.68,0-.86-.02-.1-.55-.76-.57-.86-.26-1.18.75-1.32.86-1.72.2-.73-.04-1.88.29-2.87.38-1.16-.38-2.27.57-3.44-.51-.72-.46-1.96-.29-2.87.02-.1.42-.29.29-.43l-.57-.57h.86c-.05-.41.07-.91,0-1.29-.02-.08-.46-.3-.29-.86.45-1.47-.13-.88-.29-1.43-.32-1.18.79-2.02-.29-3.16.64-.55-.12-1.68.72-2.15.13-.08.38.05.43,0,.03-.03-.08-.57.29-.72-.18-.46-.82-.39-.86-.43-.09-.09-.48-1.91-.57-2.01-.04-.04-.39.02-.57,0-.08-1.3.8-2.2.57-3.59-.02-.11-.28-.19-.29-.29,0-.09.92-1.2-.29-1ZM88.53,143.03c-.19,0-.19.29,0,.29s.19-.29,0-.29ZM183.35,145.33l-.86-1.72v1.58l.86.14ZM211.47,145.9c-.22-.18-.8.09-.57.29.22.18.8-.09.57-.29ZM180.77,147.05c-.31-.31-.89.26-.57.57s.89-.26.57-.57ZM151.79,147.62c-.22-.18-.8.09-.57.29.22.18.8-.09.57-.29ZM150.79,148.2c-.19,0-.19.29,0,.29s.19-.29,0-.29ZM87.52,149.35c.18-.22-.09-.8-.29-.57-.18.22.09.8.29.57ZM88.96,150.49l-.57-.57c-.07.6-.03.65.57.57ZM152.37,150.21l-1.29.29.14.86,1.15-1.15ZM126.83,154.8s-.02-.39,0-.57l-.57.43v.14c.18-.02.54.04.57,0ZM136.59,155.94l-1.15.43.14,1,1-1.43ZM198.13,155.94c-.19,0-.19.29,0,.29s.19-.29,0-.29ZM80.64,157.09l-1.15.29v.29l1.15.29v-.86ZM101.87,157.38c-.22-.18-.8.09-.57.29.22.18.8-.09.57-.29ZM194.26,158.24c-.31-.31-.89.26-.57.57s.89-.26.57-.57ZM87.81,160.82c-.22-.18-.8.09-.57.29.22.18.8-.09.57-.29ZM188.52,160.82h-.57l-.29.86.86.29v-1.15ZM74.61,162.83c-.6-.07-.65-.03-.57.57l.57-.57ZM97.85,164.27l-.57-.57c-.07.6-.03.65.57.57ZM97.28,166.85h-.86v.29h.86v-.29ZM63.99,168c.18-.22-.09-.8-.29-.57-.18.22.09.8.29.57ZM80.06,170.29l-1.15-.14c-.2.26-1.15-.07-.86.57.36.78.72.23,1,.14.35-.11.86.12,1-.57ZM83.5,172.01h-.86v.29h.86v-.29ZM92.11,178.04c.28-.65-1.27-1.31-1.43-1.15l-.29,1.43,1.72-.29ZM115.5,208.16c-.19,0-.19.29,0,.29s.19-.29,0-.29Z"/>
  <path d="M151.79,169.72c.39.39.36.71,1.29,1.43.84.65,1.73,1.69,2.3,2.01.31.18,1.81,1.96,1.86,2.15.19.66.39,1.35.57,2.01.28,1,.77,2.31,0,3.16.27.72.62,1.58-.14,2.15l-.43-.29c.01.43.09.76-.29,1,.27.3.43.52.86.43-.34.36-.2.8-.29,1-.63,1.51-2.23,3.71-3.59,4.73-.46.35-1.78,1-2.3,1.15-.38.11-.48-.4-.86-.29-.34.1-1.05.83-1.15.86-2.4.69-4.54.07-6.89-.57-.64-1.27-1.66-1.37-2.87-1.72-.41-.12-.53-.98-.72-1.29-.18-.29-.79-.81-.86-1.15-.14-.63.31-1.45-.43-1.86-.13-.08-.38.05-.43,0-.07-.07.16-.82-.29-1-.09-.34.72-1,.86-1.43.21-.64-.34-.99,1.29-.72.11.02.19.29.29.29.05,0,.76-.55.86-.57,1.14-.25,1.15.25,1.72.57.14.08.38-.05.43,0,.05.05-.06.28,0,.43.16.39.31.81.57,1.15.1.36.97,1.78,1.29,1.86s.81-.07,1.15,0c.32.07,1.05.84,1.15.86.36.1,1.72.34,2.01.29.11-.02.19-.29.29-.29.14,0,1.07.87,1.58.57-.3-.73.51-1.04.57-1.29.09-.31-.09-.83,0-1.15.04-.13.98-1.92,1.15-2.3s.56-.81.57-.86c.05-.19.05-1.24,0-1.43-.1-.36-1.05-.5-1.15-.86-.07-.24.07-.62,0-.86-.04-.16-.53-.41-.57-.57-.21-.75.17-.59-.72-1-1.29-.6-2.43-1.75-3.73-2.3-.15-.06-.38.05-.43,0-.05-.05.08-.29,0-.43-.11-.2-.46-.38-.57-.57-.08-.14.05-.38,0-.43-.09-.09-1.06.09-1.15,0-.05-.05.05-.5,0-.72-.04-.19-.47-.11,0-.72-.23-.03-.53.06-.72,0-.32-.1-.67-1.3-1.15-1.43-.18-.05-.4.05-.57,0-.45-.13-1-1.58-1.58-1.86-.09-.76-.44-1.41-.29-2.3.09-.51.76-1.2.57-2.01-.03-.11-.45-.29-.29-.86.76-.55,1.42-.89,1.43-1.86.47.15.55-.23.72-.29.34-.12,1.08-.17,1.43-.29.16-.05.29-.45.86-.29.07.02.92.87,1,1,.2.33.19.83.29,1.15.03.12.27.18.29.29.15.8-.26,1.22-.29,1.43-.05.39-.07,1.39,0,1.72.02.1.23.16.29.29.04.09-.04.23,0,.29.1.16.54.58.72.72,1.24.94,2.7,2.13,4.02,2.87.14.08.38-.05.43,0Z"/>
  <path d="M121.67,191.24c.89-.36,1.31.5,1.58.57.18.05.4-.05.57,0,.11.03,1.55,1.47,1.58,1.58.07.27-.05.69,0,1,1.15-.99.85-.41,1.58,0,.14.08.38-.05.43,0s-.08.29,0,.43c.16.29.7.57.86.86.08.14-.05.38,0,.43.06.06.52-.07.72,0,.39.13.95.4,1.43.57.77.28.93,1.29,1.43,1.15,1.19-.33,1.91-.34,3.16,0,.16.04.41.53.57.57.24.07,1.32-.56,1.72-.57.57.68,1.43,1.02,2.3.86.11-.02.18-.27.29-.29.35-.06.81.07,1.15,0,.15-.03.93-.5,1.15-.57.95-.33,2-.78,3.16-.57.11.02.17.25.29.29.17.05.39-.05.57,0,.74.21.62,1.14.72,1.58.03.11.27.18.29.29.04.3.07,1.2,0,1.43-.04.16-.53.41-.57.57-.05.18.05.4,0,.57-.01.05-.61.65-.72.72-.06.04-.2-.04-.29,0-.12.05-.17.24-.29.29-.16.06-.4-.06-.57,0-1.97.66-5.43,1.48-7.46.86-.56-.17-.75.26-.86.29-.16.04-2.95-.23-3.16-.29-.34-.09-.64-1.1-1.43-.86-1.85.56-3.58-.94-5.45-1.72-.29-.12-.55.26-.43-.57-.81.56-1.71-.74-2.44-1.15-.14-.08-.38.05-.43,0-.13-.13.27-1.46-.43-1.72-.27-.19-.48.29-.57.29-.09,0-.16-.24-.29-.29-.16-.06-.38.05-.43,0-.15-.15.35-.14-.43-.57-1.27-.71-1.09-1.08-1.58-2.15-.11-.25-1.34-2.05-1.43-2.15-.05-.05-.52.05-.57,0-.26-.26-.2-1.46-.29-1.86-.05-.22-.58-.31,0-1h-.86v-.57c-.83.11-.45-.14-.57-.43-.05-.12-.25-.17-.29-.29-.09-.25-.22-.63-.29-.86-.32-1.06-.08-2.26-.86-3.16-.15-.32.22-.41.29-.57.17-.4-.24-.54.86-.43v-.57c.41.04.9-.07,1.29,0,.11.02.19.29.29.29.06,0,.74-.27.86-.29.96-.16,1.58-.04,2.15.72.5.65.65,1.44.86,2.3.17.67.16,1.13.29,1.72.02.1.55.76.57.86.1.48-.12,2.32,0,2.44ZM123.24,197.26c-.19,0-.19.29,0,.29s.19-.29,0-.29Z"/>
</svg>