<?xml version="1.0" encoding="UTF-8"?>
<svg id="zkouska_s_hlavamaa" data-name="zkouska s hlavamaa" xmlns="http://www.w3.org/2000/svg" viewBox="0 0 288.67 288.67">
  <defs>
    <style>
      .cls-1 {
        fill: none;
        stroke: #fbf1e1;
        stroke-linejoin: bevel;
        stroke-width: 1.5px;
      }
    </style>
  </defs>
  <path class="cls-1" d="M153.9,72.82c.05.05-.03.63,0,.86.32.04.72-.07,1,0,.12.03.54.19.86.29.25.07.91,1.08,1.15,1.15.19.05,1.24.05,1.43,0,.16-.04.42-.53.57-.57.44-.12,1.21.09,1.72,0,.63-.11,2.07-1.04,2.58-1.15s1.27.12,1.72,0c.64-.18.01-.8,1.72-.29.56.17.82-.38,1.15-.29.48.13.25.95.72.86v-1.43c.47.15.57-.24.72-.29.66-.2,1.04.52,1.43.86.91-1.37,2.02.44,2.87-.86.32.1,1.05.83,1.15.86.67.18,1.52-.21,2.3.29.53.34.39.82.43.86.47.47,1.67-.81,1.86-.86,1.15-.31,1.33.77,2.01,1.15.78.43.28.42.43.57.25.25,1.76.47,2.15.57.35.1.43.91.86,1.15.14.08.38-.05.43,0s-.08.3,0,.43c.56.98,1.72-.05,2.58.14.05.05-.06.28,0,.43.33.78,1.91,2.57,2.87,2.44-.24.79.54.56,1,.86.56.36.66,1.37.72,1.43.05.05.63-.03.86,0-.18.68.34,1.06.57,1.58.07.15-.05.38,0,.57.02.08,1.21.98,1.29,1,.21.06.66-.06.72,0,.05.05-.08.29,0,.43.21.37.92.77,1.15,1.15.3.5.23,1.52.29,1.58.05.05.76.07,1.15.72.57.96.32,2.75,1.29,3.3.14.08.38-.05.43,0,.05.05-.06.28,0,.43.05.12.25.18.29.29.21.7-.57,1.03-.57,1.15.18.46.82.39.86.43.05.05-.06.28,0,.43.33.79,1.24,1.36,1.43,2.29.07.34-.08.84,0,1.15.04.16.53.41.57.57.44,1.54.97,3.21.57,4.73,1.01-.21.71,1.16.86,1.86.07.32.54,1.45.57,1.72.04.36.08,1.44,0,1.72-.09.32-1.3.94-1.15,1.43.06.19.76.58,1,.72.08.04.22-.04.29,0,.57.36.32.66.43,1,.04.12.27.18.29.29.11.59-.07,1.37,0,2.01.01.1.27.18.29.29.06.39-.04.88,0,1.29l-.57.14c.63.36.45.75.57,1.15.04.12.27.18.29.29.24,1.3-.47,1.35-.57,1.72-.21.72,1.33,2.23.86,3.3.51-.14,2.18,1.17,2.3,1.58.06.21-.06.66,0,.72.04.04.79.16,1,.29.27.16.67.8.86.86.64.19.58-.31,1,.72.62,1.53,1.72,2.48,2.3,4.01.26.7.78,2.25.86,2.87.13.97.25,2.39,0,3.15-.32.99-.1.59,0,1.15.39,2.19-.93,5.26-1.72,7.16-.06.15.05.38,0,.43-.05.05-.99-.13-1.15.43s.1.87-.29,1.72c-.89,1.96-4.39,6.06-6.17,7.59-.62.53-2.19,1.29-2.15,2.01-1.12.05-1.75,1.27-2.3,2.15-1.23,2.01-2.51,4.65-3.16,6.88-.07.25-.57.52-.86.43-.15.47.24.56.29.72.17.56-.24.71-.29.86-.79,2.42-1.1,5.11-1.43,7.74-.45,3.51-.65,7.32,0,10.89.14.79-.29,1.36-.29,1.43,0,.05.55.76.57.86.56,2.61.86,5.16,1.43,7.74.3,1.35,1.54,3.03,1.15,4.3-.29.93,1.08,2.05,1.15,2.29.12.45-.12,1.27,0,1.72.02.09.75.8.86,1.15.07.2-.06.65,0,.72.05.05.3-.08.43,0,.93.52.54,1.8.72,2.44.07.24,1.08.9,1.15,1.15.11.38-.11,1.05,0,1.43.05.2,1.12,1.02,1.43,1.72.06.12.26.18.29.29.07.33.06,1.65,0,2.01-.02.11-.25.17-.29.29-.05.17.05.39,0,.57-.07.25-1.08.95-1.29,1.29-.37-.55-.38-.03-.57,0-.37.06-1.36.06-1.72,0-.11-.02-.17-.25-.29-.29-.17-.05-.39.05-.57,0-.59-.17-.33-.96-.43-1.29-.04-.15-.44-.25-.29-.72-.39-.11-.92-.18-1.29-.29-.51-.15-1.96-1.9-2.58-2.29s-.18-1.08-1-.86v-.57l.57-.29-1.58-.57c-.74-.48-.55-1.26-.72-1.86-.06-.21-1.15-1.77-1.29-1.86-.17-.11-.75-.29-1-.29-.06-.39.09-.95,0-1.29-.04-.14-.86-.67-1-.72-.2-.07-.65.06-.72,0-.05-.05.08-.29,0-.43-.15-.27-.76-.77-.86-1.15-.58-2.13-1-2.48-2.01-4.3-.64-1.16-.74-2.21-1.43-3.44-.26-.46-.64-.83-.86-1.43-.28-.75.06-1.56-1.15-1.29.16-.46-.27-.6-.29-.72-.08-.43.1-1.06,0-1.43-.06-.2-.81-.66-.86-.86-.15-.53,0-1.41.29-1.86-.56.17-.67-.39-1-.57-.14-.08-.38.05-.43,0-.05-.05.06-.28,0-.43-.15-.37-.65-.66,0-1.15-.43-.46-1.32-1.2-1.43-1.72-.11-.49.12-1.27,0-1.72-.22-.79-.91-.79-.57-2.29.28-1.26-.38-1.57-.57-2.29-.07-.24.07-.62,0-.86s-1.08-.9-1.15-1.15c-.08-.31.07-.81,0-1.15-.03-.13-.51-.49-.29-1l-.57,1c-.03.71-.36,1.37-.57,2.01-.41,1.22-.84,2.2-1.15,3.44-1.53,6.16-6,14.39-9.76,19.49-1.23,1.67-3.08,4.43-5.16,5.02.22,1.15-.81.23-.86.29-.02.14.05.31,0,.43-.36.87-1.37,1.4-2.15,1.86-2.13,1.27-3.78,1.82-6.03,2.29-2.57.54-5.71.87-8.61.57-.1-.01-.18-.27-.29-.29-1.24-.19-2.26-.22-3.44-.57-.75-.22-5.23-1.93-5.59-2.29-.16-.16.4-.23-.43-.57-1.79-.74-3.16-2.02-4.88-3.15-.22-.14-1.83-1.74-1.86-1.86-.16-.57.25-.73.29-.86.1-.37-.22-.41-.29-.57s.05-.38,0-.43c-.06-.06-.51.06-.72,0-.26-.08-1.18-2.05-2.15-1.72.65-1.2-1.44-2.28-1.43-2.44,0-.09.25-.17.29-.29.05-.17-.42-1.38-.72-1.58-1.68-1.07-1.08-1.62-1.29-3.3-.02-.12-.23-1.22-.29-1.43-.07-.24-1.08-.9-1.15-1.15-.21-.72-.79-1.66-.86-2.01-.17-.79.13-2.01,0-2.87-.02-.11-.26-.17-.29-.29-.17-.71.39-1.15.29-1.86-1.28.12-1.91.02-1.72-1.43l-1.58,1.72c-1.58,1.18-3.06,3.31-4.88,4.87-.05.05-.23-.05-.29,0-.77.65-1.52,1.36-2.3,2.01l-.72-.29c.15,1.15-.14.7-.43.86-.66.37-1.28,1.35-2.15,1.15.12.83-.14.45-.43.57-.66.28-2.71,1.84-3.16,1.72-.32-.09-1.48-.15-2.01,0-.16.04-.42.53-.57.57-.24.07-.62-.07-.86,0-.57.16-.38,1.1-.43,1.15-.05.05-.28-.06-.43,0-.12.05-.17.25-.29.29-1.42.51-3.35.8-4.88,1.15-1.58.36-3.02.94-4.59.57-1.03-.24-1.16.5-1.43.57-1,.28-4.59.13-5.45-.57-.49-.14-.98.46-1.72.29-.1-.02-.16-.24-.29-.29-.15-.06-.38.05-.43,0-.05-.05.08-.29,0-.43-.16-.28-.69-.57-.86-.86-.03-.06-.28-.54-.29-.57-.05-.24-.07-1.8,0-1.86.05-.05.29.08.43,0,.27-.15.67-.81.86-.86.41-.11.68-.14,1.15-.29.17-.05.39.05.57,0,.72-.21.14-1.8.86-2.01.37-.11.9-.18,1.29-.29.04-.22.24-1.11.29-1.15.05-.05.29.08.43,0,.2-.11.43-.53.57-.57.24-.07.61.06.86,0,.11-.03.18-.26.29-.29.73-.17,1.16.4,1.86.29-.15-.47.24-.56.29-.72.17-.56-.27-.78-.29-.86-.29-1.61.73-1.87,1.43-2.87.04-.06-.05-.21,0-.29.46-.72,1.18-.31,1.86-.43.05,0,.7-.23.86-.29s.24-.44.72-.29c.27-.59-.68-1.49-.57-1.86.32-.4.87-.75,1.15-1.15.04-.06-.05-.21,0-.29.36-.56.64-.33,1-.43,1.03-.3.55-1.82.72-2.44.1-.36,1.05-.5,1.15-.86.07-.24-.07-.62,0-.86.09-.33.78-1.29.86-1.72.06-.36-.09-1.49,0-1.58.06-.06.51.06.72,0,.05-.01.72-.67.72-.72,0-.09-.25-.17-.29-.29-.19-.68,1.3-3.08,1.43-4.01.09-.59-.14-1.51,0-2.01.04-.15,1.05-1.28,1.15-1.72.14-.65-.47-1.77-.29-2.87.11-.64.4-.74.29-1.43-.28-1.69.65-3.56.29-5.16-.09-.41-.08-2.41,0-2.87,0-.04.26-.68.29-.72.06-.07.85.25.57-.57l-.86.14v.57c-.45.48-1.14-.15-1.43-.57-.46-.64-1.25-1.15-2.01-2.01-1.15-1.29-3.34-2.76-2.3-4.59-.58-.2-.8-1.23-.86-1.29-.05-.05-1.32-.12-.57-.72-.73-.25-1.06-1.78-1.15-1.86-.16-.16-.23.4-.57-.43-.17-.41-.61-1.02-.86-1.43l.57-1.15v-.57c-1.23-1.45-.46-3.15-.86-4.59-.08-.3.73-1.5.57-2.01-.58-1.9.47-2.52.29-3.15-.41-1.41.7-1.41.86-2.01.07-.24-.07-.62,0-.86.03-.11.24-.17.29-.29.06-.15-.05-.38,0-.43.06-.06.51.06.72,0,.11-.03.17-.24.29-.29.15-.06.38.05.43,0,.06-.06-.06-.5,0-.72.1-.37.19-.81.29-1.15.03-.11.24-.17.29-.29.06-.15-.05-.38,0-.43.06-.06.51.06.72,0,.12-.04,1.14-1.31,1.72-1.72,1.1-.77,2.05-1.83,3.16-2.58.5-.34.52-.78,1.43-.57.12.03.2.39.57.29.12-.03.18-.26.29-.29.78-.16.93.14,1.58-.72.2-.26,1.96-2.69,2.01-2.87.15-.55.11-1.69.29-2.29.04-.15.44-.25.29-.72,1.16.15.7-.14.86-.43.11-.2.53-.43.57-.57.24-.86.13-1.04.57-2.01.57-1.24,1.25-2.45,1.72-3.73.06-.16-.05-.39,0-.57.11-.39,1.3-.62,1.72-.72-.21-.57.8-1.35.86-1.58.28-1.03-.05-2.26,1.29-3.01.14-.08.38.05.43,0,.17-.17.3-1.69.57-2.15.39-.66.48-.5.86-1.43.34-.84,1.31-1.01,1.43-1.43.5-1.75.43-.87.86-1.29.04-.04.24-1.11.29-1.15.05-.05.29.08.43,0,.27-.15.67-.81.86-.86.51-.14,1.14.01,1.58.29-.09-.63-.47-1.2-.29-1.86.04-.13.44-.38.57-.57.04-.06-.05-.21,0-.29.28-.44,1.11-.57,1.43-1.15.42-.75.97-.32,1.43-1.15.23-.42-.16-.26.72-.72,1.23-.64,1.59-2.24,2.58-2.87.43-.27.52-1.05.86-1.15.45-.12,1.27.12,1.72,0,.09-.03,1.29-1.03,1.43-1.15.41-.34,1.8-1.95,2.01-2.01.3-.08.8.06,1.15,0,.08-.02.3-.46.86-.29.12.04.18.26.29.29,1.39.32,1.25-1.01,1.72-1.15.63-.18,1.51-.15,2.01-.29s1.59-1.65,2.58-.57c.45-.64.95-.49,1.43-.57.71-.12,2.19-.11,2.58,0s.46-.26.57-.29c.68-.16,3.01.9,3.73,1.15h.29c.31-.25,1.38-.67,1.72-.57.25.07.91,1.08,1.15,1.15.38.1,1.02-.09,1.43,0,.39.08,1.51.94,2.01,1.15.15.06.38-.05.43,0ZM149.59,83.42c.2-.16-1.08-1.24-.86,0h.86ZM176.85,83.71l-.86.14v.57l-.43,1.29,1.29-2.01ZM144.72,84.57c.18-.22-.09-.8-.29-.57-.18.22.09.8.29.57ZM186.32,86.29c.06-.59.44-1.01.29-1.72-.87.38-1.32,1.31-.29,1.72ZM119.04,85.72c-.19,0-.19.29,0,.29s.19-.29,0-.29ZM131.37,90.01c-.19,0-.19.29,0,.29s.19-.29,0-.29ZM199.09,94.31c-.19,0-.19.29,0,.29s.19-.29,0-.29ZM122.48,97.75c-.19,0-.19.29,0,.29s.19-.29,0-.29ZM115.16,100.33c.18-.22-.09-.8-.29-.57-.18.22.09.8.29.57ZM190.62,101.19s-.02-.39,0-.57l-.57.43v.14c.18-.02.54.04.57,0ZM167.38,129.56c-.12-.12-.97-1.75-1.15-2.15-.3-.67-.55-1.34-.86-2.01-.29-.63-.74-1.4-1.58-1.29-.59-.87-1.79-2.41-1-3.3.13-.49-1.79-1.8-2.01-2.58-.07-.24.07-.62,0-.86-.02-.09-.78-.99-.86-1.43-.12-.66.16-1.72,0-2.29-.13-.46-1.34-.83-1.43-1.15s-.29-.81-.29-.86c0-.07.39-.2.29-.57s-.52,0-.29-.86c.05-.19-.7-3.1-.86-3.44-.71-1.51-.41-2.69-1.72-3.73l-.29-2.15-1.43,1.58c-7.64,8.95-19.79,20.77-31.42,23.07-.3.06-.68-.04-1,0,.33.35.2.8.29,1,.53,1.27.78,1.81,1.15,3.15.26.95,1.08.94,1.15,1,.05.05-.06.28,0,.43.16.37.53.32,0,1,.69.23,1.38-.43,1.86-.29l2.87,1.72c.54-.58.85-1.03,1.72-.86.52.3,1.3,1.2,1.72,1.43.23.13.59-.29.43.72-.06.38-.19.43-.29.72h.86v-1.43c.89.36,1.32-.5,1.58-.57.19-.05,1.52-.06,1.58,0s-.08.3,0,.43c.14.25,1.92,1.08,2.44,1.29,1.35.54,3.28.57,4.88.57.34.3,1.89,1.12,2.15.86.04-.04-.04-.73.43-.86,1.02-.29,1.43,1.43,1.72,1.43l.43-.86c.5-.09.75.45,1.29.29.77-.23,1.8-.43,2.58-.57,1.24-.23,3.08.89,4.3,1.15.41.08,1.61.03,1.86.29.07.07-.3.87.72.57.09-.03.94-.86,1.15-.86.1,0,.18.27.29.29.3.05.68-.03,1,0v.57c1.18-.07,2.66.69,3.59.86,1.1.2,1.86-.57,2.01-.57.1,0,.18.27.29.29,1.62.27,1.86-.59,2.87-.86.24-.07.62.07.86,0,.31-.09,1.39-1.52,1.29-1.86-.03-.12-.29-.19-.29-.29,0-.28,1.57-.85.43-1.58-1.61-1.02-3.38-2.49-4.45-4.16-.34-.53-.82-.39-.86-.43ZM139.41,102.05c-.19,0-.19.29,0,.29s.19-.29,0-.29ZM123.63,107.78c-.19,0-.19.29,0,.29s.19-.29,0-.29ZM131.09,110.07c-.19,0-.19.29,0,.29s.19-.29,0-.29ZM130.94,111.79c.15-1.1-.48-1.26-1.43-1.15l.29,1.15h1.15ZM186.03,112.94c.11-.09-.44-.73-.72-.57l-.72.29.43.57c.25-.38.58-.3,1-.29ZM104.12,113.8c-.19,0-.19.29,0,.29s.19-.29,0-.29ZM112.58,122.97c-.05-.05-.28.06-.43,0-1.5-.63-2.39-1.3-3.3-2.72-.46-.72-1.03-.28-1.58-.43-.15-.04-.38-.47-.57-.57-.91-.49-1.95-.9-2.87-1.15-.12-.03-.19-.29-.29-.29s-.18.27-.29.29c-.86.14-2.02-.15-2.87,0-.76.14-1.99.9-2.87,1.15-.16.05-.41.53-.57.57-.21.06-.66-.06-.72,0-.05.05.08.29,0,.43-.27.49-1.3,1.18-1.72,1.72-1.2,1.54-1.64,3.06-2.01,4.87-.02.11-.27.18-.29.29-.13.87.14,2.01,0,2.87-.02.11-.29.19-.29.29s.26.17.29.29c.49,1.83.69,3.63,1.43,5.44.12.28.66.82.57,1.15-.04.14-.44.25-.29.72.87.01,3.32,3.36,3.44,3.87.06.27-.07.93,0,1,.05.05.92.05,1.29.29.35.49,1.16,1.31,1,1.86-.07.24-.84.61-.86,1,.76.21,1.46-.48,2.15-.29.57.16.38,1.1.43,1.15.07.07.87-.04,1.15,0l.29,1.15c.73.07,1.14.04,1.58-.57l1,.57c.04-.41-.07-.9,0-1.29.02-.11.29-.19.29-.29s-.26-.17-.29-.29c-.05-.18.05-.4,0-.57-.15-.51-1.44-.75-1.15-2.01.03-.11.27-.18.29-.29.22-1.22-.65-1.95-.86-2.87-.13-.55.27-1.57.57-2.01-.83-1.04-.38-2.24,0-3.44.05-.17-.05-.39,0-.57.18-.63,1.14-.33,1.58-.43.11-.02.17-.25.29-.29.06-.02.92.23,1.15.29.11.03.17.26.29.29.6.16,1.06-.16,1.58.72.04.06-.04.2,0,.29.06.12.26.18.29.29.11.47-.07,1.19,0,1.72.01.11.28.18.29.29.11,1.18-.13,1.93-.29,2.87-.04.23-.05,1.24,0,1.29.05.05.3-.08.43,0,.66.37.82,2.34,1,3.01.03.13.55.75.57.86.09.41-.1,1.06,0,1.43.09.31,2.96,3.2,3.16,3.73l-.29.29c1.81,1.12,2.85,2.21,4.02,4.01.34.53.82.39.86.43.06.06-.06.5,0,.72.06.23.45.44.29,1.15-.03.11-.25.17-.29.29-.66,2.26-.06,4.09-.57,6.3-.15.63.51,2.26.57,2.87.16,1.55-.12,3.02-.29,4.44h.57c.08,2.72.4,5.3.86,7.88.14.8.51,1.87.29,2.87-.03.12-.39.2-.29.57.01.05.61.66.72.72.14.08.38-.05.43,0,.1.1-.1,1.23,0,1.58.02.07.71.81.86,1.15.19.44.38,1.57.57,2.01.55,1.23,4.06,7.79,4.73,8.17.72.4.54.66,1,1.29.23.31,1.1.96,1.15,1.15.08.31-.07.81,0,1.15.05.24.72,1.1.86,1.43.06.15-.05.38,0,.43.7.11,1.13-.45,1.86-.29.11.02.73.54.86.57.24.07.62-.07.86,0,.36.1.14.77,1.43,1.15.41.12.92,1.54,1.72.57.81.7,2.37.86,3.44,1.15.36.1,1.68.67,1.86,1,.08.13-.05.38,0,.43h.57l.14-.57.29.29c.56-.14.9.44,1.43.29.16-.05.41-.53.57-.57.21-.06.66.06.72,0,.05-.05-.08-.3,0-.43.41-.72,1.42-.33,2.15-.43.11-.01.18-.27.29-.29.36-.05,1.5.08,1.58,0,.05-.05-.08-.29,0-.43.52-.94,1.72-.86,2.44-1.29.57-.34.9-1.44,1.72-.57.41-.19.47-1.03.86-1.15.21-.06.66.06.72,0,.06-.06-.21-.74.43-1.15s.68.05,1-.72c.23-.55.9-1.13,1.15-1.72.35-.83.41-.27.57-.43.19-.19.05-1.52.86-1.15-.1-.73.45-1.79.86-2.44s1.09-.37,1.15-.43c.07-.07-.06-.73,0-1,.07-.32.84-1.05.86-1.15.07-.24-.07-.62,0-.86.17-.61,1.37-.94,1.43-1,.05-.05-.09-1.05.57-1.29-.38-.25-.3-.58-.29-1,.23-.03.53.06.72,0,.77-.23.82-1.92,1.29-2.44-.21-2.56,1.09-4.01,1.72-6.3.03-.13.55-.75.57-.86.14-.64-.16-1.71,0-2.29.04-.16.53-.42.57-.57.11-.38-.11-1.05,0-1.43.07-.26,1.05-1.84,1.15-2.29.19-.89.03-1.76.29-2.87.06-.26-.07-.62,0-.86.04-.16,1.15-1.08,1.15-1.43,0-.1-.27-.18-.29-.29-.19-1.14.77-2.59.57-3.44-.43-1.85.06-1.3.29-2.58.14-.8-.18-1.87.72-2.44.03-.02.48-.25.57-.29.15-.06.38.05.43,0,.03-.03-.08-.57.29-.72-.58-.4-.72-1.03-.57-1.72.02-.1.49-.68.57-.86.11-.24-.16-.63.43-1,1.49-.95,1.37-1.87,2.58-2.87.96-.78,1.08-.83,1.86-1.86.59-.78,1.62-.9,1.72-1,.05-.05-.05-.52,0-.57.05-.05.28.06.43,0,.12-.05.18-.26.29-.29.62-.14,1.25.18,1.72.57.46-.18.39-.82.43-.86.08-.08,1.9-.06,2.15,0,.03,0,.52.25.57.29.38.22.75.87,1.15,1.15.05.04.62.07.72.43.26.95-.17,1.56-.57,2.29-.04.08.04.22,0,.29-.3.47-.86.5-1.29.72-.12.06-.18.26-.29.29-.37.1-1.15-.91-1,.29-1.85-.22-3.06,1.97-4.16,2.58-.14.08-.38-.05-.43,0s.08.29,0,.43c-.64,1.16-1.81,2.4-2.3,3.73-.5,1.37-.37,2.6-.57,4.01-.02.12-.45.43-.29,1.15.02.11.5.69.57.86.06.15-.05.38,0,.43s.27-.06.43,0c.12.04.2.29.29.29.1,0,.18-.27.29-.29.67-.11,1.73.16,2.3,0,.09-.03.81-.77,1.15-.86.55-.15,2.04-.39,2.58-.29.1.02.31.43.43.29-.1-.47.89-1.89,1.29-2.01,1.13-.32,1.4-1.05,1.72-1.15.48-.14,1.5-.53,1.72-.57,1.04-.18,1.97.18,2.73-1,.61-.95-.08-.9,1.29-1.29.3-.08.61-1.13,1.15-1.43.22-.12.57.27.43-.57.61.14,2.14-.18,2.3-.72.35-1.22,1.23-1.8,2.44-2.15.51-.15.35-.83.43-1,.2-.44.7-.85.86-1.15.08-.14-.05-.38,0-.43.05-.05.28.06.43,0,.12-.05.18-.27.29-.29.29-.06.68.04,1,0-.22-1.21.49-1.64,1.15-2.44.33-.4.53-1.07,1.43-1-.11-1.3-.05-.88.43-1.15.72-.4.18-.57.14-.72-.11-.4.78-1.68.86-2.01.06-.27-.07-.93,0-1,.04-.04.73.03.86-.43.23-.84-.2-2.51,0-3.44.1-.45.79-.81.57-1.72-.03-.11-.25-.17-.29-.29-.05-.18.06-.41,0-.57-.35-.94-.83-1.47-1.15-2.58-.07-.24-1.09-.65-1.43-1.15-.28-.4-.13-.92-1.15-.72.17-.69-1.16-1.12-1.86-1.43-.23-.1-1.02-.55-1.15-.57-.6-.11-1.4.1-2.01,0-.11-.02-.19-.29-.29-.29-.08,0-1.17.74-1.43.86-3.49,1.58-6.36,3.95-9.76,6.02-2.07,1.26-2.78,1.58-5.16,2.01-.11.02-.18.27-.29.29-.9.11-2.43-.2-3.16,0-.25.07-1.9,1.69-2.3,2.01-1.06.85-2.41,1.73-3.44,2.58-.29.24-.97,1.09-1.15,1.15-.15.04-.72.1-.72-.14l-.43-1-1,1c.27.34.97.74.86,1.15-.51.32-.19.94-.29,1.43-.35,1.73-1.49,4.24-2.01,6.02-.1.34-.24.68-.29.86-.07.24.07.62,0,.86-.09.33-1.61,1.38-2.01,2.01-.35.55-1.5.55-2.15.43-.11-.02-.17-.25-.29-.29-.81-.26-1.55-.61-2.3-1.15-2.29.43-4.96-1.02-7.17-1.72-.66-.21-1.95-.79-2.3-.86-.36-.08-1.48.09-1.58,0-.06-.06.06-.51,0-.72-.03-.11-.25-.17-.29-.29-.06-.17.05-.39,0-.57-.16-.57-1.1-.38-1.15-.43-.13-.12.08-2.93-.57-3.3.56-.37.75-1.08.57-1.72-.04-.16-.53-.41-.57-.57-.16-.55.48-.97.29-1.58-.69-.07-1.49.1-2.15,0-.11-.02-.18-.26-.29-.29-1.49-.3-2.46.14-4.02-.29-.29-.08-.23.28-1.15,0-.54-.16-.65.19-.86.29-.09.04-.23-.04-.29,0-.17.11-.69.89-.72,1-.12.55.07,1.39,0,2.01-.01.1-.27.18-.29.29-.07.45.08,1,0,1.43-.02.11-.25.17-.29.29-.05.17.05.39,0,.57-.02.07-.94.98-1,1-.31.08-.81-.07-1.15,0-.11.02-.18.26-.29.29-.26.06-.61-.06-.86,0-.11.03-.18.26-.29.29-.87.2-1.16-.38-1.72-.57-.5-.17-1.32-.46-1.72-.57-.21-.06-.66.06-.72,0-.05-.05.08-.29,0-.43-.58-1.03-1.57-1.31-2.44-.43-.57.17-.75-.26-.86-.29-1.73-.4-3.66-.53-5.16-.86-1.34-.3-3.93.34-5.16,0-.05-.01-.6-.42-.86-.57-.12-.07-.18-.24-.29-.29-.15-.06-.38.05-.43,0-.06-.06.06-.51,0-.72-.03-.11-.25-.17-.29-.29-.08-.28.14-.62-.29-.86.19-.36.19-.82.29-1.15.11-.37,1.26-.74.57-1.15.69-.75.41-2,1.43-2.87-.55-.37-.03-.38,0-.57.05-.3-.03-.68,0-1l.57-.14c-1.16-1.28-.96-3.12-1.72-4.59-.16-.31-1.1-1.54-1.15-1.72-.06-.22-.32-2.98-.29-3.15.02-.11.29-.19.29-.29-.55-.49-1.25-.77-1.72-1.43-.81-1.15-1.81-1.09-2.3-1.58-.05-.05.05-.52,0-.57ZM119.61,120.39c-.19,0-.19.29,0,.29s.19-.29,0-.29ZM179.43,120.96s-.02-.39,0-.57l-.57.43v.14c.18-.02.54.04.57,0ZM127.79,120.68s-.39.02-.57,0l.43.57h.14c-.02-.18.04-.54,0-.57ZM173.12,128.99c-.22-.18-.8.09-.57.29.22.18.8-.09.57-.29ZM177.28,133.29c-.19,0-.19.29,0,.29s.19-.29,0-.29ZM149.74,139.02c-.19,0-.19.29,0,.29s.19-.29,0-.29ZM165.66,147.04c.18-.22-.09-.8-.29-.57-.18.22.09.8.29.57ZM165.66,147.33c-.22-.18-.8.09-.57.29.22.18.8-.09.57-.29ZM164.37,149.05c-.3.08-.53.48-.29.86.12.19.95.62,1.15.57.39-.1.44-.35.14-.72-.19-.24-.68-.81-1-.72ZM110.86,152.2v-1.15h-.14c-.44.32-.5.61-.43,1.15h.57ZM101.96,152.2l-1-.29-.43,1.15,1.43.29-.57-.57v-.29l.57-.29ZM183.45,171.11l-.72-.86c-.3.27-.52.43-.43.86h1.15ZM175.13,172.26v-.57c-.4.23-.66.38-1.15.29v.29h1.15ZM105.12,177.13c-.6-.07-.65-.03-.57.57l.57-.57ZM113.15,178.28c-.95-.11-1.58.05-1.43,1.15.55-.36.6-.35,1.15,0l.29-1.15ZM106.41,183.44c-.19,0-.19.29,0,.29s.19-.29,0-.29ZM82.6,187.74c-.19,0-.19.29,0,.29s.19-.29,0-.29ZM191.34,203.5c-.19,0-.19.29,0,.29s.19-.29,0-.29ZM200.38,212.09c-.22-.18-.8.09-.57.29.22.18.8-.09.57-.29Z"/>
  <path class="cls-1" d="M140.99,180.28s-.02.39,0,.57c.43-.01.76-.09,1,.29.4.16.64-.51.86-.57.97-.27,2.68-.11,3.73-.29.11-.02.19-.29.29-.29s.19.29.29.29.17-.25.29-.29c.38-.1.46.26.57.29.33.07.84-.09,1.15,0,.09.02,1.14,1.09,1.29,1.29.07.09.84,1.35.86,1.43.07.24-.07.62,0,.86.03.13.55.75.57.86.13.59.08,3.04,0,3.73-.01.1-.27.18-.29.29-.06.35.07.81,0,1.15-.02.11-.26.17-.29.29-.3,1.16-.5,1.9-1.15,2.87-.2.3-.7.58-.86.86-.08.14.05.38,0,.43s-.29-.08-.43,0c-.28.16-.56.66-.86.86-.09.06-1.63.83-1.72.86-.24.07-.6-.06-.86,0-.11.02-.18.27-.29.29-1.47.21-3.35-.16-4.88,0-.38-.42-1.18-.41-1.72-.57-.09-.03-1.27-1.2-1.29-1.29-.35-1.18-.32-.58-1.29-1.29-.81-.59-1.05-1.02-1.29-1.86-.18-.61-1.43-.41-2.01-.43-.04-.32.06-.72,0-1-.06-.26-.72-1.09-.86-1.43-.35-.83-.41-.27-.57-.43-.03-.03-.29-.67-.29-.72,0-.1.27-.18.29-.29.12-.7-.11-1.08,0-1.72.07-.44-.08-1,0-1.43.01-.08.49-.41.29-.86.4-.26.93-.79,1.29-1,.14-.08.73-.21.86-.29.57-.36.87-1.77,2.15-1.43v-.57c.61.19,1.03-.44,1.58-.29.22.06.2.54.57,0,.25.31,1.23,1.15,1.43,1.15.09,0,.17-.25.29-.29.37-.1.5.29.57.29.04,0,.48-.53.72-.29ZM150.02,190.03c-.19,0-.19.29,0,.29s.19-.29,0-.29Z"/>
  <path class="cls-1" d="M145,152.77s-.1.52.43.86c.07.04.22-.04.29,0,.74.47.89,2.21.72,3.01-.11.5-1.16,1.95-1.43,2.58-.79,1.8-1.54,3.88-2.3,5.73-.1.25-.67.83-.57,1.15.18.46.82.39.86.43.05.05-.13.93.43,1.15.24-.43.58-.21.86-.29.16-.05.42-.53.57-.57.17-.05.97-.05,1.15,0,.14.04,1.54,1.36,1.86,1.58l.29.57c.16.71-.24.95-.29,1.15-.06.25.07.62,0,.86-.03.1-.23.16-.29.29-.04.09.04.23,0,.29-.27.41-.55.34-.72.43-.2.11-.73.54-.86.57-.24.07-.6-.06-.86,0-.11.02-.18.27-.29.29-.3.04-1.2.07-1.43,0-.09-.02-1.03-.81-1.43-.86-.4-.16-.64.51-.86.57-.57.16-.71-.24-.86-.29-.17-.05-.39.05-.57,0-.16-.05-.41-.53-.57-.57-.36-.1-.65.13-1-.43-.3-.47-.18-1.03-.29-1.43-.17-.64-1.26-1.94-1.43-2.58-.07-.24.06-.6,0-.86-.02-.11-.45-.29-.29-.86l1.43-2.01c.08-.51-.12-1.28,0-1.72.09-.31,1.31-.68,1.43-1.15.11-.39-.12-1.75,0-1.86.05-.05.3.08.43,0,.86-.49-.01-2.77,1.29-2.58v-1.72h.86c-.14-.84.21-.45.43-.57.39-.22,1.23-1.04,1.72-1.15.21-.04,1.25-.05,1.29,0ZM141.85,165.96c-.31-.31-.89.26-.57.57s.89-.26.57-.57Z"/>
</svg>