<?xml version="1.0" encoding="UTF-8"?>
<svg id="zkouska_s_hlavamaa" data-name="zkouska s hlavamaa" xmlns="http://www.w3.org/2000/svg" viewBox="0 0 288.67 288.67">
  <defs>
    <style>
      .cls-1 {
        fill: none;
        stroke: #fbf1e1;
        stroke-linejoin: bevel;
        stroke-width: 1.5px;
      }
    </style>
  </defs>
  <path class="cls-1" d="M134.29,64.22v.57c.68-.14,1.35.42,1.86.57.38.11.48-.4.86-.29.07.02.94.88,1,1,.08.14-.05.38,0,.43.06.06.51-.06.72,0,.23.07.46.73.86.57.27-.48.75-.19,1.15-.29,1.16-.29,2.5-.82,3.73-1.15.71-.19,1.51-.7,2.3-.57,1.38.23,1.6-.42,2.3-.57.85-.18,1.84-.01,2.87-.29,1.24-.33,3-.48,4.59,0,.44.13,1.2-.51,2.01-.29,1,.27.1.57,2.01.29.61-.09,1.56-.11,1.86.43.08.13-.05.38,0,.43.05.05,1.06.04,1.29,0,.11-.02.19-.29.29-.29s.19.29.29.29.19-.29.29-.29c.18,0,1.54,1.15,1.72,1.15.05,0,.29-.45.86-.29.53.15,1.1.12,1.72.29.2.06.66.8.86.86.79.22,2.42-.21,3.01.72.99,1.54,1.79,1.14,3.3,1.58.61.18.94,1.37,1,1.43.21.21,2.28.73,2.73.86.24.07.81.96,1.15,1.15.14.08.38-.05.43,0s.13,1.15.29,1.43c1.67.74,3.77,2.01,4.3,3.87.16.57,1.1.38,1.15.43.08.08-.07.74,0,1,.04.13.44.38.57.57.04.06-.05.21,0,.29.36.56.64.33,1,.43.47.13,4.05,5.36,4.16,5.88.21.97-.4.83.43,1.29.78.44.93,1.26,1.29,1.86s1.63,1.68.29,1.58v.86c.44-.18,1.33.34,1.43.72.08.31-.09,1.2,0,1.29.05.05.73.07,1.15.72.24.37,2.24,4.6,2.3,4.87.07.34-.07.81,0,1.15.02.07.45.7.57.86-.18.46-.82.39-.86.43-.07.07.04.87,0,1.15.68.02,1.32-.2,1.72.43.04.06-.04.21,0,.29.24.43.68,1.01.86,1.43s.76,1.94.86,2.29c.57,2.07.95,3.98,1.43,6.02.02.1.24.16.29.29.26.62-.52.38-.57.43-.22.22.67,1.22.86,1.58-.15.79.2,5.39,0,5.59-.04.04-.73-.03-.86.43-.1.38.26.46.29.57.45,2.03-.96,4.85-2.01,6.59-.64,1.07-1.09.82-1.43,2.01-.08.28-2.74,2.93-3.01,3.01-1.24.36-2.76,2.02-4.02,2.29-.64.14-1.62-.12-2.3,0-.11.02-.17.25-.29.29-.17.05-.39-.05-.57,0-.07.02-.92.87-1,1-.04.06.04.2,0,.29-.06.12-.26.18-.29.29-.11.48.07,1.19,0,1.72-.06.47-.53,1.85-.57,2.29-1.3,14.28,1.62,29.31-2.01,42.7-1.14,4.22-2.92,8.05-5.16,12.04-.41.72-.02.62-.72,1-.58.32-.92.89-.43,1.43-.84-.12-.45.14-.57.43-.64,1.52-7.83,10.7-9.04,11.03-.84.23-.65-.41-1,.43-.46,1.1-3.59,3.63-4.73,4.16-.75.35-1.81.94-2.58,1.43-.68.43-.52.92-1.43,1.43-5.63,3.21-11.98,6.03-18.08,7.16-1.86.35-3.92.27-5.74.57-1.82.3-3.25.4-5.45,0-.79-.14-1.36.29-1.43.29-.17,0-1.29-1.42-2.3-1.15-.16.04-.42.53-.57.57-.37.1-2.38-.18-2.87-.29-1.07-.24-2.56-.81-3.73-1.15-.25-.07-.91-1.08-1.15-1.15-.73-.2-1.26.13-2.3-.29-1.38-.55-2.81-1.53-4.02-2.29-.44-.28-.57-1.11-1.15-1.43-.34-.19-1.18-.75-1.72-1.15-.3-.22-1.53-1.69-1.58-1.86-.12-.45.12-1.27,0-1.72-.02-.07-.94-.98-1-1-.18-.05-.4.05-.57,0-.08-.02-1.27-.92-1.29-1-.09-.31.09-.83,0-1.15-.02-.09-.78-.99-.86-1.43-.13-.74.18-1.94,0-2.58-.1-.36-1.05-.5-1.15-.86-.05-.2-.04-.91,0-1.15.12-.66.29-1.68.57-2.29-1.24-1.34-.07-2.71-.29-4.01-.15-.92.48-1.18.29-2.01-.22-.94-.08-1.27-.29-2.01-.13-.48.81-1.25.86-1.43.11-.38-.11-1.05,0-1.43.04-.16.53-.42.57-.57.21-.77-.16-2.27,0-3.15.01-.08.46-.3.29-.86-.67-2.19.17-1.69.57-3.15.43-1.58.97-3.56,1.15-5.16.07-.59-.05-1.26,0-1.86h.57c-.35-.6-.41-1.71-.29-2.44.02-.11.29-.19.29-.29,0-.07-.39-.2-.29-.57.09-.31.39-.35.57-1.43.02-.11.29-.19.29-.29s-.27-.18-.29-.29c-.06-.35.08-.85,0-1.15-.07-.27-.84-.46-.57-1.43.06-.22.74-.46.57-.86-1.46-1.73.27-3.4,0-5.3h-.57c.22-.52-.29-.95-.29-1,0-.1.27-.18.29-.29.28-1.67,0-5.27-.29-6.88-.02-.11-.27-.18-.29-.29-.15-1.25.11-2.73,0-4.01l-.57-.14c-.11-.51.5-.21.57-.29.24-.26-.28-.68-.29-.72-.25-1.37-.11-2.16-.57-3.73-.05-.16-.53-.42-.57-.57-.09-.34.06-.9,0-1.29,1.66-.03-.2-1.26-.29-1.58-.11-.38.11-1.05,0-1.43-.06-.2-.8-.65-.86-.86-.08-.28.14-.62-.29-.86l.57-.86-.29-.72-1.15-.29c-.14-.14.11-3.24,0-3.87-.02-.11-.25-.17-.29-.29-.05-.17.05-.39,0-.57-.04-.14-.86-.67-1-.72-.2-.07-.65.06-.72,0-.08-.08.07-.74,0-1-.06-.22-.9-1.69-1.15-2.29-.07-.18-.44-.24-.29-.72-.47-.15-.55.23-.72.29-.27.09-.62.21-.86.29-1.65.5-4.98.85-6.89.57-.11-.02-.17-.26-.29-.29-.26-.06-.62.07-.86,0-.76-.21-1.2-1.39-2.15-1.15.22-.81-.98-.76-1.58-1.15-.49-.31-.71-1.15-1-1.58-.18-.26-.82-.69-.86-.86-.15-.55-.12-1.67-.29-2.29-.07-.24-1.08-.9-1.15-1.15-.08-.31-.05-1.61,0-2.01.01-.1.27-.18.29-.29.11-.58-.25-1.19.43-1.58.28-.16.58.3.43-.86-.84.12-.45-.14-.57-.43-.11-.25-.67-.83-.57-1.15.44-.23.2-.62.29-.86.04-.11.24-.17.29-.29.06-.15-.05-.38,0-.43.05-.05,1.05-.04.86-.72-.52-1.89.07-1.21.29-2.01.17-.63.94-2.6.86-2.87-.03-.12-.29-.19-.29-.29,0-.06.54-.9.72-1,.37-.21.9.03.14-1l.57-.57c-1.01-.68.05-1.97.29-2.87.17-.63.13-1.74.29-2.29.05-.19,1.61-2.05,1.72-2.58.07-.34-.08-.84,0-1.15.04-.14,1.53-1.87,1.72-2.29-.92-1.16.08-1.55.57-2.29.41-.61.74-1.94,1.15-2.58.33-.52,1.36-.88,1.43-1.15.11-.39-.12-1.75,0-1.86.06-.06.74.21,1.15-.43.08-.12.21-.73.29-.86.31-.49,1.87-.92,1.15-1.72,1.44-.84,1.32-3.25,2.44-3.87.72-.4.31-.34.72-1,.16-.27.8-.67.86-.86.06-.21-.06-.66,0-.72.16-.16,1.35-.13,1.72-.72.18-.28.51-1.51.57-1.58s.51.06.72,0c.14-.04,1.83-1.42,2.3-1.72.52-.33.48-1.53,1.15-1.72,1.16-.33,3.26-2.08,4.3-2.87.47-.35.94-1.38,1.15-1.43.45-.12,1.27.12,1.72,0,.36-.1.5-1.05.86-1.15.57-.16,1.63.12,2.3,0,.17-.03,1.16-.48,1.29-.72.08-.13-.05-.38,0-.43.27-.27,2.5-.48,3.01-1.15,1.13.36,1.75.3,2.87,0,1.25-.33,2.43-.37,4.02,0,.11.03.18.26.29.29.78.16,2.2.1,2.87.29.42.12.56,1.65,1.86,1.15ZM155.52,73.39c1.19.02,1.19-1.45,0-1.43v1.43ZM170.73,76.83c-.05-.05-.63.03-.86,0v.29h.57v.57h.29c-.03-.23.05-.81,0-.86ZM112.77,77.98c.27.77.98.78,1.43.14-.54-.78-.75-.17-1.43-.14ZM142.32,81.99h-.86v.57h.86v-.57ZM148.78,81.99c-.19,0-.19.29,0,.29s.19-.29,0-.29ZM118.22,90.59s-.02-.39,0-.57l-.57.43v.14c.18-.02.54.04.57,0ZM185.93,92.31l-1.72-.29v1.15c.49.1.85-.14,1.29-.29.38-.12.52.23.43-.57ZM105.74,92.59c-.19,0-.19.29,0,.29s.19-.29,0-.29ZM131.56,96.32c-.19,0-.19.29,0,.29s.19-.29,0-.29ZM170.58,96.32c-.19,0-.19.29,0,.29s.19-.29,0-.29ZM123.1,97.18c-.31-.31-.89.26-.57.57s.89-.26.57-.57ZM125.25,102.34c-.19,0-.19.29,0,.29s.19-.29,0-.29ZM99.57,106.64c-.22-.18-.8.09-.57.29.22.18.8-.09.57-.29ZM187.08,109.5c.18-.22-.09-.8-.29-.57-.18.22.09.8.29.57ZM126.83,110.65c-.22-.18-.8.09-.57.29.22.18.8-.09.57-.29ZM114.2,111.8h-1.43v.57c.63.03,1.24.13,1.43-.57ZM121.38,113.52l-.14-1.15c-1.78,1.56-3.37,3.66-5.16,5.16-.48.4-1.75,1.31-2.3,1.43-.27.06-.93-.07-1,0-.06.06.06.51,0,.72-.18.61-1.37.94-1.43,1-.05.05.08.29,0,.43-.61,1.09-2.4,1.82-3.3,2.44-.68.47-1.3,1.41-2.15,1.43-.23.23.48,1.04.57,1.29.49,1.32,1.15,2.7,1.15,4.16h.57v1.72h.57c.31.63,0,1.39,0,1.58,0,.13.98,1.73,1.15,2.29.14.45.27,1.09.29,1.58,1.04-.18,1.62.85,1.72,1.72.61.19,1.03-.44,1.58-.29.23.07,2.38,2.26,2.87,2.58,1.33.19,2.5.46,3.73.86s2.77.66,4.02.86c.52.08,1.11-.21,1.43.29.43-.76.93-.43,1.43-.57.16-.04.42-.53.57-.57.99-.27,2.53.62,3.73.29.16-.04.42-.53.57-.57,1.01-.28,2.64.11,4.02-.29.16-.05.42-.53.57-.57.69-.19,1.46.38,2.01.57,1.02.35,1.88.1,2.58,1.15.6-.75.66.52.72.57.04.04.81.04,1,0,.39-.08,1.09-.19,1.43-.29.64-.18.01-.8,1.72-.29.54.17.88-.45,1.43-.29.25.07.46.78,1,.57-.03-.36.42-1.35.72-1.43.18-.05.4.05.57,0,.1-.03.81-.77,1.15-.86.49-.13,1.26.03,1.72-.57.95.45,1.66-.17,2.58,0,.11.02.18.27.29.29.54.07,1.24-.1,1.72,0,.44.09,1.58,1.11,1.72,1.15.46.13,1.86.37,2.3.29,1.47-.27,2.28-.67,3.73-.29.22.06,1.35.57,1.43.57.1,0,.19-.29.29-.29.21,0,1.07.84,1.15.86.63.17,1.65-.19,2.01-.29.11-.03,1.82.46,2.01.57.29.17.75.74,1.15.86l.72-.14.29.43.86-.86.14.86c.39-.04.64-.05.86.29.93-.14,1.3-1.09,2.3-.86.11.03.17.25.29.29.48.14,1.18-.52,1.86-.29-.11-.83.14-.45.43-.57.12-.05.18-.26.29-.29.75-.17,1.31.48,2.01.29.54-.15.63-1.57,1-1.86-.56-.29.06-1.78,0-2.01-.03-.11-.26-.18-.29-.29-.08-.33.09-.84,0-1.15-.15-.56-1.2-.44-1.72-.43.1-1.08-.34-.4-.72-.29-.56.17-4.08-1.3-4.88-1.72-1.2-.64-1.74-1.5-2.87-2.01-1.15-.52-2.69-1.9-2.73-3.15l-1.15-.29c.22-.52-.29-.95-.29-1,0-.06.44-.28.29-.72-.23-.03-.53.06-.72,0-.1-.03-1.46-1.11-1.58-1.29l-.57-1.58-.57.14c.05.92-.83,1.59-.86,2.44h-1.43c-.28.82.52.5.57.57.26.35-.19.81-.29,1-.57,1.21-2.22,2.56-3.3,3.3-.2.13-.44.54-.57.57-.87.24-.81-.42-1.29.43-.32.56-1.3.53-1.86.72-1.12.37-1.25-.15-1.72,0-1,.31-2.56.46-3.73.29-.11-.02-.18-.26-.29-.29-.91-.18-2.05-.32-2.87-.86-.36-.24-1.58-1.72-1.72-1.72-.37.55-.37.04-.57,0-.22-.05-.66.05-.72,0-.05-.05.06-.28,0-.43-.05-.12-.25-.17-.29-.29-.09-.25-.09-.84-.29-1.15-.11-.18-.86-.68-1-.72-.24-.07-.62.07-.86,0-.57-.16-.38-1.1-.43-1.15-.05-.05-.3.08-.43,0-.9-.5-.72-2.24-.72-3.15.74.18.51-.3.86-.86-.66.24-1.49-.68-1.86-.57-.14.04-.25.44-.72.29.11-.94-.81-1.54-.57-2.58-.63.14-.66.91-.86,1.29-1.39,2.58-2.72,5.55-4.3,7.74-1.02,1.4-2.84,2.99-4.45,3.58-.63.23-1.38.18-2.01.29-.11.02-.18.27-.29.29-.4.05-1.7.08-2.01,0s-.57-1.07-1.15-.29c-.64-.33-.66-1.87-1.15-2.01-.45-.12-1.21-.14-1.72-.29-.07-.02-.92-.87-1-1-.04-.06.04-.2,0-.29-.05-.12-.24-.17-.29-.29-.06-.16.05-.39,0-.57-.03-.12-.27-.18-.29-.29-.11-.6.1-1.4,0-2.01-.02-.11-.29-.19-.29-.29s.27-.18.29-.29c.16-.95.02-1.52.29-2.58.23-.93.36-2.1.57-2.87.04-.16.53-.42.57-.57.19-.69-.11-1.62,0-2.29s-.16-1.73,0-2.29c.06-.2.81-.66.86-.86.07-.24-.05-.6,0-.86.02-.11.26-.17.29-.29.1-.37-.22-.41-.29-.57-.12-.29.26-.54-.57-.43ZM198.27,112.37c-.6-.07-.65-.03-.57.57l.57-.57ZM149.21,117.81h-.86v.29h.86v-.29ZM143.47,119.25c.18-.22-.09-.8-.29-.57-.18.22.09.8.29.57ZM92.54,124.69c-.19,0-.19.29,0,.29s.19-.29,0-.29ZM187.65,124.69c-.22-.18-.8.09-.57.29.22.18.8-.09.57-.29ZM173.02,126.41v-1.15h-.29v1.15h.29ZM154.37,126.7v-.86h-.29v.86h.29ZM187.37,126.99s-.02-.39,0-.57l-.57.43v.14c.18-.02.54.04.57,0ZM127.11,127.56c.49-.11.68.25,1,.57l.43-.72c-.36-.55-.82-.45-1.43-.43v.57ZM124.25,159.66c-.77-.08-1.69.11-2.44,0-.11-.02-.18-.26-.29-.29-.54-.11-.68-.14-1.15-.29-.17-.05-.39.05-.57,0-.13-.04-.38-.44-.57-.57-.07-.05-.23.04-.29,0-.24-.17-1.83-1.74-1.86-1.86-.05-.18.05-.4,0-.57-.04-.12-.27-.18-.29-.29-.08-.43.07-.99,0-1.43-.02-.11-.28-.18-.29-.29-.1-1-.15-3.66,0-4.59.02-.11.29-.19.29-.29,0-.2-.7-.92-.86-1.15-.17-.24-.22-.69-.72-1-.56-.35-1.43-.7-2.01-.86-.13-.04-.71-.9-1-.57-.15.17.76,1.49,0,1.86,1.27,1.44.51,3.55.86,5.16.02.1.55.76.57.86.39,1.79.08,4.6.29,6.59.35,3.34.59,7.56,0,10.89-.26,1.45-.12,2.66-.29,4.01-.31,2.48.1,5.73-1.43,7.74.32,1.9-.45,4.58-.86,6.59-.64,3.13-.9,6.41-1.72,9.46-.06.21.06.65,0,.72-.11.13-1.12-.38-.86.57.45.14.71-.52,1,0,.22.4.22,1.86.14,2.44-.02.2-.45.65-.29,1.43.07.31.84,1.05.86,1.15.14.5.1,1.38.29,2.01s1.04,2.09,1.15,2.58c.15.7-.24,1.33.72,1.86.14.08.38-.05.43,0,.18.18.2,1.28.29,1.58.1.37.95.55,1.29.72.59.29,1.48.6,1.86,1.29.44.79,1.22,1.08,1.72,1.58.06.06-.06.51,0,.72.1.34,1.13,1.39,1.58,1.58.4.17.54-.24.43.86.52.22.95-.29,1-.29.07,0,.31.43.43.29-.09-.89.8-1,1.58-.86.1.02.48.5,1,.29v.57c.79.2,1.45-.48,2.15-.29.34.09.43.88.86,1.15.07.05.23-.04.29,0,.28.2.47.68.86.57.28-.08.41-.81,1.43-.57,2.05.48,3.9-.07,5.45.29.11.02.29.45.86.29,1.46-.91,3.18-.95,4.88-1.43,1.48-.42,2.85-.16,4.3-.57.67-.19,2.05-2,3.16-.86.99-1.51,2.27-1.03,3.73-1.43.36-.1.76-.18,1.15-.29.17-.05,1.5-2.05,2.58-2.29.41-.09,1.06.1,1.43,0,.45-.12,3.11-2.77,3.44-2.87,2.07-.59,2.63-.77,3.87-2.72.35-.55.83-.45,1.43-.43v-.57c.56.23,2.47-1.18,2.58-1.58.07-.26-.08-.93,0-1,.05-.05.99.13,1.15-.43.11-.4-.02-.96.29-1.43.28-.45.86-.41,1.15-.86.25-.4.33-1.04.29-1.58h.86l.29-1.15c.35.05,1.97-1.17,2.01-1.29.09-.31-.09-.83,0-1.15.04-.16.53-.42.57-.57.07-.26-.08-.93,0-1,.05-.05.29.08.43,0,.2-.11.37-.45.57-.57.14-.08.73-.21.86-.29.15-.1.27-.31.43-.43-1.21-1.24.72-2.08.86-2.58.12-.44.14-1.21.29-1.72.08-.29,1.36-1.15,1.43-1.43.1-.38-.09-1.02,0-1.43.03-.12.39-.2.29-.57-.85-3.07.54-2.28.86-3.73.09-.41-.1-1.05,0-1.43.04-.16.53-.42.57-.57.09-.31-.09-.83,0-1.15.02-.09.78-.99.86-1.43.21-1.16-.8-2.33-.57-3.15.03-.09.79-.83.86-1.15.19-.86-.14-2.21,0-3.15.03-.23.73-.95,0-1.43,1.47-1.46-.68-4.03-.29-5.45.04-.16.53-.42.57-.57.34-1.23-.72-2.53.29-3.44v-.29c-.62-.82-1.1-1.49-.86-2.58.22-.98.04-2.31-.29-3.44-.11-.36.8-1.43.86-1.72.25-1.15-.27-1.16-.57-1.72-.09-.17-.2-.67-.29-.86s-.43-.24-.29-.72c-.51.04-1.08-.07-1.58,0-.23.03-.63.42-1.43.29s-.62.17-1.15.29c-.57.12-1.96-.28-2.15.43-.08.3.06.8,0,1.15-.18.98-.47,2.24-.86,3.15-.24.58-.77,1.72-1.15,2.29-.41.63-1.27,1.73-1.72,2.29-.23.28-1.04,1.14-1.29,1.29-.06.04-.2-.04-.29,0-.12.06-.18.26-.29.29-.53.12-2.23.05-2.87,0-1.61-.13-3.82-.56-5.45-.86-.8-.14-1.62-.35-2.01-.29-1.26.21-4.64-.65-6.03-.86-.45-.07-.99.07-1.43,0-.09-.01-.48-.51-1-.29l-.29-1.15c-1.08.13-.96-1.85-1.15-2.72-.02-.1-.55-.76-.57-.86-.21-.98-.1-2.64-.29-3.73-.02-.11-.45-.26-.29-.72l-.57.29c-.04-1.83-3.11.11-3.16-1.72-.59.02-.53.82-.57.86-.06.06-.51-.06-.72,0s-.66.8-.86.86c-.39.11-.79.19-1.15.29-.21.06-.66-.06-.72,0-.05.05.06.28,0,.43-.05.12-.25.18-.29.29-.2.67-.37,1.58-.57,2.29s-.32,1.65-.57,2.29c-.17.43-.62.8-.86,1.15-.05.07.04.23,0,.29-.54.71-1.35.95-2.15,1.29-1.86.79-3.98,1.6-6.03,2.01-.9.18-1.98.33-2.87.57-.47.13-.68-.7-1.15-.57-.22.06-.46.74-.86.57-.49-.36-1.04-.35-1.58-.86v.57ZM165.85,145.61c-.69-.1-1.22.14-1.15.86.24.24,1.08-.48,1.15-.86ZM131.13,146.76c.18-.22-.09-.8-.29-.57-.18.22.09.8.29.57ZM131.7,153.93s-.02-.39,0-.57l-.57.43v.14c.18-.02.54.04.57,0ZM166.14,153.93c-.8-.09-.45.05-.57.43s-.32.63-.29,1h1.15l-.29-1.43ZM109.47,188.03c-.19,0-.19.29,0,.29s.19-.29,0-.29ZM170.44,205.51c.18-.22-.09-.8-.29-.57-.18.22.09.8.29.57ZM145.91,222.13c-.19,0-.19.29,0,.29s.19-.29,0-.29ZM146.48,223.28c-.19,0-.19.29,0,.29s.19-.29,0-.29Z"/>
  <path class="cls-1" d="M138.02,188.32c.5.09.75-.45,1.29-.29,1.07.32.65.14,1.43,0,.8-.15,1.09.21,1.43.29.26.06.62-.07.86,0,.51.14,1.26,1.1,1.43,1.15s.4-.05.57,0c.8.23,1.39,1.8,1.58,2.44.04.14.92.7,1,.72.33.07.8-.06,1.15,0,.11.02.18.27.29.29.72.09,1.62-.12,2.3,0,.11.02.17.25.29.29.48.15,1.1-.06,1,.86.5.08.74-.44,1.29-.29.09.03,1.16,1.11,1.29,1.29.59.83.74.6.86.72.05.05-.08.29,0,.43.3.53.87.66.57,1.72-.04.16-.53.41-.57.57-.05.19.07.44,0,.57-.06.12-.23.17-.29.29-.04.09.04.23,0,.29-.38.59-.76.32-1,.43-.59.27-.9.76-1.72.57-.11-.03-.17-.25-.29-.29-.17-.05-.39.05-.57,0-.07-.02-.98-.94-1-1-.06-.21.06-.66,0-.72-.05-.05-.28.06-.43,0-.12-.05-.18-.26-.29-.29-.73-.17-1.08.29-1.15.29-.1,0-.18-.27-.29-.29-.41-.07-1.61-.07-2.01,0-.59.11-1.68.83-2.3,1.15-.18.1-.76.55-.86.57-.48.1-1.19-.07-1.72,0-.28-.48-1.45-.83-1.58-1.29-.05-.18.05-.4,0-.57-.03-.1-.76-.82-.86-1.15.04-.28-.06-.61,0-.86.03-.12.66-.73.43-1-.59.77-1.22,1.7-2.01,2.29-.06.04-.22-.05-.29,0-.35.24-.71.69-1.15.86-.16.06-.39-.05-.57,0-.12.03-.18.27-.29.29-.5.09-2.37.09-2.87,0-.11-.02-.17-.25-.29-.29-.17-.05-.39.05-.57,0-.05-.01-.65-.6-.72-.72-.04-.06.04-.2,0-.29-.05-.12-.24-.17-.29-.29-.06-.16.06-.4,0-.57-.29-.86-.86-3.05-1.72-3.01v-1.43c-.73.47-1.87.81-2.73.57-.34-.09-.75-1.21-1.58-.86.29.45.41,1.05.29,1.58-.02.1-.23.16-.29.29-.04.09.04.22,0,.29-.08.14-.57.62-.72.72-.22.14-2.71,1.4-2.87,1.43-.27.06-2.35.09-2.44,0-.05-.05.08-.29,0-.43-.4-.72-1.13-.56-.86-2.01.02-.11.27-.18.29-.29.08-.68-.06-1.46,0-2.15.05-.05.28.06.43,0,.42-.18,1.01-.67,1.43-.86.35-.16,1.24-.25,1.72-.57.26-.17.69-.81.86-.86.35-.1,1.47.1,1.58,0,.05-.05-.08-.3,0-.43.4-.7,2.86-1.4,3.59-1.86,1.11-.72,1.77-1.29,3.01-.86-.11-.6,1.14-1.62,1.58-1.72.33-.07.81.07,1.15,0,.1-.02.76-.55.86-.57,1.47-.32,1.55.73,2.01.86.18.05.4-.05.57,0,.24.07.77,1.09.72,1.29-.03.12-.29.19-.29.29s.27.18.29.29c.07.44-.1,2.05,0,2.15ZM131.99,189.18l.29-1.29c-.59-.25.07-1.26-.57-1.29l-.29,1.29-.57.57,1.15.72ZM140.31,193.19l2.58-.14c-.44-.62-1.2-.45-1.86-.43-.59.01-.83-.21-.72.57Z"/>
  <path class="cls-1" d="M146.62,161.66h.57c.05,3.1-.9,5.64-3.01,8.02-.68.18-1.36,1.05-2.01,1.43-.52.31-1.51.54-2.01.86-1.02.65.04,1.03.43,1.58.04.06-.05.21,0,.29.57.89.92.04,1.29.14.19.06.98.53,1.15.57.92.21,2.1-.86,3.16-.57.16.04.41.53.57.57.18.05.4-.05.57,0s.6.68.86.86c.05.04.62.07.72.43.29,1.06-.09,2.67-1,3.3-.34-.1-.94.53-1.15.57-.41.09-.99-.07-1.43,0-.11.02-.18.28-.29.29-1.03.11-2.98.11-4.02,0-.1-.01-.18-.27-.29-.29-.45-.07-1,.08-1.43,0-.11-.02-.17-.25-.29-.29-.19-.05-.42.06-.57,0-.59-.23-.95-.74-1.43-1.15-.04-.04-.21.05-.29,0-.7-.44-.38-1.26-1.43-2.01-.19-.13-1.27-1.2-1.29-1.29-.07-.27-.06-1.68,0-2.01.02-.12.52-.97.57-1.15.08-.29-.28-.24,0-1.15.11-.37.16-1.09.29-1.43.06-.17.44-.24.29-.72.29-.15,1.38-.23,1.43-.29s-.08-.29,0-.43c.31-.55.96-.86,1.58-.72.13.03.25.44.72.29.04-.28-.07-1.08,0-1.15.05-.05.29.08.43,0,.43-.24.92-.99,1.58-.86.05-.4-.08-.92,0-1.29.02-.1.55-.76.57-.86.09-.4.05-1.55,0-2.01-.01-.1-.28-.18-.29-.29-.08-.79-.13-2.47.72-2.72.73-.22.82.42.72-1.15l.72-.29c.16.13.79.56.86.57.51.11,1.62-.13,1.86.72.05.19-.07.43,0,.57.18.39.95,1.4.86,1.72-.07.25-.51.67-.29,1.29ZM143.47,158.22c-.84-.14-.74.38-.14.86h.14v-.86ZM140.6,167.11c-.68-.14-1.17.25-1.43.86l1.43.29v-1.15ZM142.61,167.11c-.31-.31-.89.26-.57.57s.89-.26.57-.57Z"/>
  <path class="cls-1" d="M126.54,199.21c.05.05-.08.29,0,.43.11.2.46.37.57.57.08.14-.05.38,0,.43.08.08,1.06.22,1.29.29.21.06.65.8.86.86s.66-.06.72,0c.08.08-.05,1.12,0,1.43.47-.15.53.21.72.29.26.11.68-.15,1,.43.1.17-.19.7.72.43.16-.05.42-.53.57-.57,1.16-.32,1.42.49,1.72.57.9.25,1.66-.77,2.3-.57.48.14,1.26.47,1.72.57.7.16.9-.22,1.15-.29.18-.05.41.06.57,0,.11-.04.17-.24.29-.29.15-.06.38.05.43,0,.05-.05-.08-.29,0-.43.06-.12,1.75-1.54,1.86-1.58.24-.07.62.07.86,0,.16-.04.42-.53.57-.57.18-.05.97-.05,1.15,0,.36.1.49,1.04.86,1.15.26.07.86-.06,1,.43.05.18-.05.4,0,.57.04.12.26.18.29.29.17.73-.4,1.16-.29,1.86l-1.15.29c-.09.08.72.59-.14,1.15-.13.08-.73.2-.86.29-1.28.78-2.87,1.63-4.3,2.01-1.04.28-2.05.17-3.16.29-.1.01-.18.28-.29.29-2.92.24-5.79-.73-8.46-1.15v-.57c-1.08.05-2.37-.55-3.3-1.15-.9-.58-.74-1.32-.72-2.29-.68-.13-1.17.48-1.86.29-.05-.01-.65-.6-.72-.72-.3-.5-.17-1.02-.29-1.43-.03-.13-.55-.75-.57-.86-.16-.7.2-.87.29-1.15.05-.17-.05-.39,0-.57.14-.5,1.05-.84,1.58-.72,1.11.26.92-.14,1.72-.29.22-.04,1.25-.05,1.29,0Z"/>
</svg>