<?xml version="1.0" encoding="UTF-8"?>
<svg id="zkouska_s_hlavamaa" data-name="zkouska s hlavamaa" xmlns="http://www.w3.org/2000/svg" viewBox="0 0 288.67 288.67">
  <defs>
    <style>
      .cls-1 {
        fill: none;
        stroke: #fbf1e1;
        stroke-linejoin: bevel;
        stroke-width: 1.5px;
      }
    </style>
  </defs>
  <path class="cls-1" d="M135.3,50.75c.06.06-.19.63.72.86.35-.38,2.53.09,2.73.29.15.15-.35.14.43.57.33.18.92,1.08,1.15,1.15.26.07.93-.08,1,0,.06.06-.06.51,0,.72s.71.59.86.86c.35.63,1.32,1.61,1.72,2.58.35.83.41.27.57.43.19.19.05,1.52.86,1.15-.2.87.73,2.11.86,2.73.08.37.26,1.24.29,1.43.09.76-.07,1.65,0,2.44-.43-.08-.75,0-.57.43.44,1.1.79,1.42.57,2.87-.01.08-.35.2-.29.86.1,1.13,1.16.66,1.86.43.28-.09,1.62-.57,1.72-.57s.18.27.29.29c1.45.25,2.19.6,3.44-.57.3.47.85.1,1.15.57,1.13-1.56,3.44-.41,4.88-1.72.52-.1,1.26.81,1.43.86.44.12,1.21-.09,1.72,0,.11.02.19.29.29.29.08,0,1.35-.57,1.43-.57.07,0,.2.39.57.29.2-.06.66-.81.86-.86.79-.22,1.42.36,2.15.29v.57h.29v-.57c.69.06,1.48-.08,2.15,0,.47.06,2.54.67,2.87.57.12-.03.19-.29.29-.29.11,0,.41.53.57.57.6.17,1.09.11,1.58.72.2.25.39.28.29.72l.29-.57c.47.08,1.17-.11,1.58,0,.16.04.42.53.57.57.39.11,1.75-.12,1.86,0,.05.05-.08.29,0,.43.53.96,1.16.57,1.86.72.64.13,1.96,1.01,2.58,1.43.28.19,1.51.79,1.58.86.1.1-.28.98.43,1.43,1.15.73,2.38,2,3.44,2.87,2.35,1.92,5.16,8.53,5.88,11.33,1.81,7.03,1.76,14.51,1.43,22.09-.07,1.67.05,3.35,0,5.02.84-.14.45.21.57.43.35.63,1.38,1.19,1.15.14,1.01-.12,2.48-.53,3.59-.29.53.12,1.03.9,1.43,1.15.45.27,1.27.31,1.72.57.15.09,1.27,1.2,1.29,1.29.11.4-.62.53.14,1,.73.46.88.4,1.29,1.29.38.82.61,1.41.86,2.3.56,1.96.87,3.33.29,5.45-.1.38.26.46.29.57.25,1.11-.93,4.55-1.43,5.74-2.94,6.98-8,12.03-15.35,14.2-.36.11-.39.66-.43.72-.24.35-.98.72-.86,1.15.73.58.08,1.54,0,2.01-2.07,11.52-5.01,22.74-8.03,33.86-1.87,6.85-3.84,13.94-5.74,20.95-3.2,11.84-9.09,25.29-22.52,29.12-1.16.33-1.61.38-2.87.57-.11.02-.18.28-.29.29-1.3.13-3.87.13-5.16,0-.1-.01-.18-.27-.29-.29-.45-.07-1,.07-1.43,0-.57-.09-1.56-.82-1.72-.86-.24-.07-.62.07-.86,0-.47-.13-.21-.83-1.15-.57-.36.1-3.83-2.18-4.3-2.58-.31-.26-2.11-2.01-2.15-2.15-.36-1.22-.7-2.29-.57-3.59-.75.09-1.44-1.68-1.72-2.44-.12-.33-.18-1.07-.29-1.43-.06-.21-.81-.66-.86-.86-.05-.19-.05-.94,0-1.15.02-.1.55-.76.57-.86.25-1.14-.75-1.98-.57-2.58.03-.12.29-.19.29-.29,0-.11-.41-.91-.29-1.72.09-.59.98-1.89.86-2.3-.07-.25-.79-.43-.57-1.15s.05-1.23.29-2.3c.3-1.34.03-2.92.29-3.73.4-1.25.55-2.52.86-3.73l-.57-.86.57-.43-.57-.14c.13-.6-.74-1.76-.57-2.3.31-.44.7-1.45.57-2.01-.11-.46-.36,0,0-.86.12-.29-.26-.55.57-.43v-.57c-1.22.02-.74-1.03-.86-1.86-.02-.11-.27-.18-.29-.29-.08-.6-.12-1.64.29-2.01-.22-.14-.55-.67-.72-.72-.21-.06-.66.06-.72,0s.06-.51,0-.72c-.03-.12-.27-.18-.29-.29-.32-1.71-.69-3.29-1.15-4.88-.24-.84-.13-1.44-.29-2.01-.07-.24-1.08-.9-1.15-1.15-.05-.17.05-.39,0-.57-.03-.12-.29-.19-.29-.29s.26-.17.29-.29c.22-1.07-.49-.5-.86-1.15-.34-.6-.8-.64-.86-.86-.31-1.08-.47-.77-.86-1.43-.71-1.19.21-1.84-1.86-2.44-.73-.21-1.78-2.23-2.15-2.73-.5-.67-1.61-1.01-2.01-1.72-.12-.22.27-.57-.57-.43.09-.65-.42-1.68-1-2.01-.14-.08-.38.05-.43,0-.16-.16.4-.23-.43-.57-1-.42-1.67-.49-2.44-1.58-.81-1.15-1.34-.47-1.72-1.15-.42-.73-1.2-.75-2.01-2.01-.42-.66-.83-.3-1.29-.43-.36-.1-5.17-4.16-5.59-4.73-.44-.6-.28-.99-1-1.29-.76-.32-1.02-.52-1.29-1-.48-.86-2.3-.8-2.3-2.15-.06-.08-.5.44-1,.29-1.17-.36-1.35.2-2.3,0-.76-.16-.29-.54-1.43-.29-.22.05-1.52.06-1.58,0-.04-.04.03-.68-.43-.86-.58.82-3.57-.76-3.87-1.29-.08-.13.05-.38,0-.43-.15-.15-.59.48-1.43-.72-.88-1.25-2.6-1.74-2.87-2.73h-.57c.14-.84-.21-.45-.43-.57-.57-.32-.48-.77-1.15-1.15-.62-.35-.41-1.07-.43-1.72-.82.22-.76-.98-1.15-1.58-.29-.44-1.65-1.45-1.72-1.72-.27-.98.49-2,.29-3.01-.85.13-.8-.87-1.43-1.29.18-.46.82-.39.86-.43s.04-.81,0-1c-.02-.08-.2-.52-.29-.86s-.51-1.13-.57-1.43c-.23-1.04.5-1.15.57-1.43.19-.68-.2-1.48.29-2.3.17-.29.66-.56.86-.86.36-.53.43-1.68,1.43-1.58-1.15-1.88.64-1.81,1.15-2.73.44-.79.12-.19,1-.43.15-.04.38-.47.57-.57,1.65-.89,2.73-.52,4.45-.29v-.57c1.09.44,1.81-.48,2.15-.57.31-.08,1.2.09,1.29,0,.05-.05.07-.79.72-1.15.14-.08.38.05.43,0,.05-.05-.06-.28,0-.43.05-.12.25-.18.29-.29.15-.49-.48-1.01-.29-1.72.08-.28,1.4-1.59,1.43-1.72.12-.43-.13-2.03,0-2.15.06-.06.52.07.72,0,.14-.05,1-.62,1-.72-.55-.37-.03-.38,0-.57.1-.57.18-.75.29-1.15.24-.89.12-2.23,1-2.73.14-.08.38.05.43,0s-.08-.29,0-.43c.18-.33,1.08-.92,1.15-1.15.12-.45.14-1.21.29-1.72.06-.19.71-.59.86-.86.08-.14-.05-.38,0-.43.07-.07.87.04,1.15,0-.09-.61-.45-1.13-.29-1.86.04-.16,1.23-2.49,1.43-2.87.32-.57,1.11-1.43,1.43-2.01.08-.14-.05-.38,0-.43.07-.07.87.04,1.15,0,.2-1.36,1.59-1.73,1.15-3.44.22-.04,1.11-.24,1.15-.29.05-.05-.08-.29,0-.43.37-.66,1.93-1.92,2.3-2.58s1.09-1.08,1.86-1.58c.49-.31,1.13-1.89,1.29-2.44.05-.16.53-.41.57-.57.14-.47-.07-1.08.86-1l-.72-.57c-1.04-.61-6.81-3.67-7.03-4.45-.05-.18.05-.4,0-.57-.1-.34-2.56-.92-1.72-2.01-1.1-.64-.61-.4-.86-1.15-.11-.35-.84-1.06-.86-1.15-.24-.86-.34-2.01-.57-2.87-.17-.61-1.77-1.03-1.43-2.87.03-.15.45-.43.29-1.15-.24-1.03.03-1.6,0-1.72-.04-.16-.29-1.07-.29-1.15,0-.12,1.04-1.53,1.15-2.01.16-.74-.52-1.45-.29-2.3.04-.14,1.36-1.54,1.58-1.86,1.08.14.57-.16.72-.72.03-.11.26-.18.29-.29.06-.27-.07-.93,0-1,.05-.05.28.06.43,0,.12-.05.17-.24.29-.29.15-.06.39.05.57,0,.52-.15,1.52-1.95,1.72-2.01.31-.09.83.09,1.15,0,.21-.06.82-.93,1.15-1.15.92-.61,2.66-.97,3.44-1.43.36-.21,1.61-1.4,1.72-1.43.39-.11,1.05-.17,1.43-.29.16-.05.42-.53.57-.57.68-.19,1.45.52,2.3.29.2-.06.66-.81.86-.86.31-.08.81.07,1.15,0,.54-.11,1.65-.69,2.3-.86,1.62-.43,3.8.13,5.45-.86h.29c.98,1.45,2.83.53,4.02.86.23.06.82.96,1.15,1.15.14.08.38-.05.43,0ZM112.35,61.36c-.22-.18-.8.09-.57.29.22.18.8-.09.57-.29ZM139.32,63.95l-.57-.57c-.07.6-.03.65.57.57ZM126.12,67.39c.06-1.02-1.14-1.2-1.72-.43.41.62,1.03.41,1.72.43ZM139.75,68.25c-.19,0-.19.29,0,.29s.19-.29,0-.29ZM162.99,70.83c-.19,0-.19.29,0,.29s.19-.29,0-.29ZM155.39,74.85c.18-.22-.09-.8-.29-.57-.18.22.09.8.29.57ZM122.54,74.56c-.19,0-.19.29,0,.29s.19-.29,0-.29ZM122.54,75.14c-.19,0-.19.29,0,.29s.19-.29,0-.29ZM112.92,77.43h-.86v.29h.86v-.29ZM152.81,80.3l1.29.57c.69-.47.37-1.28.43-2.01-.47-.08-.23.71-.72.86-.35.11-.87-.11-1,.57ZM166.86,88.62c-.12-.12-.56.04-.72.29-.52.82.95,1.22,1.29.43l-.57-.29c-.03-.17.04-.39,0-.43ZM155.39,89.2s-.39.02-.57,0l.43.57h.14c-.02-.18.04-.54,0-.57ZM148.21,92.07l1.43-.72-1.72-.72.29,1.43ZM178.34,96.37l-1.72.14c.38.26.43.47.57.86.1.27.53.05.72.43l.43-1.43ZM158.26,98.38c-.22-.18-.8.09-.57.29.22.18.8-.09.57-.29ZM109.19,98.66h-.86c-.22,1.24,1.06.16.86,0ZM175.9,103.26c-.19,0-.19.29,0,.29s.19-.29,0-.29ZM166.58,105.55c-.05-.05-.29.08-.43,0-.53-.29-.24-.9-.72-.86-.11,1.02-.91,1.68-1.43,2.44-1.17,1.69-3.06,4.25-4.45,5.02-.66.37-2.04,1.99-2.87,2.58-5.84,4.16-14.17,6.63-21.23,5.74-1.01-.13-2.43-.41-3.44-.57-.4-.06-.88.04-1.29,0,.14-1.2-.63-.18-1-.29-.16-.04-.42-.53-.57-.57-.37-.1-1.6-.02-1.86-.29-.05-.05.05-.52,0-.57-.03-.03-.68-.29-.72-.29-.05,0-.29.45-.86.29-.21-.06-.66-.81-.86-.86-1.29-.35-2.21-.75-3.44-1.43-.56-.31-.8-.64-1-1-.34-.62-1.6-.98-2.01-1.72-.47-.85-1.02-.59-1.15-.72-.42-.43.46-.36-1.29-.86-.33-.1-1.05-1.33-1.58-1.43l-.29,1.58c-1.93,3.24-1.23,7.42-2.01,10.9-.03.13-.45.26-.29.57.41.28.91.76,1.29,1,1.01.66,1.79.55,2.87.86.16.05.42.53.57.57,1.3.36,1.18.35,2.3.86.73.33.84.16,1.43.29s1.34,1.03,2.01,1.15c1.07.19,1.97-.35,2.73,1,.08.14-.05.38,0,.43.14.14,1.81.19,2.15.29.28.08.4.8,1.43.57.1-.02.76-.55.86-.57.71-.15,1.8.11,2.58,0,.15-.02,1.29-.55,1.43-.57.44-.06,1.59-.07,2.01,0,.1.02.16.24.29.29.29.12.54-.26.43.57h1.15c-.11-.83.14-.45.43-.57.75-.32.91-.76,2.01-.57.16.03.67.23.86.29.28.08.58-.09,1.15,0,.89.15,1.74-.21,2.58.29.27.16.68.81.86.86s1.52.06,1.58,0-.08-.29,0-.43c.15-.27,1.19-1,1.29-1,.09,0,.17.25.29.29.22.06,2.4-1.06,2.87-1.15.35-.06,2.01-.08,2.3,0,.16.04.41.53.57.57.53.15,1.68-.81,2.3,0,1.84-1.33,3.2-.21,4.88.57.14.07.38-.05.57,0,.42.12.48,1.07,1.72.86.11-.02.19-.29.29-.29s.19.29.29.29c.35,0,1.35-.84,1.43-.86.47-.13,1.32.09,1.86,0l.29.57.14-.57c.53.24,1.06-.27,1.15-.29,1.83-.28,4.05-.06,5.74-.57.3-.09,2.45.56,3.44.29.24-.07.42-.79,1.15-.57.13.04.76.55.86.57.91.2,2.06-.98,2.87.29.08,0,1.24-.82,1.43-.86.27-.06.93.07,1,0,.05-.05.41-1.03.57-1.29s1.45-1.22,1.58-1.29c.54-.31.58-1.36,1.15-1.72,1.33-.85.87-1.3,1-1.43.05-.05.28.06.43,0,.12-.05.19-.27.29-.29.38-.07.88.05,1.29,0l-.29-.72c1.07-.73.9-1.53.86-2.73-1.26-.08-2.63.11-3.87,0-1.48-.13-4.08-.79-5.45-1.43-.43-.2-1.19-.05-2.01-.29-.25-.07-.91-1.08-1.15-1.15-.52-.14-1.49-.14-2.01-.29-.28-.08-1.16-1.36-1.43-1.43-.38-.11-1.05.11-1.43,0-.22-.06-2.16-1.77-2.58-2.01-.64-.36-1.44-1.54-2.3-2.3s-2.26-1.84-2.73-2.73c-.51-.97-.76-.61-.86-.72-.05-.05.05-.52,0-.57ZM107.47,106.12c-.3-.32-1.81,1.08-1.43,1.72.75-.33,1.61-.71,1.43-1.72ZM123.25,111.58c-.24-.24-1.08.48-1.15.86h1.15v-.86ZM141.33,112.44c-.31-.31-.89.26-.57.57s.89-.26.57-.57ZM126.12,113.58c-.22-.18-.8.09-.57.29.22.18.8-.09.57-.29ZM106.75,114.73c-.19,0-.19.29,0,.29s.19-.29,0-.29ZM201.58,122.48l-.14-1.43c-.45.16-.39.83-.43.86-.12.11-1.7-.08-2.15,0-.05,0-.75.24-.86.29-.17.07-.96.57-1,.72-.07.24.05.6,0,.86-.02.11-.39.2-.29.57.27.98-.19,2.14-.29,3.16-.07.73.11,1.62,0,2.3-.02.11-.45.26-.29.72.63-.49,1-.73,1.86-.57.11.02.17.25.29.29.17.05.39-.05.57,0,.83.24.63,1.32.72,1.86.02.11.28.19.29.29,0,.04-.53.48-.29.72.07.07.59-.16.57.14-.53,1.09-1.89,1.54-2.58,2.58-.15.22-.84,1.9-.86,2.01-.14.77.19,1.56-.29,2.3-.36.56-1.41.61-1.72,1.15-.12.22.27.57-.57.43-.03.77.44,1.29.29,2.15-.02.11-.27.18-.29.29-.07.49.05,1.07,0,1.58.52-.47.75.17,1.29,0,.44-.14,1.46-.8,1.72-.86.46-.1,2.01.12,2.15,0-.39-.55-.29-1.08-.29-1.72l1.72-.29c.06-.39-.09-.95,0-1.29.22-.8,2.42-1.34,2.01-2.44.28.38,1.4-1.46,1.43-1.58.1-.35-.1-1.47,0-1.58.05-.05.3.08.43,0,.7-.4.57-2.52,1.58-2.3.2-.6-.45-1.04-.29-1.58.33-1.1.02-3.05-.29-4.3-.03-.11-.27-.18-.29-.29-.09-.48.11-2.33,0-2.44-.8.31-.47-.71-1-.86-1.23-.35-.91-.81-2.01-1.43-.22-.13-.25-.42-.72-.29ZM93.7,125.35s-.39.02-.57,0v.86c.13.16.81-.62.57-.86ZM91.98,140.56c-.05-.05-.3.08-.43,0-.61-.35-.35-1.29-.72-1.86-.28-.45-.86-.41-1.15-.86-.02-.03-.26-.5-.29-.57-.06-.16.05-.39,0-.57-.03-.12-.27-.18-.29-.29-.16-.86.04-1.35.72-1.86.06-.05.23.04.29,0,.56-.44.98-.93,1.58-1.29.19-.27-.29-.48-.29-.57s.27-.18.29-.29c.16-.93.21-2.08,0-2.87-.03-.12-.29-.19-.29-.29,0-.07.39-.2.29-.57-.02-.07-.94-.98-1-1-.18-.05-.4.05-.57,0-.12-.04-.18-.27-.29-.29-.35-.06-1.37-.06-1.72,0-.11.02-.17.26-.29.29-.42.1-1.03.17-1.43.29-.14.04-.38.44-.57.57-.07.05-.23-.04-.29,0-.99.72-1.42,1.63-1.86,2.73-.35.84-.35,1.21-.57,2.01-.03.13-.54.74-.57.86-.1.38.26.46.29.57.07.33-.07.8,0,1.15.27,1.37.76,2.88,1.15,4.3.04.16.53.42.57.57.13.47-.13,2.3,0,2.44.05.05.29-.08.43,0,.38.21,1.05.93,1.43,1.15.14.08.38-.05.43,0,.06.06-.06.51,0,.72.07.24.96.81,1.15,1.15.41.73.41.46,1.29.72.46.13.75,1.21,1.15,1.43.28.16.58-.29.43.86.44.18,1.47-.54,1.72-.29.05.05-.08.29,0,.43.63,1.14,1.74.55,2.73.72.11.02.26.45.72.29.16-.43-.29-.67-.29-.72s.46-.3.29-.86c-.03-.11-.23-.16-.29-.29-.38-.82-1.31-1.02-1.43-1.43-.44-1.48-.59-2.2-1.86-3.01-.53-.34-.57-1.54-.43-2.15.03-.12.39-.2.29-.57-.01-.05-.26-.69-.29-.72ZM191.83,128.22c-.17.16-.56-.7-1-.57-.19.05-2.67,2.54-2.73,2.73-.12.45.11,1.23,0,1.72-.05.21-.69,1.12-.86,1.43-.35.62-.58.96-1.43,1l.29.72c-1.16,1.84-3.01,3.25-5.02,4.16-2.03.92-4.9,2.54-6.6,2.01-1.43,1.13-4.43.5-5.74.29-.6-.1-1.45.12-2.01,0-.1-.02-.16-.23-.29-.29-.09-.04-.23.04-.29,0-.18-.1-1.19-1.12-1.29-1.29-.03-.05-.28-.54-.29-.57-.07-.24.07-.62,0-.86-.19-.67-1.36-.32-1.86-.43-.09-.02-.97-.58-1-.72-.17-.6-.27-1.49-.57-2.01-.38-.63-1.67-1.16-1.43-2.01.07-.24.77-.45.57-1l-1,.57c-.41-.41-1.15-.43-1.72-.57-.83-.21-1.16-.18-2.01-.29-.11-.01-.18-.27-.29-.29-.45-.06-1.27-.06-1.72,0-.11.01-.18.27-.29.29-1.03.18-2.2.22-3.16.57-.36.13-1.05.63-1.43.86-.07.04-.22-.04-.29,0-.69.44-1.35,2.15-1.86,3.01-2.05,3.44-5.38,5.67-9.32,6.46-.11.02-.18.27-.29.29-.66.1-1.47-.07-2.15,0,.03-1.37-.72-.08-1,0-.75.21-1.36-.29-1.43-.29-.1,0-.19.29-.29.29s-.18-.27-.29-.29c-.27-.05-.63.06-.86,0-.2-.06-.66-.81-.86-.86-.76-.21-1.91-.17-2.58-.57s-4.02-3.37-4.16-3.87c-.16-.57-.28-1.17-.57-1.72-.11-.2-.53-.43-.57-.57-.16-.58,0-1.57-.29-2.3-.09-.22-.51-.87-.72-1-.52-.33-1.16-.6-1.72-.86-.61-.28-1.04-.39-1.43-.57-1.16-.53-1.1-.74-2.58-1.15-.25-.07-.56-.88-1.29-.57l-.29-1.15-.57,1.15-.86-.29c.05.4-.08.93,0,1.29.03.12.39.2.29.57-.19.67,0,.41,0,.57,0,.08-.86,1.35-.86,1.43,0,.07.54.73.29,1.29h.57v2.01c.37-.3,1.33,1.21,1.43,1.58.56,2.05.74,4.14,1.72,6.03,1.11,2.14,2.22,4.52,2.87,6.89.03.13.55.75.57.86.2.94-.28,1.72,1,2.44.65.36.33.19.72,1,.7,1.48,1.93,3.24,2.3,4.59.12.44-.22.92.43,1.29.13.08.38-.05.43,0,.09.09-.08.98,0,1.29.09.34.88.43,1.15.86.3.48.41,1.43.57,2.01.12.41,1.57,1.88,1.72,2.58.09.41-.1,1.06,0,1.43.07.24,1.18,1.05,1.43,1.43.61.92.99,2.48,1.43,3.44.48,1.04,2.2,2.64,1.43,3.73.18.46.82.39.86.43.1.1-.1,1.23,0,1.58.04.15.82.64,1,.72.15.06.38-.05.43,0s-.06.28,0,.43c.96,2.3,2.73,4.45,3.73,6.6.2.43.36,1.09.72,1.29.74.42,1.51,1.6,2.15,2.44s1.43.81.14,1.86c-.28.14.21.55.29.57.39.1,1.05-.11,1.43,0,.15.04,1.32.85,1,1.15,2.33.08,3.42,2.45,5.59,3.16.84,1.17.84,1.66,2.3,1.15,1.9.92,4.21,1.59,5.74,2.01.15.04,1.82-.44,2.3.29.86-1.25,1.35-.14,2.01,0,.77.17,1.24-.05,2.01.57l2.3-.86c.56.29,1.14,1.03,1.72.86.49-.14.36-.75.43-1,.02-.05.53-.81.57-.86.92-1.21,1.48-.45,2.44-.72.18-.05.61-.7.86-.86l1.43-.29c.71-.53.21-.49.14-.72-.18-.65,1.15-.99,1.43-1.43.25-.4,1.12-1.34,1.15-1.43.24-.88-.36-.57.43-1,.74-.42,1.29-1.73,1.72-2.01,1.8-1.15,1.36-2.98,1.86-4.73.18-.61.56.05.29-1.15-.31-1.36.72-1.15.86-1.29.29-.29.68-3,.57-3.73,1.26.09.71-1.99.86-3.01.13-.91,1.05-1.94,1.15-2.3.11-.38-.11-1.05,0-1.43.05-.18.99-.96.86-1.43-.03-.12-.29-.19-.29-.29,0-.11.43-.91.29-1.72-.27-1.54.1-.74.29-1.43.24-.87.2-2.01.57-3.16.06-.19.49-.45.29-1h.57c-.51-.75-1.15-1.09-.86-2.15.13-.46.82-.39.86-.43.1-.1-.1-1.23,0-1.58.08-.28,1.33-1.52,1.43-2.01.21-.99.06-2.66.29-3.73.07-.32.83-1.04.86-1.15.07-.23-.15-.9,0-1.72s-.17-2.07,0-2.87c.06-.3,1.08-1.91,1.43-1.58.08-.7.83-1.59-.29-1.43v-.57h-.86c.05-.4-.08-.92,0-1.29.11-.49,1.36-1.73,1.43-2.01.16-.57-.12-1.63,0-2.3,0-.04.26-.69.29-.72.04-.04.73.03.86-.43.19-.68-.27-1.04-.29-1.15-.2-1.32-.1-2.28-.29-3.44-.06-.39.04-.88,0-1.29.98.14.62-.51,0-1,.43-.24.21-.58.29-.86.05-.16.53-.41.57-.57.11-.38-.69-.7,0-1.15l.29-1.58-.57.57ZM155.53,129.65c-.19,0-.19.29,0,.29s.19-.29,0-.29ZM126.12,132.81h-.86c-.08.55.31.94.86.86v-.86ZM174.61,133.96s-.02-.39,0-.57l-.57.43v.14c.18-.02.54.04.57,0ZM90.97,149.45c-.19,0-.19.29,0,.29s.19-.29,0-.29ZM136.74,193.06h-.57v.86h.29c-.12-.43.2-.52.29-.86ZM146.78,200.24c-.05-.05.08-.3,0-.43-.24-.42-.73-.37-1-.72l-.72.29c.35.65.88.67.29,1.43.58.07,1.52.35,1.43,1.15l.57-.14-.57-1c.59.07.65.04.57-.57-.18-.02-.54.04-.57,0ZM147.93,203.1c.25-.25-.37-1.06-.86-.86l.29.86c.18-.02.54.04.57,0ZM138.75,203.68v-1.15l-.57.43.29.72h.29ZM164.43,204.25l-.43.72-.29,1.43c.84,1.04,1.91-.16,2.58-.86v-.57c-.44-.61-1.25-.38-1.86-.72ZM144.2,207.12h-.57v.86h1.15v-.29h-.57v-.57ZM165.72,218.31c.07-.07.66-1.3.86-1.58.55-.78,1.19-1.53,1.72-2.3.25-.36.64-.69.86-1.15.16-.4-.51-.64-.57-.86-.07-.24.07-.62,0-.86-.02-.07-.87-.92-1-1-.06-.04-.2.04-.29,0-.12-.06-.18-.26-.29-.29-.71-.16-1.09.35-1.72.29-1.21,1.6-1.85,3.31-3.44,4.59-.99.79-2.21,1.37-3.44,1.72-.12.03-.18.27-.29.29-.43.08-.99-.07-1.43,0-.11.02-.18.27-.29.29-1.04.13-1.81-.18-2.73-.29v-.57l-.86.29v-.86c-.5-.05-1.1.08-1.58,0-.11-.02-.19-.29-.29-.29s-.19.29-.29.29c-.05,0-.7-.5-.86-.57-.15-.06-.38.05-.43,0-.05-.05-.13-1.15-.29-1.43-.7.06-2.51-1.79-2.87-2.44-.08-.14.05-.38,0-.43s-1.11-.18-1.29-.57c-.53.46-1.43.33-1.86,1-.08.13-.2.69-.29.86-.06.12-.26.18-.29.29v.29c.43.24.21.57.29.86.03.11.26.17.29.29.07.24-.07.62,0,.86.08.3,1.92,1.77,2.3,2.3.58.82,1.86,1.52,2.3,2.3.08.14-.05.38,0,.43.34.34,1.71.17,2.15.29.24.07.91,1.08,1.15,1.15.35.1,1.47-.1,1.58,0-.17.52.24.69.72.86.24.09.63-.15.86.29.42.12.69-.81,1.72-.57,1.2.28.53-.11,1.15-.29.73-.21.89.5,1.15.57.91.27.62-.26.72-.43.36-.64.83-.32,1.29-.43.11-.03.18-.27.29-.29.48-.07,2.34.1,2.44,0,.05-.05-.08-.3,0-.43.23-.41,1.61-1.3,2.01-2.01.3-.53.82-.39.86-.43ZM150.94,211.14c-.19,0-.19.29,0,.29s.19-.29,0-.29ZM145.92,228.64c.49-.11.68.25,1,.57l.43-.72c-.36-.55-.82-.45-1.43-.43v.57ZM146.35,235.53c-.19,0-.19.29,0,.29s.19-.29,0-.29Z"/>
  <path class="cls-1" d="M158.83,145.43h-1.15c-.21,1.02,1.09.8,1.15.86.04.04.04.81,0,1-.69,3.35-1,6.85-1.43,10.33-.11.92.09,1.78.29,2.58.4,1.62.64,3.3,1.15,4.88.37,1.14.93,2.35,1.43,3.44.26.56,1.32,2.06,1.72,2.58.66.87,1.77.72,1.43,2.15.58.26,1.56.77,2.15,1.15.11.07.89,1.1,1,1.29.04.07-.04.21,0,.29.1.19.54.73.57.86.07.24-.06.6,0,.86.02.11.27.18.29.29.08.52.1,2.41,0,2.87-.02.1-.24.16-.29.29-.39,1.71-1.73,2.52-3.01,3.3-.87.16-1.88.46-2.87.29-.08-.01-.3-.46-.86-.29-2.15.65-2.15-.43-3.73-.86-.24-.07-.62.07-.86,0-.15-.04-.65-.83-.72-1-.06-.16.05-.39,0-.57-.03-.12-.27-.18-.29-.29-.11-.58-.07-1.25.43-1.58.13-.08.7-.2.86-.29.2-.11.43-.53.57-.57,1.01-.28,2.41,1.02,3.16,1.72h.29c.57-.7,1.37-.44,2.01-.57.11-.02.18-.26.29-.29.3-.06.68.04,1,0,.32-1.15-.74-1.03-.86-1.15-.08-.08-.22-1.06-.29-1.29-.11-.37-1.05-.5-1.15-.86-.07-.26.08-.93,0-1-.09-.09-1.25,0-2.01-1-.44-.58-1.46-2.5-1.86-2.73-.14-.08-.38.05-.43,0-.04-.04-.17-.67-.29-1-.53-1.53-.9-3.36-1.72-4.88-.37-.67-.94-.55-.29-1.72-.47-.7-1.27-2.15-1.43-2.87-.04-.18-.04-.97,0-1s.68.03.86-.43c-.61-.46-.13-1.19.29-1.72-.47-.38-.69-.66-.57-1.29h-.57c.04-.32-.06-.72,0-1,.07-.32.84-1.05.86-1.15.23-.84-.88-2.02.29-3.16l-.57-.86v-.57c.13-.16.56-.79.57-.86.11-.53-.13-2.88,0-3.01.04-.04.68.03.86-.43-.56-.58-.4-1.55.29-2.01-.3-.12-.11-.75,0-1.15.19-.67,1.53-.89,2.15-.72.13.04.38.44.57.57.07.05.23-.04.29,0,.68.51.87,1,.72,1.86-.02.11-.44.26-.29.72Z"/>
</svg>