<?xml version="1.0" encoding="UTF-8"?>
<svg id="zkouska_s_hlavamaa" data-name="zkouska s hlavamaa" xmlns="http://www.w3.org/2000/svg" viewBox="0 0 288.67 288.67">
  <defs>
    <style>
      .cls-1 {
        fill: none;
        stroke: #fbf1e1;
        stroke-linejoin: bevel;
        stroke-width: 1.5px;
      }
    </style>
  </defs>
  <path class="cls-1" d="M214.63,59.61c.05.05-.05.52,0,.57s.29-.08.43,0c.12.06,1.55,1.75,1.58,1.86.1.38-.09,1.02,0,1.43.02.1.55.76.57.86.11.49-.12,1.27,0,1.72.04.16.53.42.57.57.35,1.26.29,2.75.29,4.16h.57c.18,2.26,1.44,5.21.86,7.31.88,1.49.83,3.44,1.15,5.16.18.97-.57,2.16-.29,3.3h.57c-.17,3.14.23,6.49,0,9.6-.05.68-.44,2.14-.57,2.87-.5,2.79-.89,5.51-1.72,8.31-.08.26-.57.52-.86.43.24.4.4.79.29,1.29-.03.11-.25.17-.29.29-.76,2.64-2.45,5.73-4.02,8.02-.72,1.06-1.85,2.11-2.58,3.15-3.36,4.76-9.95,9.33-15.06,12.18-1.77.98-4.13,2.51-6.17,2.58.08.75-1.93,1.39-2.73,1.72-5.1,2.09-10.26,3.2-15.49,4.59-.17.04-.48.5-1,.29-.15.47.23.55.29.72.4,1.14.82,2.44,1.15,3.73.49,1.9,1.22,3.71,1.72,5.73.17.69.93,4.34.86,4.59-.41,1.41.7,1.41.86,2.01.18.65-.18,1.93,0,2.58.16.57.85.76.57,2.29-.27,1.54.1.74.29,1.43.1.37-.07,1,0,1.43.02.11.27.18.29.29.18,1.18-.71,2.69-.57,3.15.05.16.53.42.57.57.21.76.37,3.14.29,4.01-.11,1.16-.46,2.37-.29,3.44.07.4.05,1.3,0,1.72-.53,4.23-1.41,8.37-2.58,12.32-.21.7-.34,1.52-.57,2.29-.11.39-.99.89-1.43.72-.22.53.27.9.29,1,.17.93-.28,1.57-.57,2.29-3.82,9.27-10.5,17.38-18.79,22.78-1.19.77-5.39,3.46-6.6,3.73-.95.21-2.21.59-2.87.57-2.84,2.18-6.69,2.48-10.04,3.15-1.73.35-5.68,1.18-7.46.86-1.8-.32-4.28.36-6.31-.29-.92-.29-1.27-.4-2.3-.57-.11-.02-.19-.29-.29-.29s-.19.29-.29.29c-.15,0,.1-.18-.57,0-1.24.33-2.68-.29-4.02-.57-1.94-.41-4.15-1.04-6.03-1.72-.11-.04-.17-.24-.29-.29-.15-.06-.38.05-.43,0-.05-.05.14-.98-.43-1.15-.54-.16-.91.45-1.43.29-.14-.32-.5-.24-.57-.29-.45-.29-.42-.9-.86-1.15-.14-.08-.38.05-.43,0-.05-.05.14-.98-.43-1.15-.57-.16-.78.27-.86.29-1.19.22-1.49-.3-2.3-.86-.43-.3-2.64-1.71-2.73-1.86-.44-.77-.54-.27-1.29-.72-.13-.08-.98-.93-1-1-.1-.35-.24-.67-.29-.86-.06-.21.06-.66,0-.72-.1-.1-1.23.1-1.58,0-.08-.02-.86-.82-1-1-.74-.9-1.68-2.82-2.58-3.01.39-1.38-2.67-2.57-2.87-3.3-.11-.41.22-1.39-.43-1.58-.36-.1-.65.13-1-.43-.3-.47-.17-1.09-.29-1.43-.49-1.49-1.37-2-2.01-3.15-.34-.6-.8-.64-.86-.86-.07-.24.07-.62,0-.86-.03-.12-.95-.95-1.15-1.43-.46-1.16-.06-2.39-.29-3.44-.12-.57-1.63-2.63-2.01-3.44-.32-.7-.74-1.4-.57-2.29.33-1.8-.08-.95-.29-1.72-.25-.91.25-2.82,0-3.73-.16-.56-1.1-.38-1.15-.43s-.04-1.06,0-1.29c.02-.13.45-.43.29-1.15-.45-1.92.52-1.88.29-2.87-.17-.75-.26-2.36,0-3.15.3-.92.16-1.68.29-2.58.02-.11.26-.17.29-.29.34-1.45-1.2-1.43-1.72-2.29s0-1.06,0-1.15c0-.11-.53-.42-.57-.57-.11-.39.12-1.75,0-1.86-.05-.05-.29.08-.43,0-.59-.33-.96-1.55-1.29-2.15-.6-1.08-.81-2.26-1.15-3.44-.13-.47-.82-.39-.86-.43-.31-.31.42-1.87.29-2.44-.15-.62-1.07-1.83-.57-2.29-1.63-1.17-1.09-3.28-1.43-4.87-.02-.1-.55-.76-.57-.86-.23-1.04.5-1.15.57-1.43.06-.21.33-2.72.29-2.87-.04-.16-.53-.42-.57-.57-.23-.85.06-3.18,0-4.3,0-.1-.28-.19-.29-.29-.04-.7-.14-2.93,0-3.44.06-.2.81-.66.86-.86.14-.52.05-.96.29-1.72.17-.53-.45-.89-.29-1.43.05-.16.53-.42.57-.57.09-.31-.09-.83,0-1.15.04-.15,1.02-1.26,1.15-1.72l-.57-.86v-.57c.34-.27.29-.77.72-1,.14-.08.38.05.43,0,.08-.08-.05-1.46,0-1.86.01-.11.27-.18.29-.29.12-.78-.14-1.95.72-2.44.81-.46.4-.51.72-1.29.33-.83,1.78-2.03,2.01-2.87.45-1.66.89-1.38,1.43-2.58.72-1.58,1.38-2.3,2.3-3.73.34-.53.82-.39.86-.43.07-.06.23-1.41.29-1.72.47.15.57-.24.72-.29.21-.06.66.06.72,0,.05-.05-.06-.28,0-.43.43-1.03.59-1.31,1.58-1.86.86-.49.47-.27.72-.72.11-.2.53-.42.57-.57.06-.21-.06-.66,0-.72.06-.06.74.21,1.15-.43.13-.21.25-.96.29-1,.11-.11,1.37-.36,1.72-.29-.11-.48.41-.91.57-1.29.06-.15-.05-.38,0-.43.07-.07.74.06,1,0,.92-.22.94-1.08,1-1.15.05-.05.52.05.57,0,.07-.07.05-.89,1-1.15.3-.08,1.79-.22,1.86-.29.06-.06-.06-.51,0-.72.14-.47,1.21-.75,1.43-1.15.08-.14-.05-.38,0-.43.13-.13,1.97.13,2.44,0,.13-.04.38-.44.57-.57.93-.63,1.75-1.62,3.01-1.43v-.57c1.33.07,2.4-1.11,3.73-1.15-.11-.83.14-.45.43-.57.24-.1.44-.47,1-.29-.03,1.37.72.08,1,0,.61-.17,1.78-.06,2.15-.72.08-.13-.05-.38,0-.43s.5.05.72,0c.11-.02.19-.29.29-.29s.18.27.29.29c.49.08.97.26,1.15.29.23.04,1.25.05,1.29,0,.05-.05-.08-.29,0-.43.14-.25,2.24-1.82,2.44-1.86.48-.11,1.21.09,1.72,0,.05,0,.51-.2.86-.29,3.06-.76,6.78-1.45,9.76-1.43,1.64-1.14,4.49-.37,6.31-.86,1.08-.29,1.41-.49,2.3-.29,1.03.24,1.15-.5,1.43-.57.54-.15,1.53.1,2.15,0-.03,1.37.72.08,1,0,.2-.06.9-.04,1.15,0,1.59.26,2.93-.66,4.3-.29.82-.42,2.14-1.05,3.16-.86,1.34.24,1.16.33,2.58,0,1.05-.25,1.6.85,3.44.29.56-.17.81.29.86.29.14,0,1.88-1.07,2.73-.57v-.57c1.77-.11,3.41-.75,5.31-.57.1,0,.18.27.29.29,2.32.29,3.56-1.76,6.31-1.15.88.2,1.64.03,2.87.29,1.33.27.84-.17,1-.72s1.17-.2.86-1c.41.04.9-.06,1.29,0,.11.02.18.27.29.29,1.17.21,1.36-.4,2.01-.57,1.06-.29,2.2.08,3.16-1.15.44.72,1-.73,1.43-.86.81-.23,2.03-.66,2.73-.29v-.57c.39-.06.95.09,1.29,0,.2-.06.66-.8.86-.86.61-.17,1.43.33,1.86-.43.08-.13-.05-.38,0-.43.06-.06.52.07.72,0,.55-.18,1.12-1.07,1.72-.29.56-.87,1.35-1.57,2.3-2.01s1.64-1.04,2.58-1.43c.69-.29.29-.46,1.15-.86s1.44-.63,2.3-1.15c.23-.14.65-.49.86-.57.15-.06.38.05.43,0,.07-.07-.06-.73,0-1,.02-.1.24-.16.29-.29.06-.15-.05-.38,0-.43.06-.06.51.06.72,0,.22-.07.42-.69.86-.57.12.03.19.29.29.29.54,0,.26-1.55.86-1.72.32-.09.82-.09,1.15-.29.16-.09,2.1-2.55,2.15-2.72.17-.59.06-1.52.86-1.29-.08-.76.38-1.53,1-2.01.6-.46,1.5-.55,2.01-.86.2-.12.43-.53.57-.57.17-.05.39.05.57,0,.12-.03.19-.29.29-.29s.16.24.29.29c.16.06.38-.05.43,0ZM208.75,68.78c-.19,0-.19.29,0,.29s.19-.29,0-.29ZM197.42,77.38c-.31-.31-.89.26-.57.57s.89-.26.57-.57ZM211.19,78.53c-1.08-.13-.33.45-.29,1.15h.29v-1.15ZM212.05,87.12c-.62.16-.9-.32-1.43-.29v.86c.63.03,1.24.13,1.43-.57ZM178.34,87.41c-.19,0-.19.29,0,.29s.19-.29,0-.29ZM172.31,89.7c-.19,0-.19.29,0,.29s.19-.29,0-.29ZM218.07,94c.43.09.59-.13.86-.43-.27-.3-.43-.52-.86-.43v.86ZM140.32,96.58c-.22-.18-.8.09-.57.29.22.18.8-.09.57-.29ZM212.62,98.59c.07-.72-.46-.96-1.15-.86.06.38.91,1.1,1.15.86ZM177.91,99.73l-.72-.29-.14.14c.27.3.43.52.86.43v-.29ZM178.48,100.59c.18-.22-.09-.8-.29-.57-.18.22.09.8.29.57ZM159.83,100.31h-.57l-.29.72c.55.78.96.11.86-.72ZM210.9,102.89h-1.15c-.47.47,1.52,1.77,1.15,0ZM196.84,103.75c-.22-.18-.8.09-.57.29.22.18.8-.09.57-.29ZM165.71,106.33c-.19,0-.19.29,0,.29s.19-.29,0-.29ZM188.52,107.47c.08-.55-.31-.94-.86-.86v.86h.86ZM105.03,107.76s-.39.02-.57,0l.43.57h.14c-.02-.18.04-.54,0-.57ZM108.18,107.76c-.22-.18-.8.09-.57.29.22.18.8-.09.57-.29ZM212.34,108.05h-1.43v.29l.72.29c.27.16.83-.48.72-.57ZM91.83,109.19l-1.43-.29.57,1.72.86-.43c.1-.39-.49-.44,0-1ZM122.82,114.92h-.57v.86h.29c-.12-.43.2-.52.29-.86ZM82.22,116.93c-.19,0-.19.29,0,.29s.19-.29,0-.29ZM117.94,116.93c-.22-.18-.8.09-.57.29.22.18.8-.09.57-.29ZM133.72,122.38c.18-.22-.09-.8-.29-.57-.18.22.09.8.29.57ZM133,122.38c-.19,0-.19.29,0,.29s.19-.29,0-.29ZM106.75,123.52h-.86l.72,1.72.43-1-.29-.72ZM90.97,127.82l-.57-.57c-.07.6-.03.65.57.57ZM121.96,128.11c.18-.22-.09-.8-.29-.57-.18.22.09.8.29.57ZM123.68,128.97l.29-.72-.43-.43-1,.86,1.15.29ZM74.47,128.39c-.19,0-.19.29,0,.29s.19-.29,0-.29ZM178.19,130.97l.57-.43-.43-.43h-.14v.86ZM145.2,131.55c.18-.22-.09-.8-.29-.57-.18.22.09.8.29.57ZM146.06,130.97h-.57v.86h.57v-.86ZM169.3,134.41l.29-.72c.16-.27-.48-.83-.57-.72.04.58.04.96-.29,1.43h.57ZM138.88,134.99h-.57v1.15h.86c-.23-.4-.38-.66-.29-1.15ZM182.21,135.56s-.02-.39,0-.57l-.57.43v.14c.18-.02.54.04.57,0ZM105.6,136.42c.18-.22-.09-.8-.29-.57-.18.22.09.8.29.57ZM117.65,136.71c.43.09.59-.13.86-.43-.27-.3-.43-.52-.86-.43v.86ZM139.17,136.99c.18-.22-.09-.8-.29-.57-.18.22.09.8.29.57ZM69.02,136.99c-.19,0-.19.29,0,.29s.19-.29,0-.29ZM156.24,139.28c-.19,0-.19.29,0,.29s.19-.29,0-.29ZM83.8,140.72h-.86v.29h.86v-.29ZM74.61,141.29c-.6-.07-.65-.03-.57.57l.57-.57ZM75.33,141.29c-.19,0-.19.29,0,.29s.19-.29,0-.29ZM75.47,142.44s-.02-.39,0-.57l-.57.43v.14c.18-.02.54.04.57,0ZM164.99,145.02c-.12-.12.12-.27-.72-.86-.48-.34-.71-1.07-1.43-.86-.33.1-1.04.83-1.15.86-1.66.47-3.45.93-5.31.86.22.95-.96.68-1.58.86-1.7.5-3.49,1.83-5.16,1.15-.41.19-.47,1.03-.86,1.15-.78.22-6.28,2.41-6.46,2.72-.25.44.15.23-.72.72-.25.14-1.35.86-1.43.86-.07,0-.31-.43-.43-.29-.92,1.62-3.45,2.93-5.02,4.3-.47.41-2.35,2.51-2.58,2.58-1.4.4-1.21.57-1.58,1.86-.1.33-1.33,1.04-1.43,1.58.9-.38,1.44,1.03,1.86,1.15.24.07.61-.06.86,0,.14.04.46.5,1,.29v-.86c.55-.2.83.23,1,.29.42.13,1.17-.47,2.01-.29s1.8.04,2.87.29c.11.03.29.45.86.29.47-.13,1.52-2,2.73-1.43v-.57c1.02.03,1.95.82,2.73-.29.25.38.58.3,1,.29l.14.57c.2-.12.43-.53.57-.57.61-.18,1.76-.41,1.58-1.15.35-.06,1.63.09,1.72,0,.05-.05-.08-.3,0-.43.32-.56.69-.33,1-.43.89-.28,1.41-.12,2.01-.29.45-.12,1.04-1.36,2.01,0,.24-.43.58-.21.86-.29.23-.07.81-.95,1.15-1.15s1.55-.47,2.01-.57c1.86-.41,3.92-.47,5.74-.86.11-.02.73-.53.86-.57.84-.25,1.2,1.02,1.72.86s.37-1.37,1-1.58c-.87-.6-.85-1.87.29-1.86v-.14c-.07-.13-.27-.19-.29-.29-.14-.68-.38-2.66-1-3.01-.73-.42-.46-.4-.72-1.29-.07-.25-1.08-.9-1.15-1.15-.16-.57.27-.77.29-.86.1-.55.07-1.29-.43-1.58-.13-.08-.38.05-.43,0ZM122.53,147.02c-.22-.18-.8.09-.57.29.22.18.8-.09.57-.29ZM110.77,151.32s-.02-.39,0-.57l-.57.43v.14c.18-.02.54.04.57,0ZM94.41,153.33c.18-.22-.09-.8-.29-.57-.18.22.09.8.29.57ZM83.37,154.76c-.19,0-.19.29,0,.29s.19-.29,0-.29ZM96.28,155.62c-.19,0-.19.29,0,.29s.19-.29,0-.29ZM171.88,165.37c.52-.52-.69-1.54-1.43-1.15.05.26-.17.75.14.86s1.12.46,1.29.29ZM106.61,164.51c-.19,0-.19.29,0,.29s.19-.29,0-.29ZM78.92,165.65l-1-.29-.43.43-.29,1.29c.58.4,2.05-1.13,1.72-1.43ZM119.37,165.37c-.54-.07-.99,0-1.15.57h1.15v-.57ZM86.09,167.66l-1.43.43.86.14v.86h.86l-.29-1.43ZM158.4,168.23c-.07-.07-1.56-.04-1.86,0-.11.01-.18.27-.29.29-.87.15-1.8.1-2.58.57-.2.12-.38.46-.57.57-.14.08-.38-.05-.43,0s.08.29,0,.43c-.11.2-.47.38-.57.57-1,1.81-1.01,4.28-1.72,6.31-2.96,5.68-9.46,8.51-15.35,6.16-.91-.21-1.53-1.01-2.3-1.43-.52-.29-.34-.28-.86-.57-.18-.1-1.83-1.46-1.86-1.58-.07-.24.07-.62,0-.86-.12-.42-.96-.98-1.15-1.43-.2-.48-1.11-1.31-1.15-1.43-.08-.29-.28-.81-.29-.86-.14-.79,0-1.1-.29-2.01-.16-.53.43-.88.29-1.43-.05-.15-.81-.63-1-.72-.38-.17-1.26-.27-1.72-.57-.33-.22-.57-.76-1-.86.14.62-.56.85-.86,1.29-1.64,2.37-3.28,5.34-5.45,7.17l.29.29c-.98.79-4.01,5.39-4.73,5.59-.27.07-.69-.05-1,0l.29.72c-.31.25-.61.82-1,.72-.12-.03-.19-.29-.29-.29s-.17.25-.29.29c-.36.1-.54-.43-1-.29.2.47.64.95,1.15.86v.14c-.54.92-1.57,1.95-2.44,2.72-.05.05-.23-.05-.29,0-.42.37-1.92,2.25-2.44,1.72v-.86h-.57c-.06-.55.35-1.33-.57-1.15.12.65.42,1.14.29,1.86-.02.11-.27.18-.29.29-.16.89.27,1.12-.72,1.86-3.3,2.49-7.98,4.72-11.76,5.73-1.52.41-2.76.35-4.3.57-.09.01-.5.51-1,.29.32.61.64,1.25.86,1.86.36,1.01.16,2.09,1.29,2.72.7.39.78.87,1.29,1.58.26.36,1.34,1.41,1.43,1.72.06.21-.06.66,0,.72.05.05.29-.08.43,0,.82.46,1.25,2.44,1.72,2.58,1.75.5,2.22.97,2.73,2.72.14.48,1.7.47,1.43,2.01-.14.8-.04.51.43,1.29.23.38.13.74.14,1.15l.86-1c-.12-.69.25-.33.72-.43.11-.02.19-.29.29-.29s.18.27.29.29c.35.06.85-.08,1.15,0,.16.05.6.68.86.86.06.04.21-.05.29,0,.99.63.07,1.66.14,1.72.69.23,1.38-.43,1.86-.29.82.59,1.65.95,2.3,1.72.45-.66,1.68.76,2.01.86.37.1,1.2-.25,1.43-.29,1.71-.28,2.01.98,2.58,1.15,1.42.41.75.61,1,.86.09.09,1.37-.06,1.72,0l.14-.57c.32.53.98.16,1.43.29.18.05.61.7.86.86.9-.48,2.71.16,4.02.29.73.07,1.62-.11,2.3,0,.11.02.19.29.29.29.05,0,.76-.55.86-.57.49-.11,1.27.12,1.72,0,.16-.04.42-.53.57-.57.87-.24,2.9.73,3.44.57.16-.05.42-.53.57-.57.63-.17,1.95-.11,2.58-.29.16-.04.42-.53.57-.57.6-.16,1.74-.08,2.58-.29.77-.19,1.48-.14,2.01-.29.16-.04,1.28-1.1,1.43-1.15.31-.08,1.2.09,1.29,0,.16-.16-.13-1.18,1-.57.46-.18.39-.82.43-.86.19-.19,3.01-.28,3.73-1.58.08-.14-.05-.38,0-.43.06-.06.51.06.72,0,.25-.07.9-1.08,1.15-1.15.58-.16.81.29.86.29.09,0,.17-.26.29-.29.18-.05.4.05.57,0,.57-.16.38-1.1.43-1.15.12-.12.27.12.86-.72.9-1.28,2.31-1.25,3.3-2.15l.72.29c-.41-1.11,1.25-1.23,1.43-1.86.17-.6.77-2,1.15-2.58.31-.46,2.23-2.36,2.3-2.58.07-.24-.07-.62,0-.86.18-.66,2.69-2.52,2.87-3.15.23-.85.43-2.14.86-2.87.16-.27.81-.68.86-.86.12-.42.14-.89.29-1.43.17-.63-.38-.84.86-.72-.16-.43.29-.66.29-.72,0-.1-.27-.18-.29-.29-.24-1.47,1.1-1.86.86-3.3h.57c.37-1.46-.07-3.72.29-5.02.04-.16.53-.42.57-.57.09-.31-.09-.83,0-1.15.04-.16.53-.42.57-.57.22-.78.06-2.6.29-3.44.03-.09.76-.82.86-1.15-.18-.46-.82-.39-.86-.43-.06-.06.06-.5,0-.72-.09-.33-.48-1.1-.57-1.43-.08-.29.09-.4.29-.57l-.14-.14c-.28.47-.73.2-1.15.29-.11.02-.18.27-.29.29-.37.05-1.72.08-2.01,0-.16-.04-.42-.53-.57-.57-1.23-.34-3.01.55-3.87-1-.08-.14.05-.38,0-.43-.06-.06-.51.06-.72,0-.34-.1-1.99-2.02-1.86-2.44.06-.22.73-.46.57-.86-.26-.56-1.65-1.18-1.72-1.43-.06-.21.06-.66,0-.72ZM96.99,170.24l-.57.14.29.72h.57l-.29-.86ZM90.68,170.52c-.06.53-.01.83.43,1.15l.43-.72c-.27-.3-.43-.52-.86-.43ZM131.71,176.83l.72.86c.58-.45.58-.7,0-1.15l-.72.29ZM98.72,176.83c.01.43.09.76-.29,1,.45.58.7.58,1.15,0-.36-.29-.28-.9-.86-1ZM109.04,177.98s-.02-.39,0-.57l-.57.43v.14c.18-.02.54.04.57,0ZM108.18,181.13l.29-1-.43-1-.72,1.29.86.72ZM91.26,182.27c.16-.62-.32-.9-.29-1.43h-.29v1.43h.57ZM81.93,189.15c-.19,0-.19.29,0,.29s.19-.29,0-.29ZM157.53,212.94v-1.15h-.29c.09.49-.06.75-.29,1.15h.57ZM156.82,212.08c-.19,0-.19.29,0,.29s.19-.29,0-.29Z"/>
  <path class="cls-1" d="M123.96,196.32c.06.06-.06.51,0,.72.12.42,1.64,1.06,2.01,1.72.08.14-.05.38,0,.43.1.1,1.23-.1,1.58,0,.16.04.87.91,1.15,1.15,1.02.85,2.14,1.48,3.16,2.58l1.29.29-.57.57c.47-.15.64.39,1,.29.12-.03.18-.26.29-.29,1.19-.27,1.5.88,2.3,1.43.52.36,1.5,1.05,1.72,1.15.34.14,2.25,1.55,2.44,1.86.41.67,0,.6.72,1,.53.3.56,1.56.43,2.15-.02.1-.24.16-.29.29-.23.58-.42,1.23-1,1.58-.32.19-.94.2-1.15.29-1.65.69-3.23,1.29-4.88,1.72-2.72.71-5.76,1.08-8.61,1.43-.69.09-2.74-.13-3.44-.29-.11-.02-.73-.54-.86-.57-.38-.11-.48.4-.86.29-.66-.19-1.97-1.05-2.3-1.15-.38-.11-.48.4-.86.29-.09-.03-1.55-.75-1.72-.86-.65-.42-.97-1.55-1.72-2.01-.66-.4-.69.04-1-.72-.43-1.02-1.07-1.1-2.01-1.29-.11-.39-.18-.92-.29-1.29-.05-.16-.53-.41-.57-.57-.35-1.23-.22-2.5-.57-3.73-.28-.96-.11-1.2-.29-2.01-.21-.95.17-1.44.86-2.01-.4-.44-1.05-.78-.86-1.43.05-.16.53-.42.57-.57.09-.31-.09-.83,0-1.15.12-.43,1.63-1.83,2.01-3.15.04-.13,1.74-1.83,1.86-1.86.18-.05.4.05.57,0,.12-.04.18-.27.29-.29.47-.08,2.11-.08,2.58,0,.11.02.17.26.29.29.42.1,1.03.17,1.43.29.25.07.9,1.08,1.15,1.15.36.1.65-.13,1,.43,1.22,1.91,2.68,1.39,3.16,1.86ZM125.4,206.92c.47.15.64-.39,1-.29.23.07.18.56.72-.14l.29-1.86-1.43.57c.15.39-.81,1.49-.57,1.72ZM126.26,209.79c-.1.93.05,2.24.86,1.29-.47-.37-.1-1.12-.86-1.29ZM127.55,210.94c-.19,0-.19.29,0,.29s.19-.29,0-.29Z"/>
  <path class="cls-1" d="M152.08,192.59c.05-.05-.08-.29,0-.43.11-.2.53-.43.57-.57.07-.24-.07-.62,0-.86.12-.43.96-1.08.86-1.43-.53-.32-.16-.97-.29-1.43-.03-.09-.76-.81-.86-1.15v-.57c.19-.41.94-1.13.86-1.43-.03-.12-.29-.19-.29-.29s.25-.17.29-.29c.12-.44-.51-.64-.57-.86-.16-.54.45-.89.29-1.43-.05-.16-.53-.42-.57-.57-.11-.39.12-1.75,0-1.86h-.57c.33-.47.33-.85.29-1.43h.57c-.22-.92.79-1.08.57-2.01.9-.07,1.72-.47,2.73-.29.11.02.17.25.29.29.17.05.39-.05.57,0,.07.02.89.84,1,1,.04.06-.05.22,0,.29.13.2.54.44.57.57.05.18-.05.4,0,.57.04.12.27.18.29.29.19,1.04-.09,2.58,0,3.73.1,1.34.29,1.28,0,2.87-.2,1.08.76,4.4.86,5.73.05.72.14,3.2,0,3.73-.05.17-1.01.93-1.15,1.43-.07.24.07.62,0,.86-.22.79-1.89.63-2.44.72-1.62.27-3.64.8-5.45,1.15-.32.06-1.43.53-1.72.57-.34.05-1.11.06-1.43,0-.11-.02-.17-.25-.29-.29-.17-.05-.39.05-.57,0-.07-.02-.99-.93-1-1-.08-.31.07-.81,0-1.15-.03-.12-.55-1.04-.57-1.15-.05-.29-.06-1.16,0-1.43.02-.1.23-.16.29-.29.04-.09-.04-.23,0-.29.48-.75,1.4-.3,2.15-.43.08-.01.29-.45.86-.29.25.07.43.79,1.15.57.45-.13,1.58-1.11,1.72-1.15.26-.07.93.08,1,0Z"/>
</svg>