<?xml version="1.0" encoding="UTF-8"?>
<svg id="zkouska_s_hlavamaa" data-name="zkouska s hlavamaa" xmlns="http://www.w3.org/2000/svg" viewBox="0 0 288.67 288.67">
  <defs>
    <style>
      .cls-1 {
        fill: none;
        stroke: #fbf1e1;
        stroke-linejoin: bevel;
        stroke-width: 1.5px;
      }
    </style>
  </defs>
  <path class="cls-1" d="M174.41,73.39c.06.06.91-.15,1.43.72.19.32.2.95.29,1.15.31.71.58.85.86,1.72.09.28.54,1.24.57,1.43.14.98.14,4.18,0,5.16-.02.11-.26.18-.29.29-.1.48-.36,2.22-.57,2.44-.05.05-.95.16-1.15.72.7.6.07.98-.29,1.58.42-.1,1.23.64,1.43,1,.08.14-.05.38,0,.43.08.08.94.33,1.43,1,.95,1.29,1.01,2.7,1.72,4.01.11.2.53.43.57.57.08.3-.06.8,0,1.15.02.11.27.18.29.29.12.98.14,3.64,0,4.59-.02.11-.26.18-.29.29-.33,1.66-.58,2.67-1.43,4.3-.1.2-.53.42-.57.57-.09.3.04.63-.29,1,.32.04.72-.06,1,0,.11.02.74.54.86.57.24.07.62-.07.86,0,.76.21.66,1.37.72,1.43.05.05.29-.08.43,0,.43.24.5,1.04.86,1.15.81.24,1.43-1.07,2.01-1.43.08-.05.43.04.57-.29.2.15.69.51.86.57.54.2,1.54.02,1.29.86h1.15c-.09,1.08,2.39,1.34,2.29,2.29,1.07.11,1.93.56,3.01.86.17.05,2.1,1.95,2.58,2.29,1.3.92,3.14,3.8,4.87,4.3.65.19.54,1.46,1.29,1.15.03,1.99,2,1.83,2.58,3.87.05.16,1.1,1.28,1.15,1.43.09.34-.15,1.12.43,1.29.18.05.4-.05.57,0,.61.18.41,1.42.43,2.01l1.15.29c.05.05-.06.28,0,.43.4.97.83,1.78,1.15,2.87.04.15.47.38.57.57.64,1.25,1.44,3.51,1.15,4.59-.07.25.18.21,0,.86-.01.05.25.96.29,1,.05.05.29-.08.43,0,.79.44.6,1.5.72,2.15.02.08.45.29.29.86-.22.78.08.96.29,1.72.39,1.44.84,5.3.57,6.88-.31,1.86.17,4.87,0,7.16-.2,2.68-.86,5.95-1.43,8.6-.02.1-.55.76-.57.86-.07.34.08.84,0,1.15-.22.8-1.03.06-.57,1.72.17.63-3.18,8.35-3.73,9.46-2.45,5.03-5.23,9.15-8.6,13.47-.28.36-1.3,2.01-1.43,2.15-.06.06-1.64-.04-.86.72-3.48,3.77-7.27,7.28-11.32,10.17-3,2.15-5.67,3.95-8.88,5.44-.81.38-2.91,1.83-3.73,2.01-1.45.32-1.13.32-2.29.86-1.63.76-3.79,1.58-5.44,2.01-.73.19-1.75.14-2.29.29-.16.04-.42.53-.57.57-2.45.67-5.19.72-7.74,1.15-.99.17-1.97.28-3.15,0-.73-.17-1.16.4-1.86.29v-.72c-.07-.54-1.19.14-1.43.57-.08.14.05.38,0,.43-.08.08-1.8.03-2.15,0-.1-.01-.18-.28-.29-.29-.81-.06-2.24.17-2.87,0-.09-.02-1.03-.81-1.43-.86-1.05.59-2.21.45-3.44.29-.7-.1-1.73-.78-2.01-.86-.68-.19-1.91-.04-2.87-.29-2.11-.55-4.35-1.55-6.59-2.29-1.04-.35-1.29-1.11-1.43-1.15-.31-.08-.81.07-1.15,0-.71-.15-2.72-1.31-3.44-1.72-.86-.49-.46-.27-.72-.72-.4-.71-1.06-.29-1.58-.43-.15-.04-.38-.47-.57-.57-.91-.49-2.1-.93-2.72-1.86-.26-.38-.56-1.74-1-1.86-.59-.08-1.48-.14-2.01-.29-.11-.03-1.55-1.47-1.58-1.58-.43-1.49-.9-.77-1.43-1.72-.07-.13-1.07-1.5-1.15-1.58-.05-.05-.98.14-1.15-.43-.07-.23-.21-1.21-.29-1.29-.06-.06-.74.21-1.15-.43-.31-.49-.18-1.7-.72-1.86-.21-.06-.66.06-.72,0-.04-.04.1-.56-.43-.86-.36-.21-.31.17-.72-.72-.22-.47-.84-1.35-.86-1.43-.22-.76-.55-1.9-.86-2.58-.29-.64-1.48-1.66-2.01-2.58-.55-.96-.52-2.02-.86-2.87-.3-.75-1.09-1.02-.86-2.01.03-.11.27-.18.29-.29.04-.26.06-1.52,0-1.58s-.3.08-.43,0c-.56-.32-.33-.68-.43-1-.04-.12-.27-.18-.29-.29-.06-.33-.07-1.42,0-1.72.03-.12.39-.2.29-.57-.09-.32-.51-.24.29-.86-.18-.46-.82-.39-.86-.43-.05-.05.06-.28,0-.43-.05-.12-.27-.19-.29-.29-.12-.67.07-1.57,0-2.29,0-.1-.28-.18-.29-.29-.07-.74.16-2,0-2.58-.03-.09-.37-.53-.57-1.15-.04-.12-.26-.18-.29-.29-.11-.39.73-1.55.86-2.01l-.57-.86v-.57l.86-1.43c-.51-1.45.03-2.35-.29-3.73-.17-.71.24-.95.29-1.15.26-1.1.14-2.94,1.29-3.58.1-.06.28.02.43,0,.24-.24-.53-1.09-.57-1.29-.06-.26-.06-1.49,0-1.72.06-.2.8-.66.86-.86.23-.85-.18-1.26.57-2.29.19-.27,1.15-1.04,1.15-1.15-.34-.1-.38-1.2-.29-1.29.05-.05.29.08.43,0,.9-.5,1.37-2.07,2.15-2.72v-.29c-.14-.18-.54-.74-.57-.86-.11-.38.4-.48.29-.86-.08-.29-1.3-.85-1.43-.72-.04.04.02.39,0,.57h-.57c.06.73-.71,1.63-1.15,2.15-2.06,2.46-4.87,3.84-7.88,4.44-.11.02-.18.27-.29.29-.98.14-4.18.14-5.16,0-.11-.02-.18-.26-.29-.29-.76-.15-1.81-.27-2.58-.57-.6-.24-2.1-.93-1.86-1.43-.97.29-1.25-.8-1.86-1.15-.14-.08-.38.05-.43,0-.08-.08.05-1.12,0-1.43-1.43.19-1.55-.41-1.43-1.72h-.86c-.04-.32.06-.71,0-1-.02-.1-.24-.16-.29-.29-.3-.73-.52-.26-.86-1.43-.06-.21-.8-.66-.86-.86-.13-.47.09-1.32,0-1.86.83-.15,1.11.13,1.72.57-.04-.28.07-1.08,0-1.15-.05-.05-.29.08-.43,0-.12-.07-.98-.93-1-1-.05-.18.05-.4,0-.57-.04-.12-.27-.18-.29-.29-.28-1.52.73-1.55.86-2.01.22-.79.26-1.9.57-2.87s.1-.58,0-1.15c-.19-1.07.32-2.45,1.58-2.15.28-.57,1.74-1.14,1.86-1.58s-.24-1.11.29-1.43v-.14c-.84.14-.45-.21-.57-.43-.25-.44-.48-.18-.86-.86-.28-.5-1.43-1.37-.86-1.72-.87-.68-.58-2.13-.86-3.15-.04-.16-.53-.42-.57-.57-.06-.23-.06-2.06,0-2.29.03-.09.77-.81.86-1.15.22-.79.23-.96.57-1.72.27-.6.16-.7.29-1.15.05-.19.71-.59.86-.86.08-.14-.05-.38,0-.43.05-.05.28.06.43,0,.11-.04.17-.22.29-.29,1.1-.63,1.13-.4,2.29-.57.76-.11,2.16-.53,2.87-.86.18-.08.76-.55.86-.57.74-.16,1.65.34,2.15-.43.05-.07-.04-.23,0-.29.21-.3.69-.57.86-.86.32-.55.4-1.84.57-2.58.08-.34.54-1.44.57-1.72.05-.4-.08-1.78,0-1.86.05-.05.69-.08,1.15-.72.56-.79,1.25-1.01,1.72-1.72.61-.92-.1-.89,1.29-1.29.21-.06.65-.8.86-.86,1.24-.37.47-.48,1.15-.86.77-.44.28-.42.43-.57.43-.43,2.9-.49,2.58-1.43.58-.24,1.34.35,1.58.29.09-.03.83-.79,1.15-.86,1.42-.31,3.24.66,4.01-.29.89.72,3.33-.3,3.3,1.15.77-.03,1.29.44,2.15.29.26-.05.58-.64,1.29,0-.21-.54.26-.87.29-1,.17-.73-.4-1.16-.29-1.86l1.15-.29c.16-.43-.29-.66-.29-.72,0-.07.39-.2.29-.57-.23-.83.19-.71.29-1.15.11-.49-.12-1.27,0-1.72.07-.24,1.07-.9,1.15-1.15.06-.21-.06-.66,0-.72.05-.05.29.08.43,0,.29-.16.57-.7.86-.86.68-.38.38-.55.86-.86.17-.11.75-.29,1-.29.05-.75-.25-1.57.43-2.01.12-.08.75-.21.86-.29.71-.49,1.13-1.37,2.01-1.72,1.32-.45,2.45-.58,3.73-.86.24-.05,1.19-.81,1.43-.86.49-.11,1.27.12,1.72,0,.16-.04.42-.53.57-.57.24-.07.6.06.86,0,.11-.03.18-.27.29-.29.23-.04.95-.05,1.15,0,.09.03.81.76,1.15.86.87.25,1.14-1.11,2.01-.86.13.04.75.55.86.57.64.14,1.71-.16,2.29,0,.24.07.9,1.08,1.15,1.15.39.11.88-.2,1.15.29l.57-.57.86.57c.46-.85,1.46-.3,1.86-1,.08-.13-.05-.38,0-.43.31-.31,1.65-.2,2.15-.29.11-.02.26-.44.72-.29-.39-.54-.29-1.06-.29-1.72.68-.02,1.32.2,1.72-.43.56-.88.63-1.04,1.58-1.58.86-.49.47-.28.72-.72.14-.24,4.36-2.37,4.73-2.44.38-.07.88.05,1.29,0v-.57c.57.65,1.41-.74,1.86-.86s1.27.12,1.72,0c.41-.11.63-.88,2.01-.57,1.14.26.67-.12,1.43-.29.26-.06,4.88.21,5.16.29.15.04,1.28,1.05,1.72,1.15.57.12,1.44-.12,2.01,0,.14.03,1.76,1.13,1.86,1.29.08.13.21.73.29.86.33.53,1.35.87,1.43,1.15.06.21-.06.66,0,.72ZM158.36,77.4h-.86l-.29,1.15,1.15-.29v-.86ZM144.89,82.56v-.86h-.29v.86h.29ZM143.46,86s-.39.02-.57,0l.43.57h.14c-.02-.18.04-.54,0-.57ZM112.23,95.46c-.22-.18-.8.09-.57.29.22.18.8-.09.57-.29ZM112.66,96.32c-.19,0-.19.29,0,.29s.19-.29,0-.29ZM101.19,112.36c-.19,0-.19.29,0,.29s.19-.29,0-.29ZM100.91,112.94c-.19,0-.19.29,0,.29s.19-.29,0-.29ZM180.71,117.52c.05-.05.95-.16,1.15-.72-.58-.54-.34-1.28.29-1.72-.15-.1-.31-.39-.43-.43-.38-.11-1.05-.17-1.43-.29-2.29-.7-3.51-.88-6.02-1.15-.1-.01-.18-.28-.29-.29-1.3-.11-3.19-.08-4.3.29-1.13.37-1.22-.15-1.72,0-.16.05-.42.53-.57.57-1.51.42-3.09.26-4.58,0-.64-.11-1.12.05-2.01,0-.37-.02-.61.1-.86-.29-.23.2.11.3.14.72.14,1.57-.04,3.68-.29,5.16-.06.35-.47,1.33-.57,1.72-1.03,4.03-3.83,7.59-7.31,9.6-1.56.9-2.78,1.34-4.58,1.72-.44.09-2.26.67-2.58.57-1.1-.33-.72-.1-1.43,0-1.78.26-4.34-.4-6.02-.86-.38-.1-.71-.18-1.15-.29-.13-.03-.25-.44-.72-.29.3.73-.51,1.04-.57,1.29-.34,1.23-.36,1.75-.86,2.87s-1.04,2.42-1.72,3.44c-.52.79-3.1,3.93-3.87,4.44-1.13.75-2.38.73-3.15,2.29-4.72,2.66-9.77,3.49-15.19,2.58-.11-.02-.18-.27-.29-.29-.51-.09-1.11.22-1.43-.29-.41-.12-.57.41-.86.57-.14.08-.38-.05-.43,0-.06.06.07.52,0,.72-.14.41-.69.84-.86,1.15-1.76,3.25-2.86,6.02-3.73,9.46-.04.16-.5.48-.29,1,.11.1,1.7-.08,2.15,0,.11.02.17.26.29.29,1.69.42,3.47.42,5.16,0s3.03-.34,4.58-.57c1.28-.19,1.69.33,2.58.57.62.17.84-.38.72.86.21.21,1.62-.36,1.72-.72.33-1.19-.62-2.12,1.72-1.86-.17-.8.36-1.27.29-2.01.83.23.99-1.27,1.58-1.43.45-.12,1.21-.14,1.72-.29.15-.04.38-.46.57-.57.14-.08.38.05.43,0,.25-.25.33-2.1,1.15-1.72-.11-.83.14-.45.43-.57.66-.27,1.46-.52,2.01-1.15.86.32,1.44.75,2.44.57-.15-1.15.14-.7.43-.86.64-.36.71-1.22,2.01-.86.16.04.41.53.57.57,1,.29,1-1.03,1.43-1.15,1.22.83,1.55-.16,2.01-.29.28-.08,2.54-.07,2.87,0,.22.05.31.58,1,0-.14.51.19,1.29.72,1.15.12-.03.18-.26.29-.29.26-.05.63.07.86,0,.15-.04.25-.44.72-.29-.28-.29-.42-1.58-.29-1.72.06-.06.51.06.72,0,.47-.14.83-1.34,1.15-1.43.57-.16.73.25.86.29,1.39.39.36-1.02.43-1.29.04-.14,1-1.27,1.15-1.72.07-.2-.06-.65,0-.72.05-.05.28.06.43,0,.12-.05.19-.27.29-.29.47-.08,1.08.06,1.58,0-.23-.77.73-.54,1.15-1.29.08-.14-.05-.38,0-.43s1.32-.04,1.58,0c.11.02.19.29.29.29s.17-.25.29-.29c.3-.08,1.18.53,1.43.86h.29l1.72-1.43c1.14.32,1.63-.78,2.29-1.15.14-.08.38.05.43,0,.13-.13-.12-1.72,0-2.15.06-.2.8-.65.86-.86.17-.59.05-1.52.86-1.29-.17-.77.58-1.29.57-2.01,1.46.07,1.68-1.28,2.72-1.72.29-.12.54.26.43-.57h.57v-.57c.62.33,1.19-.57,1.29-.57.07,0,.2.39.57.29.13-.03.75-.55.86-.57.34-.07.84.08,1.15,0s.93-1.21,1.72-.29c.44-.32.49-.61.43-1.15h.57c-.19-1.66,1.84-2.5,2.29-3.58.36-.85.95-.52,1.15-.72.05-.05-.08-.29,0-.43.35-.63.55-.35.86-1.43.26-.89,1.64-.93,1.72-1,.08-.08.63-1.8.86-2.15.18-.27.81-.68.86-.86.06-.21-.06-.66,0-.72ZM82.14,114.08h-1.15v.14l.43.43h.29l.43-.57ZM187.16,115.52c-.19,0-.19.29,0,.29s.19-.29,0-.29ZM101.05,166.81v7.02c0,.07-.54,1-.57,1.15-.29,1.25,1.01,1.51,1.15,2.01.08.3-.06.8,0,1.15.24,1.3.78,2.74,1.15,4.01.55,1.88,1.01,3.77,2.01,5.44l-.29,1.29c1.1-.11.69.03.86.43.4.94,1.25,1.86,1.72,3.15.54,1.49.87,1.31,1.43,2.29.15.26.56.81.57.86.06.21-.06.66,0,.72s.51-.06.72,0c.28.08,1.52,1.62,1.58,1.86.23.97-.4.71.72,1.29.96.5.48.79,1.72,1.15.77.22.66,1.37.72,1.43.06.06.74-.21,1.15.43.04.06-.04.2,0,.29.3.66,0,.4,0,.57,0,.06.62,1,.72,1,.09,0,.17-.25.29-.29.06-.02.99.23,1.15.29.17.06.24.44.72.29l.29,1.15c1.3-.27,1.83.5,2.72,1.15.93.67,1.48,1.08,2.58,1.43.17.05.39-.05.57,0,.57.16.38,1.1.43,1.15.09.09,1.96.38,2.44.57,1.19.48,2.28,1.75,3.44,1.43.38-.1.44.24.57.29.17.05.39-.05.57,0,.3.09.76,1.1.72,1.43.71.08,1.38-.31,1.86-.86.24.43.58.21.86.29.16.05.42.53.57.57.24.07.62-.07.86,0,.16.04.41.53.57.57.54.16.9-.45,1.43-.29,1.72.54,3.71,1.25,5.44.86.44-.1,2.67-.08,3.15,0,.04,0,.69.26.72.29.04.04-.03.73.43.86.23.06,1.46.06,1.72,0,.45-.1,1.81-.92,2.29-1.15,1.39.73,1.91.78,3.15-.29.64-.19,1.44.93,1.29-.29.66.61.92-.1,1.29,0,.77.21.68-.23,1.72,0,1.24.28,1.39-.48,1.72-.57,1.11-.31,2.54-.39,3.73-.86.33-.13,1.18-.81,1.43-.86.45-.1,1.09.07,1.58,0-.02.38.16.67.29,1,.19.53,1.33-.21,1.43-.57.05-.19-.07-.44,0-.57.14-.29.99-1.49,1.29-1.58.24-.07.62.07.86,0,.18-.05,3-1.61,3.15-1.72.48-.35.97-1.16,1.43-1.43s1.28-.3,1.72-.57c.2-.12.43-.53.57-.57.38-.11.48.4.86.29.13-.04.75-.55.86-.57.4-.09,1.76.1,1.86,0-.06-.87-.03-2.1.72-2.58.46-.29,1.61-1.4,1.72-1.43.18-.05.4.05.57,0,.3-.1.3-.56,1,0,.17-1.35.54-1.63,1.58-2.29.44-.28.55-1.1,1.15-1.43.79-.44.19-.12.43-1,.02-.07.93-.98,1-1,.18-.05.4.05.57,0,.49-.14.47-.97.43-1.43.71.21,2.4-.34,2.58-1,.11-.38-.11-1.05,0-1.43.11-.41,2.33-2.47,2.72-2.72.76-.48.3-1.59.43-1.72.06-.06.51.06.72,0,.15-.04.38-.46.57-.57.22-.12.57.27.43-.57.82.1.46-.11.57-.43.04-.12.29-.2.29-.29,0-.05-.45-.29-.29-.86.1-.34.83-1.05.86-1.15.07-.24-.07-.62,0-.86.13-.46,1.35-.84,1.43-1.15.1-.38-.09-1.02,0-1.43.15-.7,1.57-1.59,1.72-2.29s.2-3.21.57-3.58c.05-.05.3.08.43,0,.63-.36.32-.83.43-1.29.03-.11.27-.18.29-.29.12-.8-.21-2.2.72-2.72.14-.08.38.05.43,0,.08-.08-.05-1.22,0-1.58.18-1.38.68-3.19.86-4.3.07-.44-.1-2.05,0-2.15h.57c-.03-1.19-.09-2.39.57-3.3l-.57-.86c.54-.37.06-.35,0-.57-.16-.56.2-.66.29-.86.06-.15-.05-.38,0-.43.04-.04.68.03.86-.43,0-.09-.26-.17-.29-.29-.33-1.24-.07-2.41-.29-3.44-.16-.75-1.12-.87-.86-2.29.29-1.61-.13-2.52.29-4.3.26-1.11-.74-1.59-.86-2.01-.05-.18.05-.4,0-.57s-.99-.92-1.15-1.43c-.2-.45.27-.78.29-.86.05-.27.07-1.8,0-1.86-.05-.05-.29.08-.43,0-.99-.55-1.02-1.51-1.29-2.44-.12-.4-1.36-.93-.86-2.15-.95-.19-1.7-1.67-2.01-2.72-.05-.18-1.03-.93-1.15-1.43-.06-.27.07-.93,0-1-.05-.05-.79.2-1.15-.43-.08-.13.05-.38,0-.43s-.3.08-.43,0c-.61-.35-.34-.79-.43-1.29-.03-.19-.55-.2,0-.57-.22-.14-.55-.67-.72-.72-1.83-.54-1.98-.53-3.01-2.15-.45-.7-3.87-2.66-4.01-3.15-.21-.74-.52-.97-.57-1.15-.06-.21.06-.66,0-.72-.04-.04-.79-.17-1-.29l-.86.57c-.47.13-.68-.7-1.15-.57-.51.14-.35.83-.43,1-.28.63-.77.93-1.15,1.43-2.61,3.51-5.51,7.18-8.31,10.6-.26.31-.43.23,0,.57l-.57.14c-.07.55.65.19,1,.29.47.13.39.82.43.86.09.09,1.09.21,1.29.29,1.12.42,1.81,1.05,3.15,1.43.42.12,2.13,2,2.44,2.44.58.82,1.45,1.55.86,2.58.91.8,1.01,2.47.86,3.73-.01.11-.27.18-.29.29-.06.35.07.81,0,1.15-.04.2-.72,1.42-.86,1.72-.41.87-1.58,2.6-2.44,3.3-.65.53-1.17.55-1.58,1.29-.53.95-2.92,2.57-3.87,3.01s-1.47.62-2.58.86c-.48.1-1.56.51-2.01.57-.83.12-1.96.12-1.86-.86-.46-.16-.6.27-.72.29-1.04.18-1.98-.19-2.58-.29-.7-.12-1.64.09-2.15-.72-.08-.12-.21-.74-.29-.86-.36-.55-1.26-.54-1.86-.72-.1-.03-1.54-1.17-1.58-1.29-.05-.18.05-.4,0-.57-.05-.16-.53-.42-.57-.57-.17-.62.09-1.07.57-1.43-.28-.26-.75-.82-.86-1.15-.23-.69.45-.84-1.15-.72.11.83-.14.45-.43.57-.12.05-.19.27-.29.29-.33.06-1.09.05-1.43,0-.11-.02-.18-.28-.29-.29-.64-.07-1.97-.09-2.58,0-.11.02-.17.26-.29.29-.26.06-.62-.07-.86,0-.09.03-1.63.8-1.72.86-.3.2-.58.7-.86.86-.14.08-.38-.05-.43,0s-.07.79-.72,1.15c-.14.08-.38-.05-.43,0-.06.06.07.52,0,.72-.12.35-.72,1.06-.86,1.43-.35.96-.71,2.89-.57,4.01.08.64.21,1.53.29,2.01.11.64-.16,1.23-.57,1.72.18.46.82.39.86.43.12.12.05,2.86,0,3.3-.01.1-.27.18-.29.29-.12.68-.11,1.63-.29,2.29-.08.31-.69,1.35-.86,1.72-.42.9-.83.9-1.15,2.01-.16.54-3.02,2.66-3.58,3.01-1.33.82-3.18,1.73-4.58,2.29-.47.18-2.99.91-3.15.86-.23-.06-.44-.45-1.15-.29-1.59.37-2.68-.08-4.01.29-.2.05-1.42-.49-1.72-.57-.24-.07-.62.07-.86,0-.51-.14-1.73-.85-2.29-1.15-1.06-.56-3.81-2.33-4.16-3.58-.12-.43.22-.92-.43-1.29-.13-.08-.38.05-.43,0-.08-.08-.08-1.48.29-1.58-.37-.43-.96-.7-.86-1.29-.05-.06-1.08.86-.86-.29-2.31.1-4.71-.13-7.02,0-2.66.15-6.51.46-9.17.86-.64.1-1.34.05-1.86-.29ZM115.38,118.96s-.02-.39,0-.57l-.57.43v.14c.18-.02.54.04.57,0ZM115.66,125.55c.15-.83-.19-1.69-1.15-1.72l-.14.86c.24.67.49.99,1.29.86ZM139.88,124.4c-.19,0-.19.29,0,.29s.19-.29,0-.29ZM139.88,125.26c-.19,0-.19.29,0,.29s.19-.29,0-.29ZM97.04,128.41c.18-.22-.09-.8-.29-.57-.18.22.09.8.29.57ZM97.04,128.7h-.86v.29h.86v-.29ZM142.6,129.56l.72.29.43-.43-.29-.72-.86.29v.57ZM129.13,132.14c.18-.22-.09-.8-.29-.57-.18.22.09.8.29.57ZM97.32,136.15h-.86v.14c.48.6,1,.7.86-.14ZM124.26,137.87c-.6-.07-.65-.03-.57.57l.57-.57ZM169.82,139.88l-1.43-.29-.29,1.15.72.29c.15-.37.68-.25.72-.29.03-.03.04-.62.29-.86ZM94.46,143.89c-.09.07.32.54.43.57.68.19,1.33-.43.57-.86-.25.38-.58.3-1,.29ZM87.29,147.33h-.86v.14l.43.43.43-.57ZM177.7,150.48c-.19,0-.19.29,0,.29s.19-.29,0-.29ZM146.9,152.49h-.57v.86h.57v-.86ZM134,159.08c-.31-.31-.89.26-.57.57s.89-.26.57-.57ZM128.7,163.95c-.19,0-.19.29,0,.29s.19-.29,0-.29ZM200.49,186.3c.58-.05.51.35,1.15.14.27-.09,1.42-.66,1.43-.86-.39-.59-1.11-.61-1.43,0-.07.14.05.38,0,.43-.14.14-1.21-.32-1.15.29ZM151.2,217.54c-.22-.18-.8.09-.57.29.22.18.8-.09.57-.29Z"/>
  <path class="cls-1" d="M166.1,163.66c.05.05-.06.28,0,.43.07.18.54.73.57.86.49,1.79.47,1.43,1.43,2.87.31.47.55,1.53.86,2.01.47.73,1.17.31,1.86.43.08.01.3.46.86.29,1.77-.54,3.97.34,5.73-.57,1.1.67,2.47.64,3.73.86.1.02.16.23.29.29.4.17.54-.24.43.86.47.15.56-.24.72-.29.48-.15,1.03.31,1.29.72.36.56,1.25,2.54,1.15,3.15-.02.11-.29.19-.29.29,0,.11.41.91.29,1.72-.02.11-.27.18-.29.29-.12.76.04.9-.29,1.72-.57,1.43-1.46,2.93-2.72,3.87s-3.02,1.54-4.58,2.01c-.74.22-1.88.73-2.58.86-.58.11-1.26.07-1.58-.43-.05-.07.04-.23,0-.29-.18-.26-.81-.7-.86-.86-.09-.31.09-.83,0-1.15-.04-.16-.53-.41-.57-.57-.2-.7.98-1.37.86-2.15l1-.29.86.57c.19-.45.93-.22,1-.29.05-.05-.08-.3,0-.43.37-.65,1.2-.39,1.86-.43.24-.39.82-.96,1-1.29.1-.19-.21-.68.72-.43.14.04.25.44.72.29-.04-.28.07-1.08,0-1.15-.05-.05-.3.08-.43,0-.55-.31-.45-.86-.43-1.43-.8.05-1.64-.07-2.44,0-.1,0-.18.28-.29.29-3.86.27-7.77-.1-10.75-2.44-.3-1.45-.69-1.04-1.58-1.29-.62-.17-.61-1.05-.72-1.29-.22-.49-1.07-1.35-1.15-1.72-.07-.34.07-.81,0-1.15-.07-.31-.83-1.05-.86-1.15-.05-.2-.04-.91,0-1.15.02-.11.27-.18.29-.29.06-.35-.08-.84,0-1.15.04-.14.46-.38.57-.57.08-.14-.05-.38,0-.43.07-.07,1.59-.05,1.86,0,.08.01.29.45.86.29.22-.06.46-.73.86-.57.15.37.68.26.72.29Z"/>
  <path class="cls-1" d="M142.89,193.47v.57c1.82.03,2.07,1.45,4.16,1.15.11-.02.17-.26.29-.29.48-.11,1.9.39,2.58.57.9.24,1.81-.24,2.87,0,.56.13,4.02-.13,4.58-.29.16-.04.41-.53.57-.57.99-.29,2.44-.29,3.44-.29.08,0,1.01-.64,1.15-.86h.29c.1.03.16.22.29.29.17.09.73.2.86.29.15.09.63.57.72.72.04.06-.04.2,0,.29.06.12.26.18.29.29.08.34.08,2.86,0,3.15-.02.07-.87.92-1,1-.49.29-.99.18-1.43.29-2.06.49-4.24,1.24-6.3.86-.8-.15-1.23.26-1.43.29-.9.11-6.24.18-6.88,0-.16-.04-.42-.53-.57-.57-.87-.24-1.67-.26-2.58,0-.7-1.27-.74-.88-1.72-1.15-.39-.11,0-.52-.86-.29-.43.12-.58-.51-1-.57v.57c-.55-.21-.99.37-1.29.29-.11-.03-.17-.25-.29-.29-1.21-.39-2.61-.72-3.73-1.43-.68-.44-1.07-1.28-.43-1.86-.02-.77.57-1.45.57-2.29.3-.54.66-.33,1-.43.39-.11.61-1.17,1.72-.86.16.04.41.53.57.57.18.05.4-.05.57,0,.21.06.66.8.86.86.43.12,2.02-.13,2.15,0Z"/>
</svg>